G04 Layer: TopLayer*
G04 EasyEDA v6.5.22, 2023-04-02 13:19:52*
G04 e11523a40a7546c49719b0b35a8351d0,15f4cc3622644fce95c1d8fbedb56722,10*
G04 Gerber Generator version 0.2*
G04 Scale: 100 percent, Rotated: No, Reflected: No *
G04 Dimensions in millimeters *
G04 leading zeros omitted , absolute positions ,4 integer and 5 decimal *
%FSLAX45Y45*%
%MOMM*%

%AMMACRO1*21,1,$1,$2,0,0,$3*%
%ADD10C,0.7500*%
%ADD11C,0.4000*%
%ADD12C,0.7000*%
%ADD13C,0.8000*%
%ADD14C,0.6000*%
%ADD15C,0.5000*%
%ADD16C,0.1999*%
%ADD17MACRO1,1.377X1.1325X0.0000*%
%ADD18R,1.3770X1.1325*%
%ADD19MACRO1,1.377X1.1325X-90.0000*%
%ADD20R,1.4000X1.2000*%
%ADD21R,1.3005X1.3995*%
%ADD22MACRO1,1.377X1.1325X90.0000*%
%ADD23R,2.1000X1.4000*%
%ADD24O,2.2500082X0.6299962*%
%ADD25R,1.3000X4.5000*%
%ADD26R,1.8000X3.9000*%
%ADD27R,1.3995X1.3005*%
%ADD28C,1.5240*%
%ADD29C,1.5748*%
%ADD30R,1.5748X1.5748*%
%ADD31C,0.6500*%
%ADD32C,0.0123*%

%LPD*%
D10*
X455269Y-1144978D02*
G01*
X-455040Y-1144978D01*
D11*
X353006Y-190500D02*
G01*
X569493Y-190500D01*
X570001Y-189992D01*
X-353060Y190500D02*
G01*
X-840486Y190500D01*
X-903986Y254000D01*
X-1089913Y254000D01*
X-1089913Y0D02*
G01*
X-910081Y0D01*
X-846581Y63500D01*
X-353060Y63500D01*
X-1089913Y-254000D02*
G01*
X-974089Y-254000D01*
X-783589Y-63500D01*
X-353060Y-63500D01*
D10*
X1296644Y-81069D02*
G01*
X1296644Y66499D01*
X1296644Y170134D01*
X1305283Y-598520D02*
G01*
X1305219Y-330598D01*
D12*
X958342Y-330454D02*
G01*
X958342Y-81026D01*
X1103376Y-81026D01*
X958291Y-330471D02*
G01*
X958291Y-26619D01*
X810005Y-26619D01*
X1103368Y170007D02*
G01*
X1099985Y166623D01*
X810011Y166623D01*
D11*
X810005Y166623D02*
G01*
X716534Y166623D01*
X486410Y-63500D01*
X353060Y-63500D01*
D12*
X105029Y-799998D02*
G01*
X96621Y-791590D01*
X96621Y-519998D01*
X-1156614Y-519988D02*
G01*
X-1280007Y-519988D01*
X-1343992Y-456003D01*
X-1343992Y-254000D01*
X-963371Y-519986D02*
G01*
X-546610Y-519986D01*
X-546607Y-519988D01*
X-826635Y529988D02*
G01*
X-826643Y529996D01*
X-1093368Y529996D01*
D11*
X-96520Y-500126D02*
G01*
X-96520Y-143255D01*
X-176529Y-63500D01*
X-353060Y-63500D01*
X958293Y-330474D02*
G01*
X958293Y-598520D01*
D13*
X-1063376Y989998D02*
G01*
X-1058405Y994968D01*
X-819998Y994968D01*
D12*
X-1093368Y529996D02*
G01*
X-1093368Y257375D01*
X-1089992Y254000D01*
D11*
X249936Y759968D02*
G01*
X249936Y400050D01*
X139954Y290068D01*
X139954Y130047D01*
X206502Y63500D01*
X353060Y63500D01*
D12*
X-1343913Y656081D02*
G01*
X-1256619Y743376D01*
X-1256619Y989998D01*
X-249936Y785113D02*
G01*
X-1214881Y785113D01*
X-1343913Y656081D01*
X-1343913Y254000D01*
D11*
X-353060Y63500D02*
G01*
X-163576Y63500D01*
X219963Y-320039D01*
X480060Y-320039D01*
X546607Y-386587D01*
X546607Y-519937D01*
D12*
X546607Y-519937D02*
G01*
X546607Y-893318D01*
X455168Y-984757D01*
X455168Y-1145031D01*
D10*
X1305270Y-330474D02*
G01*
X1296636Y-321835D01*
X1296636Y-80970D01*
D14*
X1220007Y-819983D02*
G01*
X1305280Y-734710D01*
X1305280Y-598525D01*
X1220007Y-1073983D02*
G01*
X958291Y-812266D01*
X958291Y-598525D01*
D11*
X-549986Y-359994D02*
G01*
X-549986Y-259989D01*
X-480496Y-190500D01*
X-353006Y-190500D01*
D15*
X-549960Y-359994D02*
G01*
X-549960Y-516618D01*
X-546595Y-519983D01*
X-353364Y-519988D02*
G01*
X-353364Y-736625D01*
X-329996Y-759993D01*
X-329996Y-759993D02*
G01*
X-289991Y-799998D01*
X-105029Y-799998D01*
X353313Y-519937D02*
G01*
X353313Y-856742D01*
X240029Y-970026D01*
X-359918Y-970026D01*
X-546607Y-783336D01*
X-546607Y-519937D01*
D16*
X-1227733Y-1301321D02*
G01*
X-1270308Y-1259794D01*
X-1270308Y-1259794D02*
G01*
X-1311480Y-1216875D01*
X-1311480Y-1216875D02*
G01*
X-1351202Y-1172612D01*
X-1351202Y-1172612D02*
G01*
X-1389431Y-1127052D01*
X-1389431Y-1127052D02*
G01*
X-1426124Y-1080247D01*
X-1426124Y-1080247D02*
G01*
X-1461242Y-1032248D01*
X-1461242Y-1032248D02*
G01*
X-1494745Y-983109D01*
X-1494745Y-983109D02*
G01*
X-1526596Y-932883D01*
X-1526596Y-932883D02*
G01*
X-1556760Y-881626D01*
X-1556760Y-881626D02*
G01*
X-1585203Y-829395D01*
X-1585203Y-829395D02*
G01*
X-1611895Y-776247D01*
X-1611895Y-776247D02*
G01*
X-1636805Y-722242D01*
X-1636805Y-722242D02*
G01*
X-1659907Y-667438D01*
X-1659907Y-667438D02*
G01*
X-1681174Y-611897D01*
X-1681174Y-611897D02*
G01*
X-1700584Y-555680D01*
X-1700584Y-555680D02*
G01*
X-1718114Y-498848D01*
X-1718114Y-498848D02*
G01*
X-1733746Y-441465D01*
X-1733746Y-441465D02*
G01*
X-1747461Y-383595D01*
X-1747461Y-383595D02*
G01*
X-1759246Y-325300D01*
X-1759246Y-325300D02*
G01*
X-1769086Y-266646D01*
X-1769086Y-266646D02*
G01*
X-1776971Y-207698D01*
X-1776971Y-207698D02*
G01*
X-1782893Y-148520D01*
X-1782893Y-148520D02*
G01*
X-1786845Y-89177D01*
X-1786845Y-89177D02*
G01*
X-1788821Y-29736D01*
X-1788821Y-29736D02*
G01*
X-1788821Y29736D01*
X-1788821Y29736D02*
G01*
X-1786845Y89177D01*
X-1786845Y89177D02*
G01*
X-1782893Y148520D01*
X-1782893Y148520D02*
G01*
X-1776971Y207698D01*
X-1776971Y207698D02*
G01*
X-1769086Y266646D01*
X-1769086Y266646D02*
G01*
X-1759246Y325300D01*
X-1759246Y325300D02*
G01*
X-1747461Y383595D01*
X-1747461Y383595D02*
G01*
X-1733746Y441465D01*
X-1733746Y441465D02*
G01*
X-1718114Y498848D01*
X-1718114Y498848D02*
G01*
X-1700584Y555680D01*
X-1700584Y555680D02*
G01*
X-1681174Y611897D01*
X-1681174Y611897D02*
G01*
X-1659907Y667438D01*
X-1659907Y667438D02*
G01*
X-1636805Y722242D01*
X-1636805Y722242D02*
G01*
X-1611895Y776247D01*
X-1611895Y776247D02*
G01*
X-1585203Y829395D01*
X-1585203Y829395D02*
G01*
X-1556760Y881626D01*
X-1556760Y881626D02*
G01*
X-1526596Y932883D01*
X-1526596Y932883D02*
G01*
X-1494745Y983109D01*
X-1494745Y983109D02*
G01*
X-1461242Y1032248D01*
X-1461242Y1032248D02*
G01*
X-1426124Y1080247D01*
X-1426124Y1080247D02*
G01*
X-1389431Y1127052D01*
X-1389431Y1127052D02*
G01*
X-1351202Y1172612D01*
X-1351202Y1172612D02*
G01*
X-1311480Y1216875D01*
X-1311480Y1216875D02*
G01*
X-1270308Y1259794D01*
X-1270308Y1259794D02*
G01*
X-1227733Y1301321D01*
X-1227733Y1301321D02*
G01*
X-1183801Y1341410D01*
X-1183801Y1341410D02*
G01*
X-1138561Y1380016D01*
X-1138561Y1380016D02*
G01*
X-1092062Y1417097D01*
X-1092062Y1417097D02*
G01*
X-1044357Y1452613D01*
X-1044357Y1452613D02*
G01*
X-995498Y1486523D01*
X-995498Y1486523D02*
G01*
X-945538Y1518790D01*
X-945538Y1518790D02*
G01*
X-894534Y1549379D01*
X-894534Y1549379D02*
G01*
X-842541Y1578255D01*
X-842541Y1578255D02*
G01*
X-789617Y1605388D01*
X-789617Y1605388D02*
G01*
X-735820Y1630746D01*
X-735820Y1630746D02*
G01*
X-681211Y1654303D01*
X-681211Y1654303D02*
G01*
X-625848Y1676031D01*
X-625848Y1676031D02*
G01*
X-569794Y1695907D01*
X-569794Y1695907D02*
G01*
X-513110Y1713909D01*
X-513110Y1713909D02*
G01*
X-455859Y1730017D01*
X-455859Y1730017D02*
G01*
X-398105Y1744213D01*
X-398105Y1744213D02*
G01*
X-339910Y1756481D01*
X-339910Y1756481D02*
G01*
X-281340Y1766809D01*
X-281340Y1766809D02*
G01*
X-222459Y1775184D01*
X-222459Y1775184D02*
G01*
X-163332Y1781597D01*
X-163332Y1781597D02*
G01*
X-104025Y1786042D01*
X-104025Y1786042D02*
G01*
X-44602Y1788512D01*
X-44602Y1788512D02*
G01*
X14868Y1789007D01*
X14868Y1789007D02*
G01*
X74324Y1787524D01*
X74324Y1787524D02*
G01*
X133697Y1784066D01*
X133697Y1784066D02*
G01*
X192922Y1778636D01*
X192922Y1778636D02*
G01*
X251934Y1771241D01*
X251934Y1771241D02*
G01*
X310668Y1761889D01*
X310668Y1761889D02*
G01*
X369058Y1750589D01*
X369058Y1750589D02*
G01*
X427041Y1737355D01*
X427041Y1737355D02*
G01*
X484552Y1722201D01*
X484552Y1722201D02*
G01*
X541527Y1705143D01*
X541527Y1705143D02*
G01*
X597904Y1686202D01*
X597904Y1686202D02*
G01*
X653620Y1665397D01*
X653620Y1665397D02*
G01*
X708614Y1642751D01*
X708614Y1642751D02*
G01*
X762824Y1618291D01*
X762824Y1618291D02*
G01*
X816192Y1592042D01*
X816192Y1592042D02*
G01*
X868657Y1564033D01*
X868657Y1564033D02*
G01*
X920163Y1534296D01*
X920163Y1534296D02*
G01*
X970652Y1502864D01*
X970652Y1502864D02*
G01*
X1020068Y1469770D01*
X1020068Y1469770D02*
G01*
X1068357Y1435053D01*
X1068357Y1435053D02*
G01*
X1115466Y1398750D01*
X1115466Y1398750D02*
G01*
X1161341Y1360901D01*
X1161341Y1360901D02*
G01*
X1205934Y1321548D01*
X1205934Y1321548D02*
G01*
X1249193Y1280735D01*
X1249193Y1280735D02*
G01*
X1291072Y1238506D01*
X1291072Y1238506D02*
G01*
X1331525Y1194909D01*
X1331525Y1194909D02*
G01*
X1370506Y1149991D01*
X1370506Y1149991D02*
G01*
X1407972Y1103802D01*
X1407972Y1103802D02*
G01*
X1443883Y1056394D01*
X1443883Y1056394D02*
G01*
X1478198Y1007818D01*
X1478198Y1007818D02*
G01*
X1510879Y958128D01*
X1510879Y958128D02*
G01*
X1541891Y907380D01*
X1541891Y907380D02*
G01*
X1571199Y855629D01*
X1571199Y855629D02*
G01*
X1598770Y802932D01*
X1598770Y802932D02*
G01*
X1624575Y749348D01*
X1624575Y749348D02*
G01*
X1648584Y694936D01*
X1648584Y694936D02*
G01*
X1670772Y639756D01*
X1670772Y639756D02*
G01*
X1691113Y583869D01*
X1691113Y583869D02*
G01*
X1709585Y527337D01*
X1709585Y527337D02*
G01*
X1726168Y470222D01*
X1726168Y470222D02*
G01*
X1740844Y412587D01*
X1740844Y412587D02*
G01*
X1753596Y354497D01*
X1753596Y354497D02*
G01*
X1764409Y296014D01*
X1764409Y296014D02*
G01*
X1773274Y237205D01*
X1773274Y237205D02*
G01*
X1780178Y178133D01*
X1780178Y178133D02*
G01*
X1785115Y118865D01*
X1785115Y118865D02*
G01*
X1788080Y59465D01*
X1788080Y59465D02*
G01*
X1789068Y0D01*
X1789068Y0D02*
G01*
X1788080Y-59465D01*
X1788080Y-59465D02*
G01*
X1785115Y-118865D01*
X1785115Y-118865D02*
G01*
X1780178Y-178133D01*
X1780178Y-178133D02*
G01*
X1773274Y-237205D01*
X1773274Y-237205D02*
G01*
X1764409Y-296014D01*
X1764409Y-296014D02*
G01*
X1753596Y-354497D01*
X1753596Y-354497D02*
G01*
X1740844Y-412587D01*
X1740844Y-412587D02*
G01*
X1726168Y-470222D01*
X1726168Y-470222D02*
G01*
X1709585Y-527337D01*
X1709585Y-527337D02*
G01*
X1691113Y-583869D01*
X1691113Y-583869D02*
G01*
X1670772Y-639756D01*
X1670772Y-639756D02*
G01*
X1648584Y-694936D01*
X1648584Y-694936D02*
G01*
X1624575Y-749348D01*
X1624575Y-749348D02*
G01*
X1598770Y-802932D01*
X1598770Y-802932D02*
G01*
X1571199Y-855629D01*
X1571199Y-855629D02*
G01*
X1541891Y-907380D01*
X1541891Y-907380D02*
G01*
X1510879Y-958128D01*
X1510879Y-958128D02*
G01*
X1478198Y-1007818D01*
X1478198Y-1007818D02*
G01*
X1443883Y-1056394D01*
X1443883Y-1056394D02*
G01*
X1407972Y-1103802D01*
X1407972Y-1103802D02*
G01*
X1370506Y-1149991D01*
X1370506Y-1149991D02*
G01*
X1331525Y-1194909D01*
X1331525Y-1194909D02*
G01*
X1291072Y-1238506D01*
X1291072Y-1238506D02*
G01*
X1249193Y-1280735D01*
X1249193Y-1280735D02*
G01*
X1205934Y-1321548D01*
X1205934Y-1321548D02*
G01*
X1161341Y-1360901D01*
X1161341Y-1360901D02*
G01*
X1115466Y-1398750D01*
X1115466Y-1398750D02*
G01*
X1068357Y-1435053D01*
X1068357Y-1435053D02*
G01*
X1020068Y-1469770D01*
X1020068Y-1469770D02*
G01*
X970652Y-1502864D01*
X970652Y-1502864D02*
G01*
X920163Y-1534296D01*
X920163Y-1534296D02*
G01*
X868657Y-1564033D01*
X868657Y-1564033D02*
G01*
X816192Y-1592042D01*
X816192Y-1592042D02*
G01*
X762824Y-1618291D01*
X762824Y-1618291D02*
G01*
X708614Y-1642751D01*
X708614Y-1642751D02*
G01*
X653620Y-1665397D01*
X653620Y-1665397D02*
G01*
X597904Y-1686202D01*
X597904Y-1686202D02*
G01*
X541527Y-1705143D01*
X541527Y-1705143D02*
G01*
X484552Y-1722201D01*
X484552Y-1722201D02*
G01*
X427041Y-1737355D01*
X427041Y-1737355D02*
G01*
X369058Y-1750589D01*
X369058Y-1750589D02*
G01*
X310668Y-1761889D01*
X310668Y-1761889D02*
G01*
X251934Y-1771241D01*
X251934Y-1771241D02*
G01*
X192922Y-1778636D01*
X192922Y-1778636D02*
G01*
X133697Y-1784066D01*
X133697Y-1784066D02*
G01*
X74324Y-1787524D01*
X74324Y-1787524D02*
G01*
X14868Y-1789007D01*
X14868Y-1789007D02*
G01*
X-44602Y-1788512D01*
X-44602Y-1788512D02*
G01*
X-104025Y-1786042D01*
X-104025Y-1786042D02*
G01*
X-163332Y-1781597D01*
X-163332Y-1781597D02*
G01*
X-222459Y-1775184D01*
X-222459Y-1775184D02*
G01*
X-281340Y-1766809D01*
X-281340Y-1766809D02*
G01*
X-339910Y-1756481D01*
X-339910Y-1756481D02*
G01*
X-398105Y-1744213D01*
X-398105Y-1744213D02*
G01*
X-455859Y-1730017D01*
X-455859Y-1730017D02*
G01*
X-513110Y-1713909D01*
X-513110Y-1713909D02*
G01*
X-569794Y-1695907D01*
X-569794Y-1695907D02*
G01*
X-625848Y-1676031D01*
X-625848Y-1676031D02*
G01*
X-681211Y-1654303D01*
X-681211Y-1654303D02*
G01*
X-735820Y-1630746D01*
X-735820Y-1630746D02*
G01*
X-789617Y-1605388D01*
X-789617Y-1605388D02*
G01*
X-842541Y-1578255D01*
X-842541Y-1578255D02*
G01*
X-894534Y-1549379D01*
X-894534Y-1549379D02*
G01*
X-945538Y-1518790D01*
X-945538Y-1518790D02*
G01*
X-995498Y-1486523D01*
X-995498Y-1486523D02*
G01*
X-1044357Y-1452613D01*
X-1044357Y-1452613D02*
G01*
X-1092062Y-1417097D01*
X-1092062Y-1417097D02*
G01*
X-1138561Y-1380016D01*
X-1138561Y-1380016D02*
G01*
X-1183801Y-1341410D01*
X-1183801Y-1341410D02*
G01*
X-1227733Y-1301321D01*
X-580577Y-1240727D02*
G01*
X-574336Y-1244649D01*
X-574336Y-1244649D02*
G01*
X-567378Y-1247084D01*
X-567378Y-1247084D02*
G01*
X-560053Y-1247909D01*
X-560053Y-1247909D02*
G01*
X-350053Y-1247909D01*
X-350053Y-1247909D02*
G01*
X-342728Y-1247084D01*
X-342728Y-1247084D02*
G01*
X-335771Y-1244649D01*
X-335771Y-1244649D02*
G01*
X-329529Y-1240727D01*
X-329529Y-1240727D02*
G01*
X-324317Y-1235515D01*
X-324317Y-1235515D02*
G01*
X-320395Y-1229273D01*
X-320395Y-1229273D02*
G01*
X-317960Y-1222316D01*
X-317960Y-1222316D02*
G01*
X-317181Y-1215397D01*
X-317181Y-1215397D02*
G01*
X317384Y-1215397D01*
X317384Y-1215397D02*
G01*
X318163Y-1222316D01*
X318163Y-1222316D02*
G01*
X320598Y-1229273D01*
X320598Y-1229273D02*
G01*
X324520Y-1235515D01*
X324520Y-1235515D02*
G01*
X329732Y-1240727D01*
X329732Y-1240727D02*
G01*
X335974Y-1244649D01*
X335974Y-1244649D02*
G01*
X342932Y-1247084D01*
X342932Y-1247084D02*
G01*
X350257Y-1247909D01*
X350257Y-1247909D02*
G01*
X560256Y-1247909D01*
X560256Y-1247909D02*
G01*
X567581Y-1247084D01*
X567581Y-1247084D02*
G01*
X574539Y-1244649D01*
X574539Y-1244649D02*
G01*
X580780Y-1240727D01*
X580780Y-1240727D02*
G01*
X585993Y-1235515D01*
X585993Y-1235515D02*
G01*
X589915Y-1229273D01*
X589915Y-1229273D02*
G01*
X592349Y-1222316D01*
X592349Y-1222316D02*
G01*
X593175Y-1214991D01*
X593175Y-1214991D02*
G01*
X593175Y-1074986D01*
X593175Y-1074986D02*
G01*
X592349Y-1067661D01*
X592349Y-1067661D02*
G01*
X589915Y-1060703D01*
X589915Y-1060703D02*
G01*
X585993Y-1054462D01*
X585993Y-1054462D02*
G01*
X580780Y-1049249D01*
X580780Y-1049249D02*
G01*
X574539Y-1045327D01*
X574539Y-1045327D02*
G01*
X567581Y-1042893D01*
X567581Y-1042893D02*
G01*
X560256Y-1042068D01*
X560256Y-1042068D02*
G01*
X523086Y-1042068D01*
X523086Y-1042068D02*
G01*
X523086Y-1012890D01*
X523086Y-1012890D02*
G01*
X594633Y-941343D01*
X594633Y-941343D02*
G01*
X601883Y-932783D01*
X601883Y-932783D02*
G01*
X607625Y-923147D01*
X607625Y-923147D02*
G01*
X611702Y-912697D01*
X611702Y-912697D02*
G01*
X614004Y-901719D01*
X614004Y-901719D02*
G01*
X614526Y-893318D01*
X614526Y-893318D02*
G01*
X614526Y-619560D01*
X614526Y-619560D02*
G01*
X617535Y-618508D01*
X617535Y-618508D02*
G01*
X623776Y-614586D01*
X623776Y-614586D02*
G01*
X628989Y-609373D01*
X628989Y-609373D02*
G01*
X632911Y-603132D01*
X632911Y-603132D02*
G01*
X635345Y-596174D01*
X635345Y-596174D02*
G01*
X636170Y-588849D01*
X636170Y-588849D02*
G01*
X636170Y-451148D01*
X636170Y-451148D02*
G01*
X635345Y-443823D01*
X635345Y-443823D02*
G01*
X632911Y-436865D01*
X632911Y-436865D02*
G01*
X628989Y-430624D01*
X628989Y-430624D02*
G01*
X623776Y-425411D01*
X623776Y-425411D02*
G01*
X617535Y-421489D01*
X617535Y-421489D02*
G01*
X610577Y-419055D01*
X610577Y-419055D02*
G01*
X603252Y-418230D01*
X603252Y-418230D02*
G01*
X599526Y-418230D01*
X599526Y-418230D02*
G01*
X599526Y-386587D01*
X599526Y-386587D02*
G01*
X599469Y-384144D01*
X599469Y-384144D02*
G01*
X598120Y-374472D01*
X598120Y-374472D02*
G01*
X595017Y-365213D01*
X595017Y-365213D02*
G01*
X590265Y-356681D01*
X590265Y-356681D02*
G01*
X584027Y-349168D01*
X584027Y-349168D02*
G01*
X517479Y-282620D01*
X517479Y-282620D02*
G01*
X515710Y-280932D01*
X515710Y-280932D02*
G01*
X507917Y-275047D01*
X507917Y-275047D02*
G01*
X499176Y-270695D01*
X499176Y-270695D02*
G01*
X489783Y-268022D01*
X489783Y-268022D02*
G01*
X480060Y-267121D01*
X480060Y-267121D02*
G01*
X241883Y-267121D01*
X241883Y-267121D02*
G01*
X-126156Y100919D01*
X-126156Y100919D02*
G01*
X-127925Y102607D01*
X-127925Y102607D02*
G01*
X-135718Y108492D01*
X-135718Y108492D02*
G01*
X-144459Y112844D01*
X-144459Y112844D02*
G01*
X-153852Y115517D01*
X-153852Y115517D02*
G01*
X-163576Y116418D01*
X-163576Y116418D02*
G01*
X-235691Y116418D01*
X-235691Y116418D02*
G01*
X-239789Y119287D01*
X-239789Y119287D02*
G01*
X-249966Y124033D01*
X-249966Y124033D02*
G01*
X-260812Y126939D01*
X-260812Y126939D02*
G01*
X-260812Y127060D01*
X-260812Y127060D02*
G01*
X-249966Y129966D01*
X-249966Y129966D02*
G01*
X-239789Y134712D01*
X-239789Y134712D02*
G01*
X-230591Y141152D01*
X-230591Y141152D02*
G01*
X-222651Y149092D01*
X-222651Y149092D02*
G01*
X-216210Y158291D01*
X-216210Y158291D02*
G01*
X-211465Y168467D01*
X-211465Y168467D02*
G01*
X-208558Y179313D01*
X-208558Y179313D02*
G01*
X-207580Y190500D01*
X-207580Y190500D02*
G01*
X-208558Y201686D01*
X-208558Y201686D02*
G01*
X-211465Y212532D01*
X-211465Y212532D02*
G01*
X-216210Y222708D01*
X-216210Y222708D02*
G01*
X-222651Y231907D01*
X-222651Y231907D02*
G01*
X-230591Y239847D01*
X-230591Y239847D02*
G01*
X-239789Y246287D01*
X-239789Y246287D02*
G01*
X-249966Y251033D01*
X-249966Y251033D02*
G01*
X-260812Y253939D01*
X-260812Y253939D02*
G01*
X-271998Y254918D01*
X-271998Y254918D02*
G01*
X-433999Y254918D01*
X-433999Y254918D02*
G01*
X-445185Y253939D01*
X-445185Y253939D02*
G01*
X-456031Y251033D01*
X-456031Y251033D02*
G01*
X-466208Y246287D01*
X-466208Y246287D02*
G01*
X-470306Y243418D01*
X-470306Y243418D02*
G01*
X-818566Y243418D01*
X-818566Y243418D02*
G01*
X-866566Y291419D01*
X-866566Y291419D02*
G01*
X-868335Y293107D01*
X-868335Y293107D02*
G01*
X-876128Y298992D01*
X-876128Y298992D02*
G01*
X-884869Y303344D01*
X-884869Y303344D02*
G01*
X-894262Y306017D01*
X-894262Y306017D02*
G01*
X-903986Y306918D01*
X-903986Y306918D02*
G01*
X-991734Y306918D01*
X-991734Y306918D02*
G01*
X-992079Y307661D01*
X-992079Y307661D02*
G01*
X-1000104Y320233D01*
X-1000104Y320233D02*
G01*
X-1009735Y331624D01*
X-1009735Y331624D02*
G01*
X-1020797Y341629D01*
X-1020797Y341629D02*
G01*
X-1025450Y344823D01*
X-1025450Y344823D02*
G01*
X-1025450Y430444D01*
X-1025450Y430444D02*
G01*
X-1022461Y431489D01*
X-1022461Y431489D02*
G01*
X-1016219Y435411D01*
X-1016219Y435411D02*
G01*
X-1011007Y440624D01*
X-1011007Y440624D02*
G01*
X-1007085Y446865D01*
X-1007085Y446865D02*
G01*
X-1004651Y453823D01*
X-1004651Y453823D02*
G01*
X-1003825Y462078D01*
X-1003825Y462078D02*
G01*
X-916170Y462078D01*
X-916170Y462078D02*
G01*
X-915345Y453823D01*
X-915345Y453823D02*
G01*
X-912910Y446865D01*
X-912910Y446865D02*
G01*
X-908988Y440624D01*
X-908988Y440624D02*
G01*
X-903776Y435411D01*
X-903776Y435411D02*
G01*
X-897534Y431489D01*
X-897534Y431489D02*
G01*
X-890577Y429055D01*
X-890577Y429055D02*
G01*
X-883251Y428230D01*
X-883251Y428230D02*
G01*
X-769998Y428230D01*
X-769998Y428230D02*
G01*
X-762673Y429055D01*
X-762673Y429055D02*
G01*
X-755715Y431489D01*
X-755715Y431489D02*
G01*
X-749474Y435411D01*
X-749474Y435411D02*
G01*
X-744261Y440624D01*
X-744261Y440624D02*
G01*
X-740339Y446865D01*
X-740339Y446865D02*
G01*
X-737905Y453823D01*
X-737905Y453823D02*
G01*
X-737080Y461148D01*
X-737080Y461148D02*
G01*
X-737080Y598849D01*
X-737080Y598849D02*
G01*
X-737905Y606174D01*
X-737905Y606174D02*
G01*
X-740339Y613132D01*
X-740339Y613132D02*
G01*
X-744261Y619373D01*
X-744261Y619373D02*
G01*
X-749474Y624586D01*
X-749474Y624586D02*
G01*
X-755715Y628508D01*
X-755715Y628508D02*
G01*
X-762673Y630942D01*
X-762673Y630942D02*
G01*
X-769998Y631767D01*
X-769998Y631767D02*
G01*
X-883251Y631767D01*
X-883251Y631767D02*
G01*
X-890577Y630942D01*
X-890577Y630942D02*
G01*
X-897534Y628508D01*
X-897534Y628508D02*
G01*
X-903776Y624586D01*
X-903776Y624586D02*
G01*
X-908988Y619373D01*
X-908988Y619373D02*
G01*
X-912910Y613132D01*
X-912910Y613132D02*
G01*
X-915345Y606174D01*
X-915345Y606174D02*
G01*
X-916170Y597914D01*
X-916170Y597914D02*
G01*
X-1003825Y597914D01*
X-1003825Y597914D02*
G01*
X-1004651Y606174D01*
X-1004651Y606174D02*
G01*
X-1007085Y613132D01*
X-1007085Y613132D02*
G01*
X-1011007Y619373D01*
X-1011007Y619373D02*
G01*
X-1016219Y624586D01*
X-1016219Y624586D02*
G01*
X-1022461Y628508D01*
X-1022461Y628508D02*
G01*
X-1029419Y630942D01*
X-1029419Y630942D02*
G01*
X-1036744Y631767D01*
X-1036744Y631767D02*
G01*
X-1149997Y631767D01*
X-1149997Y631767D02*
G01*
X-1157322Y630942D01*
X-1157322Y630942D02*
G01*
X-1164280Y628508D01*
X-1164280Y628508D02*
G01*
X-1170521Y624586D01*
X-1170521Y624586D02*
G01*
X-1175734Y619373D01*
X-1175734Y619373D02*
G01*
X-1179656Y613132D01*
X-1179656Y613132D02*
G01*
X-1182090Y606174D01*
X-1182090Y606174D02*
G01*
X-1182916Y598849D01*
X-1182916Y598849D02*
G01*
X-1182916Y461148D01*
X-1182916Y461148D02*
G01*
X-1182090Y453823D01*
X-1182090Y453823D02*
G01*
X-1179656Y446865D01*
X-1179656Y446865D02*
G01*
X-1175734Y440624D01*
X-1175734Y440624D02*
G01*
X-1170521Y435411D01*
X-1170521Y435411D02*
G01*
X-1164280Y431489D01*
X-1164280Y431489D02*
G01*
X-1161286Y430442D01*
X-1161286Y430442D02*
G01*
X-1161286Y339740D01*
X-1161286Y339740D02*
G01*
X-1170260Y331624D01*
X-1170260Y331624D02*
G01*
X-1179890Y320233D01*
X-1179890Y320233D02*
G01*
X-1187916Y307661D01*
X-1187916Y307661D02*
G01*
X-1194195Y294130D01*
X-1194195Y294130D02*
G01*
X-1198614Y279884D01*
X-1198614Y279884D02*
G01*
X-1201095Y265176D01*
X-1201095Y265176D02*
G01*
X-1201593Y250268D01*
X-1201593Y250268D02*
G01*
X-1200100Y235428D01*
X-1200100Y235428D02*
G01*
X-1196643Y220918D01*
X-1196643Y220918D02*
G01*
X-1191282Y206999D01*
X-1191282Y206999D02*
G01*
X-1184113Y193918D01*
X-1184113Y193918D02*
G01*
X-1175266Y181910D01*
X-1175266Y181910D02*
G01*
X-1164896Y171188D01*
X-1164896Y171188D02*
G01*
X-1153190Y161944D01*
X-1153190Y161944D02*
G01*
X-1140356Y154342D01*
X-1140356Y154342D02*
G01*
X-1126624Y148519D01*
X-1126624Y148519D02*
G01*
X-1112238Y144579D01*
X-1112238Y144579D02*
G01*
X-1097455Y142591D01*
X-1097455Y142591D02*
G01*
X-1082539Y142591D01*
X-1082539Y142591D02*
G01*
X-1067757Y144579D01*
X-1067757Y144579D02*
G01*
X-1053371Y148519D01*
X-1053371Y148519D02*
G01*
X-1039638Y154342D01*
X-1039638Y154342D02*
G01*
X-1026805Y161944D01*
X-1026805Y161944D02*
G01*
X-1015099Y171188D01*
X-1015099Y171188D02*
G01*
X-1004729Y181910D01*
X-1004729Y181910D02*
G01*
X-995881Y193918D01*
X-995881Y193918D02*
G01*
X-991956Y201081D01*
X-991956Y201081D02*
G01*
X-925905Y201081D01*
X-925905Y201081D02*
G01*
X-877905Y153080D01*
X-877905Y153080D02*
G01*
X-876136Y151392D01*
X-876136Y151392D02*
G01*
X-868343Y145507D01*
X-868343Y145507D02*
G01*
X-859602Y141155D01*
X-859602Y141155D02*
G01*
X-850209Y138482D01*
X-850209Y138482D02*
G01*
X-840486Y137581D01*
X-840486Y137581D02*
G01*
X-470306Y137581D01*
X-470306Y137581D02*
G01*
X-466208Y134712D01*
X-466208Y134712D02*
G01*
X-456031Y129966D01*
X-456031Y129966D02*
G01*
X-445185Y127060D01*
X-445185Y127060D02*
G01*
X-445185Y126939D01*
X-445185Y126939D02*
G01*
X-456031Y124033D01*
X-456031Y124033D02*
G01*
X-466208Y119287D01*
X-466208Y119287D02*
G01*
X-470306Y116418D01*
X-470306Y116418D02*
G01*
X-846581Y116418D01*
X-846581Y116418D02*
G01*
X-849025Y116361D01*
X-849025Y116361D02*
G01*
X-858697Y115012D01*
X-858697Y115012D02*
G01*
X-867956Y111909D01*
X-867956Y111909D02*
G01*
X-876488Y107157D01*
X-876488Y107157D02*
G01*
X-884001Y100919D01*
X-884001Y100919D02*
G01*
X-932001Y52918D01*
X-932001Y52918D02*
G01*
X-991734Y52918D01*
X-991734Y52918D02*
G01*
X-992079Y53661D01*
X-992079Y53661D02*
G01*
X-1000104Y66233D01*
X-1000104Y66233D02*
G01*
X-1009735Y77624D01*
X-1009735Y77624D02*
G01*
X-1020797Y87629D01*
X-1020797Y87629D02*
G01*
X-1033094Y96071D01*
X-1033094Y96071D02*
G01*
X-1046407Y102798D01*
X-1046407Y102798D02*
G01*
X-1060498Y107691D01*
X-1060498Y107691D02*
G01*
X-1075115Y110662D01*
X-1075115Y110662D02*
G01*
X-1089997Y111658D01*
X-1089997Y111658D02*
G01*
X-1104880Y110662D01*
X-1104880Y110662D02*
G01*
X-1119497Y107691D01*
X-1119497Y107691D02*
G01*
X-1133588Y102798D01*
X-1133588Y102798D02*
G01*
X-1146900Y96071D01*
X-1146900Y96071D02*
G01*
X-1159198Y87629D01*
X-1159198Y87629D02*
G01*
X-1170260Y77624D01*
X-1170260Y77624D02*
G01*
X-1179890Y66233D01*
X-1179890Y66233D02*
G01*
X-1187916Y53661D01*
X-1187916Y53661D02*
G01*
X-1194195Y40130D01*
X-1194195Y40130D02*
G01*
X-1198614Y25884D01*
X-1198614Y25884D02*
G01*
X-1201095Y11176D01*
X-1201095Y11176D02*
G01*
X-1201593Y-3731D01*
X-1201593Y-3731D02*
G01*
X-1200100Y-18571D01*
X-1200100Y-18571D02*
G01*
X-1196643Y-33081D01*
X-1196643Y-33081D02*
G01*
X-1191282Y-47000D01*
X-1191282Y-47000D02*
G01*
X-1184113Y-60081D01*
X-1184113Y-60081D02*
G01*
X-1175266Y-72089D01*
X-1175266Y-72089D02*
G01*
X-1164896Y-82811D01*
X-1164896Y-82811D02*
G01*
X-1153190Y-92055D01*
X-1153190Y-92055D02*
G01*
X-1140356Y-99657D01*
X-1140356Y-99657D02*
G01*
X-1126624Y-105480D01*
X-1126624Y-105480D02*
G01*
X-1112238Y-109420D01*
X-1112238Y-109420D02*
G01*
X-1097455Y-111408D01*
X-1097455Y-111408D02*
G01*
X-1082539Y-111408D01*
X-1082539Y-111408D02*
G01*
X-1067757Y-109420D01*
X-1067757Y-109420D02*
G01*
X-1053371Y-105480D01*
X-1053371Y-105480D02*
G01*
X-1039638Y-99657D01*
X-1039638Y-99657D02*
G01*
X-1026805Y-92055D01*
X-1026805Y-92055D02*
G01*
X-1015099Y-82811D01*
X-1015099Y-82811D02*
G01*
X-1004729Y-72089D01*
X-1004729Y-72089D02*
G01*
X-995881Y-60081D01*
X-995881Y-60081D02*
G01*
X-991956Y-52918D01*
X-991956Y-52918D02*
G01*
X-910081Y-52918D01*
X-910081Y-52918D02*
G01*
X-907638Y-52861D01*
X-907638Y-52861D02*
G01*
X-897966Y-51512D01*
X-897966Y-51512D02*
G01*
X-888707Y-48409D01*
X-888707Y-48409D02*
G01*
X-880175Y-43657D01*
X-880175Y-43657D02*
G01*
X-872662Y-37419D01*
X-872662Y-37419D02*
G01*
X-824662Y10581D01*
X-824662Y10581D02*
G01*
X-470306Y10581D01*
X-470306Y10581D02*
G01*
X-466208Y7712D01*
X-466208Y7712D02*
G01*
X-456031Y2966D01*
X-456031Y2966D02*
G01*
X-445185Y60D01*
X-445185Y60D02*
G01*
X-445185Y-60D01*
X-445185Y-60D02*
G01*
X-456031Y-2966D01*
X-456031Y-2966D02*
G01*
X-466208Y-7712D01*
X-466208Y-7712D02*
G01*
X-470306Y-10581D01*
X-470306Y-10581D02*
G01*
X-783589Y-10581D01*
X-783589Y-10581D02*
G01*
X-786033Y-10638D01*
X-786033Y-10638D02*
G01*
X-795705Y-11987D01*
X-795705Y-11987D02*
G01*
X-804964Y-15090D01*
X-804964Y-15090D02*
G01*
X-813496Y-19842D01*
X-813496Y-19842D02*
G01*
X-821009Y-26080D01*
X-821009Y-26080D02*
G01*
X-993319Y-198391D01*
X-993319Y-198391D02*
G01*
X-1000104Y-187761D01*
X-1000104Y-187761D02*
G01*
X-1009735Y-176370D01*
X-1009735Y-176370D02*
G01*
X-1020797Y-166365D01*
X-1020797Y-166365D02*
G01*
X-1033094Y-157923D01*
X-1033094Y-157923D02*
G01*
X-1046407Y-151196D01*
X-1046407Y-151196D02*
G01*
X-1060498Y-146303D01*
X-1060498Y-146303D02*
G01*
X-1075115Y-143332D01*
X-1075115Y-143332D02*
G01*
X-1089997Y-142336D01*
X-1089997Y-142336D02*
G01*
X-1104880Y-143332D01*
X-1104880Y-143332D02*
G01*
X-1119497Y-146303D01*
X-1119497Y-146303D02*
G01*
X-1133588Y-151196D01*
X-1133588Y-151196D02*
G01*
X-1146900Y-157923D01*
X-1146900Y-157923D02*
G01*
X-1159198Y-166365D01*
X-1159198Y-166365D02*
G01*
X-1170260Y-176370D01*
X-1170260Y-176370D02*
G01*
X-1179890Y-187761D01*
X-1179890Y-187761D02*
G01*
X-1187916Y-200333D01*
X-1187916Y-200333D02*
G01*
X-1194195Y-213863D01*
X-1194195Y-213863D02*
G01*
X-1198614Y-228110D01*
X-1198614Y-228110D02*
G01*
X-1201095Y-242818D01*
X-1201095Y-242818D02*
G01*
X-1201593Y-257725D01*
X-1201593Y-257725D02*
G01*
X-1200100Y-272566D01*
X-1200100Y-272566D02*
G01*
X-1196643Y-287076D01*
X-1196643Y-287076D02*
G01*
X-1191282Y-300995D01*
X-1191282Y-300995D02*
G01*
X-1184113Y-314076D01*
X-1184113Y-314076D02*
G01*
X-1175266Y-326084D01*
X-1175266Y-326084D02*
G01*
X-1164896Y-336806D01*
X-1164896Y-336806D02*
G01*
X-1153190Y-346050D01*
X-1153190Y-346050D02*
G01*
X-1140356Y-353652D01*
X-1140356Y-353652D02*
G01*
X-1126624Y-359475D01*
X-1126624Y-359475D02*
G01*
X-1112238Y-363415D01*
X-1112238Y-363415D02*
G01*
X-1097455Y-365403D01*
X-1097455Y-365403D02*
G01*
X-1082539Y-365403D01*
X-1082539Y-365403D02*
G01*
X-1067757Y-363415D01*
X-1067757Y-363415D02*
G01*
X-1053371Y-359475D01*
X-1053371Y-359475D02*
G01*
X-1039638Y-353652D01*
X-1039638Y-353652D02*
G01*
X-1026805Y-346050D01*
X-1026805Y-346050D02*
G01*
X-1015099Y-336806D01*
X-1015099Y-336806D02*
G01*
X-1004729Y-326084D01*
X-1004729Y-326084D02*
G01*
X-995881Y-314076D01*
X-995881Y-314076D02*
G01*
X-991959Y-306918D01*
X-991959Y-306918D02*
G01*
X-971646Y-306861D01*
X-971646Y-306861D02*
G01*
X-961974Y-305512D01*
X-961974Y-305512D02*
G01*
X-952715Y-302409D01*
X-952715Y-302409D02*
G01*
X-944183Y-297657D01*
X-944183Y-297657D02*
G01*
X-936670Y-291419D01*
X-936670Y-291419D02*
G01*
X-761670Y-116418D01*
X-761670Y-116418D02*
G01*
X-470306Y-116418D01*
X-470306Y-116418D02*
G01*
X-466208Y-119287D01*
X-466208Y-119287D02*
G01*
X-456031Y-124033D01*
X-456031Y-124033D02*
G01*
X-445185Y-126939D01*
X-445185Y-126939D02*
G01*
X-445185Y-127060D01*
X-445185Y-127060D02*
G01*
X-456031Y-129966D01*
X-456031Y-129966D02*
G01*
X-466208Y-134712D01*
X-466208Y-134712D02*
G01*
X-470306Y-137581D01*
X-470306Y-137581D02*
G01*
X-482940Y-137638D01*
X-482940Y-137638D02*
G01*
X-492612Y-138987D01*
X-492612Y-138987D02*
G01*
X-501871Y-142090D01*
X-501871Y-142090D02*
G01*
X-510403Y-146842D01*
X-510403Y-146842D02*
G01*
X-517915Y-153080D01*
X-517915Y-153080D02*
G01*
X-587405Y-222570D01*
X-587405Y-222570D02*
G01*
X-589093Y-224338D01*
X-589093Y-224338D02*
G01*
X-594978Y-232131D01*
X-594978Y-232131D02*
G01*
X-599331Y-240873D01*
X-599331Y-240873D02*
G01*
X-602003Y-250265D01*
X-602003Y-250265D02*
G01*
X-602904Y-259989D01*
X-602904Y-259989D02*
G01*
X-602904Y-310035D01*
X-602904Y-310035D02*
G01*
X-609330Y-317622D01*
X-609330Y-317622D02*
G01*
X-615495Y-327968D01*
X-615495Y-327968D02*
G01*
X-619873Y-339188D01*
X-619873Y-339188D02*
G01*
X-622344Y-350974D01*
X-622344Y-350974D02*
G01*
X-622842Y-363007D01*
X-622842Y-363007D02*
G01*
X-621352Y-374958D01*
X-621352Y-374958D02*
G01*
X-617916Y-386500D01*
X-617916Y-386500D02*
G01*
X-612626Y-397320D01*
X-612626Y-397320D02*
G01*
X-607879Y-403969D01*
X-607879Y-403969D02*
G01*
X-607879Y-418751D01*
X-607879Y-418751D02*
G01*
X-610577Y-419055D01*
X-610577Y-419055D02*
G01*
X-617535Y-421489D01*
X-617535Y-421489D02*
G01*
X-623776Y-425411D01*
X-623776Y-425411D02*
G01*
X-628989Y-430624D01*
X-628989Y-430624D02*
G01*
X-632911Y-436865D01*
X-632911Y-436865D02*
G01*
X-635345Y-443823D01*
X-635345Y-443823D02*
G01*
X-636170Y-452067D01*
X-636170Y-452067D02*
G01*
X-873826Y-452067D01*
X-873826Y-452067D02*
G01*
X-874651Y-443823D01*
X-874651Y-443823D02*
G01*
X-877085Y-436865D01*
X-877085Y-436865D02*
G01*
X-881007Y-430624D01*
X-881007Y-430624D02*
G01*
X-886220Y-425411D01*
X-886220Y-425411D02*
G01*
X-892461Y-421489D01*
X-892461Y-421489D02*
G01*
X-899419Y-419055D01*
X-899419Y-419055D02*
G01*
X-906744Y-418230D01*
X-906744Y-418230D02*
G01*
X-1019997Y-418230D01*
X-1019997Y-418230D02*
G01*
X-1027323Y-419055D01*
X-1027323Y-419055D02*
G01*
X-1034280Y-421489D01*
X-1034280Y-421489D02*
G01*
X-1040522Y-425411D01*
X-1040522Y-425411D02*
G01*
X-1045734Y-430624D01*
X-1045734Y-430624D02*
G01*
X-1049656Y-436865D01*
X-1049656Y-436865D02*
G01*
X-1052091Y-443823D01*
X-1052091Y-443823D02*
G01*
X-1052916Y-451148D01*
X-1052916Y-451148D02*
G01*
X-1052916Y-588849D01*
X-1052916Y-588849D02*
G01*
X-1052091Y-596174D01*
X-1052091Y-596174D02*
G01*
X-1049656Y-603132D01*
X-1049656Y-603132D02*
G01*
X-1045734Y-609373D01*
X-1045734Y-609373D02*
G01*
X-1040522Y-614586D01*
X-1040522Y-614586D02*
G01*
X-1034280Y-618508D01*
X-1034280Y-618508D02*
G01*
X-1027323Y-620942D01*
X-1027323Y-620942D02*
G01*
X-1019997Y-621767D01*
X-1019997Y-621767D02*
G01*
X-906744Y-621767D01*
X-906744Y-621767D02*
G01*
X-899419Y-620942D01*
X-899419Y-620942D02*
G01*
X-892461Y-618508D01*
X-892461Y-618508D02*
G01*
X-886220Y-614586D01*
X-886220Y-614586D02*
G01*
X-881007Y-609373D01*
X-881007Y-609373D02*
G01*
X-877085Y-603132D01*
X-877085Y-603132D02*
G01*
X-874651Y-596174D01*
X-874651Y-596174D02*
G01*
X-873826Y-587904D01*
X-873826Y-587904D02*
G01*
X-636170Y-587904D01*
X-636170Y-587904D02*
G01*
X-635345Y-596174D01*
X-635345Y-596174D02*
G01*
X-632911Y-603132D01*
X-632911Y-603132D02*
G01*
X-628989Y-609373D01*
X-628989Y-609373D02*
G01*
X-623776Y-614586D01*
X-623776Y-614586D02*
G01*
X-617535Y-618508D01*
X-617535Y-618508D02*
G01*
X-610577Y-620942D01*
X-610577Y-620942D02*
G01*
X-604526Y-621624D01*
X-604526Y-621624D02*
G01*
X-604526Y-783336D01*
X-604526Y-783336D02*
G01*
X-604464Y-786010D01*
X-604464Y-786010D02*
G01*
X-602987Y-796596D01*
X-602987Y-796596D02*
G01*
X-599591Y-806730D01*
X-599591Y-806730D02*
G01*
X-594390Y-816067D01*
X-594390Y-816067D02*
G01*
X-587562Y-824290D01*
X-587562Y-824290D02*
G01*
X-400872Y-1010980D01*
X-400872Y-1010980D02*
G01*
X-398937Y-1012828D01*
X-398937Y-1012828D02*
G01*
X-390408Y-1019269D01*
X-390408Y-1019269D02*
G01*
X-380840Y-1024033D01*
X-380840Y-1024033D02*
G01*
X-370560Y-1026958D01*
X-370560Y-1026958D02*
G01*
X-359918Y-1027944D01*
X-359918Y-1027944D02*
G01*
X240029Y-1027944D01*
X240029Y-1027944D02*
G01*
X242704Y-1027882D01*
X242704Y-1027882D02*
G01*
X253290Y-1026405D01*
X253290Y-1026405D02*
G01*
X263424Y-1023009D01*
X263424Y-1023009D02*
G01*
X272761Y-1017808D01*
X272761Y-1017808D02*
G01*
X280984Y-1010980D01*
X280984Y-1010980D02*
G01*
X394268Y-897696D01*
X394268Y-897696D02*
G01*
X396116Y-895761D01*
X396116Y-895761D02*
G01*
X402557Y-887232D01*
X402557Y-887232D02*
G01*
X407321Y-877664D01*
X407321Y-877664D02*
G01*
X410246Y-867384D01*
X410246Y-867384D02*
G01*
X411232Y-856742D01*
X411232Y-856742D02*
G01*
X411232Y-621628D01*
X411232Y-621628D02*
G01*
X417324Y-620942D01*
X417324Y-620942D02*
G01*
X424281Y-618508D01*
X424281Y-618508D02*
G01*
X430523Y-614586D01*
X430523Y-614586D02*
G01*
X435735Y-609373D01*
X435735Y-609373D02*
G01*
X439657Y-603132D01*
X439657Y-603132D02*
G01*
X442092Y-596174D01*
X442092Y-596174D02*
G01*
X442917Y-588849D01*
X442917Y-588849D02*
G01*
X442917Y-451148D01*
X442917Y-451148D02*
G01*
X442092Y-443823D01*
X442092Y-443823D02*
G01*
X439657Y-436865D01*
X439657Y-436865D02*
G01*
X435735Y-430624D01*
X435735Y-430624D02*
G01*
X430523Y-425411D01*
X430523Y-425411D02*
G01*
X424281Y-421489D01*
X424281Y-421489D02*
G01*
X417324Y-419055D01*
X417324Y-419055D02*
G01*
X409999Y-418230D01*
X409999Y-418230D02*
G01*
X296745Y-418230D01*
X296745Y-418230D02*
G01*
X289420Y-419055D01*
X289420Y-419055D02*
G01*
X282462Y-421489D01*
X282462Y-421489D02*
G01*
X276221Y-425411D01*
X276221Y-425411D02*
G01*
X271009Y-430624D01*
X271009Y-430624D02*
G01*
X267087Y-436865D01*
X267087Y-436865D02*
G01*
X264652Y-443823D01*
X264652Y-443823D02*
G01*
X263827Y-451148D01*
X263827Y-451148D02*
G01*
X263827Y-588849D01*
X263827Y-588849D02*
G01*
X264652Y-596174D01*
X264652Y-596174D02*
G01*
X267087Y-603132D01*
X267087Y-603132D02*
G01*
X271009Y-609373D01*
X271009Y-609373D02*
G01*
X276221Y-614586D01*
X276221Y-614586D02*
G01*
X282462Y-618508D01*
X282462Y-618508D02*
G01*
X289420Y-620942D01*
X289420Y-620942D02*
G01*
X295395Y-621615D01*
X295395Y-621615D02*
G01*
X295395Y-832751D01*
X295395Y-832751D02*
G01*
X216039Y-912107D01*
X216039Y-912107D02*
G01*
X-335927Y-912107D01*
X-335927Y-912107D02*
G01*
X-488689Y-759345D01*
X-488689Y-759345D02*
G01*
X-488689Y-621620D01*
X-488689Y-621620D02*
G01*
X-482673Y-620942D01*
X-482673Y-620942D02*
G01*
X-475716Y-618508D01*
X-475716Y-618508D02*
G01*
X-469474Y-614586D01*
X-469474Y-614586D02*
G01*
X-464262Y-609373D01*
X-464262Y-609373D02*
G01*
X-460340Y-603132D01*
X-460340Y-603132D02*
G01*
X-457905Y-596174D01*
X-457905Y-596174D02*
G01*
X-457080Y-588849D01*
X-457080Y-588849D02*
G01*
X-457080Y-451148D01*
X-457080Y-451148D02*
G01*
X-457905Y-443823D01*
X-457905Y-443823D02*
G01*
X-460340Y-436865D01*
X-460340Y-436865D02*
G01*
X-464262Y-430624D01*
X-464262Y-430624D02*
G01*
X-469474Y-425411D01*
X-469474Y-425411D02*
G01*
X-475716Y-421489D01*
X-475716Y-421489D02*
G01*
X-482673Y-419055D01*
X-482673Y-419055D02*
G01*
X-489999Y-418230D01*
X-489999Y-418230D02*
G01*
X-492042Y-418230D01*
X-492042Y-418230D02*
G01*
X-492042Y-404019D01*
X-492042Y-404019D02*
G01*
X-490641Y-402365D01*
X-490641Y-402365D02*
G01*
X-484477Y-392019D01*
X-484477Y-392019D02*
G01*
X-480099Y-380800D01*
X-480099Y-380800D02*
G01*
X-477627Y-369013D01*
X-477627Y-369013D02*
G01*
X-477130Y-356980D01*
X-477130Y-356980D02*
G01*
X-478619Y-345030D01*
X-478619Y-345030D02*
G01*
X-482056Y-333487D01*
X-482056Y-333487D02*
G01*
X-487345Y-322668D01*
X-487345Y-322668D02*
G01*
X-494343Y-312867D01*
X-494343Y-312867D02*
G01*
X-497067Y-310142D01*
X-497067Y-310142D02*
G01*
X-497067Y-281908D01*
X-497067Y-281908D02*
G01*
X-462961Y-247802D01*
X-462961Y-247802D02*
G01*
X-456031Y-251033D01*
X-456031Y-251033D02*
G01*
X-445185Y-253939D01*
X-445185Y-253939D02*
G01*
X-433999Y-254918D01*
X-433999Y-254918D02*
G01*
X-271998Y-254918D01*
X-271998Y-254918D02*
G01*
X-260812Y-253939D01*
X-260812Y-253939D02*
G01*
X-249966Y-251033D01*
X-249966Y-251033D02*
G01*
X-239789Y-246287D01*
X-239789Y-246287D02*
G01*
X-230591Y-239847D01*
X-230591Y-239847D02*
G01*
X-222651Y-231907D01*
X-222651Y-231907D02*
G01*
X-216210Y-222708D01*
X-216210Y-222708D02*
G01*
X-211465Y-212532D01*
X-211465Y-212532D02*
G01*
X-208558Y-201686D01*
X-208558Y-201686D02*
G01*
X-207580Y-190500D01*
X-207580Y-190500D02*
G01*
X-208558Y-179313D01*
X-208558Y-179313D02*
G01*
X-211465Y-168467D01*
X-211465Y-168467D02*
G01*
X-216210Y-158291D01*
X-216210Y-158291D02*
G01*
X-222651Y-149092D01*
X-222651Y-149092D02*
G01*
X-230591Y-141152D01*
X-230591Y-141152D02*
G01*
X-239789Y-134712D01*
X-239789Y-134712D02*
G01*
X-249966Y-129966D01*
X-249966Y-129966D02*
G01*
X-260812Y-127060D01*
X-260812Y-127060D02*
G01*
X-260812Y-126939D01*
X-260812Y-126939D02*
G01*
X-249966Y-124033D01*
X-249966Y-124033D02*
G01*
X-239789Y-119287D01*
X-239789Y-119287D02*
G01*
X-235691Y-116418D01*
X-235691Y-116418D02*
G01*
X-198400Y-116418D01*
X-198400Y-116418D02*
G01*
X-149438Y-165224D01*
X-149438Y-165224D02*
G01*
X-149438Y-418230D01*
X-149438Y-418230D02*
G01*
X-153253Y-418230D01*
X-153253Y-418230D02*
G01*
X-160578Y-419055D01*
X-160578Y-419055D02*
G01*
X-167536Y-421489D01*
X-167536Y-421489D02*
G01*
X-173777Y-425411D01*
X-173777Y-425411D02*
G01*
X-178989Y-430624D01*
X-178989Y-430624D02*
G01*
X-182912Y-436865D01*
X-182912Y-436865D02*
G01*
X-185346Y-443823D01*
X-185346Y-443823D02*
G01*
X-186171Y-451148D01*
X-186171Y-451148D02*
G01*
X-186171Y-588849D01*
X-186171Y-588849D02*
G01*
X-185346Y-596174D01*
X-185346Y-596174D02*
G01*
X-182912Y-603132D01*
X-182912Y-603132D02*
G01*
X-178989Y-609373D01*
X-178989Y-609373D02*
G01*
X-173777Y-614586D01*
X-173777Y-614586D02*
G01*
X-167536Y-618508D01*
X-167536Y-618508D02*
G01*
X-160578Y-620942D01*
X-160578Y-620942D02*
G01*
X-153253Y-621767D01*
X-153253Y-621767D02*
G01*
X-39999Y-621767D01*
X-39999Y-621767D02*
G01*
X-32674Y-620942D01*
X-32674Y-620942D02*
G01*
X-25717Y-618508D01*
X-25717Y-618508D02*
G01*
X-19475Y-614586D01*
X-19475Y-614586D02*
G01*
X-14263Y-609373D01*
X-14263Y-609373D02*
G01*
X-10341Y-603132D01*
X-10341Y-603132D02*
G01*
X-7906Y-596174D01*
X-7906Y-596174D02*
G01*
X-7081Y-588849D01*
X-7081Y-588849D02*
G01*
X-7081Y-451148D01*
X-7081Y-451148D02*
G01*
X-7906Y-443823D01*
X-7906Y-443823D02*
G01*
X-10341Y-436865D01*
X-10341Y-436865D02*
G01*
X-14263Y-430624D01*
X-14263Y-430624D02*
G01*
X-19475Y-425411D01*
X-19475Y-425411D02*
G01*
X-25717Y-421489D01*
X-25717Y-421489D02*
G01*
X-32674Y-419055D01*
X-32674Y-419055D02*
G01*
X-39999Y-418230D01*
X-39999Y-418230D02*
G01*
X-43601Y-418230D01*
X-43601Y-418230D02*
G01*
X-43601Y-143255D01*
X-43601Y-143255D02*
G01*
X-43662Y-140727D01*
X-43662Y-140727D02*
G01*
X-45026Y-131058D01*
X-45026Y-131058D02*
G01*
X-45621Y-129292D01*
X-45621Y-129292D02*
G01*
X182544Y-357459D01*
X182544Y-357459D02*
G01*
X184313Y-359147D01*
X184313Y-359147D02*
G01*
X192106Y-365032D01*
X192106Y-365032D02*
G01*
X200847Y-369384D01*
X200847Y-369384D02*
G01*
X210240Y-372057D01*
X210240Y-372057D02*
G01*
X219963Y-372958D01*
X219963Y-372958D02*
G01*
X458140Y-372958D01*
X458140Y-372958D02*
G01*
X493689Y-408507D01*
X493689Y-408507D02*
G01*
X493689Y-418230D01*
X493689Y-418230D02*
G01*
X489999Y-418230D01*
X489999Y-418230D02*
G01*
X482673Y-419055D01*
X482673Y-419055D02*
G01*
X475716Y-421489D01*
X475716Y-421489D02*
G01*
X469474Y-425411D01*
X469474Y-425411D02*
G01*
X464262Y-430624D01*
X464262Y-430624D02*
G01*
X460340Y-436865D01*
X460340Y-436865D02*
G01*
X457905Y-443823D01*
X457905Y-443823D02*
G01*
X457080Y-451148D01*
X457080Y-451148D02*
G01*
X457080Y-588849D01*
X457080Y-588849D02*
G01*
X457905Y-596174D01*
X457905Y-596174D02*
G01*
X460340Y-603132D01*
X460340Y-603132D02*
G01*
X464262Y-609373D01*
X464262Y-609373D02*
G01*
X469474Y-614586D01*
X469474Y-614586D02*
G01*
X475716Y-618508D01*
X475716Y-618508D02*
G01*
X478689Y-619548D01*
X478689Y-619548D02*
G01*
X478689Y-865185D01*
X478689Y-865185D02*
G01*
X407142Y-936732D01*
X407142Y-936732D02*
G01*
X399892Y-945292D01*
X399892Y-945292D02*
G01*
X394150Y-954928D01*
X394150Y-954928D02*
G01*
X390073Y-965378D01*
X390073Y-965378D02*
G01*
X387771Y-976356D01*
X387771Y-976356D02*
G01*
X387249Y-984757D01*
X387249Y-984757D02*
G01*
X387249Y-1042068D01*
X387249Y-1042068D02*
G01*
X350257Y-1042068D01*
X350257Y-1042068D02*
G01*
X342932Y-1042893D01*
X342932Y-1042893D02*
G01*
X335974Y-1045327D01*
X335974Y-1045327D02*
G01*
X329732Y-1049249D01*
X329732Y-1049249D02*
G01*
X324520Y-1054462D01*
X324520Y-1054462D02*
G01*
X320598Y-1060703D01*
X320598Y-1060703D02*
G01*
X318163Y-1067661D01*
X318163Y-1067661D02*
G01*
X317386Y-1074559D01*
X317386Y-1074559D02*
G01*
X-317183Y-1074559D01*
X-317183Y-1074559D02*
G01*
X-317960Y-1067661D01*
X-317960Y-1067661D02*
G01*
X-320395Y-1060703D01*
X-320395Y-1060703D02*
G01*
X-324317Y-1054462D01*
X-324317Y-1054462D02*
G01*
X-329529Y-1049249D01*
X-329529Y-1049249D02*
G01*
X-335771Y-1045327D01*
X-335771Y-1045327D02*
G01*
X-342728Y-1042893D01*
X-342728Y-1042893D02*
G01*
X-350053Y-1042068D01*
X-350053Y-1042068D02*
G01*
X-560053Y-1042068D01*
X-560053Y-1042068D02*
G01*
X-567378Y-1042893D01*
X-567378Y-1042893D02*
G01*
X-574336Y-1045327D01*
X-574336Y-1045327D02*
G01*
X-580577Y-1049249D01*
X-580577Y-1049249D02*
G01*
X-585790Y-1054462D01*
X-585790Y-1054462D02*
G01*
X-589712Y-1060703D01*
X-589712Y-1060703D02*
G01*
X-592146Y-1067661D01*
X-592146Y-1067661D02*
G01*
X-592971Y-1074986D01*
X-592971Y-1074986D02*
G01*
X-592971Y-1214991D01*
X-592971Y-1214991D02*
G01*
X-592146Y-1222316D01*
X-592146Y-1222316D02*
G01*
X-589712Y-1229273D01*
X-589712Y-1229273D02*
G01*
X-585790Y-1235515D01*
X-585790Y-1235515D02*
G01*
X-580577Y-1240727D01*
X-1429266Y181910D02*
G01*
X-1418896Y171188D01*
X-1418896Y171188D02*
G01*
X-1407190Y161944D01*
X-1407190Y161944D02*
G01*
X-1394356Y154342D01*
X-1394356Y154342D02*
G01*
X-1380624Y148519D01*
X-1380624Y148519D02*
G01*
X-1366238Y144579D01*
X-1366238Y144579D02*
G01*
X-1351455Y142591D01*
X-1351455Y142591D02*
G01*
X-1336539Y142591D01*
X-1336539Y142591D02*
G01*
X-1321757Y144579D01*
X-1321757Y144579D02*
G01*
X-1307371Y148519D01*
X-1307371Y148519D02*
G01*
X-1293638Y154342D01*
X-1293638Y154342D02*
G01*
X-1280805Y161944D01*
X-1280805Y161944D02*
G01*
X-1269099Y171188D01*
X-1269099Y171188D02*
G01*
X-1258729Y181910D01*
X-1258729Y181910D02*
G01*
X-1249881Y193918D01*
X-1249881Y193918D02*
G01*
X-1242713Y206999D01*
X-1242713Y206999D02*
G01*
X-1237352Y220918D01*
X-1237352Y220918D02*
G01*
X-1233894Y235428D01*
X-1233894Y235428D02*
G01*
X-1232401Y250268D01*
X-1232401Y250268D02*
G01*
X-1232900Y265176D01*
X-1232900Y265176D02*
G01*
X-1235381Y279884D01*
X-1235381Y279884D02*
G01*
X-1239800Y294130D01*
X-1239800Y294130D02*
G01*
X-1246079Y307661D01*
X-1246079Y307661D02*
G01*
X-1254104Y320233D01*
X-1254104Y320233D02*
G01*
X-1263735Y331624D01*
X-1263735Y331624D02*
G01*
X-1274797Y341629D01*
X-1274797Y341629D02*
G01*
X-1275995Y342451D01*
X-1275995Y342451D02*
G01*
X-1275995Y428230D01*
X-1275995Y428230D02*
G01*
X-1229997Y428230D01*
X-1229997Y428230D02*
G01*
X-1222672Y429055D01*
X-1222672Y429055D02*
G01*
X-1215714Y431489D01*
X-1215714Y431489D02*
G01*
X-1209473Y435411D01*
X-1209473Y435411D02*
G01*
X-1204260Y440624D01*
X-1204260Y440624D02*
G01*
X-1200338Y446865D01*
X-1200338Y446865D02*
G01*
X-1197904Y453823D01*
X-1197904Y453823D02*
G01*
X-1197079Y461148D01*
X-1197079Y461148D02*
G01*
X-1197079Y598849D01*
X-1197079Y598849D02*
G01*
X-1197904Y606174D01*
X-1197904Y606174D02*
G01*
X-1200338Y613132D01*
X-1200338Y613132D02*
G01*
X-1204260Y619373D01*
X-1204260Y619373D02*
G01*
X-1209473Y624586D01*
X-1209473Y624586D02*
G01*
X-1215714Y628508D01*
X-1215714Y628508D02*
G01*
X-1222672Y630942D01*
X-1222672Y630942D02*
G01*
X-1229997Y631767D01*
X-1229997Y631767D02*
G01*
X-1272177Y631767D01*
X-1272177Y631767D02*
G01*
X-1186749Y717195D01*
X-1186749Y717195D02*
G01*
X-347915Y717195D01*
X-347915Y717195D02*
G01*
X-347915Y560002D01*
X-347915Y560002D02*
G01*
X-347089Y552677D01*
X-347089Y552677D02*
G01*
X-344655Y545720D01*
X-344655Y545720D02*
G01*
X-340733Y539478D01*
X-340733Y539478D02*
G01*
X-335521Y534266D01*
X-335521Y534266D02*
G01*
X-329279Y530344D01*
X-329279Y530344D02*
G01*
X-322321Y527909D01*
X-322321Y527909D02*
G01*
X-314996Y527084D01*
X-314996Y527084D02*
G01*
X-184997Y527084D01*
X-184997Y527084D02*
G01*
X-177671Y527909D01*
X-177671Y527909D02*
G01*
X-170714Y530344D01*
X-170714Y530344D02*
G01*
X-164472Y534266D01*
X-164472Y534266D02*
G01*
X-159260Y539478D01*
X-159260Y539478D02*
G01*
X-155338Y545720D01*
X-155338Y545720D02*
G01*
X-152903Y552677D01*
X-152903Y552677D02*
G01*
X-152078Y560002D01*
X-152078Y560002D02*
G01*
X-152078Y1010001D01*
X-152078Y1010001D02*
G01*
X-152903Y1017326D01*
X-152903Y1017326D02*
G01*
X-155338Y1024284D01*
X-155338Y1024284D02*
G01*
X-159260Y1030526D01*
X-159260Y1030526D02*
G01*
X-164472Y1035738D01*
X-164472Y1035738D02*
G01*
X-170714Y1039660D01*
X-170714Y1039660D02*
G01*
X-177671Y1042094D01*
X-177671Y1042094D02*
G01*
X-184997Y1042920D01*
X-184997Y1042920D02*
G01*
X-314996Y1042920D01*
X-314996Y1042920D02*
G01*
X-322321Y1042094D01*
X-322321Y1042094D02*
G01*
X-329279Y1039660D01*
X-329279Y1039660D02*
G01*
X-335521Y1035738D01*
X-335521Y1035738D02*
G01*
X-340733Y1030526D01*
X-340733Y1030526D02*
G01*
X-344655Y1024284D01*
X-344655Y1024284D02*
G01*
X-347089Y1017326D01*
X-347089Y1017326D02*
G01*
X-347915Y1010001D01*
X-347915Y1010001D02*
G01*
X-347915Y853032D01*
X-347915Y853032D02*
G01*
X-1188700Y853032D01*
X-1188700Y853032D02*
G01*
X-1188700Y890444D01*
X-1188700Y890444D02*
G01*
X-1185714Y891488D01*
X-1185714Y891488D02*
G01*
X-1179473Y895410D01*
X-1179473Y895410D02*
G01*
X-1174261Y900623D01*
X-1174261Y900623D02*
G01*
X-1170339Y906864D01*
X-1170339Y906864D02*
G01*
X-1167904Y913822D01*
X-1167904Y913822D02*
G01*
X-1167079Y921147D01*
X-1167079Y921147D02*
G01*
X-1167079Y1058848D01*
X-1167079Y1058848D02*
G01*
X-1167904Y1066173D01*
X-1167904Y1066173D02*
G01*
X-1170339Y1073131D01*
X-1170339Y1073131D02*
G01*
X-1174261Y1079372D01*
X-1174261Y1079372D02*
G01*
X-1179473Y1084585D01*
X-1179473Y1084585D02*
G01*
X-1185714Y1088507D01*
X-1185714Y1088507D02*
G01*
X-1192672Y1090941D01*
X-1192672Y1090941D02*
G01*
X-1199997Y1091766D01*
X-1199997Y1091766D02*
G01*
X-1313251Y1091766D01*
X-1313251Y1091766D02*
G01*
X-1320576Y1090941D01*
X-1320576Y1090941D02*
G01*
X-1327533Y1088507D01*
X-1327533Y1088507D02*
G01*
X-1333775Y1084585D01*
X-1333775Y1084585D02*
G01*
X-1338987Y1079372D01*
X-1338987Y1079372D02*
G01*
X-1342909Y1073131D01*
X-1342909Y1073131D02*
G01*
X-1345344Y1066173D01*
X-1345344Y1066173D02*
G01*
X-1346169Y1058848D01*
X-1346169Y1058848D02*
G01*
X-1346169Y921147D01*
X-1346169Y921147D02*
G01*
X-1345344Y913822D01*
X-1345344Y913822D02*
G01*
X-1342909Y906864D01*
X-1342909Y906864D02*
G01*
X-1338987Y900623D01*
X-1338987Y900623D02*
G01*
X-1333775Y895410D01*
X-1333775Y895410D02*
G01*
X-1327533Y891488D01*
X-1327533Y891488D02*
G01*
X-1324537Y890440D01*
X-1324537Y890440D02*
G01*
X-1324537Y771509D01*
X-1324537Y771509D02*
G01*
X-1391939Y704107D01*
X-1391939Y704107D02*
G01*
X-1399189Y695547D01*
X-1399189Y695547D02*
G01*
X-1404931Y685911D01*
X-1404931Y685911D02*
G01*
X-1409008Y675461D01*
X-1409008Y675461D02*
G01*
X-1411310Y664483D01*
X-1411310Y664483D02*
G01*
X-1411832Y656081D01*
X-1411832Y656081D02*
G01*
X-1411832Y342567D01*
X-1411832Y342567D02*
G01*
X-1413198Y341629D01*
X-1413198Y341629D02*
G01*
X-1424260Y331624D01*
X-1424260Y331624D02*
G01*
X-1433890Y320233D01*
X-1433890Y320233D02*
G01*
X-1441916Y307661D01*
X-1441916Y307661D02*
G01*
X-1448195Y294130D01*
X-1448195Y294130D02*
G01*
X-1452614Y279884D01*
X-1452614Y279884D02*
G01*
X-1455095Y265176D01*
X-1455095Y265176D02*
G01*
X-1455593Y250268D01*
X-1455593Y250268D02*
G01*
X-1454100Y235428D01*
X-1454100Y235428D02*
G01*
X-1450643Y220918D01*
X-1450643Y220918D02*
G01*
X-1445282Y206999D01*
X-1445282Y206999D02*
G01*
X-1438113Y193918D01*
X-1438113Y193918D02*
G01*
X-1429266Y181910D01*
X230591Y-239847D02*
G01*
X239789Y-246287D01*
X239789Y-246287D02*
G01*
X249966Y-251033D01*
X249966Y-251033D02*
G01*
X260812Y-253939D01*
X260812Y-253939D02*
G01*
X271998Y-254918D01*
X271998Y-254918D02*
G01*
X433999Y-254918D01*
X433999Y-254918D02*
G01*
X445185Y-253939D01*
X445185Y-253939D02*
G01*
X456031Y-251033D01*
X456031Y-251033D02*
G01*
X466208Y-246287D01*
X466208Y-246287D02*
G01*
X470306Y-243418D01*
X470306Y-243418D02*
G01*
X532287Y-243418D01*
X532287Y-243418D02*
G01*
X542354Y-249280D01*
X542354Y-249280D02*
G01*
X553070Y-253180D01*
X553070Y-253180D02*
G01*
X564299Y-255160D01*
X564299Y-255160D02*
G01*
X575702Y-255160D01*
X575702Y-255160D02*
G01*
X586932Y-253180D01*
X586932Y-253180D02*
G01*
X597648Y-249280D01*
X597648Y-249280D02*
G01*
X607523Y-243579D01*
X607523Y-243579D02*
G01*
X616258Y-236249D01*
X616258Y-236249D02*
G01*
X623588Y-227514D01*
X623588Y-227514D02*
G01*
X629290Y-217638D01*
X629290Y-217638D02*
G01*
X633189Y-206923D01*
X633189Y-206923D02*
G01*
X635170Y-195693D01*
X635170Y-195693D02*
G01*
X635170Y-184290D01*
X635170Y-184290D02*
G01*
X633189Y-173060D01*
X633189Y-173060D02*
G01*
X629290Y-162345D01*
X629290Y-162345D02*
G01*
X623588Y-152469D01*
X623588Y-152469D02*
G01*
X616258Y-143734D01*
X616258Y-143734D02*
G01*
X607523Y-136404D01*
X607523Y-136404D02*
G01*
X597648Y-130703D01*
X597648Y-130703D02*
G01*
X586932Y-126803D01*
X586932Y-126803D02*
G01*
X575702Y-124823D01*
X575702Y-124823D02*
G01*
X564299Y-124823D01*
X564299Y-124823D02*
G01*
X553070Y-126803D01*
X553070Y-126803D02*
G01*
X542354Y-130703D01*
X542354Y-130703D02*
G01*
X532479Y-136404D01*
X532479Y-136404D02*
G01*
X531076Y-137581D01*
X531076Y-137581D02*
G01*
X470306Y-137581D01*
X470306Y-137581D02*
G01*
X466208Y-134712D01*
X466208Y-134712D02*
G01*
X456031Y-129966D01*
X456031Y-129966D02*
G01*
X445185Y-127060D01*
X445185Y-127060D02*
G01*
X445185Y-126939D01*
X445185Y-126939D02*
G01*
X456031Y-124033D01*
X456031Y-124033D02*
G01*
X466208Y-119287D01*
X466208Y-119287D02*
G01*
X470306Y-116418D01*
X470306Y-116418D02*
G01*
X488853Y-116361D01*
X488853Y-116361D02*
G01*
X498525Y-115012D01*
X498525Y-115012D02*
G01*
X507784Y-111909D01*
X507784Y-111909D02*
G01*
X516316Y-107157D01*
X516316Y-107157D02*
G01*
X523829Y-100919D01*
X523829Y-100919D02*
G01*
X714952Y90205D01*
X714952Y90205D02*
G01*
X715411Y89475D01*
X715411Y89475D02*
G01*
X720623Y84263D01*
X720623Y84263D02*
G01*
X726865Y80341D01*
X726865Y80341D02*
G01*
X733822Y77906D01*
X733822Y77906D02*
G01*
X741147Y77081D01*
X741147Y77081D02*
G01*
X878848Y77081D01*
X878848Y77081D02*
G01*
X886173Y77906D01*
X886173Y77906D02*
G01*
X893131Y80341D01*
X893131Y80341D02*
G01*
X899373Y84263D01*
X899373Y84263D02*
G01*
X904585Y89475D01*
X904585Y89475D02*
G01*
X908507Y95717D01*
X908507Y95717D02*
G01*
X909553Y98705D01*
X909553Y98705D02*
G01*
X1014101Y98705D01*
X1014101Y98705D02*
G01*
X1014651Y93824D01*
X1014651Y93824D02*
G01*
X1017085Y86866D01*
X1017085Y86866D02*
G01*
X1021007Y80624D01*
X1021007Y80624D02*
G01*
X1026219Y75412D01*
X1026219Y75412D02*
G01*
X1032461Y71490D01*
X1032461Y71490D02*
G01*
X1039419Y69055D01*
X1039419Y69055D02*
G01*
X1046744Y68230D01*
X1046744Y68230D02*
G01*
X1159997Y68230D01*
X1159997Y68230D02*
G01*
X1167322Y69055D01*
X1167322Y69055D02*
G01*
X1174280Y71490D01*
X1174280Y71490D02*
G01*
X1180521Y75412D01*
X1180521Y75412D02*
G01*
X1185734Y80624D01*
X1185734Y80624D02*
G01*
X1189656Y86866D01*
X1189656Y86866D02*
G01*
X1192090Y93824D01*
X1192090Y93824D02*
G01*
X1192916Y101149D01*
X1192916Y101149D02*
G01*
X1192916Y238850D01*
X1192916Y238850D02*
G01*
X1192090Y246175D01*
X1192090Y246175D02*
G01*
X1189656Y253132D01*
X1189656Y253132D02*
G01*
X1185734Y259374D01*
X1185734Y259374D02*
G01*
X1180521Y264586D01*
X1180521Y264586D02*
G01*
X1174280Y268508D01*
X1174280Y268508D02*
G01*
X1167322Y270943D01*
X1167322Y270943D02*
G01*
X1159997Y271768D01*
X1159997Y271768D02*
G01*
X1046744Y271768D01*
X1046744Y271768D02*
G01*
X1039419Y270943D01*
X1039419Y270943D02*
G01*
X1032461Y268508D01*
X1032461Y268508D02*
G01*
X1026219Y264586D01*
X1026219Y264586D02*
G01*
X1021007Y259374D01*
X1021007Y259374D02*
G01*
X1017085Y253132D01*
X1017085Y253132D02*
G01*
X1014651Y246175D01*
X1014651Y246175D02*
G01*
X1013825Y238850D01*
X1013825Y238850D02*
G01*
X1013825Y234542D01*
X1013825Y234542D02*
G01*
X909554Y234542D01*
X909554Y234542D02*
G01*
X908507Y237535D01*
X908507Y237535D02*
G01*
X904585Y243777D01*
X904585Y243777D02*
G01*
X899373Y248989D01*
X899373Y248989D02*
G01*
X893131Y252911D01*
X893131Y252911D02*
G01*
X886173Y255346D01*
X886173Y255346D02*
G01*
X878848Y256171D01*
X878848Y256171D02*
G01*
X741147Y256171D01*
X741147Y256171D02*
G01*
X733822Y255346D01*
X733822Y255346D02*
G01*
X726865Y252911D01*
X726865Y252911D02*
G01*
X720623Y248989D01*
X720623Y248989D02*
G01*
X715411Y243777D01*
X715411Y243777D02*
G01*
X711489Y237535D01*
X711489Y237535D02*
G01*
X709054Y230578D01*
X709054Y230578D02*
G01*
X708229Y223253D01*
X708229Y223253D02*
G01*
X708229Y218772D01*
X708229Y218772D02*
G01*
X704418Y218136D01*
X704418Y218136D02*
G01*
X695159Y215033D01*
X695159Y215033D02*
G01*
X686627Y210281D01*
X686627Y210281D02*
G01*
X679114Y204043D01*
X679114Y204043D02*
G01*
X466885Y-8186D01*
X466885Y-8186D02*
G01*
X466208Y-7712D01*
X466208Y-7712D02*
G01*
X456031Y-2966D01*
X456031Y-2966D02*
G01*
X445185Y-60D01*
X445185Y-60D02*
G01*
X445185Y60D01*
X445185Y60D02*
G01*
X456031Y2966D01*
X456031Y2966D02*
G01*
X466208Y7712D01*
X466208Y7712D02*
G01*
X475406Y14152D01*
X475406Y14152D02*
G01*
X483346Y22092D01*
X483346Y22092D02*
G01*
X489787Y31290D01*
X489787Y31290D02*
G01*
X494532Y41467D01*
X494532Y41467D02*
G01*
X497439Y52313D01*
X497439Y52313D02*
G01*
X498417Y63500D01*
X498417Y63500D02*
G01*
X497439Y74686D01*
X497439Y74686D02*
G01*
X494532Y85532D01*
X494532Y85532D02*
G01*
X489787Y95708D01*
X489787Y95708D02*
G01*
X483346Y104907D01*
X483346Y104907D02*
G01*
X475406Y112847D01*
X475406Y112847D02*
G01*
X466208Y119287D01*
X466208Y119287D02*
G01*
X456031Y124033D01*
X456031Y124033D02*
G01*
X445185Y126939D01*
X445185Y126939D02*
G01*
X433999Y127918D01*
X433999Y127918D02*
G01*
X271998Y127918D01*
X271998Y127918D02*
G01*
X260812Y126939D01*
X260812Y126939D02*
G01*
X249966Y124033D01*
X249966Y124033D02*
G01*
X239789Y119287D01*
X239789Y119287D02*
G01*
X235691Y116418D01*
X235691Y116418D02*
G01*
X228421Y116418D01*
X228421Y116418D02*
G01*
X192872Y151967D01*
X192872Y151967D02*
G01*
X192872Y268148D01*
X192872Y268148D02*
G01*
X287355Y362630D01*
X287355Y362630D02*
G01*
X289043Y364399D01*
X289043Y364399D02*
G01*
X294928Y372192D01*
X294928Y372192D02*
G01*
X299280Y380933D01*
X299280Y380933D02*
G01*
X301953Y390326D01*
X301953Y390326D02*
G01*
X302854Y400050D01*
X302854Y400050D02*
G01*
X302854Y527084D01*
X302854Y527084D02*
G01*
X315004Y527084D01*
X315004Y527084D02*
G01*
X322329Y527909D01*
X322329Y527909D02*
G01*
X329287Y530344D01*
X329287Y530344D02*
G01*
X335528Y534266D01*
X335528Y534266D02*
G01*
X340740Y539478D01*
X340740Y539478D02*
G01*
X344663Y545720D01*
X344663Y545720D02*
G01*
X347097Y552677D01*
X347097Y552677D02*
G01*
X347922Y560002D01*
X347922Y560002D02*
G01*
X347922Y1010001D01*
X347922Y1010001D02*
G01*
X347097Y1017326D01*
X347097Y1017326D02*
G01*
X344663Y1024284D01*
X344663Y1024284D02*
G01*
X340740Y1030526D01*
X340740Y1030526D02*
G01*
X335528Y1035738D01*
X335528Y1035738D02*
G01*
X329287Y1039660D01*
X329287Y1039660D02*
G01*
X322329Y1042094D01*
X322329Y1042094D02*
G01*
X315004Y1042920D01*
X315004Y1042920D02*
G01*
X185004Y1042920D01*
X185004Y1042920D02*
G01*
X177679Y1042094D01*
X177679Y1042094D02*
G01*
X170722Y1039660D01*
X170722Y1039660D02*
G01*
X164480Y1035738D01*
X164480Y1035738D02*
G01*
X159268Y1030526D01*
X159268Y1030526D02*
G01*
X155346Y1024284D01*
X155346Y1024284D02*
G01*
X152911Y1017326D01*
X152911Y1017326D02*
G01*
X152086Y1010001D01*
X152086Y1010001D02*
G01*
X152086Y560002D01*
X152086Y560002D02*
G01*
X152911Y552677D01*
X152911Y552677D02*
G01*
X155346Y545720D01*
X155346Y545720D02*
G01*
X159268Y539478D01*
X159268Y539478D02*
G01*
X164480Y534266D01*
X164480Y534266D02*
G01*
X170722Y530344D01*
X170722Y530344D02*
G01*
X177679Y527909D01*
X177679Y527909D02*
G01*
X185004Y527084D01*
X185004Y527084D02*
G01*
X197017Y527084D01*
X197017Y527084D02*
G01*
X197017Y421969D01*
X197017Y421969D02*
G01*
X102534Y327487D01*
X102534Y327487D02*
G01*
X100846Y325718D01*
X100846Y325718D02*
G01*
X94961Y317925D01*
X94961Y317925D02*
G01*
X90609Y309184D01*
X90609Y309184D02*
G01*
X87936Y299791D01*
X87936Y299791D02*
G01*
X87035Y290068D01*
X87035Y290068D02*
G01*
X87035Y130047D01*
X87035Y130047D02*
G01*
X87092Y127604D01*
X87092Y127604D02*
G01*
X88441Y117932D01*
X88441Y117932D02*
G01*
X91544Y108673D01*
X91544Y108673D02*
G01*
X96296Y100141D01*
X96296Y100141D02*
G01*
X102534Y92628D01*
X102534Y92628D02*
G01*
X169082Y26080D01*
X169082Y26080D02*
G01*
X170851Y24392D01*
X170851Y24392D02*
G01*
X178644Y18507D01*
X178644Y18507D02*
G01*
X187385Y14155D01*
X187385Y14155D02*
G01*
X196778Y11482D01*
X196778Y11482D02*
G01*
X206502Y10581D01*
X206502Y10581D02*
G01*
X235691Y10581D01*
X235691Y10581D02*
G01*
X239789Y7712D01*
X239789Y7712D02*
G01*
X249966Y2966D01*
X249966Y2966D02*
G01*
X260812Y60D01*
X260812Y60D02*
G01*
X260812Y-60D01*
X260812Y-60D02*
G01*
X249966Y-2966D01*
X249966Y-2966D02*
G01*
X239789Y-7712D01*
X239789Y-7712D02*
G01*
X230591Y-14152D01*
X230591Y-14152D02*
G01*
X222651Y-22092D01*
X222651Y-22092D02*
G01*
X216210Y-31291D01*
X216210Y-31291D02*
G01*
X211465Y-41467D01*
X211465Y-41467D02*
G01*
X208558Y-52313D01*
X208558Y-52313D02*
G01*
X207580Y-63500D01*
X207580Y-63500D02*
G01*
X208558Y-74686D01*
X208558Y-74686D02*
G01*
X211465Y-85532D01*
X211465Y-85532D02*
G01*
X216210Y-95708D01*
X216210Y-95708D02*
G01*
X222651Y-104907D01*
X222651Y-104907D02*
G01*
X230591Y-112847D01*
X230591Y-112847D02*
G01*
X239789Y-119287D01*
X239789Y-119287D02*
G01*
X249966Y-124033D01*
X249966Y-124033D02*
G01*
X260812Y-126939D01*
X260812Y-126939D02*
G01*
X260812Y-127060D01*
X260812Y-127060D02*
G01*
X249966Y-129966D01*
X249966Y-129966D02*
G01*
X239789Y-134712D01*
X239789Y-134712D02*
G01*
X230591Y-141152D01*
X230591Y-141152D02*
G01*
X222651Y-149092D01*
X222651Y-149092D02*
G01*
X216210Y-158290D01*
X216210Y-158290D02*
G01*
X211465Y-168467D01*
X211465Y-168467D02*
G01*
X208558Y-179313D01*
X208558Y-179313D02*
G01*
X207580Y-190500D01*
X207580Y-190500D02*
G01*
X208558Y-201686D01*
X208558Y-201686D02*
G01*
X211465Y-212532D01*
X211465Y-212532D02*
G01*
X216210Y-222708D01*
X216210Y-222708D02*
G01*
X222651Y-231907D01*
X222651Y-231907D02*
G01*
X230591Y-239847D01*
X1136669Y-890448D02*
G01*
X1146802Y-900926D01*
X1146802Y-900926D02*
G01*
X1158242Y-909960D01*
X1158242Y-909960D02*
G01*
X1170784Y-917388D01*
X1170784Y-917388D02*
G01*
X1184204Y-923079D01*
X1184204Y-923079D02*
G01*
X1198262Y-926930D01*
X1198262Y-926930D02*
G01*
X1212709Y-928873D01*
X1212709Y-928873D02*
G01*
X1227285Y-928873D01*
X1227285Y-928873D02*
G01*
X1241732Y-926930D01*
X1241732Y-926930D02*
G01*
X1255790Y-923079D01*
X1255790Y-923079D02*
G01*
X1269211Y-917388D01*
X1269211Y-917388D02*
G01*
X1281752Y-909960D01*
X1281752Y-909960D02*
G01*
X1293192Y-900926D01*
X1293192Y-900926D02*
G01*
X1303326Y-890448D01*
X1303326Y-890448D02*
G01*
X1311972Y-878712D01*
X1311972Y-878712D02*
G01*
X1318977Y-865930D01*
X1318977Y-865930D02*
G01*
X1324216Y-852327D01*
X1324216Y-852327D02*
G01*
X1327596Y-838147D01*
X1327596Y-838147D02*
G01*
X1329054Y-823644D01*
X1329054Y-823644D02*
G01*
X1328567Y-809076D01*
X1328567Y-809076D02*
G01*
X1327316Y-801654D01*
X1327316Y-801654D02*
G01*
X1349770Y-779200D01*
X1349770Y-779200D02*
G01*
X1353478Y-775153D01*
X1353478Y-775153D02*
G01*
X1356820Y-770798D01*
X1356820Y-770798D02*
G01*
X1359769Y-766169D01*
X1359769Y-766169D02*
G01*
X1362304Y-761300D01*
X1362304Y-761300D02*
G01*
X1364404Y-756229D01*
X1364404Y-756229D02*
G01*
X1366054Y-750994D01*
X1366054Y-750994D02*
G01*
X1367243Y-745635D01*
X1367243Y-745635D02*
G01*
X1367959Y-740193D01*
X1367959Y-740193D02*
G01*
X1368198Y-734710D01*
X1368198Y-734710D02*
G01*
X1368198Y-691438D01*
X1368198Y-691438D02*
G01*
X1375277Y-691438D01*
X1375277Y-691438D02*
G01*
X1382603Y-690613D01*
X1382603Y-690613D02*
G01*
X1389560Y-688178D01*
X1389560Y-688178D02*
G01*
X1395802Y-684256D01*
X1395802Y-684256D02*
G01*
X1401014Y-679044D01*
X1401014Y-679044D02*
G01*
X1404936Y-672803D01*
X1404936Y-672803D02*
G01*
X1407371Y-665845D01*
X1407371Y-665845D02*
G01*
X1408196Y-658520D01*
X1408196Y-658520D02*
G01*
X1408196Y-538520D01*
X1408196Y-538520D02*
G01*
X1407371Y-531195D01*
X1407371Y-531195D02*
G01*
X1404936Y-524237D01*
X1404936Y-524237D02*
G01*
X1401014Y-517996D01*
X1401014Y-517996D02*
G01*
X1395802Y-512784D01*
X1395802Y-512784D02*
G01*
X1389560Y-508862D01*
X1389560Y-508862D02*
G01*
X1382603Y-506427D01*
X1382603Y-506427D02*
G01*
X1375680Y-505647D01*
X1375680Y-505647D02*
G01*
X1375660Y-423357D01*
X1375660Y-423357D02*
G01*
X1382603Y-422574D01*
X1382603Y-422574D02*
G01*
X1389560Y-420140D01*
X1389560Y-420140D02*
G01*
X1395802Y-416218D01*
X1395802Y-416218D02*
G01*
X1401014Y-411006D01*
X1401014Y-411006D02*
G01*
X1404936Y-404764D01*
X1404936Y-404764D02*
G01*
X1407371Y-397806D01*
X1407371Y-397806D02*
G01*
X1408196Y-390481D01*
X1408196Y-390481D02*
G01*
X1408196Y-270482D01*
X1408196Y-270482D02*
G01*
X1407371Y-263156D01*
X1407371Y-263156D02*
G01*
X1404936Y-256199D01*
X1404936Y-256199D02*
G01*
X1401014Y-249957D01*
X1401014Y-249957D02*
G01*
X1395802Y-244745D01*
X1395802Y-244745D02*
G01*
X1389560Y-240823D01*
X1389560Y-240823D02*
G01*
X1382603Y-238388D01*
X1382603Y-238388D02*
G01*
X1375277Y-237563D01*
X1375277Y-237563D02*
G01*
X1367055Y-237563D01*
X1367055Y-237563D02*
G01*
X1367055Y-179651D01*
X1367055Y-179651D02*
G01*
X1373775Y-175562D01*
X1373775Y-175562D02*
G01*
X1378987Y-170349D01*
X1378987Y-170349D02*
G01*
X1382909Y-164108D01*
X1382909Y-164108D02*
G01*
X1385344Y-157150D01*
X1385344Y-157150D02*
G01*
X1386169Y-149825D01*
X1386169Y-149825D02*
G01*
X1386169Y-12124D01*
X1386169Y-12124D02*
G01*
X1385344Y-4799D01*
X1385344Y-4799D02*
G01*
X1382909Y2157D01*
X1382909Y2157D02*
G01*
X1378987Y8399D01*
X1378987Y8399D02*
G01*
X1373775Y13611D01*
X1373775Y13611D02*
G01*
X1367063Y17698D01*
X1367063Y17698D02*
G01*
X1367063Y71326D01*
X1367063Y71326D02*
G01*
X1373775Y75412D01*
X1373775Y75412D02*
G01*
X1378987Y80624D01*
X1378987Y80624D02*
G01*
X1382909Y86866D01*
X1382909Y86866D02*
G01*
X1385344Y93824D01*
X1385344Y93824D02*
G01*
X1386169Y101149D01*
X1386169Y101149D02*
G01*
X1386169Y238850D01*
X1386169Y238850D02*
G01*
X1385344Y246175D01*
X1385344Y246175D02*
G01*
X1382909Y253132D01*
X1382909Y253132D02*
G01*
X1378987Y259374D01*
X1378987Y259374D02*
G01*
X1373775Y264586D01*
X1373775Y264586D02*
G01*
X1367533Y268508D01*
X1367533Y268508D02*
G01*
X1360576Y270943D01*
X1360576Y270943D02*
G01*
X1353251Y271768D01*
X1353251Y271768D02*
G01*
X1239997Y271768D01*
X1239997Y271768D02*
G01*
X1232672Y270943D01*
X1232672Y270943D02*
G01*
X1225714Y268508D01*
X1225714Y268508D02*
G01*
X1219473Y264586D01*
X1219473Y264586D02*
G01*
X1214260Y259374D01*
X1214260Y259374D02*
G01*
X1210338Y253132D01*
X1210338Y253132D02*
G01*
X1207904Y246175D01*
X1207904Y246175D02*
G01*
X1207079Y238850D01*
X1207079Y238850D02*
G01*
X1207079Y101149D01*
X1207079Y101149D02*
G01*
X1207904Y93824D01*
X1207904Y93824D02*
G01*
X1210338Y86866D01*
X1210338Y86866D02*
G01*
X1214260Y80624D01*
X1214260Y80624D02*
G01*
X1219473Y75412D01*
X1219473Y75412D02*
G01*
X1226225Y71312D01*
X1226225Y71312D02*
G01*
X1226225Y17712D01*
X1226225Y17712D02*
G01*
X1219473Y13611D01*
X1219473Y13611D02*
G01*
X1214260Y8399D01*
X1214260Y8399D02*
G01*
X1210338Y2157D01*
X1210338Y2157D02*
G01*
X1207904Y-4799D01*
X1207904Y-4799D02*
G01*
X1207079Y-12124D01*
X1207079Y-12124D02*
G01*
X1207079Y-149825D01*
X1207079Y-149825D02*
G01*
X1207904Y-157150D01*
X1207904Y-157150D02*
G01*
X1210338Y-164108D01*
X1210338Y-164108D02*
G01*
X1214260Y-170349D01*
X1214260Y-170349D02*
G01*
X1219473Y-175562D01*
X1219473Y-175562D02*
G01*
X1226218Y-179660D01*
X1226218Y-179660D02*
G01*
X1226218Y-238996D01*
X1226218Y-238996D02*
G01*
X1220995Y-240823D01*
X1220995Y-240823D02*
G01*
X1214753Y-244745D01*
X1214753Y-244745D02*
G01*
X1209541Y-249957D01*
X1209541Y-249957D02*
G01*
X1205619Y-256199D01*
X1205619Y-256199D02*
G01*
X1203185Y-263156D01*
X1203185Y-263156D02*
G01*
X1202359Y-270482D01*
X1202359Y-270482D02*
G01*
X1202359Y-390481D01*
X1202359Y-390481D02*
G01*
X1203185Y-397806D01*
X1203185Y-397806D02*
G01*
X1205619Y-404764D01*
X1205619Y-404764D02*
G01*
X1209541Y-411006D01*
X1209541Y-411006D02*
G01*
X1214753Y-416218D01*
X1214753Y-416218D02*
G01*
X1220995Y-420140D01*
X1220995Y-420140D02*
G01*
X1227953Y-422574D01*
X1227953Y-422574D02*
G01*
X1234822Y-423348D01*
X1234822Y-423348D02*
G01*
X1234842Y-505651D01*
X1234842Y-505651D02*
G01*
X1227953Y-506427D01*
X1227953Y-506427D02*
G01*
X1220995Y-508862D01*
X1220995Y-508862D02*
G01*
X1214753Y-512784D01*
X1214753Y-512784D02*
G01*
X1209541Y-517996D01*
X1209541Y-517996D02*
G01*
X1205619Y-524237D01*
X1205619Y-524237D02*
G01*
X1203185Y-531195D01*
X1203185Y-531195D02*
G01*
X1202359Y-538520D01*
X1202359Y-538520D02*
G01*
X1202359Y-658520D01*
X1202359Y-658520D02*
G01*
X1203185Y-665845D01*
X1203185Y-665845D02*
G01*
X1205619Y-672803D01*
X1205619Y-672803D02*
G01*
X1209541Y-679044D01*
X1209541Y-679044D02*
G01*
X1214753Y-684256D01*
X1214753Y-684256D02*
G01*
X1220995Y-688178D01*
X1220995Y-688178D02*
G01*
X1227953Y-690613D01*
X1227953Y-690613D02*
G01*
X1235278Y-691438D01*
X1235278Y-691438D02*
G01*
X1242362Y-691438D01*
X1242362Y-691438D02*
G01*
X1242362Y-708648D01*
X1242362Y-708648D02*
G01*
X1238377Y-712633D01*
X1238377Y-712633D02*
G01*
X1234541Y-711853D01*
X1234541Y-711853D02*
G01*
X1219997Y-710879D01*
X1219997Y-710879D02*
G01*
X1205453Y-711853D01*
X1205453Y-711853D02*
G01*
X1191169Y-714757D01*
X1191169Y-714757D02*
G01*
X1177398Y-719538D01*
X1177398Y-719538D02*
G01*
X1164389Y-726112D01*
X1164389Y-726112D02*
G01*
X1152371Y-734362D01*
X1152371Y-734362D02*
G01*
X1141560Y-744139D01*
X1141560Y-744139D02*
G01*
X1132149Y-755271D01*
X1132149Y-755271D02*
G01*
X1124306Y-767558D01*
X1124306Y-767558D02*
G01*
X1118170Y-780780D01*
X1118170Y-780780D02*
G01*
X1113851Y-794702D01*
X1113851Y-794702D02*
G01*
X1111427Y-809076D01*
X1111427Y-809076D02*
G01*
X1110940Y-823644D01*
X1110940Y-823644D02*
G01*
X1112399Y-838147D01*
X1112399Y-838147D02*
G01*
X1115778Y-852327D01*
X1115778Y-852327D02*
G01*
X1121017Y-865930D01*
X1121017Y-865930D02*
G01*
X1128022Y-878712D01*
X1128022Y-878712D02*
G01*
X1136669Y-890448D01*
X19480Y-895711D02*
G01*
X25722Y-899633D01*
X25722Y-899633D02*
G01*
X32679Y-902068D01*
X32679Y-902068D02*
G01*
X40004Y-902893D01*
X40004Y-902893D02*
G01*
X170053Y-902893D01*
X170053Y-902893D02*
G01*
X177378Y-902068D01*
X177378Y-902068D02*
G01*
X184335Y-899633D01*
X184335Y-899633D02*
G01*
X190577Y-895711D01*
X190577Y-895711D02*
G01*
X195789Y-890499D01*
X195789Y-890499D02*
G01*
X199711Y-884258D01*
X199711Y-884258D02*
G01*
X202146Y-877300D01*
X202146Y-877300D02*
G01*
X202971Y-869975D01*
X202971Y-869975D02*
G01*
X202971Y-730021D01*
X202971Y-730021D02*
G01*
X202146Y-722696D01*
X202146Y-722696D02*
G01*
X199711Y-715738D01*
X199711Y-715738D02*
G01*
X195789Y-709497D01*
X195789Y-709497D02*
G01*
X190577Y-704284D01*
X190577Y-704284D02*
G01*
X184335Y-700362D01*
X184335Y-700362D02*
G01*
X177378Y-697928D01*
X177378Y-697928D02*
G01*
X170053Y-697103D01*
X170053Y-697103D02*
G01*
X164539Y-697103D01*
X164539Y-697103D02*
G01*
X164539Y-619556D01*
X164539Y-619556D02*
G01*
X167536Y-618508D01*
X167536Y-618508D02*
G01*
X173777Y-614586D01*
X173777Y-614586D02*
G01*
X178989Y-609373D01*
X178989Y-609373D02*
G01*
X182912Y-603132D01*
X182912Y-603132D02*
G01*
X185346Y-596174D01*
X185346Y-596174D02*
G01*
X186171Y-588849D01*
X186171Y-588849D02*
G01*
X186171Y-451148D01*
X186171Y-451148D02*
G01*
X185346Y-443823D01*
X185346Y-443823D02*
G01*
X182912Y-436865D01*
X182912Y-436865D02*
G01*
X178989Y-430624D01*
X178989Y-430624D02*
G01*
X173777Y-425411D01*
X173777Y-425411D02*
G01*
X167536Y-421489D01*
X167536Y-421489D02*
G01*
X160578Y-419055D01*
X160578Y-419055D02*
G01*
X153253Y-418230D01*
X153253Y-418230D02*
G01*
X39999Y-418230D01*
X39999Y-418230D02*
G01*
X32674Y-419055D01*
X32674Y-419055D02*
G01*
X25717Y-421489D01*
X25717Y-421489D02*
G01*
X19475Y-425411D01*
X19475Y-425411D02*
G01*
X14263Y-430624D01*
X14263Y-430624D02*
G01*
X10341Y-436865D01*
X10341Y-436865D02*
G01*
X7906Y-443823D01*
X7906Y-443823D02*
G01*
X7081Y-451148D01*
X7081Y-451148D02*
G01*
X7081Y-588849D01*
X7081Y-588849D02*
G01*
X7906Y-596174D01*
X7906Y-596174D02*
G01*
X10341Y-603132D01*
X10341Y-603132D02*
G01*
X14263Y-609373D01*
X14263Y-609373D02*
G01*
X19475Y-614586D01*
X19475Y-614586D02*
G01*
X25717Y-618508D01*
X25717Y-618508D02*
G01*
X28703Y-619552D01*
X28703Y-619552D02*
G01*
X28703Y-699319D01*
X28703Y-699319D02*
G01*
X25722Y-700362D01*
X25722Y-700362D02*
G01*
X19480Y-704284D01*
X19480Y-704284D02*
G01*
X14268Y-709497D01*
X14268Y-709497D02*
G01*
X10346Y-715738D01*
X10346Y-715738D02*
G01*
X7911Y-722696D01*
X7911Y-722696D02*
G01*
X7086Y-730021D01*
X7086Y-730021D02*
G01*
X7086Y-869975D01*
X7086Y-869975D02*
G01*
X7911Y-877300D01*
X7911Y-877300D02*
G01*
X10346Y-884258D01*
X10346Y-884258D02*
G01*
X14268Y-890499D01*
X14268Y-890499D02*
G01*
X19480Y-895711D01*
X-1397589Y-497719D02*
G01*
X-1392018Y-504029D01*
X-1392018Y-504029D02*
G01*
X-1328033Y-568014D01*
X-1328033Y-568014D02*
G01*
X-1319473Y-575264D01*
X-1319473Y-575264D02*
G01*
X-1309837Y-581005D01*
X-1309837Y-581005D02*
G01*
X-1299387Y-585083D01*
X-1299387Y-585083D02*
G01*
X-1288408Y-587385D01*
X-1288408Y-587385D02*
G01*
X-1280007Y-587907D01*
X-1280007Y-587907D02*
G01*
X-1246169Y-587907D01*
X-1246169Y-587907D02*
G01*
X-1245344Y-596174D01*
X-1245344Y-596174D02*
G01*
X-1242909Y-603132D01*
X-1242909Y-603132D02*
G01*
X-1238987Y-609373D01*
X-1238987Y-609373D02*
G01*
X-1233775Y-614586D01*
X-1233775Y-614586D02*
G01*
X-1227533Y-618508D01*
X-1227533Y-618508D02*
G01*
X-1220576Y-620942D01*
X-1220576Y-620942D02*
G01*
X-1213251Y-621767D01*
X-1213251Y-621767D02*
G01*
X-1099997Y-621767D01*
X-1099997Y-621767D02*
G01*
X-1092672Y-620942D01*
X-1092672Y-620942D02*
G01*
X-1085715Y-618508D01*
X-1085715Y-618508D02*
G01*
X-1079473Y-614586D01*
X-1079473Y-614586D02*
G01*
X-1074261Y-609373D01*
X-1074261Y-609373D02*
G01*
X-1070339Y-603132D01*
X-1070339Y-603132D02*
G01*
X-1067904Y-596174D01*
X-1067904Y-596174D02*
G01*
X-1067079Y-588849D01*
X-1067079Y-588849D02*
G01*
X-1067079Y-451148D01*
X-1067079Y-451148D02*
G01*
X-1067904Y-443823D01*
X-1067904Y-443823D02*
G01*
X-1070339Y-436865D01*
X-1070339Y-436865D02*
G01*
X-1074261Y-430624D01*
X-1074261Y-430624D02*
G01*
X-1079473Y-425411D01*
X-1079473Y-425411D02*
G01*
X-1085715Y-421489D01*
X-1085715Y-421489D02*
G01*
X-1092672Y-419055D01*
X-1092672Y-419055D02*
G01*
X-1099997Y-418230D01*
X-1099997Y-418230D02*
G01*
X-1213251Y-418230D01*
X-1213251Y-418230D02*
G01*
X-1220576Y-419055D01*
X-1220576Y-419055D02*
G01*
X-1227533Y-421489D01*
X-1227533Y-421489D02*
G01*
X-1233775Y-425411D01*
X-1233775Y-425411D02*
G01*
X-1238987Y-430624D01*
X-1238987Y-430624D02*
G01*
X-1242909Y-436865D01*
X-1242909Y-436865D02*
G01*
X-1245344Y-443823D01*
X-1245344Y-443823D02*
G01*
X-1246169Y-452070D01*
X-1246169Y-452070D02*
G01*
X-1251874Y-452070D01*
X-1251874Y-452070D02*
G01*
X-1276074Y-427870D01*
X-1276074Y-427870D02*
G01*
X-1276074Y-342320D01*
X-1276074Y-342320D02*
G01*
X-1269099Y-336811D01*
X-1269099Y-336811D02*
G01*
X-1258729Y-326089D01*
X-1258729Y-326089D02*
G01*
X-1249881Y-314081D01*
X-1249881Y-314081D02*
G01*
X-1242713Y-301000D01*
X-1242713Y-301000D02*
G01*
X-1237352Y-287081D01*
X-1237352Y-287081D02*
G01*
X-1233894Y-272571D01*
X-1233894Y-272571D02*
G01*
X-1232401Y-257731D01*
X-1232401Y-257731D02*
G01*
X-1232900Y-242823D01*
X-1232900Y-242823D02*
G01*
X-1235381Y-228115D01*
X-1235381Y-228115D02*
G01*
X-1239800Y-213869D01*
X-1239800Y-213869D02*
G01*
X-1246079Y-200338D01*
X-1246079Y-200338D02*
G01*
X-1254104Y-187766D01*
X-1254104Y-187766D02*
G01*
X-1263735Y-176375D01*
X-1263735Y-176375D02*
G01*
X-1274797Y-166370D01*
X-1274797Y-166370D02*
G01*
X-1287094Y-157928D01*
X-1287094Y-157928D02*
G01*
X-1300407Y-151201D01*
X-1300407Y-151201D02*
G01*
X-1314498Y-146308D01*
X-1314498Y-146308D02*
G01*
X-1329115Y-143337D01*
X-1329115Y-143337D02*
G01*
X-1343997Y-142341D01*
X-1343997Y-142341D02*
G01*
X-1358880Y-143337D01*
X-1358880Y-143337D02*
G01*
X-1373497Y-146308D01*
X-1373497Y-146308D02*
G01*
X-1387588Y-151201D01*
X-1387588Y-151201D02*
G01*
X-1400900Y-157928D01*
X-1400900Y-157928D02*
G01*
X-1413198Y-166370D01*
X-1413198Y-166370D02*
G01*
X-1424260Y-176375D01*
X-1424260Y-176375D02*
G01*
X-1433890Y-187766D01*
X-1433890Y-187766D02*
G01*
X-1441916Y-200338D01*
X-1441916Y-200338D02*
G01*
X-1448195Y-213869D01*
X-1448195Y-213869D02*
G01*
X-1452614Y-228115D01*
X-1452614Y-228115D02*
G01*
X-1455095Y-242823D01*
X-1455095Y-242823D02*
G01*
X-1455593Y-257731D01*
X-1455593Y-257731D02*
G01*
X-1454100Y-272571D01*
X-1454100Y-272571D02*
G01*
X-1450643Y-287081D01*
X-1450643Y-287081D02*
G01*
X-1445282Y-301000D01*
X-1445282Y-301000D02*
G01*
X-1438113Y-314081D01*
X-1438113Y-314081D02*
G01*
X-1429266Y-326089D01*
X-1429266Y-326089D02*
G01*
X-1418896Y-336811D01*
X-1418896Y-336811D02*
G01*
X-1411911Y-342327D01*
X-1411911Y-342327D02*
G01*
X-1411911Y-456003D01*
X-1411911Y-456003D02*
G01*
X-1410984Y-467182D01*
X-1410984Y-467182D02*
G01*
X-1408231Y-478056D01*
X-1408231Y-478056D02*
G01*
X-1403725Y-488329D01*
X-1403725Y-488329D02*
G01*
X-1397589Y-497719D01*
X-1140521Y895410D02*
G01*
X-1134280Y891488D01*
X-1134280Y891488D02*
G01*
X-1127322Y889054D01*
X-1127322Y889054D02*
G01*
X-1119997Y888229D01*
X-1119997Y888229D02*
G01*
X-1006744Y888229D01*
X-1006744Y888229D02*
G01*
X-999419Y889054D01*
X-999419Y889054D02*
G01*
X-992461Y891488D01*
X-992461Y891488D02*
G01*
X-986220Y895410D01*
X-986220Y895410D02*
G01*
X-981007Y900623D01*
X-981007Y900623D02*
G01*
X-977085Y906864D01*
X-977085Y906864D02*
G01*
X-974651Y913822D01*
X-974651Y913822D02*
G01*
X-973825Y922050D01*
X-973825Y922050D02*
G01*
X-921869Y922050D01*
X-921869Y922050D02*
G01*
X-919633Y915662D01*
X-919633Y915662D02*
G01*
X-915711Y909420D01*
X-915711Y909420D02*
G01*
X-910499Y904208D01*
X-910499Y904208D02*
G01*
X-904258Y900286D01*
X-904258Y900286D02*
G01*
X-897300Y897851D01*
X-897300Y897851D02*
G01*
X-889975Y897026D01*
X-889975Y897026D02*
G01*
X-750021Y897026D01*
X-750021Y897026D02*
G01*
X-742696Y897851D01*
X-742696Y897851D02*
G01*
X-735738Y900286D01*
X-735738Y900286D02*
G01*
X-729497Y904208D01*
X-729497Y904208D02*
G01*
X-724284Y909420D01*
X-724284Y909420D02*
G01*
X-720362Y915662D01*
X-720362Y915662D02*
G01*
X-717928Y922619D01*
X-717928Y922619D02*
G01*
X-717102Y929944D01*
X-717102Y929944D02*
G01*
X-717102Y1059992D01*
X-717102Y1059992D02*
G01*
X-717928Y1067317D01*
X-717928Y1067317D02*
G01*
X-720362Y1074275D01*
X-720362Y1074275D02*
G01*
X-724284Y1080517D01*
X-724284Y1080517D02*
G01*
X-729497Y1085729D01*
X-729497Y1085729D02*
G01*
X-735738Y1089651D01*
X-735738Y1089651D02*
G01*
X-742696Y1092085D01*
X-742696Y1092085D02*
G01*
X-750021Y1092911D01*
X-750021Y1092911D02*
G01*
X-889975Y1092911D01*
X-889975Y1092911D02*
G01*
X-897300Y1092085D01*
X-897300Y1092085D02*
G01*
X-904258Y1089651D01*
X-904258Y1089651D02*
G01*
X-910499Y1085729D01*
X-910499Y1085729D02*
G01*
X-915711Y1080517D01*
X-915711Y1080517D02*
G01*
X-919633Y1074275D01*
X-919633Y1074275D02*
G01*
X-921869Y1067887D01*
X-921869Y1067887D02*
G01*
X-975250Y1067887D01*
X-975250Y1067887D02*
G01*
X-977085Y1073131D01*
X-977085Y1073131D02*
G01*
X-981007Y1079372D01*
X-981007Y1079372D02*
G01*
X-986220Y1084585D01*
X-986220Y1084585D02*
G01*
X-992461Y1088507D01*
X-992461Y1088507D02*
G01*
X-999419Y1090941D01*
X-999419Y1090941D02*
G01*
X-1006744Y1091766D01*
X-1006744Y1091766D02*
G01*
X-1119997Y1091766D01*
X-1119997Y1091766D02*
G01*
X-1127322Y1090941D01*
X-1127322Y1090941D02*
G01*
X-1134280Y1088507D01*
X-1134280Y1088507D02*
G01*
X-1140521Y1084585D01*
X-1140521Y1084585D02*
G01*
X-1145734Y1079372D01*
X-1145734Y1079372D02*
G01*
X-1149656Y1073131D01*
X-1149656Y1073131D02*
G01*
X-1152090Y1066173D01*
X-1152090Y1066173D02*
G01*
X-1152916Y1058848D01*
X-1152916Y1058848D02*
G01*
X-1152916Y921147D01*
X-1152916Y921147D02*
G01*
X-1152090Y913822D01*
X-1152090Y913822D02*
G01*
X-1149656Y906864D01*
X-1149656Y906864D02*
G01*
X-1145734Y900623D01*
X-1145734Y900623D02*
G01*
X-1140521Y895410D01*
X-1283239Y-1027570D02*
G01*
X-1271528Y-1038566D01*
X-1271528Y-1038566D02*
G01*
X-1258532Y-1048009D01*
X-1258532Y-1048009D02*
G01*
X-1244455Y-1055748D01*
X-1244455Y-1055748D02*
G01*
X-1229519Y-1061661D01*
X-1229519Y-1061661D02*
G01*
X-1213959Y-1065656D01*
X-1213959Y-1065656D02*
G01*
X-1198022Y-1067670D01*
X-1198022Y-1067670D02*
G01*
X-1181957Y-1067670D01*
X-1181957Y-1067670D02*
G01*
X-1166020Y-1065656D01*
X-1166020Y-1065656D02*
G01*
X-1150460Y-1061661D01*
X-1150460Y-1061661D02*
G01*
X-1135524Y-1055748D01*
X-1135524Y-1055748D02*
G01*
X-1121447Y-1048009D01*
X-1121447Y-1048009D02*
G01*
X-1108451Y-1038566D01*
X-1108451Y-1038566D02*
G01*
X-1096740Y-1027570D01*
X-1096740Y-1027570D02*
G01*
X-1086501Y-1015192D01*
X-1086501Y-1015192D02*
G01*
X-1077893Y-1001628D01*
X-1077893Y-1001628D02*
G01*
X-1071053Y-987093D01*
X-1071053Y-987093D02*
G01*
X-1066089Y-971815D01*
X-1066089Y-971815D02*
G01*
X-1063079Y-956035D01*
X-1063079Y-956035D02*
G01*
X-1062070Y-940003D01*
X-1062070Y-940003D02*
G01*
X-1063079Y-923970D01*
X-1063079Y-923970D02*
G01*
X-1066089Y-908190D01*
X-1066089Y-908190D02*
G01*
X-1071053Y-892912D01*
X-1071053Y-892912D02*
G01*
X-1077893Y-878377D01*
X-1077893Y-878377D02*
G01*
X-1086501Y-864814D01*
X-1086501Y-864814D02*
G01*
X-1096740Y-852436D01*
X-1096740Y-852436D02*
G01*
X-1108451Y-841439D01*
X-1108451Y-841439D02*
G01*
X-1121447Y-831997D01*
X-1121447Y-831997D02*
G01*
X-1135524Y-824258D01*
X-1135524Y-824258D02*
G01*
X-1150460Y-818344D01*
X-1150460Y-818344D02*
G01*
X-1166020Y-814349D01*
X-1166020Y-814349D02*
G01*
X-1181957Y-812336D01*
X-1181957Y-812336D02*
G01*
X-1198022Y-812336D01*
X-1198022Y-812336D02*
G01*
X-1213959Y-814349D01*
X-1213959Y-814349D02*
G01*
X-1229519Y-818344D01*
X-1229519Y-818344D02*
G01*
X-1244455Y-824258D01*
X-1244455Y-824258D02*
G01*
X-1258532Y-831997D01*
X-1258532Y-831997D02*
G01*
X-1271528Y-841439D01*
X-1271528Y-841439D02*
G01*
X-1283239Y-852436D01*
X-1283239Y-852436D02*
G01*
X-1293478Y-864814D01*
X-1293478Y-864814D02*
G01*
X-1302086Y-878377D01*
X-1302086Y-878377D02*
G01*
X-1308926Y-892912D01*
X-1308926Y-892912D02*
G01*
X-1313890Y-908190D01*
X-1313890Y-908190D02*
G01*
X-1316900Y-923970D01*
X-1316900Y-923970D02*
G01*
X-1317909Y-940003D01*
X-1317909Y-940003D02*
G01*
X-1316900Y-956035D01*
X-1316900Y-956035D02*
G01*
X-1313890Y-971815D01*
X-1313890Y-971815D02*
G01*
X-1308926Y-987093D01*
X-1308926Y-987093D02*
G01*
X-1302086Y-1001628D01*
X-1302086Y-1001628D02*
G01*
X-1293478Y-1015192D01*
X-1293478Y-1015192D02*
G01*
X-1283239Y-1027570D01*
X-1418329Y-1090190D02*
G01*
X-1089558Y-1418962D01*
X-1557428Y-880400D02*
G01*
X-880847Y-1556981D01*
X-1629881Y-737253D02*
G01*
X-736895Y-1630240D01*
X-1679083Y-617359D02*
G01*
X-1308550Y-987892D01*
X-1238229Y-1058213D02*
G01*
X-617424Y-1679018D01*
X-1714194Y-511555D02*
G01*
X-1314478Y-911271D01*
X-1161304Y-1064445D02*
G01*
X-511344Y-1714406D01*
X-1740006Y-415051D02*
G01*
X-1292014Y-863043D01*
X-1113107Y-1041950D02*
G01*
X-414996Y-1740061D01*
X-1759282Y-325082D02*
G01*
X-1254554Y-829810D01*
X-1079773Y-1004591D02*
G01*
X-325308Y-1759056D01*
X-1772493Y-241179D02*
G01*
X-1200964Y-812707D01*
X-1062757Y-950915D02*
G01*
X-241146Y-1772526D01*
X-1781607Y-161372D02*
G01*
X-161224Y-1781755D01*
X-1786973Y-85314D02*
G01*
X-1411516Y-460771D01*
X-1284669Y-587617D02*
G01*
X-85474Y-1786813D01*
X-1788821Y-12773D02*
G01*
X-1411911Y-389684D01*
X-1179827Y-621767D02*
G01*
X-592971Y-1208623D01*
X-553685Y-1247909D02*
G01*
X-12817Y-1788776D01*
X-1787914Y57012D02*
G01*
X-1452777Y-278124D01*
X-1109134Y-621767D02*
G01*
X-592971Y-1137930D01*
X-482992Y-1247909D02*
G01*
X57052Y-1787955D01*
X-1784506Y124296D02*
G01*
X-1447607Y-212602D01*
X-1276074Y-384135D02*
G01*
X-1234286Y-425922D01*
X-1067512Y-592696D02*
G01*
X-592187Y-1068022D01*
X-412300Y-1247909D02*
G01*
X124398Y-1784608D01*
X-1778813Y189296D02*
G01*
X-1418421Y-171095D01*
X-1261039Y-328477D02*
G01*
X-1171287Y-418230D01*
X-1067079Y-522437D02*
G01*
X-1052916Y-536600D01*
X-967749Y-621767D02*
G01*
X-547449Y-1042068D01*
X-342509Y-1247007D02*
G01*
X189438Y-1778956D01*
X-1771019Y252195D02*
G01*
X-1372681Y-146142D01*
X-1236273Y-282551D02*
G01*
X-1100594Y-418230D01*
X-1067079Y-451745D02*
G01*
X-1052916Y-465908D01*
X-898280Y-620544D02*
G01*
X-476756Y-1042068D01*
X-303427Y-1215397D02*
G01*
X252350Y-1771175D01*
X-1761284Y313152D02*
G01*
X-1293378Y-154753D01*
X-1244594Y-203537D02*
G01*
X-1201232Y-246900D01*
X-1082728Y-365403D02*
G01*
X-1028622Y-419509D01*
X-860227Y-587904D02*
G01*
X-406063Y-1042068D01*
X-232734Y-1215397D02*
G01*
X313256Y-1761388D01*
X-1749744Y372304D02*
G01*
X-1183704Y-193735D01*
X-1029683Y-347755D02*
G01*
X-959209Y-418230D01*
X-789534Y-587904D02*
G01*
X-604526Y-772913D01*
X-349495Y-1027944D02*
G01*
X-302879Y-1074559D01*
X-162041Y-1215397D02*
G01*
X372389Y-1749829D01*
X-1736517Y429770D02*
G01*
X-1148040Y-158706D01*
X-994745Y-312001D02*
G01*
X-854679Y-452067D01*
X-718842Y-587904D02*
G01*
X-604526Y-702220D01*
X-278802Y-1027944D02*
G01*
X-232187Y-1074559D01*
X-91349Y-1215397D02*
G01*
X429864Y-1736611D01*
X-1721708Y485654D02*
G01*
X-1446678Y210623D01*
X-1387481Y151427D02*
G01*
X-1192678Y-43376D01*
X-1133481Y-102572D02*
G01*
X-1093484Y-142569D01*
X-941022Y-295032D02*
G01*
X-783986Y-452067D01*
X-648149Y-587904D02*
G01*
X-632892Y-603162D01*
X-617565Y-618488D02*
G01*
X-604526Y-631528D01*
X-488689Y-747364D02*
G01*
X-323946Y-912107D01*
X-208110Y-1027944D02*
G01*
X-161494Y-1074559D01*
X-20656Y-1215397D02*
G01*
X485779Y-1721833D01*
X-1705407Y540045D02*
G01*
X-1450870Y285508D01*
X-1312481Y147119D02*
G01*
X-1196870Y31508D01*
X-1058481Y-106880D02*
G01*
X-980144Y-185217D01*
X-905307Y-260054D02*
G01*
X-713293Y-452067D01*
X-488689Y-676672D02*
G01*
X-253254Y-912107D01*
X-137417Y-1027944D02*
G01*
X-90802Y-1074559D01*
X50035Y-1215397D02*
G01*
X540184Y-1705545D01*
X-1687691Y593022D02*
G01*
X-1425191Y330522D01*
X-1267505Y172836D02*
G01*
X-1171191Y76522D01*
X-1013505Y-81163D02*
G01*
X-944798Y-149870D01*
X-869960Y-224708D02*
G01*
X-642601Y-452067D01*
X-476046Y-618623D02*
G01*
X-182561Y-912107D01*
X-66724Y-1027944D02*
G01*
X-20109Y-1074559D01*
X120728Y-1215397D02*
G01*
X593135Y-1687804D01*
X-1668631Y644655D02*
G01*
X-1411832Y387855D01*
X-1239449Y215473D02*
G01*
X-1128530Y104554D01*
X-971058Y-52918D02*
G01*
X-909452Y-114524D01*
X-834614Y-189362D02*
G01*
X-607879Y-416097D01*
X-457080Y-566895D02*
G01*
X-111868Y-912107D01*
X3967Y-1027944D02*
G01*
X50583Y-1074559D01*
X191421Y-1215397D02*
G01*
X644737Y-1668714D01*
X-1648287Y695003D02*
G01*
X-1411832Y458548D01*
X-1236375Y283091D02*
G01*
X-1201374Y248090D01*
X-1095875Y142591D02*
G01*
X-1061096Y107812D01*
X-901305Y-51978D02*
G01*
X-874105Y-79178D01*
X-799268Y-154015D02*
G01*
X-618251Y-335032D01*
X-457080Y-496203D02*
G01*
X-41176Y-912107D01*
X74660Y-1027944D02*
G01*
X121275Y-1074559D01*
X262113Y-1215397D02*
G01*
X695052Y-1648336D01*
X-1626713Y744122D02*
G01*
X-1411832Y529240D01*
X-1275995Y393404D02*
G01*
X-1188657Y306065D01*
X-1037940Y155348D02*
G01*
X-935509Y52918D01*
X-858917Y-23673D02*
G01*
X-838759Y-43831D01*
X-763921Y-118669D02*
G01*
X-602904Y-279687D01*
X-486752Y-395838D02*
G01*
X29516Y-912107D01*
X145352Y-1027944D02*
G01*
X191968Y-1074559D01*
X365318Y-1247909D02*
G01*
X744133Y-1626724D01*
X-1603955Y792056D02*
G01*
X-1411832Y599933D01*
X-1240128Y428230D02*
G01*
X-1161286Y349387D01*
X-1000096Y188197D02*
G01*
X-898409Y86510D01*
X-822480Y10581D02*
G01*
X-798855Y-13043D01*
X-695480Y-116418D02*
G01*
X-588344Y-223554D01*
X-485542Y-326356D02*
G01*
X7086Y-818985D01*
X90994Y-902893D02*
G01*
X100208Y-912107D01*
X216045Y-1027944D02*
G01*
X262660Y-1074559D01*
X436010Y-1247909D02*
G01*
X792028Y-1603927D01*
X-1580055Y838849D02*
G01*
X-1410336Y669129D01*
X-1197613Y456407D02*
G01*
X-1161286Y420080D01*
X-942287Y201081D02*
G01*
X-856522Y115316D01*
X-751787Y10581D02*
G01*
X-730624Y-10581D01*
X-624787Y-116418D02*
G01*
X-553020Y-188185D01*
X-478182Y-263023D02*
G01*
X-186171Y-555034D01*
X-119438Y-621767D02*
G01*
X7086Y-748292D01*
X161687Y-902893D02*
G01*
X170901Y-912107D01*
X274860Y-1016066D02*
G01*
X320313Y-1061519D01*
X506703Y-1247909D02*
G01*
X838778Y-1579984D01*
X-1555048Y884534D02*
G01*
X-1383280Y712766D01*
X-1197079Y526565D02*
G01*
X-1182916Y512402D01*
X-1025450Y354936D02*
G01*
X-977432Y306918D01*
X-808095Y137581D02*
G01*
X-786932Y116418D01*
X-681095Y10581D02*
G01*
X-659932Y-10581D01*
X-554095Y-116418D02*
G01*
X-517651Y-152861D01*
X-415595Y-254918D02*
G01*
X-186171Y-484341D01*
X-48745Y-621767D02*
G01*
X28703Y-699217D01*
X202616Y-873129D02*
G01*
X228816Y-899330D01*
X310725Y-981239D02*
G01*
X371554Y-1042068D01*
X574240Y-1244754D02*
G01*
X884419Y-1554933D01*
X-1528859Y929038D02*
G01*
X-1347934Y748112D01*
X-1251883Y652061D02*
G01*
X-1231589Y631767D01*
X-1197079Y597257D02*
G01*
X-1182916Y583094D01*
X-1025450Y425628D02*
G01*
X-906739Y306918D01*
X-737402Y137581D02*
G01*
X-716239Y116418D01*
X-610402Y10581D02*
G01*
X-589239Y-10581D01*
X-483402Y-116418D02*
G01*
X-465458Y-134362D01*
X-344903Y-254918D02*
G01*
X-174093Y-425727D01*
X-7475Y-592345D02*
G01*
X28703Y-628524D01*
X202971Y-802792D02*
G01*
X264163Y-863984D01*
X346071Y-945892D02*
G01*
X387249Y-987070D01*
X593175Y-1192996D02*
G01*
X928984Y-1528805D01*
X-1501533Y972404D02*
G01*
X-1324537Y795409D01*
X-1216536Y687408D02*
G01*
X-1159358Y630230D01*
X-991206Y462078D02*
G01*
X-772546Y243418D01*
X-666710Y137581D02*
G01*
X-645546Y116418D01*
X-539710Y10581D02*
G01*
X-518546Y-10581D01*
X-274210Y-254918D02*
G01*
X-149438Y-379690D01*
X-7081Y-522046D02*
G01*
X7081Y-536210D01*
X164539Y-693668D02*
G01*
X167974Y-697103D01*
X202971Y-732099D02*
G01*
X295395Y-824524D01*
X381418Y-910546D02*
G01*
X407373Y-936501D01*
X593175Y-1122303D02*
G01*
X972499Y-1501627D01*
X-1473178Y1014742D02*
G01*
X-1324537Y866101D01*
X-1175631Y717195D02*
G01*
X-1090203Y631767D01*
X-920514Y462078D02*
G01*
X-915687Y457251D01*
X-887099Y428663D02*
G01*
X-701854Y243418D01*
X-596017Y137581D02*
G01*
X-574854Y116418D01*
X-466095Y7659D02*
G01*
X-455588Y-2847D01*
X-224590Y-233846D02*
G01*
X-149438Y-308997D01*
X-43601Y-414834D02*
G01*
X-40205Y-418230D01*
X-7081Y-451354D02*
G01*
X7081Y-465517D01*
X164539Y-622975D02*
G01*
X295395Y-753831D01*
X409958Y-868394D02*
G01*
X442719Y-901155D01*
X538770Y-997206D02*
G01*
X1014837Y-1473274D01*
X-1443813Y1056070D02*
G01*
X-1346169Y958426D01*
X-1104939Y717195D02*
G01*
X-985658Y597914D01*
X-815973Y428230D02*
G01*
X-631161Y243418D01*
X-525325Y137581D02*
G01*
X-504161Y116418D01*
X-260805Y-126937D02*
G01*
X-260635Y-127107D01*
X-208606Y-179137D02*
G01*
X-149438Y-238305D01*
X-43601Y-344141D02*
G01*
X31665Y-419408D01*
X186171Y-573915D02*
G01*
X295395Y-683139D01*
X411232Y-798975D02*
G01*
X478065Y-865809D01*
X574116Y-961860D02*
G01*
X1056113Y-1443856D01*
X-1413457Y1096406D02*
G01*
X-1346169Y1029118D01*
X-1188700Y871650D02*
G01*
X-1170083Y853032D01*
X-1034246Y717195D02*
G01*
X-916060Y599009D01*
X-751309Y434258D02*
G01*
X-560469Y243418D01*
X-200632Y-116418D02*
G01*
X-149438Y-167612D01*
X-43601Y-273449D02*
G01*
X101179Y-418230D01*
X186171Y-503222D02*
G01*
X263827Y-580878D01*
X411232Y-728283D02*
G01*
X478689Y-795740D01*
X607054Y-924105D02*
G01*
X1096395Y-1413446D01*
X-1382121Y1135763D02*
G01*
X-1332036Y1085678D01*
X-1167122Y920764D02*
G01*
X-1099390Y853032D01*
X-963554Y717195D02*
G01*
X-878126Y631767D01*
X-737080Y490721D02*
G01*
X-489776Y243418D01*
X-43601Y-202756D02*
G01*
X263827Y-510185D01*
X411232Y-657590D02*
G01*
X478689Y-725048D01*
X614526Y-860884D02*
G01*
X1135699Y-1382057D01*
X-1349819Y1174153D02*
G01*
X-1267432Y1091766D01*
X-1167079Y991413D02*
G01*
X-1152916Y977250D01*
X-1063894Y888229D02*
G01*
X-1028697Y853032D01*
X-892861Y717195D02*
G01*
X-807433Y631767D01*
X-737080Y561414D02*
G01*
X-430583Y254918D01*
X-45239Y-130426D02*
G01*
X265561Y-441226D01*
X434722Y-610387D02*
G01*
X478689Y-654355D01*
X614526Y-790191D02*
G01*
X1174034Y-1349700D01*
X-1316384Y1211411D02*
G01*
X-1196326Y1091353D01*
X-1167492Y1062519D02*
G01*
X-1152916Y1047943D01*
X-995425Y890452D02*
G01*
X-958005Y853032D01*
X-822168Y717195D02*
G01*
X-359891Y254918D01*
X-239728Y134755D02*
G01*
X-221391Y116418D01*
X267985Y-372958D02*
G01*
X313256Y-418230D01*
X442917Y-547890D02*
G01*
X457080Y-562053D01*
X614526Y-719499D02*
G01*
X1211409Y-1316382D01*
X-1281945Y1247664D02*
G01*
X-1125434Y1091154D01*
X-956331Y922050D02*
G01*
X-887312Y853032D01*
X-751476Y717195D02*
G01*
X-289198Y254918D01*
X-209623Y175342D02*
G01*
X-148185Y113905D01*
X338677Y-372958D02*
G01*
X383949Y-418230D01*
X442917Y-477198D02*
G01*
X457080Y-491361D01*
X614526Y-648806D02*
G01*
X1247784Y-1282064D01*
X-1246553Y1282965D02*
G01*
X-1055355Y1091766D01*
X-860614Y897026D02*
G01*
X-816620Y853032D01*
X-680783Y717195D02*
G01*
X210073Y-173661D01*
X291330Y-254918D02*
G01*
X303533Y-267121D01*
X409370Y-372958D02*
G01*
X465649Y-429237D01*
X634630Y-598218D02*
G01*
X1283029Y-1246617D01*
X-1210208Y1317313D02*
G01*
X-960782Y1067887D01*
X-789921Y897026D02*
G01*
X-745927Y853032D01*
X-610090Y717195D02*
G01*
X241171Y-134067D01*
X362022Y-254918D02*
G01*
X374226Y-267121D01*
X636170Y-529066D02*
G01*
X1317321Y-1210217D01*
X-1172908Y1350705D02*
G01*
X-908922Y1086720D01*
X-727954Y905751D02*
G01*
X-675235Y853032D01*
X-539398Y717195D02*
G01*
X213945Y-36148D01*
X432715Y-254918D02*
G01*
X444918Y-267121D01*
X636170Y-458373D02*
G01*
X1350658Y-1172861D01*
X-1134647Y1383137D02*
G01*
X-844421Y1092911D01*
X-717102Y965592D02*
G01*
X-604542Y853032D01*
X-468705Y717195D02*
G01*
X-347915Y596404D01*
X-278594Y527084D02*
G01*
X87035Y161454D01*
X241640Y6848D02*
G01*
X251141Y-2651D01*
X491908Y-243418D02*
G01*
X1130317Y-881827D01*
X1158751Y-910261D02*
G01*
X1383035Y-1134545D01*
X-1095318Y1414501D02*
G01*
X-773728Y1092911D01*
X-717102Y1036285D02*
G01*
X-533850Y853032D01*
X-398013Y717195D02*
G01*
X-347915Y667097D01*
X-207902Y527084D02*
G01*
X87035Y232146D01*
X445923Y-126741D02*
G01*
X446629Y-127447D01*
X574343Y-255160D02*
G01*
X1113859Y-794677D01*
X1245170Y-925988D02*
G01*
X1414442Y-1095260D01*
X-1054894Y1444769D02*
G01*
X-463157Y853032D01*
X-155534Y545408D02*
G01*
X88412Y301462D01*
X192872Y197002D02*
G01*
X262764Y127110D01*
X503290Y-113415D02*
G01*
X527456Y-137581D01*
X620759Y-230884D02*
G01*
X1138103Y-748228D01*
X1291856Y-901981D02*
G01*
X1444870Y-1054996D01*
X-1013477Y1474044D02*
G01*
X-392464Y853032D01*
X-152078Y612646D02*
G01*
X117807Y342759D01*
X192872Y267695D02*
G01*
X332649Y127918D01*
X457101Y3465D02*
G01*
X467819Y-7252D01*
X542657Y-82090D02*
G01*
X587621Y-127054D01*
X632939Y-172372D02*
G01*
X1179408Y-718840D01*
X1321068Y-860501D02*
G01*
X1474135Y-1013568D01*
X-971052Y1502312D02*
G01*
X-347915Y879175D01*
X-152078Y683338D02*
G01*
X153154Y378105D01*
X227991Y303268D02*
G01*
X403341Y127918D01*
X493025Y38234D02*
G01*
X503166Y28093D01*
X578003Y-46743D02*
G01*
X1208251Y-676991D01*
X1216807Y-685547D02*
G01*
X1241135Y-709875D01*
X1330115Y-798855D02*
G01*
X1502352Y-971092D01*
X-927597Y1529550D02*
G01*
X-347915Y949867D01*
X-152078Y754031D02*
G01*
X188500Y413452D01*
X263338Y338614D02*
G01*
X538512Y63440D01*
X613350Y-11397D02*
G01*
X1202359Y-600407D01*
X1362581Y-760629D02*
G01*
X1529541Y-927589D01*
X-883090Y1555735D02*
G01*
X-346465Y1019110D01*
X-152078Y824723D02*
G01*
X197017Y475627D01*
X296764Y375880D02*
G01*
X573858Y98786D01*
X648696Y23948D02*
G01*
X1203354Y-530709D01*
X1368198Y-695553D02*
G01*
X1555679Y-883034D01*
X-837501Y1580839D02*
G01*
X-299582Y1042920D01*
X-152078Y895416D02*
G01*
X152086Y591251D01*
X302854Y440483D02*
G01*
X609205Y134132D01*
X684042Y59295D02*
G01*
X1234838Y-491500D01*
X1407554Y-664216D02*
G01*
X1580736Y-837399D01*
X-790768Y1604798D02*
G01*
X-228889Y1042920D01*
X-152078Y966109D02*
G01*
X152086Y661944D01*
X302854Y511176D02*
G01*
X644551Y169479D01*
X736415Y77614D02*
G01*
X1202359Y-388329D01*
X1408196Y-594165D02*
G01*
X1604683Y-790653D01*
X-742755Y1627478D02*
G01*
X152086Y732636D01*
X342478Y542244D02*
G01*
X679969Y204752D01*
X807641Y77081D02*
G01*
X1202359Y-317636D01*
X1375676Y-490953D02*
G01*
X1627482Y-742759D01*
X-693560Y1648976D02*
G01*
X152086Y803329D01*
X347922Y607492D02*
G01*
X713955Y241460D01*
X878334Y77081D02*
G01*
X1207933Y-252517D01*
X1378457Y-423042D02*
G01*
X1649091Y-693675D01*
X-643137Y1669245D02*
G01*
X152086Y874021D01*
X347922Y678185D02*
G01*
X769936Y256171D01*
X927402Y98705D02*
G01*
X1226218Y-200109D01*
X1408196Y-382088D02*
G01*
X1669364Y-643256D01*
X-591433Y1688234D02*
G01*
X152086Y944714D01*
X347922Y748877D02*
G01*
X840629Y256171D01*
X998095Y98705D02*
G01*
X1207079Y-110278D01*
X1408196Y-311395D02*
G01*
X1688326Y-591525D01*
X-538388Y1705881D02*
G01*
X152633Y1014859D01*
X347922Y819570D02*
G01*
X932950Y234542D01*
X1099262Y68230D02*
G01*
X1207079Y-39585D01*
X1367055Y-199562D02*
G01*
X1705951Y-538458D01*
X-483932Y1722118D02*
G01*
X195265Y1042920D01*
X347922Y890262D02*
G01*
X1003643Y234542D01*
X1168661Y69524D02*
G01*
X1222646Y15539D01*
X1386169Y-147983D02*
G01*
X1722172Y-483986D01*
X-427989Y1736867D02*
G01*
X265958Y1042920D01*
X347922Y960955D02*
G01*
X1038319Y270558D01*
X1192916Y115962D02*
G01*
X1207079Y101799D01*
X1386169Y-77291D02*
G01*
X1736911Y-428033D01*
X-370468Y1750039D02*
G01*
X1107802Y271768D01*
X1192916Y186654D02*
G01*
X1207079Y172491D01*
X1385467Y-5896D02*
G01*
X1750081Y-370510D01*
X-311268Y1761532D02*
G01*
X1207518Y242745D01*
X1374313Y75950D02*
G01*
X1761580Y-311317D01*
X-250272Y1771228D02*
G01*
X1249187Y271768D01*
X1386169Y134786D02*
G01*
X1771294Y-250338D01*
X-187344Y1778993D02*
G01*
X1319880Y271768D01*
X1386169Y205479D02*
G01*
X1779090Y-187442D01*
X-122329Y1784670D02*
G01*
X1784815Y-122473D01*
X-55044Y1788078D02*
G01*
X1788152Y-55118D01*
X14720Y1789005D02*
G01*
X1788821Y14905D01*
X87671Y1786746D02*
G01*
X1786668Y87750D01*
X163805Y1781306D02*
G01*
X1781378Y163733D01*
X243506Y1772297D02*
G01*
X1772329Y243475D01*
X327952Y1758544D02*
G01*
X1758495Y328001D01*
X417702Y1739486D02*
G01*
X1739560Y417628D01*
X514709Y1713172D02*
G01*
X1713284Y514597D01*
X620994Y1677580D02*
G01*
X1677612Y620961D01*
X741233Y1628033D02*
G01*
X1628252Y741014D01*
X885854Y1554105D02*
G01*
X1554051Y885908D01*
X1099925Y1410726D02*
G01*
X1411480Y1099171D01*
X1151943Y-1368655D02*
G01*
X1369841Y-1150757D01*
X909388Y-1540517D02*
G01*
X1540893Y-909012D01*
X759358Y-1619855D02*
G01*
X1619661Y-759552D01*
X636868Y-1671652D02*
G01*
X1671920Y-636600D01*
X528906Y-1708922D02*
G01*
X1709145Y-528682D01*
X430760Y-1736375D02*
G01*
X1239968Y-927167D01*
X1327160Y-839975D02*
G01*
X1736162Y-430973D01*
X340286Y-1756157D02*
G01*
X1176592Y-919851D01*
X1368198Y-728244D02*
G01*
X1756239Y-340204D01*
X254996Y-1770753D02*
G01*
X1136089Y-889661D01*
X1408196Y-617554D02*
G01*
X1770563Y-255186D01*
X174756Y-1780302D02*
G01*
X1113267Y-841791D01*
X1408196Y-546862D02*
G01*
X1780474Y-174583D01*
X98233Y-1786131D02*
G01*
X1207913Y-676452D01*
X1378410Y-505955D02*
G01*
X1786146Y-98219D01*
X24916Y-1788756D02*
G01*
X566462Y-1247210D01*
X592475Y-1221197D02*
G01*
X1202359Y-611313D01*
X1375663Y-438009D02*
G01*
X1788653Y-25020D01*
X-45495Y-1788475D02*
G01*
X495070Y-1247909D01*
X593175Y-1149805D02*
G01*
X1202359Y-540620D01*
X1408196Y-334784D02*
G01*
X1788315Y45334D01*
X-113075Y-1785363D02*
G01*
X424378Y-1247909D01*
X593175Y-1079112D02*
G01*
X1234826Y-437461D01*
X1407549Y-264738D02*
G01*
X1785402Y113114D01*
X-178370Y-1779966D02*
G01*
X353685Y-1247909D01*
X559527Y-1042068D02*
G01*
X1203341Y-398253D01*
X1367055Y-234539D02*
G01*
X1780131Y178536D01*
X-241564Y-1772466D02*
G01*
X315505Y-1215397D01*
X607433Y-923469D02*
G01*
X1202359Y-328542D01*
X1386169Y-144733D02*
G01*
X1772597Y241694D01*
X-302812Y-1763023D02*
G01*
X244812Y-1215397D01*
X614526Y-845683D02*
G01*
X1208339Y-251870D01*
X1216666Y-243543D02*
G01*
X1226218Y-233992D01*
X1386169Y-74040D02*
G01*
X1763132Y302922D01*
X-362253Y-1751771D02*
G01*
X174120Y-1215397D01*
X314957Y-1074559D02*
G01*
X317695Y-1071822D01*
X347093Y-1042424D02*
G01*
X387249Y-1002267D01*
X614526Y-774991D02*
G01*
X1216714Y-172803D01*
X1385181Y-4335D02*
G01*
X1751871Y362353D01*
X-420005Y-1738830D02*
G01*
X103427Y-1215397D01*
X244265Y-1074559D02*
G01*
X478689Y-840135D01*
X614526Y-704298D02*
G01*
X1207079Y-111746D01*
X1367063Y48238D02*
G01*
X1738930Y420105D01*
X-476170Y-1724302D02*
G01*
X32734Y-1215397D01*
X173572Y-1074559D02*
G01*
X220188Y-1027944D01*
X411232Y-836900D02*
G01*
X478689Y-769442D01*
X614526Y-633606D02*
G01*
X1207079Y-41053D01*
X1386169Y138037D02*
G01*
X1724410Y476277D01*
X-530839Y-1708279D02*
G01*
X-37957Y-1215397D01*
X102880Y-1074559D02*
G01*
X149495Y-1027944D01*
X411232Y-766207D02*
G01*
X478689Y-698750D01*
X636170Y-541268D02*
G01*
X1226225Y48785D01*
X1386169Y208729D02*
G01*
X1708401Y530961D01*
X-584090Y-1690838D02*
G01*
X-108650Y-1215397D01*
X32187Y-1074559D02*
G01*
X78802Y-1027944D01*
X194639Y-912107D02*
G01*
X295395Y-811351D01*
X411232Y-695514D02*
G01*
X478689Y-628057D01*
X636170Y-470576D02*
G01*
X1207161Y100414D01*
X1372276Y265528D02*
G01*
X1690980Y584233D01*
X-635994Y-1672049D02*
G01*
X-179342Y-1215397D01*
X-38504Y-1074559D02*
G01*
X8110Y-1027944D01*
X123947Y-912107D02*
G01*
X133161Y-902893D01*
X202971Y-833083D02*
G01*
X295395Y-740659D01*
X411232Y-624822D02*
G01*
X414831Y-621223D01*
X442373Y-593681D02*
G01*
X457080Y-578974D01*
X615334Y-420720D02*
G01*
X1104285Y68230D01*
X1192916Y156861D02*
G01*
X1207079Y171024D01*
X1307823Y271768D02*
G01*
X1672116Y636061D01*
X-686611Y-1651973D02*
G01*
X-250035Y-1215397D01*
X-109197Y-1074559D02*
G01*
X-62582Y-1027944D01*
X53254Y-912107D02*
G01*
X62468Y-902893D01*
X202971Y-762390D02*
G01*
X295395Y-669966D01*
X442917Y-522444D02*
G01*
X457080Y-508281D01*
X596305Y-369056D02*
G01*
X1035714Y70352D01*
X1192916Y227553D02*
G01*
X1207443Y242081D01*
X1236766Y271404D02*
G01*
X1651943Y686581D01*
X-735995Y-1630664D02*
G01*
X-353240Y-1247909D01*
X-179890Y-1074559D02*
G01*
X-133274Y-1027944D01*
X-17438Y-912107D02*
G01*
X10371Y-884297D01*
X190459Y-704210D02*
G01*
X278593Y-616076D01*
X442917Y-451751D02*
G01*
X489925Y-404743D01*
X564763Y-329905D02*
G01*
X993375Y98705D01*
X1165786Y271116D02*
G01*
X1630527Y735858D01*
X-784040Y-1608017D02*
G01*
X-423932Y-1247909D01*
X-250582Y-1074559D02*
G01*
X-203967Y-1027944D01*
X-88130Y-912107D02*
G01*
X7086Y-816890D01*
X164539Y-659437D02*
G01*
X263827Y-560149D01*
X405746Y-418230D02*
G01*
X451018Y-372958D01*
X529417Y-294559D02*
G01*
X568816Y-255160D01*
X635170Y-188806D02*
G01*
X922682Y98705D01*
X1095745Y271768D02*
G01*
X1607916Y783939D01*
X-830926Y-1584210D02*
G01*
X-494625Y-1247909D01*
X-317598Y-1070882D02*
G01*
X-274659Y-1027944D01*
X-158823Y-912107D02*
G01*
X7086Y-746197D01*
X186171Y-567112D02*
G01*
X263827Y-489457D01*
X335054Y-418230D02*
G01*
X380326Y-372958D01*
X485645Y-267639D02*
G01*
X509866Y-243418D01*
X612610Y-140673D02*
G01*
X830365Y77081D01*
X987826Y234542D02*
G01*
X1584153Y830869D01*
X-876695Y-1559286D02*
G01*
X-564784Y-1247376D01*
X-359476Y-1042068D02*
G01*
X-345352Y-1027944D01*
X-229515Y-912107D02*
G01*
X28703Y-653888D01*
X186171Y-496420D02*
G01*
X309633Y-372958D01*
X415470Y-267121D02*
G01*
X427673Y-254918D01*
X556370Y-126221D02*
G01*
X759673Y77081D01*
X917134Y234542D02*
G01*
X1559275Y876683D01*
X-921379Y-1533279D02*
G01*
X-592971Y-1204871D01*
X-430168Y-1042068D02*
G01*
X-399956Y-1011855D01*
X-300208Y-912107D02*
G01*
X9933Y-601966D01*
X179871Y-432027D02*
G01*
X238940Y-372958D01*
X344777Y-267121D02*
G01*
X356980Y-254918D01*
X474317Y-137581D02*
G01*
X496620Y-115278D01*
X868070Y256171D02*
G01*
X1533314Y921415D01*
X-965008Y-1506215D02*
G01*
X-592971Y-1134178D01*
X-500861Y-1042068D02*
G01*
X-435322Y-976529D01*
X-353414Y-894621D02*
G01*
X-80561Y-621767D01*
X-7081Y-548288D02*
G01*
X7081Y-534125D01*
X122976Y-418230D02*
G01*
X183160Y-358046D01*
X274085Y-267121D02*
G01*
X286288Y-254918D01*
X797378Y256171D02*
G01*
X1506299Y965092D01*
X-1007605Y-1478119D02*
G01*
X-588904Y-1059418D01*
X-575621Y-1046135D02*
G01*
X-470669Y-941183D01*
X-388760Y-859274D02*
G01*
X-151253Y-621767D01*
X-7081Y-477595D02*
G01*
X7081Y-463432D01*
X52284Y-418230D02*
G01*
X147800Y-322714D01*
X222638Y-247876D02*
G01*
X230635Y-239878D01*
X463885Y-6628D02*
G01*
X1478251Y1007737D01*
X-1049192Y-1449013D02*
G01*
X-506015Y-905837D01*
X-424106Y-823928D02*
G01*
X-186171Y-585993D01*
X-23230Y-423052D02*
G01*
X112453Y-287367D01*
X187291Y-212529D02*
G01*
X207720Y-192101D01*
X491613Y91792D02*
G01*
X1448988Y1049167D01*
X-1089716Y-1418845D02*
G01*
X-541361Y-870491D01*
X-459452Y-788582D02*
G01*
X-186171Y-515300D01*
X-43601Y-372730D02*
G01*
X77107Y-252021D01*
X151945Y-177183D02*
G01*
X223436Y-105692D01*
X453768Y124639D02*
G01*
X1418729Y1089601D01*
X-1129114Y-1387550D02*
G01*
X-576708Y-835144D01*
X-488689Y-747126D02*
G01*
X-185324Y-443761D01*
X-160640Y-419077D02*
G01*
X-149438Y-407874D01*
X-43601Y-302038D02*
G01*
X41761Y-216675D01*
X116599Y-141837D02*
G01*
X209450Y-48985D01*
X257484Y-952D02*
G01*
X258986Y549D01*
X386354Y127918D02*
G01*
X1387490Y1129053D01*
X-1167541Y-1355285D02*
G01*
X-603705Y-791449D01*
X-488689Y-676433D02*
G01*
X-149438Y-337182D01*
X-43601Y-231345D02*
G01*
X6415Y-181328D01*
X81252Y-106491D02*
G01*
X199018Y11275D01*
X315662Y127918D02*
G01*
X1355280Y1167536D01*
X-1205007Y-1322059D02*
G01*
X-604526Y-721577D01*
X-457080Y-574131D02*
G01*
X-149438Y-266489D01*
X-43601Y-160652D02*
G01*
X-28931Y-145982D01*
X45906Y-71144D02*
G01*
X156107Y39056D01*
X233469Y116418D02*
G01*
X1322108Y1205057D01*
X-1241517Y-1287876D02*
G01*
X-604526Y-650885D01*
X-457080Y-503439D02*
G01*
X-149438Y-195797D01*
X10560Y-35798D02*
G01*
X120761Y74402D01*
X195599Y149240D02*
G01*
X1287981Y1241623D01*
X-1277075Y-1252741D02*
G01*
X-630810Y-606476D01*
X-460671Y-436338D02*
G01*
X-279252Y-254918D01*
X-208163Y-183829D02*
G01*
X-169530Y-145196D01*
X-24786Y-452D02*
G01*
X89735Y114069D01*
X192872Y217206D02*
G01*
X1252782Y1277116D01*
X-1311679Y-1216653D02*
G01*
X-1158839Y-1063813D01*
X-1065912Y-970885D02*
G01*
X-682931Y-587904D01*
X-482833Y-387806D02*
G01*
X-349944Y-254918D01*
X-233877Y-138851D02*
G01*
X-211444Y-116418D01*
X-60132Y34894D02*
G01*
X87035Y182062D01*
X302632Y397659D02*
G01*
X1216527Y1311554D01*
X-1345114Y-1179395D02*
G01*
X-1227817Y-1062098D01*
X-1068007Y-902288D02*
G01*
X-753623Y-587904D01*
X-487779Y-322060D02*
G01*
X-420637Y-254918D01*
X-95478Y70240D02*
G01*
X87035Y252754D01*
X302854Y468573D02*
G01*
X1179318Y1345037D01*
X-1377583Y-1141172D02*
G01*
X-1273307Y-1036896D01*
X-1093167Y-856755D02*
G01*
X-824316Y-587904D01*
X-688479Y-452067D02*
G01*
X-619062Y-382650D01*
X-131274Y105136D02*
G01*
X197017Y433429D01*
X347922Y584334D02*
G01*
X1141149Y1377560D01*
X-1409086Y-1101982D02*
G01*
X-1304213Y-997109D01*
X-1132838Y-825734D02*
G01*
X-928872Y-621767D01*
X-759172Y-452067D02*
G01*
X-602904Y-295800D01*
X-190685Y116418D02*
G01*
X197017Y504121D01*
X347922Y655027D02*
G01*
X1102013Y1409117D01*
X-1439611Y-1061814D02*
G01*
X-1317902Y-940106D01*
X-1190133Y-812336D02*
G01*
X-999564Y-621767D01*
X-829864Y-452067D02*
G01*
X-494215Y-116418D01*
X-252960Y124835D02*
G01*
X-245963Y131833D01*
X-213331Y164465D02*
G01*
X160474Y538271D01*
X347922Y725719D02*
G01*
X1061899Y1439696D01*
X-1469145Y-1020656D02*
G01*
X-1050165Y-601676D01*
X-880276Y-431787D02*
G01*
X-564907Y-116418D01*
X-449781Y-1291D02*
G01*
X-447743Y745D01*
X-220151Y228337D02*
G01*
X152086Y600575D01*
X347922Y796412D02*
G01*
X1020774Y1469263D01*
X-1497673Y-978491D02*
G01*
X-1140949Y-621767D01*
X-1067079Y-547897D02*
G01*
X-1052916Y-533734D01*
X-937411Y-418230D02*
G01*
X-635600Y-116418D01*
X-529763Y-10581D02*
G01*
X-508600Y10581D01*
X-264885Y254295D02*
G01*
X152086Y671268D01*
X347922Y867104D02*
G01*
X978456Y1497638D01*
X-1525106Y-935232D02*
G01*
X-1211642Y-621767D01*
X-1067079Y-477205D02*
G01*
X-1052916Y-463042D01*
X-1008104Y-418230D02*
G01*
X-706292Y-116418D01*
X-600455Y-10581D02*
G01*
X-579292Y10581D01*
X-473455Y116418D02*
G01*
X-458675Y131199D01*
X-334956Y254918D02*
G01*
X152086Y741960D01*
X347922Y937797D02*
G01*
X935114Y1524989D01*
X-1551363Y-890796D02*
G01*
X-1248474Y-587907D01*
X-1083468Y-422901D02*
G01*
X-966745Y-306178D01*
X-671148Y-10581D02*
G01*
X-649985Y10581D01*
X-544148Y116418D02*
G01*
X-522985Y137581D01*
X-405648Y254918D02*
G01*
X152086Y812653D01*
X347922Y1008489D02*
G01*
X890725Y1551292D01*
X-1576548Y-845288D02*
G01*
X-1311358Y-580099D01*
X-1149489Y-418230D02*
G01*
X-1096663Y-365403D01*
X-741841Y-10581D02*
G01*
X-720678Y10581D01*
X-614841Y116418D02*
G01*
X-593678Y137581D01*
X-487841Y243418D02*
G01*
X-204175Y527084D01*
X-152078Y579180D02*
G01*
X152086Y883345D01*
X311660Y1042920D02*
G01*
X845263Y1576522D01*
X-1600630Y-798678D02*
G01*
X-1348999Y-547047D01*
X-1252948Y-450996D02*
G01*
X-1245112Y-443160D01*
X-1221239Y-419287D02*
G01*
X-1149932Y-347980D01*
X-996056Y-194104D02*
G01*
X-791370Y10581D01*
X-685533Y116418D02*
G01*
X-664370Y137581D01*
X-558533Y243418D02*
G01*
X-274867Y527084D01*
X-152078Y649873D02*
G01*
X152086Y954038D01*
X240968Y1042920D02*
G01*
X798695Y1600647D01*
X-1623573Y-750929D02*
G01*
X-1384346Y-511701D01*
X-1276074Y-403429D02*
G01*
X-1185036Y-312392D01*
X-1031596Y-158952D02*
G01*
X-925563Y-52918D01*
X-756226Y116418D02*
G01*
X-735063Y137581D01*
X-629226Y243418D02*
G01*
X-336950Y535694D01*
X-152078Y720565D02*
G01*
X750987Y1623632D01*
X-1645338Y-702000D02*
G01*
X-1410890Y-467553D01*
X-1241695Y-298358D02*
G01*
X-1201545Y-258208D01*
X-1085945Y-142607D02*
G01*
X-1045465Y-102127D01*
X-826919Y116418D02*
G01*
X-805755Y137581D01*
X-699919Y243418D02*
G01*
X-347915Y595422D01*
X-152078Y791258D02*
G01*
X702097Y1645435D01*
X-1665877Y-651847D02*
G01*
X-1411911Y-397881D01*
X-1236982Y-222952D02*
G01*
X-1121039Y-107009D01*
X-961111Y52918D02*
G01*
X-868445Y145584D01*
X-770611Y243418D02*
G01*
X-347915Y666114D01*
X-152078Y861951D02*
G01*
X651979Y1666009D01*
X-1685138Y-600416D02*
G01*
X-1420193Y-335470D01*
X-1262527Y-177804D02*
G01*
X-1166193Y-81470D01*
X-1008527Y76195D02*
G01*
X-904773Y179949D01*
X-829935Y254787D02*
G01*
X-367526Y717195D01*
X-152078Y932643D02*
G01*
X600507Y1685230D01*
X-1703062Y-547647D02*
G01*
X-1448377Y-292962D01*
X-1305016Y-149601D02*
G01*
X-1194377Y-38962D01*
X-1051016Y104398D02*
G01*
X-954333Y201081D01*
X-865281Y290133D02*
G01*
X-438219Y717195D01*
X-152078Y1003336D02*
G01*
X547666Y1703081D01*
X-1719579Y-493471D02*
G01*
X-1451891Y-225783D01*
X-1372140Y-146033D02*
G01*
X-1197891Y28216D01*
X-1118140Y107966D02*
G01*
X-1083516Y142591D01*
X-919189Y306918D02*
G01*
X-797877Y428230D01*
X-737080Y489027D02*
G01*
X-508912Y717195D01*
X-373075Y853032D02*
G01*
X-347915Y878192D01*
X-183370Y1042737D02*
G01*
X493434Y1719541D01*
X-1734612Y-437811D02*
G01*
X-1141676Y155124D01*
X-989881Y306918D02*
G01*
X-868570Y428230D01*
X-737080Y559720D02*
G01*
X-579604Y717195D01*
X-443767Y853032D02*
G01*
X-347915Y948885D01*
X-253880Y1042920D02*
G01*
X437736Y1734537D01*
X-1748071Y-380578D02*
G01*
X-1179642Y187850D01*
X-1023801Y343691D02*
G01*
X-914910Y452582D01*
X-746190Y621302D02*
G01*
X-650297Y717195D01*
X-514460Y853032D02*
G01*
X-345434Y1022058D01*
X-327053Y1040439D02*
G01*
X380487Y1747980D01*
X-1759855Y-321669D02*
G01*
X-1200343Y237841D01*
X-1025450Y412735D02*
G01*
X-976107Y462078D01*
X-806417Y631767D02*
G01*
X-720989Y717195D01*
X-585153Y853032D02*
G01*
X321590Y1759775D01*
X-1769846Y-260968D02*
G01*
X-1364528Y144349D01*
X-1234459Y274418D02*
G01*
X-1161286Y347591D01*
X-877110Y631767D02*
G01*
X-791682Y717195D01*
X-655845Y853032D02*
G01*
X260930Y1769809D01*
X-1777908Y-198337D02*
G01*
X-1413021Y166548D01*
X-1256501Y323068D02*
G01*
X-1161286Y418283D01*
X-981655Y597914D02*
G01*
X-862374Y717195D01*
X-726538Y853032D02*
G01*
X198381Y1777952D01*
X-1783885Y-133622D02*
G01*
X-1444567Y205695D01*
X-1275995Y374267D02*
G01*
X-1220419Y429843D01*
X-1198692Y451570D02*
G01*
X-1182916Y467347D01*
X-1022027Y628235D02*
G01*
X-933067Y717195D01*
X-797230Y853032D02*
G01*
X-753236Y897026D01*
X-717102Y933160D02*
G01*
X133794Y1784057D01*
X-1787594Y-66638D02*
G01*
X-1454956Y265998D01*
X-1197079Y523876D02*
G01*
X-1182916Y538039D01*
X-1089187Y631767D02*
G01*
X-1003759Y717195D01*
X-867923Y853032D02*
G01*
X-823929Y897026D01*
X-717102Y1003852D02*
G01*
X66757Y1787713D01*
X-1788821Y2826D02*
G01*
X-1411832Y379815D01*
X-1197079Y594569D02*
G01*
X-1180269Y611378D01*
X-1162526Y629121D02*
G01*
X-1074452Y717195D01*
X-938615Y853032D02*
G01*
X-894151Y897496D01*
X-719587Y1072060D02*
G01*
X-2787Y1788860D01*
X-1787315Y75025D02*
G01*
X-1411832Y450508D01*
X-1230573Y631767D02*
G01*
X-1145145Y717195D01*
X-1009308Y853032D02*
G01*
X-940290Y922050D01*
X-769429Y1092911D02*
G01*
X-75095Y1787244D01*
X-1782713Y150319D02*
G01*
X-1411832Y521201D01*
X-1080001Y853032D02*
G01*
X-1044804Y888229D01*
X-840122Y1092911D02*
G01*
X-150472Y1782561D01*
X-1774029Y229696D02*
G01*
X-1411832Y591893D01*
X-1150693Y853032D02*
G01*
X-1115496Y888229D01*
X-935838Y1067887D02*
G01*
X-229550Y1774175D01*
X-1761287Y313130D02*
G01*
X-1411401Y663016D01*
X-1188700Y885717D02*
G01*
X-1152916Y921502D01*
X-988438Y1085979D02*
G01*
X-313232Y1761185D01*
X-1743096Y402014D02*
G01*
X-1324537Y820573D01*
X-1167079Y978032D02*
G01*
X-1152916Y992195D01*
X-1053344Y1091766D02*
G01*
X-401808Y1743303D01*
X-1718548Y497255D02*
G01*
X-1325149Y890654D01*
X-1167079Y1048724D02*
G01*
X-1152403Y1063400D01*
X-1124549Y1091254D02*
G01*
X-497503Y1718300D01*
X-1684642Y601853D02*
G01*
X-1346169Y940326D01*
X-1195262Y1091233D02*
G01*
X-602013Y1684483D01*
X-1638160Y719028D02*
G01*
X-1346169Y1011019D01*
X-1265421Y1091766D02*
G01*
X-719327Y1637861D01*
X-1569321Y858559D02*
G01*
X-858475Y1569406D01*
X-1447386Y1051187D02*
G01*
X-1050632Y1447941D01*
D17*
G01*
X809998Y-26626D03*
D18*
G01*
X810005Y166623D03*
D19*
G01*
X-546625Y-519998D03*
G01*
X-353372Y-519998D03*
D20*
G01*
X958291Y-330479D03*
G01*
X1305280Y-330479D03*
G01*
X1305280Y-598525D03*
G01*
X958291Y-598525D03*
D21*
G01*
X105029Y-799998D03*
G01*
X-105029Y-799998D03*
D22*
G01*
X1296624Y-80975D03*
G01*
X1103370Y-80975D03*
G01*
X1296624Y169999D03*
G01*
X1103370Y169999D03*
G01*
X-963371Y-519998D03*
G01*
X-1156624Y-519998D03*
G01*
X96626Y-519998D03*
G01*
X-96626Y-519998D03*
G01*
X-1063371Y989998D03*
G01*
X-1256624Y989998D03*
D19*
G01*
X353372Y-519998D03*
G01*
X546625Y-519998D03*
D23*
G01*
X455269Y-1144981D03*
G01*
X-455040Y-1144981D03*
G01*
X-455345Y-1594993D03*
G01*
X455371Y-1595018D03*
D24*
G01*
X353009Y-190500D03*
G01*
X353009Y-63500D03*
G01*
X353009Y63500D03*
G01*
X353009Y190500D03*
G01*
X-353009Y-190500D03*
G01*
X-353009Y-63500D03*
G01*
X-353009Y63500D03*
G01*
X-353009Y190500D03*
D25*
G01*
X250012Y785012D03*
G01*
X0Y784987D03*
D26*
G01*
X570001Y1464995D03*
G01*
X-570001Y1464995D03*
D25*
G01*
X-249986Y784987D03*
D19*
G01*
X-1286624Y529998D03*
G01*
X-1093370Y529998D03*
D22*
G01*
X-633371Y529998D03*
G01*
X-826625Y529998D03*
D27*
G01*
X-819988Y994968D03*
G01*
X-819988Y1205026D03*
D28*
G01*
X1220012Y-1073988D03*
G01*
X1220012Y-819988D03*
D29*
G01*
X-1343990Y254000D03*
G01*
X-1089990Y254000D03*
D30*
G01*
X-1343990Y0D03*
D29*
G01*
X-1089990Y0D03*
G01*
X-1343990Y-254000D03*
G01*
X-1089990Y-254000D03*
D31*
G01*
X570001Y-189992D03*
D13*
G01*
X-549986Y-359994D03*
G01*
X-329996Y-759993D03*
M02*
