G04 Layer: BottomSilkscreenLayer*
G04 EasyEDA v6.5.22, 2023-04-02 13:19:52*
G04 e11523a40a7546c49719b0b35a8351d0,15f4cc3622644fce95c1d8fbedb56722,10*
G04 Gerber Generator version 0.2*
G04 Scale: 100 percent, Rotated: No, Reflected: No *
G04 Dimensions in millimeters *
G04 leading zeros omitted , absolute positions ,4 integer and 5 decimal *
%FSLAX45Y45*%
%MOMM*%

%ADD10C,0.2032*%
%ADD11C,1.0000*%

%LPD*%
G36*
X492607Y649986D02*
G01*
X492607Y610666D01*
X610666Y610666D01*
X610666Y492607D01*
X649986Y492607D01*
X649986Y649986D01*
G37*
G36*
X374243Y649986D02*
G01*
X374243Y492607D01*
X413613Y492607D01*
X413613Y610666D01*
X492302Y610666D01*
X492302Y649986D01*
G37*
G36*
X295554Y649986D02*
G01*
X295554Y531926D01*
X334924Y531926D01*
X334924Y649986D01*
G37*
G36*
X98501Y649986D02*
G01*
X98501Y610666D01*
X137871Y610666D01*
X137871Y571296D01*
X177241Y571296D01*
X177241Y531926D01*
X216560Y531926D01*
X216560Y571296D01*
X255930Y571296D01*
X255930Y649986D01*
X216560Y649986D01*
X216560Y610666D01*
X177241Y610666D01*
X177241Y649986D01*
G37*
G36*
X-98501Y649986D02*
G01*
X-98501Y610666D01*
X-19812Y610666D01*
X-19812Y649986D01*
G37*
G36*
X-216560Y649986D02*
G01*
X-216560Y531926D01*
X-137871Y531926D01*
X-137871Y571296D01*
X-177241Y571296D01*
X-177241Y649986D01*
G37*
G36*
X-334924Y649986D02*
G01*
X-334924Y531926D01*
X-295554Y531926D01*
X-295554Y492607D01*
X-216865Y492607D01*
X-216865Y610666D01*
X-256184Y610666D01*
X-256184Y571296D01*
X-295554Y571296D01*
X-295554Y610666D01*
X-256184Y610666D01*
X-256184Y649986D01*
G37*
G36*
X-452983Y649986D02*
G01*
X-452983Y610666D01*
X-413613Y610666D01*
X-413613Y492607D01*
X-374243Y492607D01*
X-374243Y649986D01*
G37*
G36*
X-649986Y649986D02*
G01*
X-649986Y492607D01*
X-610666Y492607D01*
X-610666Y610666D01*
X-453237Y610666D01*
X-453237Y649986D01*
G37*
G36*
X19812Y610666D02*
G01*
X19812Y531926D01*
X59182Y531926D01*
X59182Y610666D01*
G37*
G36*
X-137871Y610666D02*
G01*
X-137871Y571296D01*
X-98501Y571296D01*
X-98501Y610666D01*
G37*
G36*
X492607Y571296D02*
G01*
X492607Y492607D01*
X571296Y492607D01*
X571296Y571296D01*
G37*
G36*
X452983Y571296D02*
G01*
X452983Y492607D01*
X492302Y492607D01*
X492302Y571296D01*
G37*
G36*
X-59182Y571296D02*
G01*
X-59182Y531926D01*
X-19812Y531926D01*
X-19812Y571296D01*
G37*
G36*
X-571296Y571296D02*
G01*
X-571296Y492607D01*
X-453237Y492607D01*
X-453237Y571296D01*
G37*
G36*
X216560Y531926D02*
G01*
X216560Y492607D01*
X255930Y492607D01*
X255930Y531926D01*
G37*
G36*
X137871Y531926D02*
G01*
X137871Y492607D01*
X177241Y492607D01*
X177241Y531926D01*
G37*
G36*
X-19812Y531926D02*
G01*
X-19812Y492607D01*
X19558Y492607D01*
X19558Y531926D01*
G37*
G36*
X-137871Y531926D02*
G01*
X-137871Y492607D01*
X-98501Y492607D01*
X-98501Y531926D01*
G37*
G36*
X177241Y492302D02*
G01*
X177241Y452983D01*
X216560Y452983D01*
X216560Y374243D01*
X177241Y374243D01*
X177241Y413613D01*
X137871Y413613D01*
X137871Y374243D01*
X98501Y374243D01*
X98501Y452983D01*
X19812Y452983D01*
X19812Y413613D01*
X59182Y413613D01*
X59182Y374243D01*
X19812Y374243D01*
X19812Y334924D01*
X177241Y334924D01*
X177241Y295554D01*
X98501Y295554D01*
X98501Y334924D01*
X19812Y334924D01*
X19812Y256184D01*
X216560Y256184D01*
X216560Y334924D01*
X255930Y334924D01*
X255930Y492302D01*
G37*
G36*
X610666Y492302D02*
G01*
X610666Y413613D01*
X492607Y413613D01*
X492607Y374243D01*
X649986Y374243D01*
X649986Y492302D01*
G37*
G36*
X-413613Y492302D02*
G01*
X-413613Y413613D01*
X-452983Y413613D01*
X-452983Y374243D01*
X-374243Y374243D01*
X-374243Y492302D01*
G37*
G36*
X492607Y492302D02*
G01*
X492607Y452983D01*
X571296Y452983D01*
X571296Y492302D01*
G37*
G36*
X452983Y492302D02*
G01*
X452983Y452983D01*
X492302Y452983D01*
X492302Y492302D01*
G37*
G36*
X374243Y492302D02*
G01*
X374243Y374243D01*
X492302Y374243D01*
X492302Y413613D01*
X413613Y413613D01*
X413613Y492302D01*
G37*
G36*
X256184Y492302D02*
G01*
X256184Y452983D01*
X295554Y452983D01*
X295554Y492302D01*
G37*
G36*
X-98501Y492302D02*
G01*
X-98501Y452983D01*
X-19812Y452983D01*
X-19812Y492302D01*
G37*
G36*
X-256184Y492302D02*
G01*
X-256184Y295554D01*
X-216865Y295554D01*
X-216865Y492302D01*
G37*
G36*
X-334924Y492302D02*
G01*
X-334924Y452983D01*
X-295554Y452983D01*
X-295554Y492302D01*
G37*
G36*
X-571296Y492302D02*
G01*
X-571296Y452983D01*
X-453237Y452983D01*
X-453237Y492302D01*
G37*
G36*
X-649986Y492302D02*
G01*
X-649986Y374243D01*
X-453237Y374243D01*
X-453237Y413613D01*
X-610666Y413613D01*
X-610666Y492302D01*
G37*
G36*
X295554Y452983D02*
G01*
X295554Y334924D01*
X256184Y334924D01*
X256184Y295554D01*
X334924Y295554D01*
X334924Y452983D01*
G37*
G36*
X-334924Y413613D02*
G01*
X-334924Y334924D01*
X-452983Y334924D01*
X-452983Y295554D01*
X-413613Y295554D01*
X-413613Y256184D01*
X-334924Y256184D01*
X-334924Y295554D01*
X-295554Y295554D01*
X-295554Y413613D01*
G37*
G36*
X-19812Y413613D02*
G01*
X-19812Y374243D01*
X19558Y374243D01*
X19558Y413613D01*
G37*
G36*
X-98501Y413613D02*
G01*
X-98501Y334924D01*
X-59182Y334924D01*
X-59182Y295554D01*
X-19812Y295554D01*
X-19812Y374243D01*
X-59182Y374243D01*
X-59182Y413613D01*
G37*
G36*
X-177241Y413613D02*
G01*
X-177241Y374243D01*
X-137871Y374243D01*
X-137871Y413613D01*
G37*
G36*
X-216560Y374243D02*
G01*
X-216560Y334924D01*
X-177241Y334924D01*
X-177241Y374243D01*
G37*
G36*
X452983Y334924D02*
G01*
X452983Y295554D01*
X413613Y295554D01*
X413613Y256184D01*
X492302Y256184D01*
X492302Y334924D01*
G37*
G36*
X492607Y334924D02*
G01*
X492607Y295554D01*
X531926Y295554D01*
X531926Y256184D01*
X571296Y256184D01*
X571296Y334924D01*
G37*
G36*
X374243Y334924D02*
G01*
X374243Y295554D01*
X413613Y295554D01*
X413613Y334924D01*
G37*
G36*
X-177241Y334924D02*
G01*
X-177241Y256184D01*
X-137871Y256184D01*
X-137871Y334924D01*
G37*
G36*
X-649986Y334924D02*
G01*
X-649986Y256184D01*
X-610666Y256184D01*
X-610666Y295554D01*
X-571296Y295554D01*
X-571296Y256184D01*
X-492607Y256184D01*
X-492607Y295554D01*
X-531926Y295554D01*
X-531926Y334924D01*
G37*
G36*
X-98501Y295554D02*
G01*
X-98501Y256184D01*
X-59182Y256184D01*
X-59182Y295554D01*
G37*
G36*
X-295554Y295554D02*
G01*
X-295554Y256184D01*
X-256184Y256184D01*
X-256184Y295554D01*
G37*
G36*
X-177241Y255930D02*
G01*
X-177241Y177241D01*
X-137871Y177241D01*
X-137871Y59182D01*
X-216560Y59182D01*
X-216560Y19812D01*
X-98501Y19812D01*
X-98501Y98501D01*
X-59182Y98501D01*
X-59182Y137871D01*
X-19812Y137871D01*
X-19812Y177241D01*
X-98501Y177241D01*
X-98501Y216560D01*
X-137871Y216560D01*
X-137871Y255930D01*
G37*
G36*
X98501Y255930D02*
G01*
X98501Y216560D01*
X19812Y216560D01*
X19812Y177241D01*
X98501Y177241D01*
X98501Y137871D01*
X19812Y137871D01*
X19812Y19812D01*
X59182Y19812D01*
X59182Y98501D01*
X137871Y98501D01*
X137871Y216560D01*
X216560Y216560D01*
X216560Y255930D01*
G37*
G36*
X610666Y255930D02*
G01*
X610666Y216560D01*
X571296Y216560D01*
X571296Y137871D01*
X610666Y137871D01*
X610666Y98501D01*
X649986Y98501D01*
X649986Y255930D01*
G37*
G36*
X334924Y255930D02*
G01*
X334924Y177241D01*
X374243Y177241D01*
X374243Y216560D01*
X492302Y216560D01*
X492302Y255930D01*
G37*
G36*
X256184Y255930D02*
G01*
X256184Y177241D01*
X295554Y177241D01*
X295554Y255930D01*
G37*
G36*
X-98501Y255930D02*
G01*
X-98501Y216560D01*
X-19812Y216560D01*
X-19812Y177241D01*
X19558Y177241D01*
X19558Y255930D01*
G37*
G36*
X-256184Y255930D02*
G01*
X-256184Y216560D01*
X-216865Y216560D01*
X-216865Y255930D01*
G37*
G36*
X-374243Y255930D02*
G01*
X-374243Y177241D01*
X-334924Y177241D01*
X-334924Y137871D01*
X-295554Y137871D01*
X-295554Y98501D01*
X-256184Y98501D01*
X-256184Y137871D01*
X-216865Y137871D01*
X-216865Y177241D01*
X-295554Y177241D01*
X-295554Y216560D01*
X-334924Y216560D01*
X-334924Y255930D01*
G37*
G36*
X-452983Y255930D02*
G01*
X-452983Y216560D01*
X-413613Y216560D01*
X-413613Y255930D01*
G37*
G36*
X-571296Y255930D02*
G01*
X-571296Y177241D01*
X-492607Y177241D01*
X-492607Y216560D01*
X-531926Y216560D01*
X-531926Y255930D01*
G37*
G36*
X492607Y177241D02*
G01*
X492607Y19812D01*
X571296Y19812D01*
X571296Y59182D01*
X531926Y59182D01*
X531926Y98501D01*
X571296Y98501D01*
X571296Y137871D01*
X531926Y137871D01*
X531926Y177241D01*
G37*
G36*
X452983Y177241D02*
G01*
X452983Y98501D01*
X492302Y98501D01*
X492302Y177241D01*
G37*
G36*
X374243Y177241D02*
G01*
X374243Y137871D01*
X413613Y137871D01*
X413613Y177241D01*
G37*
G36*
X216560Y177241D02*
G01*
X216560Y137871D01*
X255930Y137871D01*
X255930Y177241D01*
G37*
G36*
X-216560Y177241D02*
G01*
X-216560Y137871D01*
X-177241Y137871D01*
X-177241Y177241D01*
G37*
G36*
X-452983Y177241D02*
G01*
X-452983Y137871D01*
X-413613Y137871D01*
X-413613Y177241D01*
G37*
G36*
X-610666Y177241D02*
G01*
X-610666Y137871D01*
X-571296Y137871D01*
X-571296Y177241D01*
G37*
G36*
X295554Y137871D02*
G01*
X295554Y98501D01*
X256184Y98501D01*
X256184Y59182D01*
X295554Y59182D01*
X295554Y19812D01*
X374243Y19812D01*
X374243Y59182D01*
X452983Y59182D01*
X452983Y98501D01*
X334924Y98501D01*
X334924Y137871D01*
G37*
G36*
X-413613Y137871D02*
G01*
X-413613Y98501D01*
X-452983Y98501D01*
X-452983Y59182D01*
X-374243Y59182D01*
X-374243Y137871D01*
G37*
G36*
X177241Y137871D02*
G01*
X177241Y98501D01*
X216560Y98501D01*
X216560Y137871D01*
G37*
G36*
X-571296Y137871D02*
G01*
X-571296Y98501D01*
X-492607Y98501D01*
X-492607Y19812D01*
X-453237Y19812D01*
X-453237Y137871D01*
G37*
G36*
X-649986Y137871D02*
G01*
X-649986Y98501D01*
X-610666Y98501D01*
X-610666Y137871D01*
G37*
G36*
X-334924Y98501D02*
G01*
X-334924Y59182D01*
X-374243Y59182D01*
X-374243Y19812D01*
X-216865Y19812D01*
X-216865Y98501D01*
X-256184Y98501D01*
X-256184Y59182D01*
X-295554Y59182D01*
X-295554Y98501D01*
G37*
G36*
X216560Y98501D02*
G01*
X216560Y19812D01*
X255930Y19812D01*
X255930Y98501D01*
G37*
G36*
X-610666Y98501D02*
G01*
X-610666Y59182D01*
X-571296Y59182D01*
X-571296Y98501D01*
G37*
G36*
X452983Y59182D02*
G01*
X452983Y19812D01*
X492302Y19812D01*
X492302Y59182D01*
G37*
G36*
X137871Y59182D02*
G01*
X137871Y19812D01*
X177241Y19812D01*
X177241Y59182D01*
G37*
G36*
X-571296Y59182D02*
G01*
X-571296Y19812D01*
X-531926Y19812D01*
X-531926Y59182D01*
G37*
G36*
X531926Y19558D02*
G01*
X531926Y-59182D01*
X492607Y-59182D01*
X492607Y-137871D01*
X531926Y-137871D01*
X531926Y-177241D01*
X492607Y-177241D01*
X492607Y-216560D01*
X649986Y-216560D01*
X649986Y-98501D01*
X610666Y-98501D01*
X610666Y-177241D01*
X571296Y-177241D01*
X571296Y-19812D01*
X649986Y-19812D01*
X649986Y19558D01*
G37*
G36*
X256184Y19558D02*
G01*
X256184Y-19812D01*
X295554Y-19812D01*
X295554Y-59182D01*
X256184Y-59182D01*
X256184Y-98501D01*
X334924Y-98501D01*
X334924Y-59182D01*
X374243Y-59182D01*
X374243Y-19812D01*
X413613Y-19812D01*
X413613Y19558D01*
G37*
G36*
X177241Y19558D02*
G01*
X177241Y-19812D01*
X98501Y-19812D01*
X98501Y-59182D01*
X216560Y-59182D01*
X216560Y19558D01*
G37*
G36*
X-59182Y19558D02*
G01*
X-59182Y-59182D01*
X-98501Y-59182D01*
X-98501Y-19812D01*
X-216560Y-19812D01*
X-216560Y-137871D01*
X-177241Y-137871D01*
X-177241Y-98501D01*
X-98501Y-98501D01*
X-98501Y-137871D01*
X-59182Y-137871D01*
X-59182Y-98501D01*
X-19812Y-98501D01*
X-19812Y19558D01*
G37*
G36*
X-374243Y19558D02*
G01*
X-374243Y-19812D01*
X-413613Y-19812D01*
X-413613Y-59182D01*
X-256184Y-59182D01*
X-256184Y-19812D01*
X-334924Y-19812D01*
X-334924Y19558D01*
G37*
G36*
X59182Y19558D02*
G01*
X59182Y-19812D01*
X98501Y-19812D01*
X98501Y19558D01*
G37*
G36*
X-452983Y19558D02*
G01*
X-452983Y-19812D01*
X-413613Y-19812D01*
X-413613Y19558D01*
G37*
G36*
X-531926Y19558D02*
G01*
X-531926Y-19812D01*
X-453237Y-19812D01*
X-453237Y19558D01*
G37*
G36*
X-649986Y19558D02*
G01*
X-649986Y-59182D01*
X-571296Y-59182D01*
X-571296Y19558D01*
G37*
G36*
X413613Y-19812D02*
G01*
X413613Y-59182D01*
X374243Y-59182D01*
X374243Y-98501D01*
X413613Y-98501D01*
X413613Y-137871D01*
X452983Y-137871D01*
X452983Y-59182D01*
X492302Y-59182D01*
X492302Y-19812D01*
G37*
G36*
X-571296Y-59182D02*
G01*
X-571296Y-98501D01*
X-649986Y-98501D01*
X-649986Y-216560D01*
X-610666Y-216560D01*
X-610666Y-177241D01*
X-571296Y-177241D01*
X-571296Y-137871D01*
X-531926Y-137871D01*
X-531926Y-216560D01*
X-492607Y-216560D01*
X-492607Y-177241D01*
X-453237Y-177241D01*
X-453237Y-137871D01*
X-492607Y-137871D01*
X-492607Y-98501D01*
X-531926Y-98501D01*
X-531926Y-59182D01*
G37*
G36*
X-256184Y-59182D02*
G01*
X-256184Y-98501D01*
X-216865Y-98501D01*
X-216865Y-59182D01*
G37*
G36*
X-452983Y-59182D02*
G01*
X-452983Y-98501D01*
X-413613Y-98501D01*
X-413613Y-59182D01*
G37*
G36*
X-492607Y-59182D02*
G01*
X-492607Y-98501D01*
X-453237Y-98501D01*
X-453237Y-59182D01*
G37*
G36*
X334924Y-98501D02*
G01*
X334924Y-137871D01*
X374243Y-137871D01*
X374243Y-98501D01*
G37*
G36*
X98501Y-98501D02*
G01*
X98501Y-216560D01*
X137871Y-216560D01*
X137871Y-177241D01*
X216560Y-177241D01*
X216560Y-137871D01*
X255930Y-137871D01*
X255930Y-98501D01*
G37*
G36*
X-374243Y-98501D02*
G01*
X-374243Y-137871D01*
X-334924Y-137871D01*
X-334924Y-177241D01*
X-295554Y-177241D01*
X-295554Y-137871D01*
X-256184Y-137871D01*
X-256184Y-98501D01*
G37*
G36*
X452983Y-137871D02*
G01*
X452983Y-177241D01*
X413613Y-177241D01*
X413613Y-216560D01*
X492302Y-216560D01*
X492302Y-137871D01*
G37*
G36*
X374243Y-137871D02*
G01*
X374243Y-177241D01*
X413613Y-177241D01*
X413613Y-137871D01*
G37*
G36*
X295554Y-137871D02*
G01*
X295554Y-177241D01*
X334924Y-177241D01*
X334924Y-137871D01*
G37*
G36*
X-137871Y-137871D02*
G01*
X-137871Y-216560D01*
X-98501Y-216560D01*
X-98501Y-137871D01*
G37*
G36*
X-256184Y-137871D02*
G01*
X-256184Y-177241D01*
X-216865Y-177241D01*
X-216865Y-137871D01*
G37*
G36*
X-452983Y-137871D02*
G01*
X-452983Y-177241D01*
X-413613Y-177241D01*
X-413613Y-137871D01*
G37*
G36*
X334924Y-177241D02*
G01*
X334924Y-216560D01*
X374243Y-216560D01*
X374243Y-177241D01*
G37*
G36*
X19812Y-177241D02*
G01*
X19812Y-216560D01*
X59182Y-216560D01*
X59182Y-177241D01*
G37*
G36*
X-374243Y-177241D02*
G01*
X-374243Y-216560D01*
X-334924Y-216560D01*
X-334924Y-177241D01*
G37*
G36*
X-610666Y-216865D02*
G01*
X-610666Y-295554D01*
X-492607Y-295554D01*
X-492607Y-374243D01*
X-571296Y-374243D01*
X-571296Y-334924D01*
X-649986Y-334924D01*
X-649986Y-374243D01*
X-610666Y-374243D01*
X-610666Y-413613D01*
X-649986Y-413613D01*
X-649986Y-452983D01*
X-453237Y-452983D01*
X-453237Y-256184D01*
X-571296Y-256184D01*
X-571296Y-216865D01*
G37*
G36*
X-98501Y-216865D02*
G01*
X-98501Y-256184D01*
X-59182Y-256184D01*
X-59182Y-334924D01*
X-137871Y-334924D01*
X-137871Y-374243D01*
X-98501Y-374243D01*
X-98501Y-413613D01*
X-19812Y-413613D01*
X-19812Y-374243D01*
X19558Y-374243D01*
X19558Y-295554D01*
X-19812Y-295554D01*
X-19812Y-256184D01*
X19558Y-256184D01*
X19558Y-216865D01*
G37*
G36*
X59182Y-216865D02*
G01*
X59182Y-256184D01*
X98501Y-256184D01*
X98501Y-295554D01*
X19812Y-295554D01*
X19812Y-334924D01*
X137871Y-334924D01*
X137871Y-256184D01*
X177241Y-256184D01*
X177241Y-216865D01*
G37*
G36*
X-334924Y-216865D02*
G01*
X-334924Y-256184D01*
X-295554Y-256184D01*
X-295554Y-295554D01*
X-452983Y-295554D01*
X-452983Y-334924D01*
X-334924Y-334924D01*
X-334924Y-452983D01*
X-216865Y-452983D01*
X-216865Y-413613D01*
X-256184Y-413613D01*
X-256184Y-374243D01*
X-295554Y-374243D01*
X-295554Y-334924D01*
X-256184Y-334924D01*
X-256184Y-256184D01*
X-216865Y-256184D01*
X-216865Y-216865D01*
G37*
G36*
X334924Y-216865D02*
G01*
X334924Y-256184D01*
X295554Y-256184D01*
X295554Y-295554D01*
X374243Y-295554D01*
X374243Y-256184D01*
X413613Y-256184D01*
X413613Y-216865D01*
G37*
G36*
X-177241Y-216865D02*
G01*
X-177241Y-256184D01*
X-216560Y-256184D01*
X-216560Y-295554D01*
X-137871Y-295554D01*
X-137871Y-216865D01*
G37*
G36*
X610666Y-216865D02*
G01*
X610666Y-334924D01*
X649986Y-334924D01*
X649986Y-216865D01*
G37*
G36*
X492607Y-216865D02*
G01*
X492607Y-256184D01*
X531926Y-256184D01*
X531926Y-216865D01*
G37*
G36*
X531926Y-256184D02*
G01*
X531926Y-295554D01*
X571296Y-295554D01*
X571296Y-256184D01*
G37*
G36*
X216560Y-256184D02*
G01*
X216560Y-295554D01*
X255930Y-295554D01*
X255930Y-256184D01*
G37*
G36*
X492607Y-295554D02*
G01*
X492607Y-334924D01*
X531926Y-334924D01*
X531926Y-295554D01*
G37*
G36*
X374243Y-295554D02*
G01*
X374243Y-334924D01*
X413613Y-334924D01*
X413613Y-295554D01*
G37*
G36*
X256184Y-334924D02*
G01*
X256184Y-413613D01*
X295554Y-413613D01*
X295554Y-374243D01*
X334924Y-374243D01*
X334924Y-334924D01*
G37*
G36*
X-216560Y-334924D02*
G01*
X-216560Y-452983D01*
X-177241Y-452983D01*
X-177241Y-413613D01*
X-137871Y-413613D01*
X-137871Y-374243D01*
X-177241Y-374243D01*
X-177241Y-334924D01*
G37*
G36*
X216560Y-374243D02*
G01*
X216560Y-413613D01*
X177241Y-413613D01*
X177241Y-452983D01*
X255930Y-452983D01*
X255930Y-374243D01*
G37*
G36*
X59182Y-374243D02*
G01*
X59182Y-413613D01*
X19812Y-413613D01*
X19812Y-452983D01*
X137871Y-452983D01*
X137871Y-413613D01*
X177241Y-413613D01*
X177241Y-374243D01*
G37*
G36*
X492607Y-374243D02*
G01*
X492607Y-413613D01*
X610666Y-413613D01*
X610666Y-452983D01*
X649986Y-452983D01*
X649986Y-374243D01*
G37*
G36*
X374243Y-374243D02*
G01*
X374243Y-452983D01*
X413613Y-452983D01*
X413613Y-413613D01*
X492302Y-413613D01*
X492302Y-374243D01*
G37*
G36*
X-413613Y-374243D02*
G01*
X-413613Y-413613D01*
X-374243Y-413613D01*
X-374243Y-374243D01*
G37*
G36*
X-19812Y-413613D02*
G01*
X-19812Y-452983D01*
X19558Y-452983D01*
X19558Y-413613D01*
G37*
G36*
X-137871Y-413613D02*
G01*
X-137871Y-452983D01*
X-98501Y-452983D01*
X-98501Y-413613D01*
G37*
G36*
X610666Y-453237D02*
G01*
X610666Y-610666D01*
X492607Y-610666D01*
X492607Y-649986D01*
X649986Y-649986D01*
X649986Y-453237D01*
G37*
G36*
X-649986Y-453237D02*
G01*
X-649986Y-492607D01*
X-610666Y-492607D01*
X-610666Y-531926D01*
X-571296Y-531926D01*
X-571296Y-610666D01*
X-610666Y-610666D01*
X-610666Y-649986D01*
X-531926Y-649986D01*
X-531926Y-531926D01*
X-453237Y-531926D01*
X-453237Y-453237D01*
X-531926Y-453237D01*
X-531926Y-492607D01*
X-571296Y-492607D01*
X-571296Y-453237D01*
G37*
G36*
X-452983Y-453237D02*
G01*
X-452983Y-492607D01*
X-374243Y-492607D01*
X-374243Y-531926D01*
X-413613Y-531926D01*
X-413613Y-571296D01*
X-452983Y-571296D01*
X-452983Y-610666D01*
X-413613Y-610666D01*
X-413613Y-649986D01*
X-216865Y-649986D01*
X-216865Y-571296D01*
X-256184Y-571296D01*
X-256184Y-610666D01*
X-334924Y-610666D01*
X-334924Y-571296D01*
X-295554Y-571296D01*
X-295554Y-531926D01*
X-334924Y-531926D01*
X-334924Y-492607D01*
X-295554Y-492607D01*
X-295554Y-453237D01*
G37*
G36*
X295554Y-453237D02*
G01*
X295554Y-492607D01*
X256184Y-492607D01*
X256184Y-571296D01*
X334924Y-571296D01*
X334924Y-453237D01*
G37*
G36*
X492607Y-453237D02*
G01*
X492607Y-571296D01*
X571296Y-571296D01*
X571296Y-453237D01*
G37*
G36*
X452983Y-453237D02*
G01*
X452983Y-571296D01*
X492302Y-571296D01*
X492302Y-453237D01*
G37*
G36*
X374243Y-453237D02*
G01*
X374243Y-649986D01*
X492302Y-649986D01*
X492302Y-610666D01*
X413613Y-610666D01*
X413613Y-453237D01*
G37*
G36*
X19812Y-453237D02*
G01*
X19812Y-571296D01*
X59182Y-571296D01*
X59182Y-531926D01*
X216560Y-531926D01*
X216560Y-453237D01*
X177241Y-453237D01*
X177241Y-492607D01*
X98501Y-492607D01*
X98501Y-453237D01*
G37*
G36*
X-216560Y-453237D02*
G01*
X-216560Y-492607D01*
X-98501Y-492607D01*
X-98501Y-531926D01*
X-59182Y-531926D01*
X-59182Y-492607D01*
X19558Y-492607D01*
X19558Y-453237D01*
G37*
G36*
X-295554Y-492607D02*
G01*
X-295554Y-531926D01*
X-216865Y-531926D01*
X-216865Y-492607D01*
G37*
G36*
X216560Y-531926D02*
G01*
X216560Y-649986D01*
X255930Y-649986D01*
X255930Y-531926D01*
G37*
G36*
X59182Y-571296D02*
G01*
X59182Y-649986D01*
X177241Y-649986D01*
X177241Y-610666D01*
X137871Y-610666D01*
X137871Y-571296D01*
G37*
G36*
X-19812Y-571296D02*
G01*
X-19812Y-610666D01*
X19558Y-610666D01*
X19558Y-571296D01*
G37*
G36*
X-137871Y-571296D02*
G01*
X-137871Y-649986D01*
X-59182Y-649986D01*
X-59182Y-571296D01*
G37*
G36*
X-216560Y-571296D02*
G01*
X-216560Y-610666D01*
X-177241Y-610666D01*
X-177241Y-571296D01*
G37*
G36*
X256184Y-610666D02*
G01*
X256184Y-649986D01*
X295554Y-649986D01*
X295554Y-610666D01*
G37*
G36*
X591972Y1186738D02*
G01*
X590245Y1186484D01*
X588924Y1185722D01*
X588162Y1184452D01*
X587908Y1182725D01*
X587908Y1138783D01*
X588162Y1136954D01*
X588924Y1135735D01*
X590194Y1134922D01*
X591972Y1134668D01*
X657250Y1134668D01*
X658926Y1134465D01*
X660146Y1133754D01*
X660857Y1132535D01*
X661111Y1130909D01*
X661111Y904036D01*
X661365Y902309D01*
X662127Y900988D01*
X663397Y900226D01*
X665124Y899972D01*
X715213Y899972D01*
X716940Y900277D01*
X718261Y900988D01*
X719023Y902258D01*
X719277Y904036D01*
X719277Y1130909D01*
X719531Y1132535D01*
X720242Y1133754D01*
X721563Y1134465D01*
X723290Y1134668D01*
X788314Y1134668D01*
X790092Y1134922D01*
X791413Y1135684D01*
X792124Y1137005D01*
X792429Y1138783D01*
X792429Y1182725D01*
X792124Y1184503D01*
X791413Y1185722D01*
X790092Y1186535D01*
X788314Y1186738D01*
G37*
G36*
X484022Y1186738D02*
G01*
X463651Y1185722D01*
X448208Y1182725D01*
X437337Y1175918D01*
X430479Y1163167D01*
X390714Y1034338D01*
X450748Y1034338D01*
X451154Y1035405D01*
X451256Y1036370D01*
X480822Y1132484D01*
X481736Y1133957D01*
X483108Y1134618D01*
X484022Y1134668D01*
X485089Y1134262D01*
X486156Y1132941D01*
X487222Y1130706D01*
X488340Y1127607D01*
X516788Y1034592D01*
X516585Y1033119D01*
X515975Y1032256D01*
X514959Y1031748D01*
X513537Y1031544D01*
X454050Y1031544D01*
X452628Y1031748D01*
X451612Y1032256D01*
X451002Y1033119D01*
X450748Y1034338D01*
X390714Y1034338D01*
X349961Y902309D01*
X350113Y901293D01*
X350621Y900582D01*
X351485Y900125D01*
X352755Y899972D01*
X405282Y899972D01*
X407060Y900226D01*
X408482Y900887D01*
X409600Y902004D01*
X410413Y903528D01*
X431698Y972870D01*
X432409Y974547D01*
X433527Y975766D01*
X434949Y976477D01*
X436829Y976680D01*
X530758Y976680D01*
X532638Y976426D01*
X534162Y975614D01*
X535330Y974293D01*
X536092Y972362D01*
X557174Y904036D01*
X557987Y902309D01*
X559104Y900988D01*
X560527Y900226D01*
X562305Y899972D01*
X614324Y899972D01*
X615797Y900125D01*
X616813Y900582D01*
X617423Y901293D01*
X617677Y902309D01*
X536397Y1163167D01*
X529590Y1175918D01*
X518871Y1182725D01*
X503682Y1185722D01*
G37*
G36*
X193700Y1186738D02*
G01*
X182880Y1186332D01*
X172923Y1185062D01*
X163830Y1182928D01*
X155600Y1179880D01*
X141478Y1171448D01*
X130505Y1160322D01*
X122174Y1146759D01*
X116484Y1130909D01*
X114503Y1122070D01*
X113080Y1112875D01*
X112217Y1103274D01*
X111963Y1093317D01*
X166014Y1093317D01*
X166522Y1104188D01*
X167538Y1111046D01*
X169113Y1117904D01*
X170230Y1121257D01*
X171704Y1124356D01*
X173431Y1127201D01*
X175463Y1129893D01*
X177698Y1131976D01*
X180340Y1133500D01*
X183388Y1134414D01*
X186842Y1134668D01*
X263347Y1134668D01*
X264972Y1134465D01*
X266192Y1133754D01*
X266903Y1132535D01*
X267106Y1130909D01*
X267106Y1055725D01*
X266903Y1053896D01*
X266192Y1052626D01*
X264972Y1051915D01*
X263347Y1051610D01*
X186842Y1051610D01*
X183388Y1051966D01*
X180340Y1052880D01*
X177698Y1054506D01*
X175463Y1056741D01*
X173431Y1059281D01*
X171704Y1062075D01*
X170230Y1065123D01*
X169113Y1068425D01*
X167538Y1075283D01*
X166522Y1082141D01*
X166014Y1093317D01*
X111963Y1093317D01*
X112217Y1082903D01*
X113080Y1072946D01*
X114503Y1063599D01*
X116484Y1054709D01*
X122174Y1038809D01*
X130505Y1025194D01*
X141478Y1014221D01*
X155600Y1006144D01*
X163830Y1003300D01*
X172923Y1001217D01*
X182880Y999998D01*
X193700Y999591D01*
X263347Y999591D01*
X264972Y999286D01*
X266192Y998575D01*
X266903Y997305D01*
X267106Y995527D01*
X267106Y904036D01*
X267411Y902309D01*
X268122Y900988D01*
X269392Y900226D01*
X271221Y899972D01*
X321208Y899972D01*
X322986Y900277D01*
X324256Y900988D01*
X325018Y902258D01*
X325272Y904036D01*
X325272Y1182725D01*
X325018Y1184503D01*
X324256Y1185722D01*
X322986Y1186535D01*
X321208Y1186738D01*
G37*
G36*
X-164388Y1186738D02*
G01*
X-179273Y1186180D01*
X-192887Y1184402D01*
X-205232Y1181506D01*
X-216357Y1177391D01*
X-226161Y1172108D01*
X-234746Y1165707D01*
X-242163Y1158290D01*
X-248158Y1150061D01*
X-252882Y1140917D01*
X-256235Y1130909D01*
X-258216Y1120038D01*
X-258927Y1108252D01*
X-258216Y1092657D01*
X-256133Y1079296D01*
X-251155Y1068019D01*
X-241909Y1058468D01*
X-238963Y1056436D01*
X-231140Y1052576D01*
X-230225Y1051814D01*
X-229920Y1051102D01*
X-230225Y1050442D01*
X-232664Y1048156D01*
X-237032Y1044905D01*
X-240588Y1041603D01*
X-241909Y1039977D01*
X-251307Y1026566D01*
X-256641Y1011783D01*
X-259079Y995171D01*
X-259943Y975918D01*
X-258724Y961796D01*
X-255117Y947775D01*
X-249377Y934821D01*
X-241401Y923391D01*
X-231546Y913790D01*
X-219760Y906322D01*
X-206248Y901598D01*
X-191109Y899972D01*
X-52933Y899972D01*
X-51104Y900277D01*
X-49885Y900988D01*
X-49072Y902258D01*
X-48818Y904036D01*
X-48818Y945946D01*
X-49072Y947724D01*
X-49834Y948994D01*
X-51155Y949807D01*
X-52933Y950010D01*
X-167233Y950010D01*
X-170332Y950214D01*
X-173431Y950772D01*
X-176428Y951737D01*
X-179425Y953109D01*
X-182219Y954836D01*
X-184912Y956868D01*
X-187452Y959154D01*
X-191973Y964336D01*
X-193852Y967028D01*
X-196951Y972870D01*
X-198170Y975817D01*
X-199034Y978814D01*
X-199542Y981811D01*
X-199644Y987755D01*
X-198882Y994359D01*
X-197358Y1001826D01*
X-196037Y1005484D01*
X-194310Y1009040D01*
X-192125Y1012494D01*
X-189382Y1015695D01*
X-186131Y1018590D01*
X-182270Y1021283D01*
X-177901Y1023670D01*
X-166827Y1027328D01*
X-152501Y1028496D01*
X-83667Y1028496D01*
X-81838Y1028750D01*
X-80568Y1029462D01*
X-79806Y1030681D01*
X-79552Y1032357D01*
X-79552Y1074470D01*
X-79857Y1076147D01*
X-80568Y1077366D01*
X-81838Y1078077D01*
X-83667Y1078280D01*
X-169265Y1078280D01*
X-171754Y1078484D01*
X-174345Y1078992D01*
X-176885Y1079855D01*
X-181864Y1082598D01*
X-186283Y1086154D01*
X-190246Y1090320D01*
X-193548Y1095146D01*
X-194868Y1097838D01*
X-195884Y1100531D01*
X-197053Y1105712D01*
X-197053Y1111148D01*
X-196596Y1113942D01*
X-195884Y1116634D01*
X-194868Y1119225D01*
X-193548Y1121664D01*
X-190246Y1126083D01*
X-186283Y1129893D01*
X-181864Y1133094D01*
X-179425Y1134465D01*
X-176885Y1135430D01*
X-171754Y1136599D01*
X-169265Y1136751D01*
X-52933Y1136751D01*
X-51104Y1136954D01*
X-49885Y1137767D01*
X-49072Y1138986D01*
X-48818Y1140815D01*
X-48818Y1182725D01*
X-49072Y1184503D01*
X-49834Y1185722D01*
X-51155Y1186535D01*
X-52933Y1186738D01*
G37*
G36*
X-492810Y1186738D02*
G01*
X-494588Y1186484D01*
X-495909Y1185722D01*
X-496671Y1184452D01*
X-496925Y1182725D01*
X-496925Y1140815D01*
X-496620Y1138986D01*
X-495909Y1137767D01*
X-494639Y1136954D01*
X-492810Y1136751D01*
X-354380Y1136751D01*
X-352602Y1136497D01*
X-351383Y1135786D01*
X-350621Y1134567D01*
X-350367Y1132941D01*
X-350367Y1082141D01*
X-350621Y1080363D01*
X-351383Y1079093D01*
X-352602Y1078331D01*
X-354380Y1078077D01*
X-421944Y1078077D01*
X-436524Y1077569D01*
X-449529Y1076045D01*
X-460908Y1073454D01*
X-470712Y1069949D01*
X-486562Y1060450D01*
X-497941Y1048867D01*
X-505155Y1035253D01*
X-509117Y1020368D01*
X-510997Y1005027D01*
X-511657Y989888D01*
X-510438Y971753D01*
X-506780Y954836D01*
X-500532Y939444D01*
X-491286Y926185D01*
X-479247Y915314D01*
X-463854Y907135D01*
X-454863Y903986D01*
X-444906Y901750D01*
X-433933Y900430D01*
X-421944Y899972D01*
X-294436Y899972D01*
X-292709Y900277D01*
X-291388Y900988D01*
X-290626Y902258D01*
X-290372Y904036D01*
X-290372Y945946D01*
X-290626Y947724D01*
X-291388Y948994D01*
X-292658Y949807D01*
X-294436Y950010D01*
X-416915Y950010D01*
X-429412Y952500D01*
X-440486Y959967D01*
X-448157Y972515D01*
X-450646Y989888D01*
X-450494Y995781D01*
X-449986Y1001014D01*
X-449122Y1005586D01*
X-447852Y1009446D01*
X-446379Y1012901D01*
X-444652Y1015898D01*
X-442671Y1018387D01*
X-440486Y1020368D01*
X-437997Y1021994D01*
X-435305Y1023315D01*
X-432409Y1024280D01*
X-429310Y1024991D01*
X-423164Y1025702D01*
X-416915Y1026007D01*
X-294436Y1026007D01*
X-292709Y1026261D01*
X-291388Y1026972D01*
X-290626Y1028293D01*
X-290372Y1030020D01*
X-290372Y1182725D01*
X-290626Y1184503D01*
X-291388Y1185722D01*
X-292658Y1186535D01*
X-294436Y1186738D01*
G37*
G36*
X-693267Y1186738D02*
G01*
X-707136Y1185773D01*
X-719531Y1182827D01*
X-730504Y1177899D01*
X-739952Y1171041D01*
X-747623Y1162253D01*
X-753110Y1151686D01*
X-756412Y1139393D01*
X-757478Y1125270D01*
X-757478Y981557D01*
X-703935Y981557D01*
X-703935Y1105509D01*
X-703478Y1111148D01*
X-702157Y1116888D01*
X-701090Y1119632D01*
X-699770Y1122172D01*
X-698195Y1124559D01*
X-694232Y1128877D01*
X-691896Y1130757D01*
X-689305Y1132433D01*
X-686409Y1133957D01*
X-683158Y1135176D01*
X-679653Y1136040D01*
X-675792Y1136548D01*
X-671677Y1136751D01*
X-625957Y1136751D01*
X-619252Y1136294D01*
X-613257Y1134922D01*
X-607822Y1132738D01*
X-603046Y1129588D01*
X-596595Y1120038D01*
X-594410Y1105509D01*
X-594410Y981557D01*
X-596138Y967638D01*
X-601268Y957935D01*
X-610920Y951992D01*
X-625652Y950010D01*
X-671677Y950010D01*
X-687933Y951992D01*
X-697585Y957935D01*
X-702310Y967638D01*
X-703935Y981557D01*
X-757478Y981557D01*
X-757478Y976477D01*
X-756361Y956818D01*
X-752957Y940612D01*
X-747420Y927353D01*
X-739952Y917041D01*
X-735584Y912774D01*
X-730707Y909218D01*
X-725424Y906322D01*
X-719683Y904036D01*
X-706932Y900988D01*
X-692759Y899972D01*
X-612444Y899972D01*
X-595274Y900988D01*
X-580694Y904036D01*
X-568350Y909218D01*
X-558088Y917041D01*
X-550367Y927353D01*
X-544880Y940612D01*
X-541477Y956818D01*
X-540359Y976477D01*
X-540359Y1125270D01*
X-541375Y1139393D01*
X-544576Y1151686D01*
X-549910Y1162253D01*
X-557377Y1171041D01*
X-566674Y1177899D01*
X-577596Y1182827D01*
X-590143Y1185773D01*
X-604367Y1186738D01*
G37*
G36*
X-11480Y1050086D02*
G01*
X-13309Y1049832D01*
X-14528Y1049070D01*
X-15341Y1047851D01*
X-15544Y1046022D01*
X-15544Y1002893D01*
X-15341Y1001115D01*
X-14528Y999794D01*
X-13258Y999083D01*
X-11480Y998778D01*
X86766Y998778D01*
X88595Y999032D01*
X89814Y999845D01*
X90627Y1001115D01*
X90881Y1002893D01*
X90881Y1046327D01*
X90627Y1047953D01*
X89865Y1049172D01*
X88544Y1049883D01*
X86766Y1050086D01*
G37*
D10*
X689998Y-1059088D02*
G01*
X685452Y-1063635D01*
X680907Y-1059088D01*
X685452Y-1054544D01*
X689998Y-1059088D01*
X685452Y-1090907D02*
G01*
X685452Y-1154544D01*
X596361Y-1090907D02*
G01*
X596361Y-1154544D01*
X596361Y-1104544D02*
G01*
X605452Y-1095451D01*
X614545Y-1090907D01*
X628180Y-1090907D01*
X637270Y-1095451D01*
X646361Y-1104544D01*
X650908Y-1118179D01*
X650908Y-1127269D01*
X646361Y-1140907D01*
X637270Y-1149997D01*
X628180Y-1154544D01*
X614545Y-1154544D01*
X605452Y-1149997D01*
X596361Y-1140907D01*
X566361Y-1090907D02*
G01*
X566361Y-1154544D01*
X566361Y-1109088D02*
G01*
X552726Y-1095451D01*
X543636Y-1090907D01*
X529998Y-1090907D01*
X520908Y-1095451D01*
X516361Y-1109088D01*
X516361Y-1154544D01*
X516361Y-1109088D02*
G01*
X502726Y-1095451D01*
X493636Y-1090907D01*
X479999Y-1090907D01*
X470908Y-1095451D01*
X466361Y-1109088D01*
X466361Y-1154544D01*
X316362Y-1104544D02*
G01*
X320908Y-1095451D01*
X334545Y-1090907D01*
X348180Y-1090907D01*
X361817Y-1095451D01*
X366361Y-1104544D01*
X361817Y-1113635D01*
X352727Y-1118179D01*
X329999Y-1122725D01*
X320908Y-1127269D01*
X316362Y-1136360D01*
X316362Y-1140907D01*
X320908Y-1149997D01*
X334545Y-1154544D01*
X348180Y-1154544D01*
X361817Y-1149997D01*
X366361Y-1140907D01*
X263636Y-1090907D02*
G01*
X272727Y-1095451D01*
X281818Y-1104544D01*
X286362Y-1118179D01*
X286362Y-1127269D01*
X281818Y-1140907D01*
X272727Y-1149997D01*
X263636Y-1154544D01*
X249999Y-1154544D01*
X240908Y-1149997D01*
X231818Y-1140907D01*
X227271Y-1127269D01*
X227271Y-1118179D01*
X231818Y-1104544D01*
X240908Y-1095451D01*
X249999Y-1090907D01*
X263636Y-1090907D01*
X127271Y-1059088D02*
G01*
X127271Y-1154544D01*
X127271Y-1104544D02*
G01*
X118181Y-1095451D01*
X109090Y-1090907D01*
X95453Y-1090907D01*
X86362Y-1095451D01*
X77271Y-1104544D01*
X72727Y-1118179D01*
X72727Y-1127269D01*
X77271Y-1140907D01*
X86362Y-1149997D01*
X95453Y-1154544D01*
X109090Y-1154544D01*
X118181Y-1149997D01*
X127271Y-1140907D01*
X-11818Y-1090907D02*
G01*
X-11818Y-1154544D01*
X-11818Y-1104544D02*
G01*
X-2727Y-1095451D01*
X6362Y-1090907D01*
X19999Y-1090907D01*
X29090Y-1095451D01*
X38181Y-1104544D01*
X42727Y-1118179D01*
X42727Y-1127269D01*
X38181Y-1140907D01*
X29090Y-1149997D01*
X19999Y-1154544D01*
X6362Y-1154544D01*
X-2727Y-1149997D01*
X-11818Y-1140907D01*
X-96362Y-1059088D02*
G01*
X-96362Y-1154544D01*
X-96362Y-1104544D02*
G01*
X-87271Y-1095451D01*
X-78181Y-1090907D01*
X-64546Y-1090907D01*
X-55453Y-1095451D01*
X-46362Y-1104544D01*
X-41818Y-1118179D01*
X-41818Y-1127269D01*
X-46362Y-1140907D01*
X-55453Y-1149997D01*
X-64546Y-1154544D01*
X-78181Y-1154544D01*
X-87271Y-1149997D01*
X-96362Y-1140907D01*
X-250908Y-1090907D02*
G01*
X-250908Y-1154544D01*
X-250908Y-1104544D02*
G01*
X-241818Y-1095451D01*
X-232727Y-1090907D01*
X-219090Y-1090907D01*
X-209999Y-1095451D01*
X-200908Y-1104544D01*
X-196362Y-1118179D01*
X-196362Y-1127269D01*
X-200908Y-1140907D01*
X-209999Y-1149997D01*
X-219090Y-1154544D01*
X-232727Y-1154544D01*
X-241818Y-1149997D01*
X-250908Y-1140907D01*
X-294546Y-1059088D02*
G01*
X-294546Y-1136360D01*
X-299090Y-1149997D01*
X-308180Y-1154544D01*
X-317271Y-1154544D01*
X-280908Y-1090907D02*
G01*
X-312727Y-1090907D01*
X-430908Y-1059088D02*
G01*
X-430908Y-1136360D01*
X-435452Y-1149997D01*
X-444545Y-1154544D01*
X-453636Y-1154544D01*
X-417271Y-1090907D02*
G01*
X-449089Y-1090907D01*
X-483636Y-1059088D02*
G01*
X-483636Y-1154544D01*
X-483636Y-1109088D02*
G01*
X-497271Y-1095451D01*
X-506361Y-1090907D01*
X-519998Y-1090907D01*
X-529089Y-1095451D01*
X-533636Y-1109088D01*
X-533636Y-1154544D01*
X-563636Y-1059088D02*
G01*
X-568180Y-1063635D01*
X-572726Y-1059088D01*
X-568180Y-1054544D01*
X-563636Y-1059088D01*
X-568180Y-1090907D02*
G01*
X-568180Y-1154544D01*
X-652726Y-1104544D02*
G01*
X-648180Y-1095451D01*
X-634545Y-1090907D01*
X-620908Y-1090907D01*
X-607270Y-1095451D01*
X-602726Y-1104544D01*
X-607270Y-1113635D01*
X-616361Y-1118179D01*
X-639089Y-1122725D01*
X-648180Y-1127269D01*
X-652726Y-1136360D01*
X-652726Y-1140907D01*
X-648180Y-1149997D01*
X-634545Y-1154544D01*
X-620908Y-1154544D01*
X-607270Y-1149997D01*
X-602726Y-1140907D01*
X-691817Y-1136360D02*
G01*
X-687270Y-1140907D01*
X-682726Y-1136360D01*
X-687270Y-1131816D01*
X-691817Y-1136360D01*
X-691817Y-1145451D01*
X-682726Y-1154544D01*
X333636Y-1239088D02*
G01*
X342727Y-1239088D01*
X351817Y-1243634D01*
X356362Y-1257269D01*
X356362Y-1334543D01*
X369999Y-1270906D02*
G01*
X338180Y-1270906D01*
X280908Y-1270906D02*
G01*
X289999Y-1275450D01*
X299090Y-1284544D01*
X303636Y-1298178D01*
X303636Y-1307269D01*
X299090Y-1320906D01*
X289999Y-1329997D01*
X280908Y-1334543D01*
X267271Y-1334543D01*
X258180Y-1329997D01*
X249090Y-1320906D01*
X244546Y-1307269D01*
X244546Y-1298178D01*
X249090Y-1284544D01*
X258180Y-1275450D01*
X267271Y-1270906D01*
X280908Y-1270906D01*
X214546Y-1270906D02*
G01*
X214546Y-1334543D01*
X214546Y-1298178D02*
G01*
X209999Y-1284544D01*
X200908Y-1275450D01*
X191818Y-1270906D01*
X178180Y-1270906D01*
X93637Y-1270906D02*
G01*
X93637Y-1343634D01*
X98181Y-1357269D01*
X102727Y-1361815D01*
X111818Y-1366359D01*
X125453Y-1366359D01*
X134546Y-1361815D01*
X93637Y-1284544D02*
G01*
X102727Y-1275450D01*
X111818Y-1270906D01*
X125453Y-1270906D01*
X134546Y-1275450D01*
X143637Y-1284544D01*
X148181Y-1298178D01*
X148181Y-1307269D01*
X143637Y-1320906D01*
X134546Y-1329997D01*
X125453Y-1334543D01*
X111818Y-1334543D01*
X102727Y-1329997D01*
X93637Y-1320906D01*
X63637Y-1239088D02*
G01*
X59090Y-1243634D01*
X54546Y-1239088D01*
X59090Y-1234544D01*
X63637Y-1239088D01*
X59090Y-1270906D02*
G01*
X59090Y-1334543D01*
X24546Y-1270906D02*
G01*
X-2727Y-1334543D01*
X-29999Y-1270906D02*
G01*
X-2727Y-1334543D01*
X-59999Y-1298178D02*
G01*
X-114546Y-1298178D01*
X-114546Y-1289088D01*
X-109999Y-1279997D01*
X-105453Y-1275450D01*
X-96362Y-1270906D01*
X-82727Y-1270906D01*
X-73637Y-1275450D01*
X-64546Y-1284544D01*
X-59999Y-1298178D01*
X-59999Y-1307269D01*
X-64546Y-1320906D01*
X-73637Y-1329997D01*
X-82727Y-1334543D01*
X-96362Y-1334543D01*
X-105453Y-1329997D01*
X-114546Y-1320906D01*
X-214546Y-1270906D02*
G01*
X-214546Y-1334543D01*
X-214546Y-1289088D02*
G01*
X-228180Y-1275450D01*
X-237271Y-1270906D01*
X-250908Y-1270906D01*
X-259999Y-1275450D01*
X-264546Y-1289088D01*
X-264546Y-1334543D01*
X-264546Y-1289088D02*
G01*
X-278180Y-1275450D01*
X-287271Y-1270906D01*
X-300908Y-1270906D01*
X-309999Y-1275450D01*
X-314545Y-1289088D01*
X-314545Y-1334543D01*
X-344545Y-1298178D02*
G01*
X-399089Y-1298178D01*
X-399089Y-1289088D01*
X-394545Y-1279997D01*
X-389999Y-1275450D01*
X-380908Y-1270906D01*
X-367271Y-1270906D01*
X-358180Y-1275450D01*
X-349089Y-1284544D01*
X-344545Y-1298178D01*
X-344545Y-1307269D01*
X-349089Y-1320906D01*
X-358180Y-1329997D01*
X-367271Y-1334543D01*
X-380908Y-1334543D01*
X-389999Y-1329997D01*
X-399089Y-1320906D01*
X1489087Y444545D02*
G01*
X1561815Y444545D01*
X1575450Y449089D01*
X1579996Y453636D01*
X1584543Y462727D01*
X1584543Y471817D01*
X1579996Y480908D01*
X1575450Y485452D01*
X1561815Y489999D01*
X1552724Y489999D01*
X1489087Y414545D02*
G01*
X1584543Y414545D01*
X1584543Y414545D02*
G01*
X1584543Y359999D01*
X1511815Y261818D02*
G01*
X1502724Y266362D01*
X1493634Y275452D01*
X1489087Y284546D01*
X1489087Y302727D01*
X1493634Y311818D01*
X1502724Y320908D01*
X1511815Y325452D01*
X1525450Y329999D01*
X1548178Y329999D01*
X1561815Y325452D01*
X1570906Y320908D01*
X1579996Y311818D01*
X1584543Y302727D01*
X1584543Y284546D01*
X1579996Y275452D01*
X1570906Y266362D01*
X1561815Y261818D01*
X1489087Y186362D02*
G01*
X1561815Y186362D01*
X1575450Y190908D01*
X1579996Y195453D01*
X1584543Y204546D01*
X1584543Y213636D01*
X1579996Y222727D01*
X1575450Y227271D01*
X1561815Y231818D01*
X1552724Y231818D01*
X1489087Y156362D02*
G01*
X1584543Y156362D01*
X1584543Y156362D02*
G01*
X1584543Y101818D01*
X1511815Y3637D02*
G01*
X1502724Y8181D01*
X1493634Y17271D01*
X1489087Y26362D01*
X1489087Y44546D01*
X1493634Y53637D01*
X1502724Y62727D01*
X1511815Y67271D01*
X1525450Y71818D01*
X1548178Y71818D01*
X1561815Y67271D01*
X1570906Y62727D01*
X1579996Y53637D01*
X1584543Y44546D01*
X1584543Y26362D01*
X1579996Y17271D01*
X1570906Y8181D01*
X1561815Y3637D01*
X1489087Y-71818D02*
G01*
X1561815Y-71818D01*
X1575450Y-67271D01*
X1579996Y-62727D01*
X1584543Y-53637D01*
X1584543Y-44546D01*
X1579996Y-35453D01*
X1575450Y-30909D01*
X1561815Y-26362D01*
X1552724Y-26362D01*
X1489087Y-101818D02*
G01*
X1584543Y-101818D01*
X1584543Y-101818D02*
G01*
X1584543Y-156362D01*
X1511815Y-254546D02*
G01*
X1502724Y-249999D01*
X1493634Y-240908D01*
X1489087Y-231818D01*
X1489087Y-213636D01*
X1493634Y-204546D01*
X1502724Y-195453D01*
X1511815Y-190908D01*
X1525450Y-186362D01*
X1548178Y-186362D01*
X1561815Y-190908D01*
X1570906Y-195453D01*
X1579996Y-204546D01*
X1584543Y-213636D01*
X1584543Y-231818D01*
X1579996Y-240908D01*
X1570906Y-249999D01*
X1561815Y-254546D01*
X1489087Y-329999D02*
G01*
X1561815Y-329999D01*
X1575450Y-325452D01*
X1579996Y-320908D01*
X1584543Y-311818D01*
X1584543Y-302727D01*
X1579996Y-293636D01*
X1575450Y-289090D01*
X1561815Y-284546D01*
X1552724Y-284546D01*
X1489087Y-359999D02*
G01*
X1584543Y-359999D01*
X1584543Y-359999D02*
G01*
X1584543Y-414545D01*
X1511815Y-512726D02*
G01*
X1502724Y-508180D01*
X1493634Y-499089D01*
X1489087Y-489999D01*
X1489087Y-471817D01*
X1493634Y-462727D01*
X1502724Y-453636D01*
X1511815Y-449089D01*
X1525450Y-444545D01*
X1548178Y-444545D01*
X1561815Y-449089D01*
X1570906Y-453636D01*
X1579996Y-462727D01*
X1584543Y-471817D01*
X1584543Y-489999D01*
X1579996Y-499089D01*
X1570906Y-508180D01*
X1561815Y-512726D01*
D11*
G75*
G01
X1780007Y0D02*
G03X1780007Y0I-1780007J0D01*
M02*
