G04 Layer: TopSolderMaskLayer*
G04 EasyEDA v6.5.22, 2023-04-02 13:19:52*
G04 e11523a40a7546c49719b0b35a8351d0,15f4cc3622644fce95c1d8fbedb56722,10*
G04 Gerber Generator version 0.2*
G04 Scale: 100 percent, Rotated: No, Reflected: No *
G04 Dimensions in millimeters *
G04 leading zeros omitted , absolute positions ,4 integer and 5 decimal *
%FSLAX45Y45*%
%MOMM*%

%AMMACRO1*1,1,$1,$2,$3*1,1,$1,$4,$5*1,1,$1,0-$2,0-$3*1,1,$1,0-$4,0-$5*20,1,$1,$2,$3,$4,$5,0*20,1,$1,$4,$5,0-$2,0-$3,0*20,1,$1,0-$2,0-$3,0-$4,0-$5,0*20,1,$1,0-$4,0-$5,$2,$3,0*4,1,4,$2,$3,$4,$5,0-$2,0-$3,0-$4,0-$5,$2,$3,0*%
%ADD10MACRO1,0.1016X-0.6885X0.5663X0.6885X0.5663*%
%ADD11MACRO1,0.1016X-0.6885X-0.5663X0.6885X-0.5663*%
%ADD12MACRO1,0.1016X0.5663X0.6885X0.5663X-0.6885*%
%ADD13MACRO1,0.1016X-0.5663X0.6885X-0.5663X-0.6885*%
%ADD14MACRO1,0.1016X-0.7X0.6X0.7X0.6*%
%ADD15MACRO1,0.1016X0.7X-0.6X-0.7X-0.6*%
%ADD16MACRO1,0.1016X0.6502X-0.6998X-0.6502X-0.6998*%
%ADD17MACRO1,0.1016X-0.5663X-0.6885X-0.5663X0.6885*%
%ADD18MACRO1,0.1016X0.5663X-0.6885X0.5663X0.6885*%
%ADD19MACRO1,0.1016X1.05X-0.7X-1.05X-0.7*%
%ADD20O,2.3516082000000003X0.7315962*%
%ADD21C,1.6256*%
%ADD22MACRO1,0.1X0.65X-2.25X-0.65X-2.25*%
%ADD23MACRO1,0.1X0.9X-1.95X-0.9X-1.95*%
%ADD24C,1.6764*%
%ADD25MACRO1,0.1016X-0.7874X-0.7874X-0.7874X0.7874*%
%ADD26MACRO1,0.1016X-0.6998X-0.6502X-0.6998X0.6502*%

%LPD*%
D10*
G01*
X809998Y-26626D03*
D11*
G01*
X809998Y166626D03*
D12*
G01*
X-546625Y-519998D03*
D13*
G01*
X-353372Y-519998D03*
D14*
G01*
X958289Y-330481D03*
G01*
X1305281Y-330481D03*
D15*
G01*
X1305281Y-598520D03*
G01*
X958289Y-598520D03*
D16*
G01*
X105028Y-799998D03*
G01*
X-105028Y-799998D03*
D17*
G01*
X1296624Y-80975D03*
D18*
G01*
X1103370Y-80975D03*
D17*
G01*
X1296624Y169999D03*
D18*
G01*
X1103370Y169999D03*
D17*
G01*
X-963371Y-519998D03*
D18*
G01*
X-1156624Y-519998D03*
D17*
G01*
X96626Y-519998D03*
D18*
G01*
X-96626Y-519998D03*
D17*
G01*
X-1063371Y989998D03*
D18*
G01*
X-1256624Y989998D03*
D12*
G01*
X353372Y-519998D03*
D13*
G01*
X546625Y-519998D03*
D19*
G01*
X455256Y-1144988D03*
G01*
X-455053Y-1144988D03*
G01*
X-455358Y-1594990D03*
G01*
X455358Y-1595008D03*
D20*
G01*
X353009Y-190500D03*
G01*
X353009Y-63500D03*
G01*
X353009Y63500D03*
G01*
X353009Y190500D03*
G01*
X-353009Y-190500D03*
G01*
X-353009Y-63500D03*
G01*
X-353009Y63500D03*
G01*
X-353009Y190500D03*
D21*
G01*
X1220012Y-1073988D03*
G01*
X1220012Y-819988D03*
D22*
G01*
X250003Y785000D03*
G01*
X5Y784999D03*
D23*
G01*
X570003Y1464998D03*
G01*
X-569998Y1464998D03*
D22*
G01*
X-249994Y784999D03*
D24*
G01*
X-1343990Y254000D03*
G01*
X-1089990Y254000D03*
D25*
G01*
X-1343997Y5D03*
D24*
G01*
X-1089990Y0D03*
G01*
X-1343990Y-254000D03*
G01*
X-1089990Y-254000D03*
D12*
G01*
X-1286624Y529998D03*
D13*
G01*
X-1093370Y529998D03*
D17*
G01*
X-633371Y529998D03*
D18*
G01*
X-826625Y529998D03*
D26*
G01*
X-819998Y994968D03*
G01*
X-819998Y1205026D03*
M02*
