G04 Layer: TopSilkscreenLayer*
G04 EasyEDA v6.5.22, 2023-04-02 13:19:52*
G04 e11523a40a7546c49719b0b35a8351d0,15f4cc3622644fce95c1d8fbedb56722,10*
G04 Gerber Generator version 0.2*
G04 Scale: 100 percent, Rotated: No, Reflected: No *
G04 Dimensions in millimeters *
G04 leading zeros omitted , absolute positions ,4 integer and 5 decimal *
%FSLAX45Y45*%
%MOMM*%

%ADD10C,0.1524*%
%ADD11C,0.2000*%
%ADD12C,0.2540*%
%ADD13C,0.2032*%
%ADD14C,0.5000*%
%ADD15C,0.3000*%
%ADD16C,0.0159*%

%LPD*%
G36*
X-967892Y335991D02*
G01*
X-967892Y202844D01*
X-887780Y202844D01*
X-887679Y295706D01*
X-886764Y299923D01*
X-885037Y303225D01*
X-882599Y305917D01*
X-879602Y307949D01*
X-876147Y309321D01*
X-872286Y310134D01*
X-868222Y310489D01*
X-863041Y310489D01*
X-857707Y310134D01*
X-853541Y309321D01*
X-851763Y308610D01*
X-848664Y306476D01*
X-847445Y304952D01*
X-845413Y300888D01*
X-843838Y295452D01*
X-842314Y288239D01*
X-832662Y230124D01*
X-831646Y226212D01*
X-830884Y225196D01*
X-830529Y225450D01*
X-829665Y227482D01*
X-828446Y232562D01*
X-819810Y288747D01*
X-818286Y295757D01*
X-816610Y301091D01*
X-815644Y303276D01*
X-814578Y305054D01*
X-813358Y306476D01*
X-810158Y308610D01*
X-808278Y309321D01*
X-804011Y310134D01*
X-798576Y310489D01*
X-790702Y310337D01*
X-786536Y309626D01*
X-782828Y308406D01*
X-779576Y306730D01*
X-776884Y304495D01*
X-775004Y301599D01*
X-773836Y298043D01*
X-773480Y293776D01*
X-773480Y239674D01*
X-761796Y239674D01*
X-761796Y271678D01*
X-761390Y277520D01*
X-760780Y282346D01*
X-758240Y293014D01*
X-756513Y297230D01*
X-754430Y300634D01*
X-750976Y304444D01*
X-746810Y307746D01*
X-742086Y310184D01*
X-737158Y311810D01*
X-732942Y312470D01*
X-727506Y312826D01*
X-699312Y312826D01*
X-693826Y312470D01*
X-689660Y311810D01*
X-684530Y310184D01*
X-679754Y307746D01*
X-675538Y304444D01*
X-672134Y300634D01*
X-671017Y299059D01*
X-669239Y295249D01*
X-666648Y285242D01*
X-665469Y278282D01*
X-654100Y278282D01*
X-653948Y283260D01*
X-652830Y290118D01*
X-650849Y295656D01*
X-647903Y300431D01*
X-643940Y304444D01*
X-641045Y306628D01*
X-635660Y309422D01*
X-631850Y310438D01*
X-579018Y310489D01*
X-578510Y310184D01*
X-578154Y309016D01*
X-578256Y291592D01*
X-578510Y291134D01*
X-579678Y290728D01*
X-624586Y290626D01*
X-626516Y289763D01*
X-628243Y287985D01*
X-629513Y286207D01*
X-630326Y284632D01*
X-630986Y282346D01*
X-630732Y274218D01*
X-630072Y271830D01*
X-628700Y269646D01*
X-626668Y268274D01*
X-624128Y267614D01*
X-617524Y267360D01*
X-598068Y267309D01*
X-593090Y266649D01*
X-587959Y265328D01*
X-585520Y264210D01*
X-583133Y262788D01*
X-579729Y259943D01*
X-577545Y257403D01*
X-575767Y254406D01*
X-574243Y251104D01*
X-573074Y247548D01*
X-572312Y243890D01*
X-571550Y236423D01*
X-571652Y230174D01*
X-572058Y229006D01*
X-573024Y222453D01*
X-574954Y216712D01*
X-577850Y211785D01*
X-581710Y207670D01*
X-584555Y205486D01*
X-589166Y202844D01*
X-560374Y202844D01*
X-560273Y309727D01*
X-559511Y310489D01*
X-539140Y310489D01*
X-538632Y310184D01*
X-538276Y309016D01*
X-538378Y202184D01*
X-538632Y201726D01*
X-539800Y201320D01*
X-559511Y201422D01*
X-560273Y202184D01*
X-560374Y202844D01*
X-589166Y202844D01*
X-591718Y201828D01*
X-595172Y201320D01*
X-651205Y201422D01*
X-651967Y202184D01*
X-651967Y220319D01*
X-651205Y221081D01*
X-601522Y221132D01*
X-600405Y221284D01*
X-599338Y221742D01*
X-597458Y223418D01*
X-596138Y225450D01*
X-594512Y229006D01*
X-594156Y230530D01*
X-594207Y236270D01*
X-594614Y240182D01*
X-595630Y242620D01*
X-596442Y243738D01*
X-598271Y245110D01*
X-600760Y246024D01*
X-603808Y246634D01*
X-627075Y246888D01*
X-632155Y247497D01*
X-637387Y248767D01*
X-639927Y249732D01*
X-642366Y251053D01*
X-644702Y252628D01*
X-647039Y255066D01*
X-649020Y257708D01*
X-650595Y260908D01*
X-652881Y267716D01*
X-653592Y271170D01*
X-654100Y278282D01*
X-665469Y278282D01*
X-665022Y271678D01*
X-665022Y239674D01*
X-665378Y233730D01*
X-666038Y229006D01*
X-669239Y216052D01*
X-671017Y212140D01*
X-673760Y208534D01*
X-677570Y205079D01*
X-682091Y202234D01*
X-687019Y200050D01*
X-689660Y199288D01*
X-693826Y198729D01*
X-705713Y198374D01*
X-721004Y198374D01*
X-732942Y198729D01*
X-737158Y199288D01*
X-742086Y201015D01*
X-746810Y203606D01*
X-748995Y205079D01*
X-752805Y208534D01*
X-754430Y210464D01*
X-756513Y213969D01*
X-758240Y218338D01*
X-760780Y229006D01*
X-761390Y233730D01*
X-761796Y239674D01*
X-773480Y239674D01*
X-773582Y202184D01*
X-773836Y201726D01*
X-775004Y201320D01*
X-794715Y201422D01*
X-795477Y202184D01*
X-795578Y286105D01*
X-795985Y287629D01*
X-796493Y288137D01*
X-797204Y288188D01*
X-797712Y287934D01*
X-798626Y286410D01*
X-805230Y255828D01*
X-814120Y213055D01*
X-814882Y210616D01*
X-816051Y208381D01*
X-817575Y206349D01*
X-819505Y204571D01*
X-823518Y202336D01*
X-827176Y201574D01*
X-831646Y201320D01*
X-835558Y201574D01*
X-838758Y202336D01*
X-841451Y203555D01*
X-843584Y205130D01*
X-845159Y206806D01*
X-846378Y208686D01*
X-847648Y212496D01*
X-863244Y286105D01*
X-864158Y288239D01*
X-864412Y288442D01*
X-865378Y288391D01*
X-865632Y287731D01*
X-865682Y202844D01*
X-866038Y201726D01*
X-867206Y201320D01*
X-886917Y201422D01*
X-887679Y202184D01*
X-887780Y202844D01*
X-967892Y202844D01*
X-967892Y175920D01*
X-550011Y175920D01*
X-543458Y176225D01*
X-537006Y176987D01*
X-530758Y178257D01*
X-524713Y180035D01*
X-518820Y182219D01*
X-513232Y184861D01*
X-507847Y187909D01*
X-502716Y191363D01*
X-497890Y195224D01*
X-493420Y199390D01*
X-489204Y203911D01*
X-485393Y208686D01*
X-481939Y213817D01*
X-478891Y219202D01*
X-476250Y224840D01*
X-474065Y230682D01*
X-472287Y236728D01*
X-471017Y242976D01*
X-470204Y249428D01*
X-469950Y255981D01*
X-470204Y262534D01*
X-471017Y268935D01*
X-472287Y275234D01*
X-474065Y281279D01*
X-476250Y287121D01*
X-478891Y292760D01*
X-481939Y298145D01*
X-485393Y303225D01*
X-489204Y308051D01*
X-493420Y312572D01*
X-497890Y316738D01*
X-502716Y320548D01*
X-507847Y324002D01*
X-513232Y327101D01*
X-518820Y329742D01*
X-524713Y331927D01*
X-530758Y333705D01*
X-537006Y334975D01*
X-543458Y335737D01*
X-550011Y335991D01*
G37*
G36*
X-722426Y291744D02*
G01*
X-726389Y291388D01*
X-729792Y290728D01*
X-732282Y289814D01*
X-734364Y288594D01*
X-736092Y287020D01*
X-737412Y285140D01*
X-738378Y282905D01*
X-739140Y280162D01*
X-739546Y276910D01*
X-739698Y273202D01*
X-739698Y238150D01*
X-739546Y234340D01*
X-739140Y231038D01*
X-738378Y228244D01*
X-737412Y225958D01*
X-736092Y224129D01*
X-734364Y222605D01*
X-732282Y221437D01*
X-729792Y220624D01*
X-726389Y220014D01*
X-722426Y219608D01*
X-710996Y219405D01*
X-702310Y219811D01*
X-698601Y220319D01*
X-694537Y221437D01*
X-692454Y222605D01*
X-690727Y224129D01*
X-689406Y225958D01*
X-688390Y228244D01*
X-687679Y231038D01*
X-687273Y234340D01*
X-687120Y238150D01*
X-687120Y273202D01*
X-687273Y276910D01*
X-687679Y280162D01*
X-688390Y282905D01*
X-689406Y285140D01*
X-690727Y287020D01*
X-692454Y288594D01*
X-694537Y289814D01*
X-697026Y290728D01*
X-700379Y291388D01*
X-704392Y291744D01*
G37*
G36*
X-967892Y86004D02*
G01*
X-967892Y-47142D01*
X-887780Y-47142D01*
X-887679Y45720D01*
X-886764Y49885D01*
X-886002Y51663D01*
X-883869Y54660D01*
X-881176Y56997D01*
X-877925Y58724D01*
X-874318Y59791D01*
X-870254Y60350D01*
X-866190Y60553D01*
X-860196Y60350D01*
X-855522Y59791D01*
X-853541Y59283D01*
X-850137Y57658D01*
X-848664Y56489D01*
X-847445Y54965D01*
X-845413Y50901D01*
X-843838Y45466D01*
X-842314Y38201D01*
X-832662Y-19913D01*
X-831646Y-23774D01*
X-830884Y-24790D01*
X-830529Y-24536D01*
X-829665Y-22504D01*
X-828852Y-18440D01*
X-828344Y-17119D01*
X-820470Y34645D01*
X-819048Y42468D01*
X-816610Y51104D01*
X-814578Y55067D01*
X-813358Y56489D01*
X-811834Y57658D01*
X-810158Y58572D01*
X-806246Y59791D01*
X-801471Y60350D01*
X-795324Y60553D01*
X-790702Y60299D01*
X-786536Y59588D01*
X-782828Y58419D01*
X-779576Y56743D01*
X-776884Y54508D01*
X-775004Y51612D01*
X-773836Y48056D01*
X-773480Y43789D01*
X-773480Y-47142D01*
X-761034Y-47142D01*
X-760933Y59690D01*
X-760628Y60198D01*
X-759510Y60553D01*
X-739800Y60452D01*
X-739292Y60198D01*
X-738936Y59029D01*
X-738936Y28295D01*
X-726998Y28295D01*
X-726744Y33883D01*
X-725728Y40132D01*
X-723747Y45618D01*
X-720801Y50393D01*
X-716838Y54457D01*
X-713943Y56641D01*
X-708609Y59436D01*
X-704900Y60452D01*
X-652576Y60553D01*
X-651408Y60198D01*
X-651052Y59029D01*
X-651154Y41605D01*
X-651408Y41148D01*
X-652576Y40741D01*
X-697636Y40640D01*
X-699668Y39725D01*
X-701395Y37998D01*
X-702665Y36220D01*
X-703427Y34645D01*
X-703834Y33121D01*
X-704138Y29311D01*
X-703884Y24231D01*
X-703072Y21844D01*
X-701598Y19659D01*
X-699668Y18288D01*
X-697026Y17627D01*
X-693826Y17424D01*
X-673404Y17373D01*
X-668629Y17068D01*
X-663498Y16103D01*
X-660958Y15341D01*
X-658520Y14224D01*
X-656132Y12801D01*
X-652627Y9956D01*
X-650443Y7416D01*
X-648665Y4419D01*
X-647293Y1117D01*
X-645718Y-4267D01*
X-644923Y-10312D01*
X-634034Y-10312D01*
X-634034Y21691D01*
X-633628Y27533D01*
X-633018Y32359D01*
X-630478Y43027D01*
X-628954Y47244D01*
X-626922Y50647D01*
X-623468Y54457D01*
X-619302Y57759D01*
X-614527Y60198D01*
X-609396Y61823D01*
X-605180Y62484D01*
X-599744Y62839D01*
X-571550Y62839D01*
X-566064Y62484D01*
X-561898Y61823D01*
X-556920Y60198D01*
X-552246Y57759D01*
X-548030Y54457D01*
X-544626Y50647D01*
X-542493Y47244D01*
X-540816Y43027D01*
X-538276Y32359D01*
X-537616Y27533D01*
X-537260Y21691D01*
X-537260Y-10312D01*
X-537616Y-16256D01*
X-538276Y-20980D01*
X-540816Y-31648D01*
X-542493Y-36017D01*
X-544626Y-39522D01*
X-548030Y-43281D01*
X-552246Y-46380D01*
X-554532Y-47802D01*
X-559358Y-49936D01*
X-561898Y-50698D01*
X-566064Y-51257D01*
X-578002Y-51663D01*
X-602640Y-51409D01*
X-609396Y-50698D01*
X-614527Y-48971D01*
X-616966Y-47802D01*
X-621487Y-44907D01*
X-625297Y-41452D01*
X-626922Y-39522D01*
X-628954Y-36017D01*
X-630478Y-31648D01*
X-633018Y-20980D01*
X-633628Y-16256D01*
X-634034Y-10312D01*
X-644923Y-10312D01*
X-644702Y-13614D01*
X-644753Y-19812D01*
X-646023Y-27533D01*
X-648004Y-33274D01*
X-650849Y-38201D01*
X-654608Y-42316D01*
X-657555Y-44551D01*
X-660958Y-46634D01*
X-664616Y-48158D01*
X-668070Y-48666D01*
X-724357Y-48564D01*
X-725119Y-47802D01*
X-725220Y-30378D01*
X-724814Y-29209D01*
X-723696Y-28854D01*
X-674420Y-28854D01*
X-673303Y-28702D01*
X-672338Y-28295D01*
X-671423Y-27584D01*
X-669747Y-25552D01*
X-668477Y-23520D01*
X-667715Y-21742D01*
X-667207Y-18694D01*
X-667105Y-13716D01*
X-667512Y-9804D01*
X-668680Y-7416D01*
X-670407Y-5537D01*
X-672592Y-4368D01*
X-675335Y-3606D01*
X-678637Y-3251D01*
X-697788Y-3200D01*
X-702614Y-2895D01*
X-710539Y-1270D01*
X-713028Y-254D01*
X-715365Y1016D01*
X-717600Y2641D01*
X-719937Y5080D01*
X-721918Y7721D01*
X-723544Y10922D01*
X-724966Y14325D01*
X-726490Y21183D01*
X-726998Y28295D01*
X-738936Y28295D01*
X-739038Y-47802D01*
X-739292Y-48260D01*
X-740460Y-48666D01*
X-760171Y-48564D01*
X-760933Y-47802D01*
X-761034Y-47142D01*
X-773480Y-47142D01*
X-773836Y-48260D01*
X-775004Y-48666D01*
X-794715Y-48564D01*
X-795477Y-47802D01*
X-795578Y36118D01*
X-795985Y37642D01*
X-796493Y38150D01*
X-797204Y38201D01*
X-797712Y37947D01*
X-798474Y36779D01*
X-803706Y12801D01*
X-814120Y-36982D01*
X-814882Y-39370D01*
X-816051Y-41656D01*
X-817575Y-43688D01*
X-819505Y-45466D01*
X-823518Y-47650D01*
X-827176Y-48412D01*
X-831646Y-48666D01*
X-835558Y-48412D01*
X-838758Y-47650D01*
X-841451Y-46431D01*
X-843584Y-44856D01*
X-845159Y-43180D01*
X-846378Y-41300D01*
X-847648Y-37490D01*
X-863244Y36118D01*
X-864158Y38252D01*
X-864412Y38455D01*
X-865378Y38404D01*
X-865632Y37744D01*
X-865682Y-47142D01*
X-866038Y-48260D01*
X-867206Y-48666D01*
X-886917Y-48564D01*
X-887679Y-47802D01*
X-887780Y-47142D01*
X-967892Y-47142D01*
X-967892Y-74066D01*
X-550011Y-74066D01*
X-543458Y-73812D01*
X-537006Y-72999D01*
X-530758Y-71729D01*
X-524713Y-70002D01*
X-518820Y-67767D01*
X-513232Y-65125D01*
X-507847Y-62077D01*
X-502716Y-58623D01*
X-497890Y-54813D01*
X-493420Y-50596D01*
X-489204Y-46126D01*
X-485393Y-41300D01*
X-481939Y-36169D01*
X-478891Y-30784D01*
X-476250Y-25196D01*
X-474065Y-19304D01*
X-472287Y-13258D01*
X-471017Y-7010D01*
X-470204Y-609D01*
X-469950Y5994D01*
X-470204Y12547D01*
X-471017Y18948D01*
X-472287Y25196D01*
X-474065Y31292D01*
X-476250Y37134D01*
X-478891Y42773D01*
X-481939Y48158D01*
X-485393Y53238D01*
X-489204Y58064D01*
X-493420Y62585D01*
X-497890Y66751D01*
X-502716Y70561D01*
X-507847Y74015D01*
X-513232Y77063D01*
X-518820Y79705D01*
X-524713Y81940D01*
X-530758Y83667D01*
X-537006Y84988D01*
X-543458Y85750D01*
X-550011Y86004D01*
G37*
G36*
X-594664Y41757D02*
G01*
X-598627Y41402D01*
X-602030Y40741D01*
X-604469Y39827D01*
X-606602Y38608D01*
X-608330Y37033D01*
X-609650Y35153D01*
X-610616Y32867D01*
X-611327Y30124D01*
X-611784Y26924D01*
X-611936Y23215D01*
X-611936Y-11836D01*
X-611784Y-15646D01*
X-611327Y-18948D01*
X-610616Y-21742D01*
X-609650Y-24028D01*
X-608330Y-25857D01*
X-606602Y-27381D01*
X-604469Y-28549D01*
X-600405Y-29718D01*
X-596747Y-30226D01*
X-590296Y-30581D01*
X-578815Y-30480D01*
X-574548Y-30226D01*
X-570839Y-29718D01*
X-566775Y-28549D01*
X-564692Y-27381D01*
X-562965Y-25857D01*
X-561644Y-24028D01*
X-560628Y-21742D01*
X-559917Y-18948D01*
X-559511Y-15646D01*
X-559358Y-11836D01*
X-559358Y23215D01*
X-559511Y26924D01*
X-559917Y30124D01*
X-560628Y32867D01*
X-561644Y35153D01*
X-562965Y37033D01*
X-564692Y38608D01*
X-566775Y39827D01*
X-569264Y40741D01*
X-572617Y41402D01*
X-576630Y41757D01*
G37*
G36*
X-958342Y-173990D02*
G01*
X-958342Y-233476D01*
X-852881Y-233476D01*
X-852830Y-227431D01*
X-851662Y-219862D01*
X-849680Y-214375D01*
X-846683Y-209600D01*
X-841400Y-204419D01*
X-838200Y-202387D01*
X-834491Y-200558D01*
X-830681Y-199542D01*
X-778459Y-199440D01*
X-777341Y-199796D01*
X-776935Y-200964D01*
X-777036Y-218389D01*
X-777798Y-219151D01*
X-823417Y-219354D01*
X-825347Y-220268D01*
X-827074Y-221996D01*
X-828344Y-223774D01*
X-829767Y-227634D01*
X-829665Y-234492D01*
X-829310Y-236982D01*
X-828294Y-239267D01*
X-827481Y-240334D01*
X-826516Y-241147D01*
X-824128Y-242163D01*
X-818083Y-242620D01*
X-796899Y-242722D01*
X-791921Y-243332D01*
X-786790Y-244703D01*
X-784301Y-245770D01*
X-781964Y-247243D01*
X-778510Y-250037D01*
X-776376Y-252577D01*
X-773785Y-257200D01*
X-772363Y-260654D01*
X-770839Y-268020D01*
X-770331Y-275386D01*
X-770331Y-278079D01*
X-760171Y-278079D01*
X-760069Y-230225D01*
X-759053Y-223977D01*
X-757732Y-219405D01*
X-756462Y-216509D01*
X-752551Y-210870D01*
X-750062Y-208330D01*
X-747318Y-206095D01*
X-744321Y-204165D01*
X-741121Y-202488D01*
X-737819Y-201168D01*
X-734364Y-200202D01*
X-730808Y-199644D01*
X-727151Y-199440D01*
X-686104Y-199542D01*
X-685647Y-199796D01*
X-685241Y-200964D01*
X-685342Y-218389D01*
X-686104Y-219151D01*
X-726135Y-219252D01*
X-728980Y-220116D01*
X-731418Y-221386D01*
X-733450Y-223164D01*
X-735025Y-225348D01*
X-736396Y-228041D01*
X-737311Y-231140D01*
X-737920Y-234543D01*
X-738073Y-238302D01*
X-738073Y-276910D01*
X-737666Y-279450D01*
X-736955Y-281686D01*
X-735888Y-283616D01*
X-734517Y-285292D01*
X-732891Y-286664D01*
X-730910Y-287680D01*
X-728675Y-288442D01*
X-726135Y-288848D01*
X-686104Y-288950D01*
X-685647Y-289204D01*
X-685241Y-290372D01*
X-685241Y-307136D01*
X-672795Y-307136D01*
X-672744Y-200304D01*
X-672439Y-199796D01*
X-671271Y-199440D01*
X-651560Y-199542D01*
X-651103Y-199796D01*
X-650697Y-200964D01*
X-650697Y-253288D01*
X-649173Y-253288D01*
X-649071Y-251612D01*
X-648004Y-248564D01*
X-621639Y-200456D01*
X-621080Y-199745D01*
X-620572Y-199491D01*
X-597103Y-199440D01*
X-596493Y-199745D01*
X-596290Y-200152D01*
X-596392Y-200914D01*
X-626821Y-252831D01*
X-626567Y-254101D01*
X-595426Y-307492D01*
X-595579Y-308152D01*
X-596341Y-308660D01*
X-619709Y-308610D01*
X-620471Y-307898D01*
X-646633Y-261061D01*
X-648055Y-257911D01*
X-648919Y-255320D01*
X-649173Y-253288D01*
X-650697Y-253288D01*
X-650798Y-307797D01*
X-651560Y-308559D01*
X-671982Y-308559D01*
X-672744Y-307797D01*
X-672795Y-307136D01*
X-685241Y-307136D01*
X-685342Y-307797D01*
X-686104Y-308559D01*
X-725881Y-308660D01*
X-730148Y-308457D01*
X-733755Y-307898D01*
X-739851Y-305866D01*
X-742696Y-304698D01*
X-745388Y-303123D01*
X-747928Y-301244D01*
X-750265Y-299008D01*
X-752500Y-296468D01*
X-756310Y-290779D01*
X-758291Y-286613D01*
X-759409Y-283006D01*
X-760018Y-279908D01*
X-760171Y-278079D01*
X-770331Y-278079D01*
X-771855Y-287528D01*
X-773785Y-293268D01*
X-776681Y-298196D01*
X-780491Y-302310D01*
X-783386Y-304546D01*
X-786841Y-306628D01*
X-790549Y-308152D01*
X-793953Y-308660D01*
X-850036Y-308559D01*
X-850798Y-307797D01*
X-850798Y-289712D01*
X-850493Y-289204D01*
X-849325Y-288848D01*
X-800303Y-288848D01*
X-798169Y-288290D01*
X-796239Y-286562D01*
X-794918Y-284530D01*
X-793953Y-282498D01*
X-792937Y-279450D01*
X-793191Y-271068D01*
X-793851Y-268579D01*
X-795223Y-266242D01*
X-797102Y-264922D01*
X-799541Y-263956D01*
X-802589Y-263398D01*
X-806145Y-263194D01*
X-825906Y-263093D01*
X-830986Y-262483D01*
X-836218Y-261264D01*
X-838758Y-260248D01*
X-841197Y-258978D01*
X-843483Y-257352D01*
X-845870Y-254914D01*
X-847801Y-252272D01*
X-849426Y-249072D01*
X-851712Y-242316D01*
X-852627Y-237032D01*
X-852881Y-233476D01*
X-958342Y-233476D01*
X-958342Y-334060D01*
X-569976Y-334060D01*
X-563422Y-333806D01*
X-557022Y-332994D01*
X-550773Y-331724D01*
X-544677Y-329996D01*
X-538835Y-327761D01*
X-533196Y-325120D01*
X-527862Y-322072D01*
X-522732Y-318617D01*
X-517906Y-314807D01*
X-513384Y-310642D01*
X-509219Y-306120D01*
X-505409Y-301294D01*
X-501954Y-296164D01*
X-498906Y-290779D01*
X-496265Y-285191D01*
X-494030Y-279298D01*
X-492302Y-273253D01*
X-491032Y-267004D01*
X-490220Y-260604D01*
X-489966Y-254000D01*
X-490220Y-247446D01*
X-491032Y-241046D01*
X-492302Y-234797D01*
X-494030Y-228701D01*
X-496265Y-222859D01*
X-498906Y-217220D01*
X-501954Y-211886D01*
X-505409Y-206756D01*
X-509219Y-201930D01*
X-513384Y-197408D01*
X-517906Y-193243D01*
X-522732Y-189433D01*
X-527862Y-185978D01*
X-533196Y-182930D01*
X-538835Y-180289D01*
X-544677Y-178054D01*
X-550773Y-176326D01*
X-557022Y-175056D01*
X-563422Y-174244D01*
X-569976Y-173990D01*
G37*
G36*
X-1660245Y-166319D02*
G01*
X-1666798Y-166573D01*
X-1673250Y-167386D01*
X-1679498Y-168656D01*
X-1685543Y-170383D01*
X-1691386Y-172618D01*
X-1697024Y-175260D01*
X-1702409Y-178308D01*
X-1707540Y-181762D01*
X-1712315Y-185572D01*
X-1716836Y-189738D01*
X-1721002Y-194259D01*
X-1724863Y-199085D01*
X-1728266Y-204216D01*
X-1731365Y-209550D01*
X-1734007Y-215188D01*
X-1736191Y-221030D01*
X-1737969Y-227126D01*
X-1739239Y-233375D01*
X-1740001Y-239775D01*
X-1740306Y-246329D01*
X-1740001Y-252933D01*
X-1739239Y-259334D01*
X-1737969Y-265582D01*
X-1736191Y-271627D01*
X-1734007Y-277520D01*
X-1731365Y-283108D01*
X-1728266Y-288493D01*
X-1724863Y-293624D01*
X-1720066Y-299466D01*
X-1647443Y-299466D01*
X-1647342Y-192633D01*
X-1647088Y-192125D01*
X-1645920Y-191770D01*
X-1587144Y-191871D01*
X-1585010Y-192125D01*
X-1580896Y-193294D01*
X-1578864Y-194310D01*
X-1574800Y-197256D01*
X-1572768Y-199136D01*
X-1569770Y-203149D01*
X-1567586Y-208076D01*
X-1566214Y-213969D01*
X-1565656Y-220725D01*
X-1565859Y-230530D01*
X-1566418Y-235915D01*
X-1567383Y-240334D01*
X-1568704Y-243840D01*
X-1573276Y-249428D01*
X-1575968Y-251815D01*
X-1579626Y-254254D01*
X-1580083Y-254812D01*
X-1579981Y-255625D01*
X-1578254Y-258013D01*
X-1575816Y-262077D01*
X-1572920Y-269138D01*
X-1563522Y-297891D01*
X-1561846Y-300228D01*
X-1562100Y-300786D01*
X-1562862Y-300990D01*
X-1584350Y-300888D01*
X-1585214Y-300126D01*
X-1587042Y-297230D01*
X-1597964Y-266293D01*
X-1599844Y-263448D01*
X-1602282Y-261569D01*
X-1605280Y-260604D01*
X-1624482Y-260705D01*
X-1624990Y-260959D01*
X-1625346Y-262128D01*
X-1625447Y-300126D01*
X-1626209Y-300888D01*
X-1645920Y-300990D01*
X-1647088Y-300583D01*
X-1647443Y-299466D01*
X-1720066Y-299466D01*
X-1716836Y-302971D01*
X-1712315Y-307136D01*
X-1707540Y-310946D01*
X-1702409Y-314401D01*
X-1697024Y-317449D01*
X-1691386Y-320090D01*
X-1685543Y-322326D01*
X-1679498Y-324053D01*
X-1673250Y-325323D01*
X-1666798Y-326136D01*
X-1660245Y-326390D01*
X-1469186Y-326390D01*
X-1469186Y-166319D01*
G37*
G36*
X-1623822Y-211582D02*
G01*
X-1624990Y-211937D01*
X-1625346Y-213106D01*
X-1625244Y-238658D01*
X-1624990Y-239115D01*
X-1623822Y-239521D01*
X-1596136Y-239521D01*
X-1594002Y-238963D01*
X-1591564Y-237236D01*
X-1589582Y-235000D01*
X-1588262Y-231902D01*
X-1587296Y-228193D01*
X-1586992Y-224282D01*
X-1587246Y-220217D01*
X-1588262Y-216916D01*
X-1589582Y-214782D01*
X-1591005Y-213156D01*
X-1592478Y-212090D01*
X-1594104Y-211582D01*
G37*
G36*
X-1671015Y83667D02*
G01*
X-1677568Y83413D01*
X-1683969Y82651D01*
X-1690268Y81381D01*
X-1696313Y79603D01*
X-1702155Y77368D01*
X-1707794Y74726D01*
X-1713179Y71678D01*
X-1718259Y68224D01*
X-1723085Y64414D01*
X-1727606Y60248D01*
X-1731772Y55727D01*
X-1735582Y50901D01*
X-1739036Y45821D01*
X-1742135Y40436D01*
X-1744776Y34798D01*
X-1746961Y28956D01*
X-1748739Y22860D01*
X-1750009Y16611D01*
X-1750771Y10210D01*
X-1751025Y3657D01*
X-1750771Y-2895D01*
X-1750009Y-9347D01*
X-1748634Y-15951D01*
X-1658213Y-15951D01*
X-1658213Y27228D01*
X-1657705Y32461D01*
X-1656181Y37896D01*
X-1654962Y40538D01*
X-1651914Y45466D01*
X-1648104Y49987D01*
X-1645970Y52019D01*
X-1641195Y55422D01*
X-1638604Y56641D01*
X-1635963Y57556D01*
X-1633270Y58064D01*
X-1630527Y58216D01*
X-1578305Y58115D01*
X-1577797Y57861D01*
X-1577441Y56692D01*
X-1577543Y39268D01*
X-1577797Y38811D01*
X-1578965Y38404D01*
X-1626362Y38354D01*
X-1628038Y37846D01*
X-1629867Y36728D01*
X-1631543Y35204D01*
X-1635099Y30784D01*
X-1635861Y28956D01*
X-1636115Y27482D01*
X-1636115Y-12395D01*
X-1635861Y-16357D01*
X-1635150Y-19913D01*
X-1633982Y-23114D01*
X-1632305Y-25857D01*
X-1630273Y-28041D01*
X-1627987Y-29667D01*
X-1625447Y-30581D01*
X-1622653Y-30937D01*
X-1602638Y-30835D01*
X-1600098Y-30327D01*
X-1597914Y-29362D01*
X-1596034Y-28092D01*
X-1594612Y-26568D01*
X-1593596Y-24942D01*
X-1592834Y-23215D01*
X-1592478Y-21691D01*
X-1592427Y-6807D01*
X-1592783Y-5638D01*
X-1593951Y-5283D01*
X-1619504Y-5181D01*
X-1620266Y-4419D01*
X-1620367Y13004D01*
X-1619961Y14173D01*
X-1618843Y14528D01*
X-1570685Y14427D01*
X-1570177Y14173D01*
X-1569821Y13004D01*
X-1569923Y-23164D01*
X-1570837Y-27482D01*
X-1572463Y-32410D01*
X-1575003Y-37236D01*
X-1576679Y-39573D01*
X-1578711Y-41859D01*
X-1581048Y-43992D01*
X-1583690Y-45923D01*
X-1586585Y-47701D01*
X-1589684Y-49123D01*
X-1593240Y-50139D01*
X-1597202Y-50800D01*
X-1601571Y-51003D01*
X-1627987Y-51003D01*
X-1631543Y-50800D01*
X-1634896Y-50139D01*
X-1638046Y-49123D01*
X-1640941Y-47701D01*
X-1643634Y-45923D01*
X-1646072Y-43891D01*
X-1648307Y-41605D01*
X-1652219Y-36423D01*
X-1653895Y-33731D01*
X-1656435Y-27889D01*
X-1657756Y-21844D01*
X-1658213Y-15951D01*
X-1748634Y-15951D01*
X-1746961Y-21640D01*
X-1744776Y-27482D01*
X-1742135Y-33121D01*
X-1739036Y-38506D01*
X-1735582Y-43637D01*
X-1731772Y-48463D01*
X-1727606Y-52933D01*
X-1723085Y-57099D01*
X-1718259Y-60960D01*
X-1713179Y-64414D01*
X-1707794Y-67462D01*
X-1702155Y-70104D01*
X-1696313Y-72288D01*
X-1690268Y-74066D01*
X-1683969Y-75336D01*
X-1677568Y-76098D01*
X-1671015Y-76403D01*
X-1477162Y-76403D01*
X-1477162Y83667D01*
G37*
G36*
X-1660601Y333705D02*
G01*
X-1667154Y333400D01*
X-1673555Y332638D01*
X-1679854Y331368D01*
X-1685899Y329590D01*
X-1691741Y327406D01*
X-1697380Y324764D01*
X-1702765Y321665D01*
X-1707845Y318262D01*
X-1712671Y314401D01*
X-1717192Y310235D01*
X-1719719Y307492D01*
X-1660499Y307492D01*
X-1660245Y308051D01*
X-1659483Y308254D01*
X-1638960Y308152D01*
X-1637944Y307492D01*
X-1637639Y306984D01*
X-1610868Y219659D01*
X-1610461Y219100D01*
X-1609801Y218846D01*
X-1609039Y218998D01*
X-1608277Y220370D01*
X-1581759Y306730D01*
X-1580997Y307848D01*
X-1579727Y308254D01*
X-1559356Y308203D01*
X-1558696Y307797D01*
X-1558645Y307492D01*
X-1589633Y207924D01*
X-1590700Y205232D01*
X-1592173Y203149D01*
X-1594002Y201574D01*
X-1596237Y200558D01*
X-1598879Y199847D01*
X-1605483Y199085D01*
X-1613611Y199085D01*
X-1620469Y199847D01*
X-1623161Y200558D01*
X-1625498Y201574D01*
X-1627428Y203149D01*
X-1628901Y205232D01*
X-1630019Y207924D01*
X-1660499Y307492D01*
X-1719719Y307492D01*
X-1725168Y300939D01*
X-1728622Y295808D01*
X-1731721Y290423D01*
X-1734362Y284784D01*
X-1736547Y278942D01*
X-1738325Y272897D01*
X-1739595Y266649D01*
X-1740357Y260197D01*
X-1740611Y253644D01*
X-1740357Y247091D01*
X-1739595Y240639D01*
X-1738325Y234391D01*
X-1736547Y228346D01*
X-1734362Y222504D01*
X-1731721Y216865D01*
X-1728622Y211480D01*
X-1725168Y206400D01*
X-1721357Y201574D01*
X-1717192Y197053D01*
X-1712671Y192887D01*
X-1707845Y189077D01*
X-1702765Y185623D01*
X-1697380Y182524D01*
X-1691741Y179882D01*
X-1685899Y177698D01*
X-1679854Y175920D01*
X-1673555Y174650D01*
X-1667154Y173888D01*
X-1660601Y173634D01*
X-1478584Y173634D01*
X-1478584Y333705D01*
G37*
G36*
X-72440Y1620012D02*
G01*
X-72440Y1599438D01*
X-93014Y1599438D01*
X-93014Y1578864D01*
X-51866Y1578864D01*
X-51866Y1620012D01*
G37*
G36*
X-300024Y1620012D02*
G01*
X-300024Y1578864D01*
X-279450Y1578864D01*
X-279450Y1599438D01*
X-258825Y1599438D01*
X-258825Y1620012D01*
G37*
G36*
X-258622Y1620012D02*
G01*
X-258622Y1599438D01*
X-217474Y1599438D01*
X-217474Y1620012D01*
G37*
G36*
X-217170Y1620012D02*
G01*
X-217170Y1599438D01*
X-176072Y1599438D01*
X-176072Y1620012D01*
G37*
G36*
X-175768Y1620012D02*
G01*
X-175768Y1578864D01*
X-155194Y1578864D01*
X-155194Y1620012D01*
G37*
G36*
X-134416Y1620012D02*
G01*
X-134416Y1599438D01*
X-113842Y1599438D01*
X-113842Y1620012D01*
G37*
G36*
X-10464Y1620012D02*
G01*
X-10464Y1578864D01*
X10109Y1578864D01*
X10109Y1620012D01*
G37*
G36*
X10414Y1620012D02*
G01*
X10414Y1578864D01*
X51511Y1578864D01*
X51511Y1599438D01*
X30988Y1599438D01*
X30988Y1620012D01*
G37*
G36*
X51816Y1620012D02*
G01*
X51816Y1599438D01*
X72390Y1599438D01*
X72390Y1578864D01*
X92964Y1578864D01*
X92964Y1620012D01*
G37*
G36*
X93167Y1620012D02*
G01*
X93167Y1578864D01*
X113741Y1578864D01*
X113741Y1620012D01*
G37*
G36*
X155143Y1620012D02*
G01*
X155143Y1578864D01*
X175717Y1578864D01*
X175717Y1599438D01*
X196291Y1599438D01*
X196291Y1620012D01*
G37*
G36*
X196596Y1620012D02*
G01*
X196596Y1599438D01*
X237693Y1599438D01*
X237693Y1620012D01*
G37*
G36*
X237998Y1620012D02*
G01*
X237998Y1599438D01*
X279146Y1599438D01*
X279146Y1620012D01*
G37*
G36*
X279349Y1620012D02*
G01*
X279349Y1578864D01*
X299974Y1578864D01*
X299974Y1620012D01*
G37*
G36*
X-113842Y1599438D02*
G01*
X-113842Y1578864D01*
X-93218Y1578864D01*
X-93218Y1599438D01*
G37*
G36*
X-300024Y1578610D02*
G01*
X-300024Y1537462D01*
X-279450Y1537462D01*
X-279450Y1578610D01*
G37*
G36*
X-258622Y1578610D02*
G01*
X-258622Y1537462D01*
X-217474Y1537462D01*
X-217474Y1578610D01*
G37*
G36*
X-217170Y1578610D02*
G01*
X-217170Y1537462D01*
X-196596Y1537462D01*
X-196596Y1578610D01*
G37*
G36*
X-175768Y1578610D02*
G01*
X-175768Y1537462D01*
X-155194Y1537462D01*
X-155194Y1578610D01*
G37*
G36*
X-134416Y1578610D02*
G01*
X-134416Y1558036D01*
X-113842Y1558036D01*
X-113842Y1578610D01*
G37*
G36*
X-93014Y1578610D02*
G01*
X-93014Y1537462D01*
X-72440Y1537462D01*
X-72440Y1558036D01*
X-31292Y1558036D01*
X-31292Y1578610D01*
G37*
G36*
X10414Y1578610D02*
G01*
X10414Y1537462D01*
X51511Y1537462D01*
X51511Y1578610D01*
G37*
G36*
X93167Y1578610D02*
G01*
X93167Y1537462D01*
X113741Y1537462D01*
X113741Y1558036D01*
X134366Y1558036D01*
X134366Y1578610D01*
G37*
G36*
X155143Y1578610D02*
G01*
X155143Y1537462D01*
X175717Y1537462D01*
X175717Y1578610D01*
G37*
G36*
X196596Y1578610D02*
G01*
X196596Y1537462D01*
X237693Y1537462D01*
X237693Y1578610D01*
G37*
G36*
X237998Y1578610D02*
G01*
X237998Y1537462D01*
X258571Y1537462D01*
X258571Y1578610D01*
G37*
G36*
X279349Y1578610D02*
G01*
X279349Y1537462D01*
X299974Y1537462D01*
X299974Y1578610D01*
G37*
G36*
X-113842Y1558036D02*
G01*
X-113842Y1537462D01*
X-93218Y1537462D01*
X-93218Y1558036D01*
G37*
G36*
X-31038Y1558036D02*
G01*
X-31038Y1537462D01*
X-10464Y1537462D01*
X-10464Y1558036D01*
G37*
G36*
X51816Y1558036D02*
G01*
X51816Y1537462D01*
X72390Y1537462D01*
X72390Y1558036D01*
G37*
G36*
X-300024Y1537208D02*
G01*
X-300024Y1496060D01*
X-279450Y1496060D01*
X-279450Y1537208D01*
G37*
G36*
X-258622Y1537208D02*
G01*
X-258622Y1516634D01*
X-217474Y1516634D01*
X-217474Y1537208D01*
G37*
G36*
X-217170Y1537208D02*
G01*
X-217170Y1516634D01*
X-196596Y1516634D01*
X-196596Y1537208D01*
G37*
G36*
X-175768Y1537208D02*
G01*
X-175768Y1496060D01*
X-155194Y1496060D01*
X-155194Y1537208D01*
G37*
G36*
X-134416Y1537208D02*
G01*
X-134416Y1516634D01*
X-93218Y1516634D01*
X-93218Y1537208D01*
G37*
G36*
X-93014Y1537208D02*
G01*
X-93014Y1496060D01*
X-31292Y1496060D01*
X-31292Y1516634D01*
X-72440Y1516634D01*
X-72440Y1537208D01*
G37*
G36*
X-31038Y1537208D02*
G01*
X-31038Y1516634D01*
X-10464Y1516634D01*
X-10464Y1496060D01*
X10109Y1496060D01*
X10109Y1537208D01*
G37*
G36*
X10414Y1537208D02*
G01*
X10414Y1496060D01*
X51511Y1496060D01*
X51511Y1537208D01*
G37*
G36*
X113741Y1537208D02*
G01*
X113741Y1516634D01*
X134366Y1516634D01*
X134366Y1537208D01*
G37*
G36*
X155143Y1537208D02*
G01*
X155143Y1496060D01*
X175717Y1496060D01*
X175717Y1537208D01*
G37*
G36*
X196596Y1537208D02*
G01*
X196596Y1516634D01*
X237693Y1516634D01*
X237693Y1537208D01*
G37*
G36*
X237998Y1537208D02*
G01*
X237998Y1516634D01*
X258571Y1516634D01*
X258571Y1537208D01*
G37*
G36*
X279349Y1537208D02*
G01*
X279349Y1496060D01*
X299974Y1496060D01*
X299974Y1537208D01*
G37*
G36*
X72390Y1516634D02*
G01*
X72390Y1496060D01*
X92964Y1496060D01*
X92964Y1516634D01*
G37*
G36*
X30988Y1495806D02*
G01*
X30988Y1475232D01*
X10414Y1475232D01*
X10414Y1454658D01*
X51511Y1454658D01*
X51511Y1495806D01*
G37*
G36*
X-300024Y1495806D02*
G01*
X-300024Y1475232D01*
X-258825Y1475232D01*
X-258825Y1495806D01*
G37*
G36*
X-258622Y1495806D02*
G01*
X-258622Y1475232D01*
X-217474Y1475232D01*
X-217474Y1495806D01*
G37*
G36*
X-217170Y1495806D02*
G01*
X-217170Y1475232D01*
X-176072Y1475232D01*
X-176072Y1495806D01*
G37*
G36*
X-175768Y1495806D02*
G01*
X-175768Y1475232D01*
X-155194Y1475232D01*
X-155194Y1495806D01*
G37*
G36*
X-134416Y1495806D02*
G01*
X-134416Y1454658D01*
X-113842Y1454658D01*
X-113842Y1495806D01*
G37*
G36*
X-93014Y1495806D02*
G01*
X-93014Y1475232D01*
X-72440Y1475232D01*
X-72440Y1495806D01*
G37*
G36*
X-51866Y1495806D02*
G01*
X-51866Y1475232D01*
X-31292Y1475232D01*
X-31292Y1495806D01*
G37*
G36*
X-10464Y1495806D02*
G01*
X-10464Y1475232D01*
X10109Y1475232D01*
X10109Y1495806D01*
G37*
G36*
X72390Y1495806D02*
G01*
X72390Y1475232D01*
X92964Y1475232D01*
X92964Y1495806D01*
G37*
G36*
X113741Y1495806D02*
G01*
X113741Y1454658D01*
X134366Y1454658D01*
X134366Y1495806D01*
G37*
G36*
X155143Y1495806D02*
G01*
X155143Y1475232D01*
X196291Y1475232D01*
X196291Y1495806D01*
G37*
G36*
X196596Y1495806D02*
G01*
X196596Y1475232D01*
X237693Y1475232D01*
X237693Y1495806D01*
G37*
G36*
X237998Y1495806D02*
G01*
X237998Y1475232D01*
X279146Y1475232D01*
X279146Y1495806D01*
G37*
G36*
X279349Y1495806D02*
G01*
X279349Y1475232D01*
X299974Y1475232D01*
X299974Y1495806D01*
G37*
G36*
X-31038Y1475232D02*
G01*
X-31038Y1454658D01*
X-10464Y1454658D01*
X-10464Y1475232D01*
G37*
G36*
X-113842Y1454404D02*
G01*
X-113842Y1433830D01*
X-134416Y1433830D01*
X-134416Y1413256D01*
X-93218Y1413256D01*
X-93218Y1454404D01*
G37*
G36*
X-196596Y1454404D02*
G01*
X-196596Y1433830D01*
X-176072Y1433830D01*
X-176072Y1454404D01*
G37*
G36*
X-175768Y1454404D02*
G01*
X-175768Y1433830D01*
X-155194Y1433830D01*
X-155194Y1454404D01*
G37*
G36*
X-93014Y1454404D02*
G01*
X-93014Y1413256D01*
X-72440Y1413256D01*
X-72440Y1433830D01*
X-51866Y1433830D01*
X-51866Y1454404D01*
G37*
G36*
X-31038Y1454404D02*
G01*
X-31038Y1413256D01*
X-10464Y1413256D01*
X-10464Y1433830D01*
X10109Y1433830D01*
X10109Y1454404D01*
G37*
G36*
X10414Y1454404D02*
G01*
X10414Y1413256D01*
X30988Y1413256D01*
X30988Y1454404D01*
G37*
G36*
X72390Y1454404D02*
G01*
X72390Y1433830D01*
X92964Y1433830D01*
X92964Y1454404D01*
G37*
G36*
X113741Y1454404D02*
G01*
X113741Y1413256D01*
X134366Y1413256D01*
X134366Y1454404D01*
G37*
G36*
X155143Y1454404D02*
G01*
X155143Y1433830D01*
X175717Y1433830D01*
X175717Y1454404D01*
G37*
G36*
X196596Y1454404D02*
G01*
X196596Y1413256D01*
X237693Y1413256D01*
X237693Y1433830D01*
X217119Y1433830D01*
X217119Y1454404D01*
G37*
G36*
X237998Y1454404D02*
G01*
X237998Y1413256D01*
X258571Y1413256D01*
X258571Y1454404D01*
G37*
G36*
X279349Y1454404D02*
G01*
X279349Y1433830D01*
X299974Y1433830D01*
X299974Y1454404D01*
G37*
G36*
X-300024Y1433830D02*
G01*
X-300024Y1413256D01*
X-258825Y1413256D01*
X-258825Y1433830D01*
G37*
G36*
X-258622Y1433830D02*
G01*
X-258622Y1413256D01*
X-217474Y1413256D01*
X-217474Y1433830D01*
G37*
G36*
X-217170Y1433830D02*
G01*
X-217170Y1413256D01*
X-196596Y1413256D01*
X-196596Y1433830D01*
G37*
G36*
X175717Y1433830D02*
G01*
X175717Y1413256D01*
X196291Y1413256D01*
X196291Y1433830D01*
G37*
G36*
X-300024Y1413002D02*
G01*
X-300024Y1392428D01*
X-279450Y1392428D01*
X-279450Y1371854D01*
X-300024Y1371854D01*
X-300024Y1351280D01*
X-258825Y1351280D01*
X-258825Y1413002D01*
G37*
G36*
X-258622Y1413002D02*
G01*
X-258622Y1392428D01*
X-238048Y1392428D01*
X-238048Y1351280D01*
X-217474Y1351280D01*
X-217474Y1413002D01*
G37*
G36*
X-175768Y1413002D02*
G01*
X-175768Y1392428D01*
X-155194Y1392428D01*
X-155194Y1413002D01*
G37*
G36*
X-72440Y1413002D02*
G01*
X-72440Y1392428D01*
X-51866Y1392428D01*
X-51866Y1413002D01*
G37*
G36*
X-10464Y1413002D02*
G01*
X-10464Y1392428D01*
X10109Y1392428D01*
X10109Y1413002D01*
G37*
G36*
X51816Y1413002D02*
G01*
X51816Y1371854D01*
X72390Y1371854D01*
X72390Y1392428D01*
X92964Y1392428D01*
X92964Y1413002D01*
G37*
G36*
X113741Y1413002D02*
G01*
X113741Y1392428D01*
X134366Y1392428D01*
X134366Y1413002D01*
G37*
G36*
X155143Y1413002D02*
G01*
X155143Y1351280D01*
X196291Y1351280D01*
X196291Y1371854D01*
X175717Y1371854D01*
X175717Y1413002D01*
G37*
G36*
X196596Y1413002D02*
G01*
X196596Y1392428D01*
X237693Y1392428D01*
X237693Y1413002D01*
G37*
G36*
X237998Y1413002D02*
G01*
X237998Y1392428D01*
X258571Y1392428D01*
X258571Y1413002D01*
G37*
G36*
X-217170Y1392428D02*
G01*
X-217170Y1371854D01*
X-196596Y1371854D01*
X-196596Y1351280D01*
X-176072Y1351280D01*
X-176072Y1392428D01*
G37*
G36*
X-134416Y1392428D02*
G01*
X-134416Y1351280D01*
X-113842Y1351280D01*
X-113842Y1371854D01*
X-93218Y1371854D01*
X-93218Y1392428D01*
G37*
G36*
X-93014Y1392428D02*
G01*
X-93014Y1371854D01*
X-72440Y1371854D01*
X-72440Y1392428D01*
G37*
G36*
X258571Y1392428D02*
G01*
X258571Y1351280D01*
X279146Y1351280D01*
X279146Y1392428D01*
G37*
G36*
X-175768Y1371854D02*
G01*
X-175768Y1351280D01*
X-155194Y1351280D01*
X-155194Y1371854D01*
G37*
G36*
X-51866Y1371854D02*
G01*
X-51866Y1351280D01*
X-31292Y1351280D01*
X-31292Y1371854D01*
G37*
G36*
X-31038Y1371854D02*
G01*
X-31038Y1351280D01*
X10109Y1351280D01*
X10109Y1371854D01*
G37*
G36*
X10414Y1371854D02*
G01*
X10414Y1351280D01*
X51511Y1351280D01*
X51511Y1371854D01*
G37*
G36*
X93167Y1371854D02*
G01*
X93167Y1351280D01*
X134366Y1351280D01*
X134366Y1371854D01*
G37*
G36*
X-279450Y1351026D02*
G01*
X-279450Y1330452D01*
X-300024Y1330452D01*
X-300024Y1309878D01*
X-258825Y1309878D01*
X-258825Y1351026D01*
G37*
G36*
X-113842Y1351026D02*
G01*
X-113842Y1330452D01*
X-134416Y1330452D01*
X-134416Y1309878D01*
X-93218Y1309878D01*
X-93218Y1351026D01*
G37*
G36*
X30988Y1351026D02*
G01*
X30988Y1330452D01*
X10414Y1330452D01*
X10414Y1309878D01*
X51511Y1309878D01*
X51511Y1351026D01*
G37*
G36*
X-258622Y1351026D02*
G01*
X-258622Y1330452D01*
X-238048Y1330452D01*
X-238048Y1351026D01*
G37*
G36*
X-217170Y1351026D02*
G01*
X-217170Y1330452D01*
X-176072Y1330452D01*
X-176072Y1351026D01*
G37*
G36*
X-155194Y1351026D02*
G01*
X-155194Y1330452D01*
X-134620Y1330452D01*
X-134620Y1351026D01*
G37*
G36*
X-51866Y1351026D02*
G01*
X-51866Y1330452D01*
X-31292Y1330452D01*
X-31292Y1351026D01*
G37*
G36*
X93167Y1351026D02*
G01*
X93167Y1330452D01*
X113741Y1330452D01*
X113741Y1309878D01*
X134366Y1309878D01*
X134366Y1351026D01*
G37*
G36*
X155143Y1351026D02*
G01*
X155143Y1330452D01*
X175717Y1330452D01*
X175717Y1351026D01*
G37*
G36*
X196596Y1351026D02*
G01*
X196596Y1309878D01*
X237693Y1309878D01*
X237693Y1351026D01*
G37*
G36*
X237998Y1351026D02*
G01*
X237998Y1309878D01*
X258571Y1309878D01*
X258571Y1330452D01*
X279146Y1330452D01*
X279146Y1351026D01*
G37*
G36*
X279349Y1351026D02*
G01*
X279349Y1330452D01*
X299974Y1330452D01*
X299974Y1351026D01*
G37*
G36*
X-175768Y1330452D02*
G01*
X-175768Y1309878D01*
X-155194Y1309878D01*
X-155194Y1330452D01*
G37*
G36*
X-10464Y1330452D02*
G01*
X-10464Y1309878D01*
X10109Y1309878D01*
X10109Y1330452D01*
G37*
G36*
X51816Y1330452D02*
G01*
X51816Y1309878D01*
X92964Y1309878D01*
X92964Y1330452D01*
G37*
G36*
X134569Y1330452D02*
G01*
X134569Y1309878D01*
X155143Y1309878D01*
X155143Y1330452D01*
G37*
G36*
X175717Y1330452D02*
G01*
X175717Y1309878D01*
X196291Y1309878D01*
X196291Y1330452D01*
G37*
G36*
X-238048Y1309624D02*
G01*
X-238048Y1289050D01*
X-258622Y1289050D01*
X-258622Y1268476D01*
X-217474Y1268476D01*
X-217474Y1309624D01*
G37*
G36*
X-279450Y1309624D02*
G01*
X-279450Y1289050D01*
X-258825Y1289050D01*
X-258825Y1309624D01*
G37*
G36*
X-155194Y1309624D02*
G01*
X-155194Y1289050D01*
X-134620Y1289050D01*
X-134620Y1309624D01*
G37*
G36*
X-134416Y1309624D02*
G01*
X-134416Y1268476D01*
X-113842Y1268476D01*
X-113842Y1309624D01*
G37*
G36*
X-93014Y1309624D02*
G01*
X-93014Y1289050D01*
X-72440Y1289050D01*
X-72440Y1268476D01*
X-31292Y1268476D01*
X-31292Y1309624D01*
G37*
G36*
X-31038Y1309624D02*
G01*
X-31038Y1268476D01*
X10109Y1268476D01*
X10109Y1289050D01*
X-10464Y1289050D01*
X-10464Y1309624D01*
G37*
G36*
X10414Y1309624D02*
G01*
X10414Y1268476D01*
X30988Y1268476D01*
X30988Y1309624D01*
G37*
G36*
X93167Y1309624D02*
G01*
X93167Y1268476D01*
X113741Y1268476D01*
X113741Y1309624D01*
G37*
G36*
X134569Y1309624D02*
G01*
X134569Y1289050D01*
X155143Y1289050D01*
X155143Y1309624D01*
G37*
G36*
X175717Y1309624D02*
G01*
X175717Y1268476D01*
X196291Y1268476D01*
X196291Y1309624D01*
G37*
G36*
X196596Y1309624D02*
G01*
X196596Y1268476D01*
X237693Y1268476D01*
X237693Y1309624D01*
G37*
G36*
X237998Y1309624D02*
G01*
X237998Y1268476D01*
X258571Y1268476D01*
X258571Y1309624D01*
G37*
G36*
X279349Y1309624D02*
G01*
X279349Y1289050D01*
X299974Y1289050D01*
X299974Y1309624D01*
G37*
G36*
X-175768Y1289050D02*
G01*
X-175768Y1268476D01*
X-155194Y1268476D01*
X-155194Y1289050D01*
G37*
G36*
X51816Y1289050D02*
G01*
X51816Y1268476D01*
X92964Y1268476D01*
X92964Y1289050D01*
G37*
G36*
X-300024Y1268222D02*
G01*
X-300024Y1227074D01*
X-258825Y1227074D01*
X-258825Y1247648D01*
X-279450Y1247648D01*
X-279450Y1268222D01*
G37*
G36*
X-258622Y1268222D02*
G01*
X-258622Y1227074D01*
X-238048Y1227074D01*
X-238048Y1247648D01*
X-217474Y1247648D01*
X-217474Y1268222D01*
G37*
G36*
X-217170Y1268222D02*
G01*
X-217170Y1247648D01*
X-196596Y1247648D01*
X-196596Y1227074D01*
X-176072Y1227074D01*
X-176072Y1268222D01*
G37*
G36*
X-155194Y1268222D02*
G01*
X-155194Y1247648D01*
X-134620Y1247648D01*
X-134620Y1268222D01*
G37*
G36*
X-93014Y1268222D02*
G01*
X-93014Y1247648D01*
X-72440Y1247648D01*
X-72440Y1268222D01*
G37*
G36*
X-31038Y1268222D02*
G01*
X-31038Y1247648D01*
X-10464Y1247648D01*
X-10464Y1268222D01*
G37*
G36*
X72390Y1268222D02*
G01*
X72390Y1247648D01*
X92964Y1247648D01*
X92964Y1268222D01*
G37*
G36*
X113741Y1268222D02*
G01*
X113741Y1227074D01*
X134366Y1227074D01*
X134366Y1268222D01*
G37*
G36*
X134569Y1268222D02*
G01*
X134569Y1227074D01*
X175717Y1227074D01*
X175717Y1247648D01*
X155143Y1247648D01*
X155143Y1268222D01*
G37*
G36*
X175717Y1268222D02*
G01*
X175717Y1247648D01*
X196291Y1247648D01*
X196291Y1268222D01*
G37*
G36*
X196596Y1268222D02*
G01*
X196596Y1247648D01*
X217119Y1247648D01*
X217119Y1268222D01*
G37*
G36*
X237998Y1268222D02*
G01*
X237998Y1227074D01*
X258571Y1227074D01*
X258571Y1247648D01*
X279146Y1247648D01*
X279146Y1268222D01*
G37*
G36*
X279349Y1268222D02*
G01*
X279349Y1227074D01*
X299974Y1227074D01*
X299974Y1268222D01*
G37*
G36*
X-175768Y1247648D02*
G01*
X-175768Y1227074D01*
X-155194Y1227074D01*
X-155194Y1247648D01*
G37*
G36*
X-134416Y1247648D02*
G01*
X-134416Y1227074D01*
X-113842Y1227074D01*
X-113842Y1247648D01*
G37*
G36*
X-51866Y1247648D02*
G01*
X-51866Y1227074D01*
X-31292Y1227074D01*
X-31292Y1247648D01*
G37*
G36*
X-10464Y1247648D02*
G01*
X-10464Y1227074D01*
X10109Y1227074D01*
X10109Y1247648D01*
G37*
G36*
X10414Y1247648D02*
G01*
X10414Y1227074D01*
X51511Y1227074D01*
X51511Y1247648D01*
G37*
G36*
X155143Y1226820D02*
G01*
X155143Y1206246D01*
X134569Y1206246D01*
X134569Y1185672D01*
X196291Y1185672D01*
X196291Y1226820D01*
G37*
G36*
X-300024Y1226820D02*
G01*
X-300024Y1185672D01*
X-279450Y1185672D01*
X-279450Y1226820D01*
G37*
G36*
X-258622Y1226820D02*
G01*
X-258622Y1185672D01*
X-217474Y1185672D01*
X-217474Y1206246D01*
X-238048Y1206246D01*
X-238048Y1226820D01*
G37*
G36*
X-196596Y1226820D02*
G01*
X-196596Y1185672D01*
X-176072Y1185672D01*
X-176072Y1226820D01*
G37*
G36*
X-155194Y1226820D02*
G01*
X-155194Y1206246D01*
X-134620Y1206246D01*
X-134620Y1226820D01*
G37*
G36*
X-134416Y1226820D02*
G01*
X-134416Y1206246D01*
X-113842Y1206246D01*
X-113842Y1226820D01*
G37*
G36*
X-93014Y1226820D02*
G01*
X-93014Y1206246D01*
X-72440Y1206246D01*
X-72440Y1226820D01*
G37*
G36*
X-10464Y1226820D02*
G01*
X-10464Y1206246D01*
X10109Y1206246D01*
X10109Y1226820D01*
G37*
G36*
X10414Y1226820D02*
G01*
X10414Y1185672D01*
X30988Y1185672D01*
X30988Y1206246D01*
X51511Y1206246D01*
X51511Y1226820D01*
G37*
G36*
X93167Y1226820D02*
G01*
X93167Y1185672D01*
X134366Y1185672D01*
X134366Y1226820D01*
G37*
G36*
X196596Y1226820D02*
G01*
X196596Y1185672D01*
X237693Y1185672D01*
X237693Y1226820D01*
G37*
G36*
X-175768Y1206246D02*
G01*
X-175768Y1185672D01*
X-155194Y1185672D01*
X-155194Y1206246D01*
G37*
G36*
X-113842Y1206246D02*
G01*
X-113842Y1185672D01*
X-93218Y1185672D01*
X-93218Y1206246D01*
G37*
G36*
X-72440Y1206246D02*
G01*
X-72440Y1185672D01*
X-51866Y1185672D01*
X-51866Y1206246D01*
G37*
G36*
X72390Y1206246D02*
G01*
X72390Y1185672D01*
X92964Y1185672D01*
X92964Y1206246D01*
G37*
G36*
X-134416Y1185418D02*
G01*
X-134416Y1164844D01*
X-113842Y1164844D01*
X-113842Y1144270D01*
X-134416Y1144270D01*
X-134416Y1123696D01*
X-93218Y1123696D01*
X-93218Y1185418D01*
G37*
G36*
X113741Y1185418D02*
G01*
X113741Y1164844D01*
X93167Y1164844D01*
X93167Y1144270D01*
X113741Y1144270D01*
X113741Y1123696D01*
X134366Y1123696D01*
X134366Y1185418D01*
G37*
G36*
X-93014Y1185418D02*
G01*
X-93014Y1144270D01*
X-31292Y1144270D01*
X-31292Y1164844D01*
X-51866Y1164844D01*
X-51866Y1185418D01*
G37*
G36*
X-31038Y1185418D02*
G01*
X-31038Y1144270D01*
X-10464Y1144270D01*
X-10464Y1123696D01*
X10109Y1123696D01*
X10109Y1185418D01*
G37*
G36*
X10414Y1185418D02*
G01*
X10414Y1123696D01*
X30988Y1123696D01*
X30988Y1185418D01*
G37*
G36*
X196596Y1185418D02*
G01*
X196596Y1123696D01*
X237693Y1123696D01*
X237693Y1185418D01*
G37*
G36*
X237998Y1185418D02*
G01*
X237998Y1164844D01*
X258571Y1164844D01*
X258571Y1123696D01*
X279146Y1123696D01*
X279146Y1185418D01*
G37*
G36*
X-300024Y1164844D02*
G01*
X-300024Y1123696D01*
X-279450Y1123696D01*
X-279450Y1144270D01*
X-258825Y1144270D01*
X-258825Y1164844D01*
G37*
G36*
X-258622Y1164844D02*
G01*
X-258622Y1144270D01*
X-217474Y1144270D01*
X-217474Y1164844D01*
G37*
G36*
X-217170Y1164844D02*
G01*
X-217170Y1144270D01*
X-176072Y1144270D01*
X-176072Y1164844D01*
G37*
G36*
X-175768Y1164844D02*
G01*
X-175768Y1123696D01*
X-155194Y1123696D01*
X-155194Y1164844D01*
G37*
G36*
X155143Y1164844D02*
G01*
X155143Y1144270D01*
X175717Y1144270D01*
X175717Y1164844D01*
G37*
G36*
X72390Y1144270D02*
G01*
X72390Y1123696D01*
X92964Y1123696D01*
X92964Y1144270D01*
G37*
G36*
X279349Y1144270D02*
G01*
X279349Y1123696D01*
X299974Y1123696D01*
X299974Y1144270D01*
G37*
G36*
X-300024Y1123442D02*
G01*
X-300024Y1082294D01*
X-279450Y1082294D01*
X-279450Y1123442D01*
G37*
G36*
X-258622Y1123442D02*
G01*
X-258622Y1082294D01*
X-217474Y1082294D01*
X-217474Y1123442D01*
G37*
G36*
X-217170Y1123442D02*
G01*
X-217170Y1082294D01*
X-196596Y1082294D01*
X-196596Y1123442D01*
G37*
G36*
X-175768Y1123442D02*
G01*
X-175768Y1082294D01*
X-155194Y1082294D01*
X-155194Y1123442D01*
G37*
G36*
X-72440Y1123442D02*
G01*
X-72440Y1102868D01*
X-51866Y1102868D01*
X-51866Y1082294D01*
X-31292Y1082294D01*
X-31292Y1123442D01*
G37*
G36*
X10414Y1123442D02*
G01*
X10414Y1082294D01*
X51511Y1082294D01*
X51511Y1102868D01*
X30988Y1102868D01*
X30988Y1123442D01*
G37*
G36*
X51816Y1123442D02*
G01*
X51816Y1102868D01*
X72390Y1102868D01*
X72390Y1123442D01*
G37*
G36*
X93167Y1123442D02*
G01*
X93167Y1082294D01*
X113741Y1082294D01*
X113741Y1102868D01*
X134366Y1102868D01*
X134366Y1123442D01*
G37*
G36*
X134569Y1123442D02*
G01*
X134569Y1082294D01*
X155143Y1082294D01*
X155143Y1102868D01*
X175717Y1102868D01*
X175717Y1082294D01*
X196291Y1082294D01*
X196291Y1123442D01*
G37*
G36*
X196596Y1123442D02*
G01*
X196596Y1102868D01*
X217119Y1102868D01*
X217119Y1123442D01*
G37*
G36*
X279349Y1123442D02*
G01*
X279349Y1102868D01*
X299974Y1102868D01*
X299974Y1123442D01*
G37*
G36*
X-113842Y1102868D02*
G01*
X-113842Y1082294D01*
X-93218Y1082294D01*
X-93218Y1102868D01*
G37*
G36*
X72390Y1102868D02*
G01*
X72390Y1082294D01*
X92964Y1082294D01*
X92964Y1102868D01*
G37*
G36*
X217119Y1102868D02*
G01*
X217119Y1082294D01*
X237693Y1082294D01*
X237693Y1102868D01*
G37*
G36*
X258571Y1102868D02*
G01*
X258571Y1082294D01*
X279146Y1082294D01*
X279146Y1102868D01*
G37*
G36*
X-300024Y1082040D02*
G01*
X-300024Y1040892D01*
X-279450Y1040892D01*
X-279450Y1082040D01*
G37*
G36*
X-258622Y1082040D02*
G01*
X-258622Y1061466D01*
X-217474Y1061466D01*
X-217474Y1082040D01*
G37*
G36*
X-217170Y1082040D02*
G01*
X-217170Y1061466D01*
X-196596Y1061466D01*
X-196596Y1082040D01*
G37*
G36*
X-175768Y1082040D02*
G01*
X-175768Y1040892D01*
X-155194Y1040892D01*
X-155194Y1082040D01*
G37*
G36*
X-113842Y1082040D02*
G01*
X-113842Y1061466D01*
X-93218Y1061466D01*
X-93218Y1082040D01*
G37*
G36*
X-93014Y1082040D02*
G01*
X-93014Y1040892D01*
X-31292Y1040892D01*
X-31292Y1061466D01*
X-51866Y1061466D01*
X-51866Y1082040D01*
G37*
G36*
X-31038Y1082040D02*
G01*
X-31038Y1061466D01*
X10109Y1061466D01*
X10109Y1082040D01*
G37*
G36*
X93167Y1082040D02*
G01*
X93167Y1061466D01*
X113741Y1061466D01*
X113741Y1082040D01*
G37*
G36*
X134569Y1082040D02*
G01*
X134569Y1061466D01*
X155143Y1061466D01*
X155143Y1040892D01*
X175717Y1040892D01*
X175717Y1061466D01*
X196291Y1061466D01*
X196291Y1082040D01*
G37*
G36*
X196596Y1082040D02*
G01*
X196596Y1040892D01*
X237693Y1040892D01*
X237693Y1082040D01*
G37*
G36*
X237998Y1082040D02*
G01*
X237998Y1040892D01*
X258571Y1040892D01*
X258571Y1061466D01*
X279146Y1061466D01*
X279146Y1082040D01*
G37*
G36*
X72390Y1061466D02*
G01*
X72390Y1040892D01*
X92964Y1040892D01*
X92964Y1061466D01*
G37*
G36*
X113741Y1061466D02*
G01*
X113741Y1040892D01*
X134366Y1040892D01*
X134366Y1061466D01*
G37*
G36*
X279349Y1061466D02*
G01*
X279349Y1040892D01*
X299974Y1040892D01*
X299974Y1061466D01*
G37*
G36*
X-300024Y1040637D02*
G01*
X-300024Y1020064D01*
X-258825Y1020064D01*
X-258825Y1040637D01*
G37*
G36*
X-258622Y1040637D02*
G01*
X-258622Y1020064D01*
X-217474Y1020064D01*
X-217474Y1040637D01*
G37*
G36*
X-217170Y1040637D02*
G01*
X-217170Y1020064D01*
X-176072Y1020064D01*
X-176072Y1040637D01*
G37*
G36*
X-175768Y1040637D02*
G01*
X-175768Y1020064D01*
X-155194Y1020064D01*
X-155194Y1040637D01*
G37*
G36*
X-93014Y1040637D02*
G01*
X-93014Y1020064D01*
X-72440Y1020064D01*
X-72440Y1040637D01*
G37*
G36*
X-51866Y1040637D02*
G01*
X-51866Y1020064D01*
X-31292Y1020064D01*
X-31292Y1040637D01*
G37*
G36*
X-31038Y1040637D02*
G01*
X-31038Y1020064D01*
X-10464Y1020064D01*
X-10464Y1040637D01*
G37*
G36*
X10414Y1040637D02*
G01*
X10414Y1020064D01*
X51511Y1020064D01*
X51511Y1040637D01*
G37*
G36*
X72390Y1040637D02*
G01*
X72390Y1020064D01*
X92964Y1020064D01*
X92964Y1040637D01*
G37*
G36*
X175717Y1040637D02*
G01*
X175717Y1020064D01*
X196291Y1020064D01*
X196291Y1040637D01*
G37*
G36*
X196596Y1040637D02*
G01*
X196596Y1020064D01*
X217119Y1020064D01*
X217119Y1040637D01*
G37*
G36*
X237998Y1040637D02*
G01*
X237998Y1020064D01*
X258571Y1020064D01*
X258571Y1040637D01*
G37*
G36*
X697230Y-993089D02*
G01*
X690676Y-993343D01*
X684276Y-994156D01*
X677976Y-995426D01*
X671931Y-997153D01*
X666089Y-999388D01*
X660450Y-1002030D01*
X655066Y-1005078D01*
X649986Y-1008532D01*
X645160Y-1012342D01*
X640638Y-1016558D01*
X636473Y-1021029D01*
X632663Y-1025855D01*
X629208Y-1030986D01*
X626110Y-1036370D01*
X623468Y-1041958D01*
X621284Y-1047851D01*
X619506Y-1053896D01*
X618236Y-1060145D01*
X617474Y-1066546D01*
X617220Y-1073150D01*
X617474Y-1079703D01*
X618236Y-1086104D01*
X619609Y-1092708D01*
X748690Y-1092708D01*
X748690Y-1049528D01*
X749198Y-1044346D01*
X750722Y-1038860D01*
X753414Y-1033729D01*
X754989Y-1031290D01*
X758799Y-1026769D01*
X763270Y-1022959D01*
X765708Y-1021334D01*
X768299Y-1020114D01*
X770940Y-1019251D01*
X773633Y-1018743D01*
X776376Y-1018540D01*
X828598Y-1018641D01*
X829106Y-1018946D01*
X829462Y-1020064D01*
X829360Y-1037488D01*
X829106Y-1037996D01*
X827938Y-1038352D01*
X780542Y-1038402D01*
X778865Y-1038910D01*
X777036Y-1040028D01*
X775360Y-1041552D01*
X772464Y-1045108D01*
X771347Y-1046937D01*
X770839Y-1048613D01*
X770788Y-1089152D01*
X771042Y-1093165D01*
X771753Y-1096721D01*
X772922Y-1099870D01*
X774598Y-1102614D01*
X776630Y-1104849D01*
X778916Y-1106424D01*
X781456Y-1107389D01*
X784250Y-1107694D01*
X804265Y-1107643D01*
X806805Y-1107135D01*
X808990Y-1106170D01*
X810869Y-1104900D01*
X812292Y-1103376D01*
X814069Y-1099972D01*
X814425Y-1098448D01*
X814476Y-1083564D01*
X814120Y-1082446D01*
X812952Y-1082040D01*
X787400Y-1081938D01*
X786942Y-1081684D01*
X786536Y-1080516D01*
X786638Y-1063091D01*
X787400Y-1062329D01*
X835558Y-1062228D01*
X836726Y-1062634D01*
X837082Y-1063752D01*
X836980Y-1099921D01*
X836066Y-1104239D01*
X834440Y-1109218D01*
X831900Y-1114044D01*
X828192Y-1118666D01*
X825855Y-1120800D01*
X823214Y-1122730D01*
X820318Y-1124458D01*
X817168Y-1125931D01*
X816117Y-1126236D01*
X848258Y-1126236D01*
X848309Y-1038098D01*
X848817Y-1033018D01*
X849884Y-1028700D01*
X850747Y-1026871D01*
X851814Y-1025245D01*
X854456Y-1022603D01*
X856081Y-1021486D01*
X859942Y-1019810D01*
X864819Y-1018844D01*
X870864Y-1018540D01*
X875334Y-1018743D01*
X879195Y-1019302D01*
X882345Y-1020267D01*
X884834Y-1021587D01*
X886815Y-1023264D01*
X888441Y-1025194D01*
X889762Y-1027430D01*
X890676Y-1029969D01*
X911301Y-1105814D01*
X912063Y-1106576D01*
X912977Y-1106576D01*
X913485Y-1105814D01*
X913637Y-1019403D01*
X914400Y-1018641D01*
X934110Y-1018540D01*
X935278Y-1018946D01*
X935634Y-1020064D01*
X935583Y-1111758D01*
X935075Y-1114806D01*
X933958Y-1117854D01*
X932281Y-1120648D01*
X930249Y-1123137D01*
X927709Y-1125321D01*
X926236Y-1126236D01*
X948334Y-1126236D01*
X948436Y-1019403D01*
X949198Y-1018641D01*
X1001674Y-1018540D01*
X1005840Y-1018743D01*
X1009751Y-1019352D01*
X1013358Y-1020419D01*
X1016660Y-1021842D01*
X1019708Y-1023619D01*
X1022451Y-1025652D01*
X1024890Y-1027937D01*
X1027074Y-1030478D01*
X1029055Y-1033271D01*
X1030782Y-1036218D01*
X1032103Y-1039368D01*
X1034084Y-1046124D01*
X1035100Y-1053084D01*
X1035100Y-1096162D01*
X1034084Y-1102106D01*
X1032103Y-1108252D01*
X1030782Y-1111199D01*
X1029055Y-1113993D01*
X1027074Y-1116584D01*
X1024940Y-1118920D01*
X1022502Y-1121054D01*
X1019860Y-1122984D01*
X1016914Y-1124712D01*
X1013612Y-1126032D01*
X1010005Y-1126998D01*
X1006094Y-1127556D01*
X1001928Y-1127760D01*
X949198Y-1127658D01*
X948740Y-1127404D01*
X948334Y-1126236D01*
X926236Y-1126236D01*
X923391Y-1127404D01*
X920394Y-1127760D01*
X905408Y-1127709D01*
X903376Y-1127201D01*
X901344Y-1126236D01*
X899464Y-1124966D01*
X896010Y-1121664D01*
X894638Y-1119632D01*
X893775Y-1117600D01*
X872896Y-1040637D01*
X872286Y-1039672D01*
X871372Y-1039368D01*
X870610Y-1039672D01*
X870356Y-1040637D01*
X870254Y-1126896D01*
X870000Y-1127404D01*
X868832Y-1127760D01*
X849121Y-1127658D01*
X848664Y-1127404D01*
X848258Y-1126236D01*
X816117Y-1126236D01*
X813663Y-1126947D01*
X809701Y-1127556D01*
X805332Y-1127760D01*
X778916Y-1127760D01*
X775360Y-1127556D01*
X772007Y-1126947D01*
X768858Y-1125931D01*
X765962Y-1124458D01*
X763270Y-1122680D01*
X760831Y-1120648D01*
X758596Y-1118362D01*
X754684Y-1113231D01*
X753008Y-1110488D01*
X750468Y-1104646D01*
X749147Y-1098600D01*
X748690Y-1092708D01*
X619609Y-1092708D01*
X621284Y-1098448D01*
X623468Y-1104290D01*
X626110Y-1109929D01*
X629208Y-1115314D01*
X632663Y-1120394D01*
X636473Y-1125220D01*
X640638Y-1129741D01*
X645160Y-1133906D01*
X649986Y-1137716D01*
X655066Y-1141171D01*
X660450Y-1144219D01*
X666089Y-1146860D01*
X671931Y-1149096D01*
X677976Y-1150823D01*
X684276Y-1152144D01*
X690676Y-1152906D01*
X697230Y-1153160D01*
X1229461Y-1153160D01*
X1222857Y-1152906D01*
X1216456Y-1152144D01*
X1210208Y-1150823D01*
X1204163Y-1149096D01*
X1198270Y-1146860D01*
X1192682Y-1144219D01*
X1187297Y-1141171D01*
X1182166Y-1137716D01*
X1177340Y-1133906D01*
X1172819Y-1129741D01*
X1168654Y-1125220D01*
X1164844Y-1120394D01*
X1161389Y-1115314D01*
X1158341Y-1109929D01*
X1155700Y-1104290D01*
X1153464Y-1098448D01*
X1151737Y-1092352D01*
X1150467Y-1086104D01*
X1149654Y-1079703D01*
X1149400Y-1073150D01*
X1149654Y-1066546D01*
X1150467Y-1060145D01*
X1151737Y-1053896D01*
X1153464Y-1047851D01*
X1155700Y-1041958D01*
X1158341Y-1036370D01*
X1161389Y-1030986D01*
X1164844Y-1025855D01*
X1168654Y-1021029D01*
X1172819Y-1016558D01*
X1177340Y-1012342D01*
X1182166Y-1008532D01*
X1187297Y-1005078D01*
X1192682Y-1002030D01*
X1198270Y-999388D01*
X1204163Y-997153D01*
X1210208Y-995426D01*
X1216456Y-994156D01*
X1222857Y-993343D01*
X1229461Y-993089D01*
G37*
G36*
X971956Y-1038352D02*
G01*
X971296Y-1038453D01*
X970534Y-1039215D01*
X970432Y-1106424D01*
X970838Y-1107592D01*
X971956Y-1107948D01*
X1000404Y-1107897D01*
X1002944Y-1107236D01*
X1005332Y-1106017D01*
X1007516Y-1104341D01*
X1009497Y-1102360D01*
X1011174Y-1100074D01*
X1012393Y-1097534D01*
X1013002Y-1094994D01*
X1013104Y-1053084D01*
X1012748Y-1050340D01*
X1011580Y-1047750D01*
X1010056Y-1045159D01*
X1008024Y-1042924D01*
X1005890Y-1041095D01*
X1003452Y-1039621D01*
X1000658Y-1038656D01*
X997864Y-1038352D01*
G37*
G36*
X698347Y-740003D02*
G01*
X691794Y-740257D01*
X685342Y-741070D01*
X679094Y-742340D01*
X673049Y-744067D01*
X667207Y-746302D01*
X661568Y-748944D01*
X656183Y-751992D01*
X651103Y-755446D01*
X646277Y-759256D01*
X641756Y-763422D01*
X637590Y-767943D01*
X633780Y-772769D01*
X630326Y-777849D01*
X627227Y-783234D01*
X624586Y-788873D01*
X622401Y-794715D01*
X620623Y-800760D01*
X619353Y-807008D01*
X618591Y-813460D01*
X618337Y-820013D01*
X618591Y-826566D01*
X619353Y-832967D01*
X620623Y-839216D01*
X622401Y-845261D01*
X624586Y-851153D01*
X627227Y-856742D01*
X630326Y-862126D01*
X633780Y-867257D01*
X638537Y-873099D01*
X723849Y-873099D01*
X723950Y-766318D01*
X724255Y-765810D01*
X725373Y-765454D01*
X773887Y-765454D01*
X778052Y-765606D01*
X781812Y-766064D01*
X785266Y-766876D01*
X788365Y-767994D01*
X791159Y-769467D01*
X793699Y-771194D01*
X795985Y-773176D01*
X798017Y-775360D01*
X799693Y-777849D01*
X801116Y-780592D01*
X803351Y-786739D01*
X804519Y-793597D01*
X804875Y-800963D01*
X804519Y-808736D01*
X803351Y-815695D01*
X802335Y-818896D01*
X801116Y-821791D01*
X799693Y-824484D01*
X798017Y-826871D01*
X795985Y-829157D01*
X793699Y-831138D01*
X791159Y-832815D01*
X788365Y-834237D01*
X785266Y-835355D01*
X781812Y-836168D01*
X778052Y-836625D01*
X746810Y-836879D01*
X746048Y-837641D01*
X745947Y-873099D01*
X813003Y-873099D01*
X813104Y-766318D01*
X813409Y-765810D01*
X814527Y-765454D01*
X834237Y-765556D01*
X834745Y-765810D01*
X835101Y-766978D01*
X835101Y-858621D01*
X847801Y-858621D01*
X847801Y-788771D01*
X848156Y-783844D01*
X849223Y-779322D01*
X850950Y-775309D01*
X853389Y-771804D01*
X856487Y-769010D01*
X860247Y-767029D01*
X864616Y-765860D01*
X869645Y-765454D01*
X922375Y-765556D01*
X922985Y-765810D01*
X923391Y-766318D01*
X923493Y-783742D01*
X923137Y-784860D01*
X922629Y-785164D01*
X870762Y-785317D01*
X870000Y-786079D01*
X869899Y-807567D01*
X870305Y-808736D01*
X871423Y-809091D01*
X918819Y-809193D01*
X919327Y-809498D01*
X919683Y-810615D01*
X919581Y-828802D01*
X919327Y-829310D01*
X918159Y-829665D01*
X870762Y-829767D01*
X870000Y-830529D01*
X870000Y-853948D01*
X870762Y-854710D01*
X921969Y-854811D01*
X923137Y-855167D01*
X923340Y-855573D01*
X934923Y-855573D01*
X935075Y-851763D01*
X935482Y-848461D01*
X936193Y-845667D01*
X938225Y-841451D01*
X940409Y-838301D01*
X989837Y-789432D01*
X990041Y-789025D01*
X990041Y-786739D01*
X989279Y-786231D01*
X940358Y-786180D01*
X939596Y-785418D01*
X939495Y-766978D01*
X939901Y-765810D01*
X941019Y-765454D01*
X997661Y-765454D01*
X1001623Y-765708D01*
X1005179Y-766572D01*
X1008227Y-767994D01*
X1010869Y-770026D01*
X1013002Y-772566D01*
X1014476Y-775614D01*
X1015390Y-779170D01*
X1015695Y-783234D01*
X1015390Y-787704D01*
X1014425Y-792581D01*
X1013663Y-795121D01*
X1012647Y-797407D01*
X1011377Y-799439D01*
X1009853Y-801217D01*
X985632Y-825195D01*
X1027633Y-825195D01*
X1028090Y-798423D01*
X1028649Y-793597D01*
X1031189Y-782929D01*
X1032916Y-778764D01*
X1033881Y-776935D01*
X1036624Y-773379D01*
X1040434Y-769823D01*
X1042619Y-768248D01*
X1047343Y-765810D01*
X1052271Y-764184D01*
X1056589Y-763524D01*
X1061923Y-763168D01*
X1090371Y-763168D01*
X1095654Y-763524D01*
X1099769Y-764184D01*
X1104900Y-765810D01*
X1109675Y-768248D01*
X1113891Y-771550D01*
X1117295Y-775360D01*
X1119327Y-778764D01*
X1120851Y-782929D01*
X1122273Y-788009D01*
X1123391Y-793597D01*
X1124051Y-798423D01*
X1124610Y-811530D01*
X1124508Y-832916D01*
X1124254Y-839419D01*
X1123746Y-844753D01*
X1122832Y-849884D01*
X1121562Y-855218D01*
X1120140Y-859891D01*
X1118362Y-863853D01*
X1117295Y-865479D01*
X1113891Y-869238D01*
X1109675Y-872337D01*
X1107338Y-873760D01*
X1102410Y-875893D01*
X1099769Y-876655D01*
X1095654Y-877214D01*
X1083767Y-877569D01*
X1068425Y-877569D01*
X1056589Y-877214D01*
X1052271Y-876655D01*
X1047343Y-874928D01*
X1042619Y-872337D01*
X1038453Y-869238D01*
X1034999Y-865479D01*
X1033881Y-863853D01*
X1032002Y-859891D01*
X1030579Y-855218D01*
X1028293Y-844753D01*
X1027633Y-825195D01*
X985632Y-825195D01*
X959307Y-851255D01*
X958799Y-852017D01*
X959307Y-853287D01*
X959713Y-853643D01*
X960323Y-853795D01*
X1015339Y-853897D01*
X1015847Y-854151D01*
X1016203Y-855319D01*
X1016101Y-873760D01*
X1015847Y-874217D01*
X1014679Y-874623D01*
X951941Y-874623D01*
X947521Y-873760D01*
X943813Y-872439D01*
X940917Y-870712D01*
X938733Y-868527D01*
X937056Y-865886D01*
X935888Y-862888D01*
X935177Y-859434D01*
X934923Y-855573D01*
X923391Y-855675D01*
X923493Y-873099D01*
X923137Y-874217D01*
X921969Y-874623D01*
X861517Y-874521D01*
X858824Y-873760D01*
X856081Y-872388D01*
X853694Y-870610D01*
X851560Y-868324D01*
X849782Y-865682D01*
X848512Y-862787D01*
X847902Y-859993D01*
X847801Y-858621D01*
X835101Y-858621D01*
X834999Y-873760D01*
X834745Y-874217D01*
X833577Y-874623D01*
X813866Y-874521D01*
X813104Y-873760D01*
X813003Y-873099D01*
X745947Y-873099D01*
X745591Y-874217D01*
X744423Y-874623D01*
X724712Y-874521D01*
X723950Y-873760D01*
X723849Y-873099D01*
X638537Y-873099D01*
X641756Y-876553D01*
X646277Y-880719D01*
X651103Y-884580D01*
X656183Y-888034D01*
X661568Y-891082D01*
X667207Y-893724D01*
X673049Y-895908D01*
X679094Y-897686D01*
X685342Y-898956D01*
X691794Y-899718D01*
X698347Y-899972D01*
X1230020Y-899972D01*
X1223416Y-899718D01*
X1217015Y-898956D01*
X1210767Y-897686D01*
X1204722Y-895908D01*
X1198829Y-893724D01*
X1193241Y-891082D01*
X1187856Y-888034D01*
X1182725Y-884580D01*
X1177899Y-880719D01*
X1173378Y-876553D01*
X1169212Y-872083D01*
X1165402Y-867257D01*
X1161948Y-862126D01*
X1158900Y-856742D01*
X1156258Y-851153D01*
X1154023Y-845261D01*
X1152296Y-839216D01*
X1151026Y-832967D01*
X1150213Y-826566D01*
X1149959Y-820013D01*
X1150213Y-813460D01*
X1151026Y-807008D01*
X1152296Y-800760D01*
X1154023Y-794715D01*
X1156258Y-788873D01*
X1158900Y-783234D01*
X1161948Y-777849D01*
X1165402Y-772769D01*
X1169212Y-767943D01*
X1173378Y-763422D01*
X1177899Y-759256D01*
X1182725Y-755446D01*
X1187856Y-751992D01*
X1193241Y-748944D01*
X1198829Y-746302D01*
X1204722Y-744067D01*
X1210767Y-742340D01*
X1217015Y-741070D01*
X1223416Y-740257D01*
X1230020Y-740003D01*
G37*
G36*
X1067003Y-784199D02*
G01*
X1063193Y-784606D01*
X1059891Y-785215D01*
X1057300Y-786180D01*
X1055116Y-787400D01*
X1053388Y-788974D01*
X1052017Y-790803D01*
X1051001Y-793089D01*
X1050290Y-795832D01*
X1049883Y-799084D01*
X1049731Y-802741D01*
X1049731Y-837793D01*
X1049883Y-841603D01*
X1050290Y-844905D01*
X1051001Y-847699D01*
X1052017Y-849985D01*
X1053388Y-851814D01*
X1055116Y-853338D01*
X1057300Y-854506D01*
X1061466Y-855675D01*
X1065022Y-856183D01*
X1073759Y-856589D01*
X1080668Y-856538D01*
X1087120Y-856183D01*
X1090777Y-855675D01*
X1094994Y-854506D01*
X1097178Y-853338D01*
X1098905Y-851814D01*
X1100277Y-849985D01*
X1101293Y-847699D01*
X1102004Y-844905D01*
X1102410Y-841603D01*
X1102563Y-837793D01*
X1102563Y-802741D01*
X1102410Y-799084D01*
X1102004Y-795832D01*
X1101293Y-793089D01*
X1100277Y-790803D01*
X1098905Y-788974D01*
X1097178Y-787400D01*
X1094994Y-786180D01*
X1092403Y-785215D01*
X1089050Y-784606D01*
X1085037Y-784199D01*
G37*
G36*
X747471Y-785215D02*
G01*
X746810Y-785317D01*
X746048Y-786079D01*
X745947Y-815441D01*
X746353Y-816610D01*
X747471Y-816965D01*
X777748Y-816864D01*
X778916Y-816457D01*
X779881Y-815848D01*
X781558Y-813968D01*
X782828Y-811733D01*
X783640Y-809091D01*
X784301Y-805281D01*
X784301Y-796899D01*
X783945Y-794207D01*
X783285Y-791565D01*
X782269Y-789178D01*
X780745Y-787044D01*
X779881Y-786231D01*
X778916Y-785672D01*
X776427Y-785215D01*
G37*
G36*
X-329996Y569976D02*
G01*
X-329996Y375869D01*
X-317347Y375869D01*
X-317246Y400050D01*
X-316484Y401167D01*
X-315823Y401523D01*
X-213918Y432765D01*
X-213207Y433171D01*
X-212953Y433832D01*
X-213156Y434695D01*
X-214782Y435559D01*
X-316331Y467106D01*
X-316890Y467614D01*
X-317347Y469087D01*
X-317246Y492759D01*
X-316738Y493369D01*
X-316331Y493471D01*
X-200253Y457403D01*
X-197104Y456133D01*
X-194665Y454456D01*
X-192786Y452323D01*
X-191617Y449783D01*
X-190804Y446633D01*
X-190246Y442976D01*
X-189839Y434289D01*
X-190246Y425196D01*
X-190804Y421487D01*
X-191617Y418287D01*
X-192786Y415594D01*
X-194665Y413359D01*
X-197104Y411632D01*
X-200253Y410413D01*
X-316331Y374599D01*
X-317093Y374904D01*
X-317347Y375869D01*
X-329996Y375869D01*
X-329742Y368350D01*
X-328980Y362204D01*
X-327761Y356260D01*
X-326085Y350469D01*
X-324002Y344830D01*
X-321462Y339496D01*
X-318566Y334365D01*
X-315264Y329488D01*
X-311607Y324866D01*
X-307594Y320548D01*
X-303326Y316585D01*
X-298704Y312928D01*
X-293827Y309626D01*
X-288696Y306679D01*
X-283311Y304190D01*
X-277723Y302056D01*
X-271932Y300380D01*
X-265938Y299161D01*
X-259842Y298399D01*
X-253542Y298145D01*
X-247294Y298399D01*
X-241147Y299161D01*
X-235204Y300380D01*
X-229412Y302056D01*
X-223824Y304190D01*
X-218440Y306679D01*
X-213309Y309626D01*
X-208432Y312928D01*
X-203809Y316585D01*
X-199491Y320548D01*
X-195529Y324866D01*
X-191871Y329488D01*
X-188569Y334365D01*
X-185674Y339496D01*
X-183134Y344830D01*
X-181000Y350469D01*
X-179324Y356260D01*
X-178104Y362204D01*
X-177393Y368350D01*
X-177139Y374599D01*
X-177139Y569976D01*
G37*
G36*
X-73202Y559308D02*
G01*
X-73202Y409651D01*
X-60502Y409651D01*
X-60401Y470408D01*
X-59486Y471271D01*
X-38404Y471271D01*
X-37490Y470408D01*
X-37388Y415239D01*
X-37084Y413512D01*
X-36118Y411429D01*
X-34493Y409448D01*
X-31546Y406654D01*
X-29514Y405028D01*
X-27381Y403758D01*
X-25349Y403148D01*
X21793Y403047D01*
X26466Y403352D01*
X30683Y404114D01*
X34340Y405485D01*
X37541Y407365D01*
X40182Y409803D01*
X42113Y412496D01*
X43230Y415543D01*
X43637Y418795D01*
X43535Y442112D01*
X42926Y445160D01*
X41706Y447700D01*
X39573Y450799D01*
X37541Y452120D01*
X33578Y453847D01*
X31953Y454101D01*
X14681Y453999D01*
X13766Y453135D01*
X13563Y422452D01*
X12649Y421690D01*
X-7670Y421589D01*
X-8991Y421995D01*
X-9347Y422452D01*
X-9347Y479298D01*
X-8432Y480161D01*
X32461Y480263D01*
X36982Y479806D01*
X42367Y478485D01*
X45364Y477469D01*
X48260Y476097D01*
X51054Y474421D01*
X53797Y472389D01*
X56388Y470052D01*
X58826Y467359D01*
X61061Y464362D01*
X63195Y460959D01*
X64871Y457301D01*
X66040Y453135D01*
X66751Y448564D01*
X67005Y443433D01*
X67005Y412699D01*
X66751Y408533D01*
X66040Y404571D01*
X64871Y400913D01*
X63195Y397459D01*
X61061Y394309D01*
X58674Y391363D01*
X56083Y388721D01*
X53289Y386283D01*
X50190Y384149D01*
X46939Y382270D01*
X40081Y379425D01*
X33020Y377698D01*
X26111Y377139D01*
X-24434Y377139D01*
X-27381Y377291D01*
X-33477Y378561D01*
X-36626Y379679D01*
X-42722Y382879D01*
X-48310Y386791D01*
X-53187Y391668D01*
X-55321Y394360D01*
X-57200Y397205D01*
X-58674Y400202D01*
X-59690Y403250D01*
X-60299Y406400D01*
X-60502Y409651D01*
X-73202Y409651D01*
X-73202Y374650D01*
X-72948Y368401D01*
X-72186Y362254D01*
X-70967Y356311D01*
X-69291Y350520D01*
X-67157Y344881D01*
X-64668Y339547D01*
X-61722Y334416D01*
X-58419Y329539D01*
X-54762Y324916D01*
X-50800Y320598D01*
X-46482Y316636D01*
X-41910Y312978D01*
X-36982Y309676D01*
X-31851Y306730D01*
X-26517Y304241D01*
X-20878Y302107D01*
X-15087Y300431D01*
X-9144Y299212D01*
X-2997Y298450D01*
X3251Y298196D01*
X9550Y298450D01*
X15646Y299212D01*
X21640Y300431D01*
X27432Y302107D01*
X33020Y304241D01*
X38404Y306730D01*
X43535Y309676D01*
X48412Y312978D01*
X52984Y316636D01*
X57302Y320598D01*
X61315Y324916D01*
X64973Y329539D01*
X68224Y334416D01*
X71170Y339547D01*
X73710Y344881D01*
X75793Y350520D01*
X77470Y356311D01*
X78689Y362254D01*
X79451Y368401D01*
X79705Y374650D01*
X79705Y559308D01*
G37*
G36*
X169976Y560019D02*
G01*
X169976Y405434D01*
X182676Y405434D01*
X182778Y464870D01*
X183134Y465429D01*
X183692Y465785D01*
X204774Y465785D01*
X205333Y465429D01*
X205689Y464870D01*
X205790Y412800D01*
X205943Y411530D01*
X206349Y410362D01*
X207060Y409244D01*
X209194Y407263D01*
X211226Y405892D01*
X214782Y404317D01*
X215696Y404164D01*
X222250Y404215D01*
X226567Y404672D01*
X229260Y405942D01*
X231343Y407974D01*
X232613Y410616D01*
X232968Y412292D01*
X233171Y415950D01*
X233222Y439724D01*
X233578Y445414D01*
X234746Y451408D01*
X235661Y454406D01*
X236982Y457250D01*
X238607Y459993D01*
X241808Y464058D01*
X244754Y466598D01*
X248259Y468630D01*
X252069Y470255D01*
X256184Y471576D01*
X260502Y472592D01*
X264922Y473201D01*
X274878Y473506D01*
X285597Y471779D01*
X292252Y469493D01*
X298043Y466090D01*
X302818Y461568D01*
X305358Y458216D01*
X307898Y454202D01*
X308914Y452069D01*
X309626Y449986D01*
X310184Y446074D01*
X310083Y380542D01*
X309727Y379984D01*
X309168Y379628D01*
X288086Y379628D01*
X287528Y379984D01*
X287172Y380542D01*
X287070Y438454D01*
X286918Y439775D01*
X286410Y441045D01*
X285648Y442214D01*
X284530Y443280D01*
X279704Y446074D01*
X276148Y447090D01*
X273354Y447344D01*
X267868Y447040D01*
X264769Y446582D01*
X261975Y445465D01*
X260654Y444550D01*
X259130Y442264D01*
X258114Y439470D01*
X257352Y435864D01*
X257098Y431596D01*
X256997Y408686D01*
X256387Y402691D01*
X255828Y399592D01*
X254914Y396595D01*
X252120Y390855D01*
X250240Y388162D01*
X247497Y385368D01*
X244398Y383082D01*
X240690Y381254D01*
X236778Y379780D01*
X232816Y378612D01*
X228650Y377748D01*
X224536Y377342D01*
X216204Y377240D01*
X206603Y378714D01*
X200152Y381050D01*
X194513Y384556D01*
X189788Y389178D01*
X187299Y392531D01*
X184962Y396544D01*
X183946Y398830D01*
X183235Y401066D01*
X182676Y405434D01*
X169976Y405434D01*
X169976Y367030D01*
X170230Y360781D01*
X170992Y354634D01*
X172212Y348691D01*
X173888Y342900D01*
X176022Y337312D01*
X178511Y331927D01*
X181457Y326796D01*
X184759Y321919D01*
X188417Y317296D01*
X192379Y312978D01*
X196697Y309016D01*
X201320Y305358D01*
X206197Y302056D01*
X211328Y299161D01*
X216662Y296621D01*
X222300Y294487D01*
X228092Y292811D01*
X234035Y291592D01*
X240182Y290880D01*
X246430Y290626D01*
X252729Y290880D01*
X258825Y291592D01*
X264820Y292811D01*
X270611Y294487D01*
X276199Y296621D01*
X281584Y299161D01*
X286715Y302056D01*
X291592Y305358D01*
X296164Y309016D01*
X300482Y312978D01*
X304495Y317296D01*
X308152Y321919D01*
X311454Y326796D01*
X314350Y331927D01*
X316890Y337312D01*
X318973Y342900D01*
X320649Y348691D01*
X321868Y354634D01*
X322630Y360781D01*
X322884Y367030D01*
X322884Y560019D01*
G37*
G36*
X-1109421Y849985D02*
G01*
X-1115771Y849782D01*
X-1121968Y849172D01*
X-1128115Y848106D01*
X-1134059Y846683D01*
X-1139850Y844854D01*
X-1145489Y842721D01*
X-1150975Y840181D01*
X-1156208Y837336D01*
X-1161237Y834136D01*
X-1166063Y830681D01*
X-1170635Y826871D01*
X-1175004Y822858D01*
X-1179017Y818489D01*
X-1182827Y813917D01*
X-1186281Y809091D01*
X-1189482Y804062D01*
X-1192326Y798830D01*
X-1194866Y793343D01*
X-1197000Y787704D01*
X-1198829Y781913D01*
X-1200251Y775970D01*
X-1201318Y769823D01*
X-1201928Y763625D01*
X-1202131Y757275D01*
X-1201928Y750925D01*
X-1201318Y744677D01*
X-1200251Y738581D01*
X-1198829Y732586D01*
X-1197000Y726795D01*
X-1194866Y721156D01*
X-1192326Y715721D01*
X-1189482Y710438D01*
X-1185372Y704138D01*
X-1083919Y704138D01*
X-1083818Y810971D01*
X-1083513Y811479D01*
X-1082395Y811834D01*
X-1033881Y811834D01*
X-1029716Y811682D01*
X-1025906Y811225D01*
X-1022220Y810310D01*
X-996035Y810310D01*
X-995781Y811225D01*
X-995019Y811834D01*
X-974648Y811784D01*
X-973988Y811123D01*
X-962558Y726592D01*
X-962152Y725017D01*
X-961745Y724458D01*
X-961339Y724916D01*
X-960577Y728319D01*
X-952601Y803198D01*
X-950823Y805891D01*
X-948588Y808177D01*
X-945896Y809955D01*
X-942695Y811326D01*
X-939952Y811733D01*
X-928217Y811834D01*
X-924306Y810768D01*
X-920851Y809040D01*
X-918921Y807110D01*
X-916482Y803656D01*
X-916025Y802182D01*
X-906627Y729538D01*
X-905764Y725728D01*
X-905357Y725220D01*
X-904849Y725779D01*
X-903833Y730250D01*
X-894537Y811123D01*
X-894130Y811530D01*
X-892403Y811834D01*
X-873302Y811784D01*
X-872540Y811123D01*
X-872337Y810564D01*
X-885799Y713028D01*
X-886561Y710184D01*
X-887933Y707745D01*
X-889863Y705764D01*
X-892403Y704138D01*
X-861161Y704138D01*
X-861060Y810971D01*
X-860755Y811479D01*
X-859637Y811834D01*
X-800658Y811733D01*
X-796493Y810971D01*
X-794359Y810310D01*
X-792327Y809294D01*
X-790346Y807974D01*
X-786485Y804468D01*
X-783437Y800455D01*
X-781202Y795528D01*
X-779780Y789686D01*
X-779119Y782878D01*
X-779322Y773074D01*
X-779881Y767740D01*
X-780846Y763270D01*
X-782167Y759764D01*
X-786739Y754176D01*
X-789381Y751789D01*
X-792835Y749604D01*
X-793546Y748792D01*
X-793546Y748080D01*
X-790346Y743508D01*
X-787044Y736295D01*
X-777189Y706323D01*
X-776325Y704646D01*
X-775309Y703376D01*
X-775563Y702818D01*
X-776325Y702614D01*
X-797814Y702716D01*
X-798830Y703478D01*
X-799896Y705002D01*
X-811479Y737362D01*
X-813409Y740156D01*
X-815797Y742035D01*
X-818743Y743000D01*
X-838200Y742899D01*
X-838657Y742645D01*
X-839063Y741476D01*
X-839165Y703478D01*
X-839419Y703021D01*
X-840587Y702614D01*
X-860298Y702716D01*
X-861060Y703478D01*
X-861161Y704138D01*
X-892403Y704138D01*
X-895654Y703326D01*
X-901903Y702513D01*
X-905357Y702360D01*
X-911453Y702767D01*
X-917549Y703884D01*
X-920242Y705256D01*
X-922528Y706932D01*
X-924458Y709015D01*
X-925931Y711504D01*
X-931519Y762558D01*
X-933145Y775563D01*
X-934059Y780084D01*
X-942187Y712774D01*
X-943406Y709422D01*
X-945083Y706882D01*
X-947216Y705205D01*
X-949807Y704392D01*
X-955903Y703275D01*
X-961999Y702868D01*
X-968197Y703275D01*
X-974191Y704392D01*
X-977442Y706374D01*
X-979881Y708710D01*
X-981506Y711454D01*
X-982319Y714552D01*
X-996035Y810310D01*
X-1022220Y810310D01*
X-1019403Y809294D01*
X-1016609Y807821D01*
X-1014069Y806094D01*
X-1011783Y804113D01*
X-1009751Y801928D01*
X-1008075Y799439D01*
X-1005382Y793699D01*
X-1004417Y790498D01*
X-1003249Y783640D01*
X-1002893Y776274D01*
X-1003249Y768553D01*
X-1004417Y761542D01*
X-1005382Y758393D01*
X-1006652Y755446D01*
X-1008075Y752805D01*
X-1009751Y750366D01*
X-1011783Y748131D01*
X-1014069Y746150D01*
X-1016609Y744423D01*
X-1019403Y743000D01*
X-1022502Y741883D01*
X-1025906Y741121D01*
X-1029716Y740613D01*
X-1060958Y740359D01*
X-1061415Y740105D01*
X-1061821Y738936D01*
X-1061923Y703478D01*
X-1062177Y703021D01*
X-1063345Y702614D01*
X-1083056Y702716D01*
X-1083818Y703478D01*
X-1083919Y704138D01*
X-1185372Y704138D01*
X-1182827Y700582D01*
X-1179017Y696010D01*
X-1175004Y691692D01*
X-1170635Y687628D01*
X-1166063Y683869D01*
X-1161237Y680364D01*
X-1156208Y677164D01*
X-1150975Y674319D01*
X-1145489Y671830D01*
X-1139850Y669645D01*
X-1134059Y667816D01*
X-1128115Y666394D01*
X-1121968Y665378D01*
X-1115771Y664718D01*
X-1109421Y664514D01*
X-750011Y664514D01*
X-743661Y664718D01*
X-737412Y665378D01*
X-731316Y666394D01*
X-725322Y667816D01*
X-719531Y669645D01*
X-713892Y671830D01*
X-708456Y674319D01*
X-703173Y677164D01*
X-698144Y680364D01*
X-693318Y683869D01*
X-688746Y687628D01*
X-684428Y691692D01*
X-680364Y696010D01*
X-676605Y700582D01*
X-673100Y705408D01*
X-669899Y710438D01*
X-667054Y715721D01*
X-664565Y721156D01*
X-662381Y726795D01*
X-660552Y732586D01*
X-659130Y738581D01*
X-658114Y744677D01*
X-657453Y750925D01*
X-657250Y757275D01*
X-657453Y763625D01*
X-658114Y769823D01*
X-659130Y775970D01*
X-660552Y781913D01*
X-662381Y787704D01*
X-664565Y793343D01*
X-667054Y798830D01*
X-669899Y804062D01*
X-673100Y809091D01*
X-676605Y813917D01*
X-680364Y818489D01*
X-684428Y822858D01*
X-688746Y826871D01*
X-693318Y830681D01*
X-698144Y834136D01*
X-703173Y837336D01*
X-708456Y840181D01*
X-713892Y842721D01*
X-719531Y844854D01*
X-725322Y846683D01*
X-731316Y848106D01*
X-737412Y849172D01*
X-743661Y849782D01*
X-750011Y849985D01*
G37*
G36*
X-1060297Y792022D02*
G01*
X-1061415Y791667D01*
X-1061821Y790498D01*
X-1061720Y761136D01*
X-1060958Y760374D01*
X-1031341Y760272D01*
X-1028852Y760780D01*
X-1027836Y761441D01*
X-1026160Y763270D01*
X-1024890Y765556D01*
X-1023467Y771956D01*
X-1023467Y780338D01*
X-1023823Y783082D01*
X-1024483Y785672D01*
X-1025499Y788111D01*
X-1027023Y790244D01*
X-1027836Y791057D01*
X-1028852Y791616D01*
X-1031341Y792022D01*
G37*
G36*
X-837539Y792022D02*
G01*
X-838657Y791667D01*
X-839063Y790498D01*
X-838962Y764946D01*
X-838047Y764184D01*
X-809599Y764082D01*
X-808532Y764235D01*
X-806246Y765403D01*
X-803960Y767384D01*
X-802284Y770026D01*
X-801166Y773531D01*
X-800506Y777341D01*
X-800608Y782472D01*
X-800862Y784250D01*
X-801370Y785926D01*
X-803046Y788822D01*
X-804418Y790448D01*
X-805942Y791514D01*
X-807567Y792022D01*
G37*
G36*
X-1187754Y-840028D02*
G01*
X-1181912Y-840181D01*
X-1176223Y-840689D01*
X-1170584Y-841502D01*
X-1165047Y-842619D01*
X-1159611Y-844042D01*
X-1154328Y-845769D01*
X-1149197Y-847801D01*
X-1144168Y-850087D01*
X-1139342Y-852627D01*
X-1134618Y-855421D01*
X-1130096Y-858469D01*
X-1121613Y-865276D01*
X-1113942Y-872947D01*
X-1107135Y-881430D01*
X-1104532Y-885291D01*
X-1044092Y-885291D01*
X-1043889Y-884682D01*
X-1043533Y-884529D01*
X-1022603Y-884580D01*
X-1021587Y-885240D01*
X-1021232Y-885799D01*
X-994460Y-973074D01*
X-994054Y-973632D01*
X-993444Y-973886D01*
X-992682Y-973734D01*
X-991920Y-972362D01*
X-965403Y-886053D01*
X-964641Y-884885D01*
X-964031Y-884580D01*
X-943000Y-884529D01*
X-942340Y-884936D01*
X-942289Y-885291D01*
X-971063Y-977747D01*
X-932840Y-977747D01*
X-932840Y-907897D01*
X-932535Y-902919D01*
X-931468Y-898398D01*
X-929741Y-894384D01*
X-927303Y-890879D01*
X-924153Y-888085D01*
X-920394Y-886104D01*
X-916025Y-884885D01*
X-911047Y-884529D01*
X-858570Y-884580D01*
X-857554Y-885342D01*
X-857503Y-903478D01*
X-858266Y-904240D01*
X-909929Y-904392D01*
X-910691Y-905154D01*
X-910691Y-927353D01*
X-909929Y-928116D01*
X-861821Y-928268D01*
X-861060Y-929030D01*
X-861060Y-947928D01*
X-861821Y-948690D01*
X-909929Y-948842D01*
X-910691Y-949604D01*
X-910691Y-973074D01*
X-909929Y-973836D01*
X-858266Y-973988D01*
X-857503Y-974750D01*
X-857453Y-992225D01*
X-844956Y-992225D01*
X-844905Y-904036D01*
X-844397Y-898956D01*
X-843381Y-894638D01*
X-841603Y-891235D01*
X-838911Y-888542D01*
X-837234Y-887425D01*
X-835355Y-886510D01*
X-830986Y-885240D01*
X-825550Y-884580D01*
X-817981Y-884682D01*
X-814222Y-885291D01*
X-811123Y-886206D01*
X-808634Y-887577D01*
X-806551Y-889203D01*
X-804824Y-891184D01*
X-803503Y-893419D01*
X-802589Y-895959D01*
X-781964Y-971803D01*
X-781202Y-972566D01*
X-780288Y-972566D01*
X-779780Y-971803D01*
X-779627Y-885342D01*
X-778865Y-884580D01*
X-758444Y-884580D01*
X-757682Y-885342D01*
X-757631Y-902817D01*
X-748487Y-902817D01*
X-748385Y-885342D01*
X-747623Y-884580D01*
X-671322Y-884580D01*
X-670560Y-885342D01*
X-670560Y-903478D01*
X-671322Y-904240D01*
X-697585Y-904392D01*
X-698347Y-905154D01*
X-698500Y-992886D01*
X-699262Y-993648D01*
X-719683Y-993648D01*
X-720445Y-992886D01*
X-720598Y-905154D01*
X-721360Y-904392D01*
X-747623Y-904240D01*
X-748385Y-903478D01*
X-748487Y-902817D01*
X-757631Y-902817D01*
X-757682Y-977747D01*
X-758342Y-980795D01*
X-759460Y-983792D01*
X-761136Y-986586D01*
X-763219Y-989126D01*
X-767029Y-992225D01*
X-769874Y-993343D01*
X-772871Y-993749D01*
X-787958Y-993648D01*
X-789889Y-993140D01*
X-791870Y-992174D01*
X-793800Y-990904D01*
X-795578Y-989380D01*
X-797204Y-987602D01*
X-798576Y-985621D01*
X-799592Y-983589D01*
X-820572Y-906627D01*
X-821029Y-905662D01*
X-821842Y-905357D01*
X-822655Y-905662D01*
X-822858Y-906627D01*
X-822960Y-992886D01*
X-823721Y-993648D01*
X-844143Y-993648D01*
X-844905Y-992886D01*
X-844956Y-992225D01*
X-857453Y-992225D01*
X-857503Y-992886D01*
X-858266Y-993648D01*
X-917905Y-993749D01*
X-920648Y-993343D01*
X-923442Y-992225D01*
X-925931Y-990701D01*
X-928319Y-988669D01*
X-930148Y-986180D01*
X-931621Y-983335D01*
X-932535Y-980541D01*
X-932840Y-977747D01*
X-971063Y-977747D01*
X-973277Y-984859D01*
X-974344Y-987501D01*
X-975766Y-989584D01*
X-977646Y-991158D01*
X-979881Y-992225D01*
X-982471Y-992886D01*
X-989076Y-993648D01*
X-997254Y-993648D01*
X-1004112Y-992886D01*
X-1006805Y-992225D01*
X-1009091Y-991158D01*
X-1011021Y-989584D01*
X-1012545Y-987501D01*
X-1013663Y-984859D01*
X-1044092Y-885291D01*
X-1104532Y-885291D01*
X-1101293Y-890676D01*
X-1098753Y-895502D01*
X-1096467Y-900531D01*
X-1094435Y-905662D01*
X-1092708Y-910945D01*
X-1091285Y-916381D01*
X-1090168Y-921918D01*
X-1089355Y-927557D01*
X-1088847Y-933246D01*
X-1088644Y-939088D01*
X-1088847Y-944930D01*
X-1089355Y-950671D01*
X-1090168Y-956259D01*
X-1091285Y-961796D01*
X-1092708Y-967232D01*
X-1094435Y-972515D01*
X-1096467Y-977646D01*
X-1098753Y-982675D01*
X-1101293Y-987501D01*
X-1104087Y-992225D01*
X-1107135Y-996746D01*
X-1113942Y-1005230D01*
X-1121613Y-1012901D01*
X-1130096Y-1019708D01*
X-1134618Y-1022756D01*
X-1139342Y-1025550D01*
X-1144168Y-1028090D01*
X-1149197Y-1030376D01*
X-1154328Y-1032408D01*
X-1159611Y-1034135D01*
X-1165047Y-1035558D01*
X-1170584Y-1036675D01*
X-1176223Y-1037488D01*
X-1181912Y-1037996D01*
X-1187754Y-1038199D01*
X-700024Y-1038199D01*
X-694182Y-1037996D01*
X-688441Y-1037488D01*
X-682802Y-1036675D01*
X-677265Y-1035558D01*
X-671880Y-1034135D01*
X-666597Y-1032408D01*
X-661416Y-1030376D01*
X-656437Y-1028090D01*
X-651560Y-1025550D01*
X-646887Y-1022756D01*
X-642366Y-1019708D01*
X-633882Y-1012901D01*
X-629920Y-1009142D01*
X-626211Y-1005230D01*
X-622655Y-1001064D01*
X-619404Y-996746D01*
X-616356Y-992225D01*
X-613511Y-987501D01*
X-610971Y-982675D01*
X-608685Y-977646D01*
X-606704Y-972515D01*
X-604977Y-967232D01*
X-603554Y-961796D01*
X-602386Y-956259D01*
X-601573Y-950671D01*
X-601065Y-944930D01*
X-600913Y-939088D01*
X-601065Y-933246D01*
X-601573Y-927557D01*
X-602386Y-921918D01*
X-603554Y-916381D01*
X-604977Y-910945D01*
X-606704Y-905662D01*
X-608685Y-900531D01*
X-610971Y-895502D01*
X-613511Y-890676D01*
X-616356Y-885952D01*
X-619404Y-881430D01*
X-622655Y-877112D01*
X-626211Y-872947D01*
X-629920Y-869035D01*
X-633882Y-865276D01*
X-642366Y-858469D01*
X-646887Y-855421D01*
X-651560Y-852627D01*
X-656437Y-850087D01*
X-661416Y-847801D01*
X-666597Y-845769D01*
X-671880Y-844042D01*
X-677265Y-842619D01*
X-682802Y-841502D01*
X-688441Y-840689D01*
X-694182Y-840181D01*
X-700024Y-840028D01*
G37*
G36*
X367893Y-1280007D02*
G01*
X332669Y-1350416D01*
X414223Y-1350416D01*
X414375Y-1345488D01*
X415493Y-1338580D01*
X417474Y-1333093D01*
X420471Y-1328267D01*
X424383Y-1324254D01*
X427278Y-1322070D01*
X432663Y-1319276D01*
X436473Y-1318260D01*
X488645Y-1318158D01*
X489813Y-1318514D01*
X490118Y-1319022D01*
X490118Y-1337106D01*
X489356Y-1337868D01*
X444703Y-1337970D01*
X442772Y-1338427D01*
X441807Y-1338935D01*
X440080Y-1340713D01*
X438810Y-1342491D01*
X437743Y-1344828D01*
X437337Y-1346352D01*
X437489Y-1353210D01*
X437845Y-1355699D01*
X438861Y-1357985D01*
X439623Y-1359052D01*
X441756Y-1360424D01*
X444449Y-1361084D01*
X450799Y-1361338D01*
X470255Y-1361389D01*
X475234Y-1362049D01*
X480364Y-1363370D01*
X482803Y-1364488D01*
X485190Y-1365910D01*
X488645Y-1368755D01*
X490778Y-1371295D01*
X492556Y-1374292D01*
X494080Y-1377594D01*
X495249Y-1381150D01*
X496011Y-1384858D01*
X496671Y-1390497D01*
X496773Y-1397863D01*
X496265Y-1399692D01*
X495300Y-1406245D01*
X493574Y-1411376D01*
X507695Y-1411376D01*
X507695Y-1341526D01*
X508101Y-1336548D01*
X509168Y-1332077D01*
X510997Y-1328013D01*
X513537Y-1324508D01*
X516686Y-1321714D01*
X520395Y-1319733D01*
X524814Y-1318564D01*
X529793Y-1318158D01*
X582269Y-1318260D01*
X582879Y-1318514D01*
X583285Y-1319022D01*
X583336Y-1337106D01*
X582574Y-1337868D01*
X531317Y-1337970D01*
X530199Y-1338326D01*
X529793Y-1339494D01*
X529894Y-1360982D01*
X530656Y-1361744D01*
X578307Y-1361846D01*
X579475Y-1362202D01*
X579780Y-1362710D01*
X579780Y-1381556D01*
X579018Y-1382318D01*
X531317Y-1382420D01*
X530199Y-1382776D01*
X529793Y-1383944D01*
X529894Y-1406702D01*
X530656Y-1407464D01*
X581863Y-1407566D01*
X583031Y-1407922D01*
X583336Y-1408430D01*
X583387Y-1425854D01*
X595833Y-1425854D01*
X595934Y-1337665D01*
X596442Y-1332585D01*
X597458Y-1328267D01*
X599236Y-1324864D01*
X601827Y-1322171D01*
X603402Y-1321054D01*
X605231Y-1320139D01*
X607263Y-1319428D01*
X612292Y-1318463D01*
X618185Y-1318158D01*
X622706Y-1318361D01*
X626516Y-1318920D01*
X629666Y-1319885D01*
X632155Y-1321206D01*
X634187Y-1322882D01*
X635812Y-1324813D01*
X637082Y-1327048D01*
X637997Y-1329588D01*
X658876Y-1405432D01*
X659638Y-1406194D01*
X660552Y-1406194D01*
X661060Y-1405432D01*
X661111Y-1319682D01*
X661517Y-1318514D01*
X662635Y-1318158D01*
X682396Y-1318260D01*
X682853Y-1318514D01*
X683158Y-1319022D01*
X683209Y-1350416D01*
X694893Y-1350416D01*
X695045Y-1345488D01*
X696163Y-1338580D01*
X698144Y-1333093D01*
X701141Y-1328267D01*
X705053Y-1324254D01*
X707948Y-1322070D01*
X711403Y-1320190D01*
X715162Y-1318666D01*
X716991Y-1318260D01*
X769315Y-1318158D01*
X770483Y-1318514D01*
X770788Y-1319022D01*
X770788Y-1337106D01*
X770026Y-1337868D01*
X725373Y-1337970D01*
X723239Y-1338427D01*
X721309Y-1339748D01*
X719785Y-1341628D01*
X718769Y-1343304D01*
X718210Y-1344828D01*
X717753Y-1349400D01*
X718007Y-1354480D01*
X718870Y-1356868D01*
X720293Y-1359052D01*
X722223Y-1360424D01*
X724865Y-1361084D01*
X731469Y-1361338D01*
X750824Y-1361389D01*
X755802Y-1362049D01*
X760933Y-1363370D01*
X763371Y-1364488D01*
X765759Y-1365910D01*
X769315Y-1368755D01*
X771448Y-1371295D01*
X773226Y-1374292D01*
X774649Y-1377594D01*
X775766Y-1381150D01*
X776528Y-1384858D01*
X777189Y-1392275D01*
X777138Y-1398524D01*
X775868Y-1406245D01*
X773887Y-1411986D01*
X771042Y-1416913D01*
X767283Y-1421028D01*
X764336Y-1423263D01*
X760933Y-1425346D01*
X757275Y-1426870D01*
X753821Y-1427378D01*
X697534Y-1427276D01*
X696772Y-1426514D01*
X696671Y-1409090D01*
X697077Y-1407922D01*
X698195Y-1407566D01*
X747471Y-1407566D01*
X748588Y-1407414D01*
X749604Y-1407007D01*
X751281Y-1405280D01*
X752805Y-1403248D01*
X754430Y-1399692D01*
X754786Y-1396593D01*
X754837Y-1393698D01*
X754380Y-1388516D01*
X753211Y-1386128D01*
X751484Y-1384249D01*
X749300Y-1383080D01*
X746556Y-1382318D01*
X743254Y-1381963D01*
X724103Y-1381912D01*
X719277Y-1381607D01*
X711352Y-1379982D01*
X708863Y-1378966D01*
X706526Y-1377696D01*
X704291Y-1376070D01*
X701954Y-1373632D01*
X699973Y-1370990D01*
X698347Y-1367790D01*
X696925Y-1364386D01*
X695401Y-1357528D01*
X694893Y-1350416D01*
X683209Y-1350416D01*
X683158Y-1411376D01*
X682498Y-1414424D01*
X681278Y-1417421D01*
X679653Y-1420215D01*
X677621Y-1422755D01*
X673811Y-1425854D01*
X670915Y-1426972D01*
X667715Y-1427378D01*
X652881Y-1427327D01*
X650951Y-1426819D01*
X647039Y-1424533D01*
X645160Y-1423009D01*
X643534Y-1421231D01*
X641705Y-1418234D01*
X640791Y-1416202D01*
X619963Y-1339697D01*
X619353Y-1339037D01*
X618540Y-1339037D01*
X618032Y-1339697D01*
X617880Y-1426514D01*
X617118Y-1427276D01*
X596696Y-1427276D01*
X595934Y-1426514D01*
X595833Y-1425854D01*
X583387Y-1425854D01*
X583336Y-1426514D01*
X582574Y-1427276D01*
X522935Y-1427378D01*
X520141Y-1426972D01*
X517347Y-1425854D01*
X514756Y-1424330D01*
X512521Y-1422298D01*
X510641Y-1419809D01*
X508965Y-1416964D01*
X508050Y-1414170D01*
X507695Y-1411376D01*
X493574Y-1411376D01*
X490474Y-1416913D01*
X486613Y-1421028D01*
X483768Y-1423263D01*
X480263Y-1425346D01*
X476605Y-1426870D01*
X473151Y-1427378D01*
X417118Y-1427276D01*
X416356Y-1426514D01*
X416255Y-1409090D01*
X416661Y-1407922D01*
X417779Y-1407566D01*
X466801Y-1407566D01*
X467918Y-1407414D01*
X468985Y-1407007D01*
X470865Y-1405280D01*
X472236Y-1403248D01*
X473811Y-1399692D01*
X474167Y-1398168D01*
X474065Y-1391158D01*
X473709Y-1388516D01*
X472693Y-1386128D01*
X471881Y-1384960D01*
X470052Y-1383639D01*
X467563Y-1382674D01*
X464515Y-1382115D01*
X460959Y-1381912D01*
X441248Y-1381810D01*
X436168Y-1381201D01*
X430936Y-1379982D01*
X428396Y-1378966D01*
X425958Y-1377696D01*
X423621Y-1376070D01*
X421284Y-1373632D01*
X419303Y-1370990D01*
X417728Y-1367790D01*
X415442Y-1361033D01*
X414731Y-1357528D01*
X414223Y-1350416D01*
X332669Y-1350416D01*
X321513Y-1372717D01*
X367893Y-1465478D01*
X870000Y-1465478D01*
X823620Y-1372717D01*
X870000Y-1280007D01*
G37*
G36*
X-872134Y-1280007D02*
G01*
X-836021Y-1352194D01*
X-779373Y-1352194D01*
X-779322Y-1346149D01*
X-778154Y-1338580D01*
X-776122Y-1333093D01*
X-773176Y-1328267D01*
X-767892Y-1323136D01*
X-764692Y-1321104D01*
X-760984Y-1319276D01*
X-757174Y-1318260D01*
X-704951Y-1318158D01*
X-703834Y-1318514D01*
X-703427Y-1319682D01*
X-703529Y-1337106D01*
X-704291Y-1337868D01*
X-749909Y-1338072D01*
X-751789Y-1338935D01*
X-753516Y-1340713D01*
X-754786Y-1342491D01*
X-755599Y-1344066D01*
X-756259Y-1346352D01*
X-756208Y-1351940D01*
X-755802Y-1355699D01*
X-754786Y-1357985D01*
X-753973Y-1359052D01*
X-751890Y-1360424D01*
X-749147Y-1361084D01*
X-742797Y-1361338D01*
X-723341Y-1361389D01*
X-718413Y-1362049D01*
X-713282Y-1363370D01*
X-710793Y-1364488D01*
X-708456Y-1365910D01*
X-705002Y-1368755D01*
X-702868Y-1371295D01*
X-701040Y-1374292D01*
X-699516Y-1377594D01*
X-698398Y-1381150D01*
X-697636Y-1384858D01*
X-696874Y-1392275D01*
X-696823Y-1397152D01*
X-698347Y-1406245D01*
X-700073Y-1411376D01*
X-685901Y-1411376D01*
X-685901Y-1341526D01*
X-685546Y-1336548D01*
X-684428Y-1332077D01*
X-682650Y-1328013D01*
X-680059Y-1324508D01*
X-676960Y-1321714D01*
X-673201Y-1319733D01*
X-668832Y-1318564D01*
X-663803Y-1318158D01*
X-611378Y-1318260D01*
X-610717Y-1318514D01*
X-610209Y-1319682D01*
X-610311Y-1337106D01*
X-611073Y-1337868D01*
X-662279Y-1337970D01*
X-663448Y-1338326D01*
X-663803Y-1339494D01*
X-663702Y-1360982D01*
X-663448Y-1361440D01*
X-662279Y-1361846D01*
X-614629Y-1361948D01*
X-614172Y-1362202D01*
X-613765Y-1363370D01*
X-613867Y-1381556D01*
X-614629Y-1382318D01*
X-662279Y-1382420D01*
X-663448Y-1382776D01*
X-663803Y-1383944D01*
X-663702Y-1406702D01*
X-663448Y-1407160D01*
X-662279Y-1407566D01*
X-611073Y-1407668D01*
X-610616Y-1407922D01*
X-610209Y-1409090D01*
X-610209Y-1425854D01*
X-597763Y-1425854D01*
X-597712Y-1337665D01*
X-597204Y-1332585D01*
X-596138Y-1328267D01*
X-595376Y-1326489D01*
X-594360Y-1324864D01*
X-591820Y-1322171D01*
X-588416Y-1320139D01*
X-583946Y-1318869D01*
X-578510Y-1318209D01*
X-570941Y-1318361D01*
X-567080Y-1318920D01*
X-563930Y-1319885D01*
X-561441Y-1321206D01*
X-559460Y-1322882D01*
X-557834Y-1324813D01*
X-556564Y-1327048D01*
X-555599Y-1329588D01*
X-534771Y-1405432D01*
X-534009Y-1406194D01*
X-533044Y-1406194D01*
X-532536Y-1405432D01*
X-532485Y-1319682D01*
X-532130Y-1318514D01*
X-530961Y-1318158D01*
X-511251Y-1318260D01*
X-510793Y-1318514D01*
X-510387Y-1319682D01*
X-510387Y-1352194D01*
X-498703Y-1352194D01*
X-498652Y-1346149D01*
X-497484Y-1338580D01*
X-495452Y-1333093D01*
X-492506Y-1328267D01*
X-487222Y-1323136D01*
X-484022Y-1321104D01*
X-480314Y-1319276D01*
X-476656Y-1318260D01*
X-424281Y-1318158D01*
X-423164Y-1318514D01*
X-422757Y-1319682D01*
X-422859Y-1337106D01*
X-423621Y-1337868D01*
X-469341Y-1338072D01*
X-471373Y-1338935D01*
X-473100Y-1340713D01*
X-474370Y-1342491D01*
X-475183Y-1344066D01*
X-475792Y-1347876D01*
X-475843Y-1350670D01*
X-475589Y-1354480D01*
X-474776Y-1356868D01*
X-473303Y-1359052D01*
X-471424Y-1360424D01*
X-468731Y-1361084D01*
X-462127Y-1361338D01*
X-442772Y-1361389D01*
X-437845Y-1362049D01*
X-432714Y-1363370D01*
X-430276Y-1364488D01*
X-427888Y-1365910D01*
X-424332Y-1368755D01*
X-422198Y-1371295D01*
X-420420Y-1374292D01*
X-418998Y-1377594D01*
X-417423Y-1382979D01*
X-416458Y-1392275D01*
X-416458Y-1398524D01*
X-417728Y-1406245D01*
X-419709Y-1411986D01*
X-422554Y-1416913D01*
X-426313Y-1421028D01*
X-429310Y-1423263D01*
X-432663Y-1425346D01*
X-436372Y-1426870D01*
X-439775Y-1427378D01*
X-496062Y-1427276D01*
X-496570Y-1426972D01*
X-496925Y-1425854D01*
X-496824Y-1408430D01*
X-496570Y-1407922D01*
X-495401Y-1407566D01*
X-446125Y-1407566D01*
X-445058Y-1407414D01*
X-444042Y-1407007D01*
X-442315Y-1405280D01*
X-440791Y-1403248D01*
X-439216Y-1399692D01*
X-438810Y-1396593D01*
X-439013Y-1389786D01*
X-439724Y-1387297D01*
X-441299Y-1384960D01*
X-443128Y-1383639D01*
X-445617Y-1382674D01*
X-448665Y-1382115D01*
X-452221Y-1381912D01*
X-471830Y-1381810D01*
X-476910Y-1381201D01*
X-482244Y-1379982D01*
X-484733Y-1378966D01*
X-487070Y-1377696D01*
X-489305Y-1376070D01*
X-491642Y-1373632D01*
X-493623Y-1370990D01*
X-495300Y-1367790D01*
X-496671Y-1364386D01*
X-497585Y-1361033D01*
X-498703Y-1352194D01*
X-510387Y-1352194D01*
X-510489Y-1411376D01*
X-511098Y-1414424D01*
X-512368Y-1417421D01*
X-513994Y-1420215D01*
X-516026Y-1422755D01*
X-519785Y-1425854D01*
X-522732Y-1426972D01*
X-525881Y-1427378D01*
X-540766Y-1427327D01*
X-542696Y-1426819D01*
X-544677Y-1425803D01*
X-548436Y-1423009D01*
X-550113Y-1421231D01*
X-552399Y-1417218D01*
X-573379Y-1340256D01*
X-573938Y-1339291D01*
X-574649Y-1338986D01*
X-575411Y-1339291D01*
X-575665Y-1340256D01*
X-575767Y-1426514D01*
X-576529Y-1427276D01*
X-596239Y-1427378D01*
X-597408Y-1426972D01*
X-597763Y-1425854D01*
X-610209Y-1425854D01*
X-610311Y-1426514D01*
X-611073Y-1427276D01*
X-670661Y-1427378D01*
X-673455Y-1426972D01*
X-676249Y-1425854D01*
X-678840Y-1424330D01*
X-681075Y-1422298D01*
X-683006Y-1419809D01*
X-684631Y-1416964D01*
X-685596Y-1414170D01*
X-685901Y-1411376D01*
X-700073Y-1411376D01*
X-703173Y-1416913D01*
X-706983Y-1421028D01*
X-709828Y-1423263D01*
X-713333Y-1425346D01*
X-717042Y-1426870D01*
X-720445Y-1427378D01*
X-776478Y-1427276D01*
X-776986Y-1426972D01*
X-777341Y-1425854D01*
X-777240Y-1408430D01*
X-776986Y-1407922D01*
X-775817Y-1407566D01*
X-726795Y-1407566D01*
X-725678Y-1407414D01*
X-724662Y-1407007D01*
X-722731Y-1405280D01*
X-721410Y-1403248D01*
X-719582Y-1398930D01*
X-719480Y-1392428D01*
X-719683Y-1389786D01*
X-720344Y-1387297D01*
X-721715Y-1384960D01*
X-723544Y-1383639D01*
X-726033Y-1382674D01*
X-729081Y-1382115D01*
X-732637Y-1381912D01*
X-752348Y-1381810D01*
X-757428Y-1381201D01*
X-762711Y-1379982D01*
X-767638Y-1377696D01*
X-769975Y-1376070D01*
X-772312Y-1373632D01*
X-774293Y-1370990D01*
X-775868Y-1367790D01*
X-778154Y-1361033D01*
X-778865Y-1357528D01*
X-779373Y-1352194D01*
X-836021Y-1352194D01*
X-825753Y-1372717D01*
X-872134Y-1465478D01*
X-369976Y-1465478D01*
X-323646Y-1372717D01*
X-369976Y-1280007D01*
G37*
G36*
X680923Y743458D02*
G01*
X679602Y743254D01*
X678637Y742696D01*
X677367Y741172D01*
X600913Y601370D01*
X601014Y600659D01*
X601421Y600252D01*
X602945Y599948D01*
X625754Y599998D01*
X626872Y600405D01*
X628294Y601776D01*
X705002Y742035D01*
X704951Y742746D01*
X704037Y743407D01*
G37*
G36*
X782015Y743458D02*
G01*
X781100Y743356D01*
X780491Y742950D01*
X780084Y742340D01*
X780084Y720242D01*
X780491Y719582D01*
X781100Y719226D01*
X782015Y719074D01*
X802335Y719074D01*
X803198Y719226D01*
X803859Y719582D01*
X804214Y720242D01*
X804367Y721106D01*
X804367Y741426D01*
X804214Y742340D01*
X803859Y742950D01*
X803198Y743356D01*
G37*
G36*
X926541Y743458D02*
G01*
X925626Y743356D01*
X925017Y742950D01*
X924610Y742340D01*
X924610Y720242D01*
X925017Y719582D01*
X925626Y719226D01*
X926541Y719074D01*
X947115Y719074D01*
X947978Y719226D01*
X948639Y719582D01*
X948994Y720242D01*
X949147Y721106D01*
X949147Y741426D01*
X948994Y742340D01*
X948639Y742950D01*
X947978Y743356D01*
G37*
G36*
X1087323Y733298D02*
G01*
X1086510Y733196D01*
X1085646Y732180D01*
X1085545Y706120D01*
X1085392Y705256D01*
X1085037Y704596D01*
X1084376Y704240D01*
X1083513Y704088D01*
X1071930Y703986D01*
X1071321Y703630D01*
X1070914Y703072D01*
X1070914Y680872D01*
X1071321Y680212D01*
X1071930Y679856D01*
X1072845Y679704D01*
X1084376Y679602D01*
X1085037Y679196D01*
X1085392Y678586D01*
X1085545Y677672D01*
X1085545Y615442D01*
X1085850Y612394D01*
X1086764Y609549D01*
X1088237Y606907D01*
X1090371Y604520D01*
X1093063Y602538D01*
X1096060Y601116D01*
X1099413Y600252D01*
X1103071Y599948D01*
X1128217Y599948D01*
X1129080Y600100D01*
X1129741Y600456D01*
X1130096Y601116D01*
X1130249Y601980D01*
X1130147Y623112D01*
X1129385Y624128D01*
X1128725Y624332D01*
X1111707Y624332D01*
X1110894Y624484D01*
X1110386Y624840D01*
X1110030Y625500D01*
X1110030Y678586D01*
X1110894Y679602D01*
X1128217Y679704D01*
X1129080Y679856D01*
X1129741Y680212D01*
X1130096Y680872D01*
X1130249Y681736D01*
X1130249Y702310D01*
X1130096Y703072D01*
X1129741Y703630D01*
X1129080Y703986D01*
X1111707Y704088D01*
X1110894Y704240D01*
X1110386Y704596D01*
X1110030Y705256D01*
X1109929Y731266D01*
X1109776Y732180D01*
X1109421Y732790D01*
X1108760Y733196D01*
G37*
G36*
X740105Y704088D02*
G01*
X737362Y703986D01*
X732282Y702970D01*
X727557Y700938D01*
X723239Y698144D01*
X721309Y696468D01*
X718108Y692607D01*
X715721Y688086D01*
X714806Y685647D01*
X713790Y680567D01*
X713790Y601116D01*
X714197Y600456D01*
X714806Y600100D01*
X715721Y599948D01*
X738073Y599948D01*
X738936Y600100D01*
X739597Y600456D01*
X739952Y601116D01*
X740105Y601980D01*
X740206Y672236D01*
X741273Y675081D01*
X743508Y677621D01*
X746302Y679450D01*
X747979Y679704D01*
X767283Y679704D01*
X768146Y679856D01*
X768807Y680212D01*
X769162Y680872D01*
X769315Y681736D01*
X769315Y702310D01*
X769162Y703072D01*
X768807Y703630D01*
X768146Y703986D01*
G37*
G36*
X782015Y704088D02*
G01*
X781100Y703986D01*
X780491Y703630D01*
X780084Y703072D01*
X780084Y601116D01*
X780491Y600456D01*
X781100Y600100D01*
X782015Y599948D01*
X802335Y599948D01*
X803198Y600100D01*
X803859Y600456D01*
X804214Y601116D01*
X804367Y601980D01*
X804367Y702310D01*
X804214Y703072D01*
X803859Y703630D01*
X803198Y703986D01*
G37*
G36*
X823163Y704088D02*
G01*
X822248Y703986D01*
X821639Y703630D01*
X821232Y703072D01*
X821131Y626364D01*
X845515Y626364D01*
X845616Y678586D01*
X846023Y679196D01*
X846632Y679602D01*
X873963Y679704D01*
X876909Y679246D01*
X879805Y677926D01*
X882650Y675690D01*
X885139Y673100D01*
X887221Y670102D01*
X888949Y666750D01*
X890066Y663244D01*
X890473Y659892D01*
X890371Y642874D01*
X889609Y639318D01*
X888136Y635812D01*
X886206Y632663D01*
X883919Y629767D01*
X881278Y627329D01*
X878382Y625500D01*
X876960Y624840D01*
X873963Y624332D01*
X847547Y624332D01*
X846632Y624484D01*
X846023Y624840D01*
X845616Y625500D01*
X845515Y626364D01*
X821131Y626364D01*
X821232Y563524D01*
X821639Y562864D01*
X822248Y562508D01*
X823163Y562356D01*
X843737Y562356D01*
X844499Y562508D01*
X845058Y562864D01*
X845413Y563524D01*
X845616Y598830D01*
X846023Y599440D01*
X846632Y599846D01*
X868629Y599948D01*
X873455Y600151D01*
X878128Y600760D01*
X882599Y601827D01*
X886917Y603250D01*
X890930Y604977D01*
X894638Y607212D01*
X898042Y609803D01*
X901141Y612902D01*
X903884Y616458D01*
X906322Y620471D01*
X908456Y624941D01*
X910285Y629920D01*
X911707Y635254D01*
X912774Y641096D01*
X913384Y647446D01*
X913587Y654304D01*
X913079Y663651D01*
X911555Y672846D01*
X910386Y677164D01*
X908862Y681278D01*
X907084Y685190D01*
X904951Y688848D01*
X902360Y692099D01*
X899363Y695096D01*
X895959Y697687D01*
X892251Y700024D01*
X888085Y701802D01*
X883412Y703072D01*
X878281Y703834D01*
X872693Y704088D01*
G37*
G36*
X926541Y704088D02*
G01*
X925626Y703986D01*
X925017Y703630D01*
X924610Y703072D01*
X924610Y601116D01*
X925017Y600456D01*
X925626Y600100D01*
X926541Y599948D01*
X947115Y599948D01*
X947978Y600100D01*
X948639Y600456D01*
X948994Y601116D01*
X949147Y601980D01*
X949147Y702310D01*
X948994Y703072D01*
X948639Y703630D01*
X947978Y703986D01*
G37*
G36*
X980389Y704088D02*
G01*
X977341Y703834D01*
X974598Y703072D01*
X972159Y701802D01*
X969975Y700024D01*
X968197Y697941D01*
X966927Y695706D01*
X966165Y693369D01*
X965911Y690880D01*
X965962Y606501D01*
X966622Y603707D01*
X967892Y601370D01*
X968806Y600608D01*
X969924Y600100D01*
X971245Y599948D01*
X984707Y599948D01*
X987145Y600354D01*
X988872Y601522D01*
X989939Y603504D01*
X990295Y606298D01*
X990396Y677824D01*
X991260Y679602D01*
X992073Y680466D01*
X994105Y681634D01*
X996137Y681990D01*
X1017676Y681939D01*
X1021486Y681583D01*
X1026820Y680364D01*
X1029665Y678688D01*
X1032154Y676605D01*
X1033983Y673862D01*
X1035100Y670102D01*
X1035507Y665480D01*
X1035608Y601116D01*
X1036015Y600456D01*
X1036624Y600100D01*
X1037539Y599948D01*
X1057605Y599948D01*
X1058570Y600100D01*
X1059281Y600456D01*
X1059738Y601116D01*
X1059891Y601980D01*
X1059891Y669798D01*
X1059688Y673049D01*
X1059180Y676300D01*
X1058316Y679399D01*
X1055674Y685596D01*
X1054049Y688492D01*
X1052118Y691184D01*
X1049985Y693674D01*
X1047496Y695960D01*
X1044803Y697992D01*
X1042009Y699770D01*
X1039063Y701294D01*
X1035812Y702513D01*
X1032510Y703376D01*
X1029106Y703935D01*
X1025601Y704088D01*
G37*
G36*
X1193749Y704088D02*
G01*
X1188770Y703935D01*
X1183843Y703529D01*
X1178864Y702818D01*
X1173937Y701802D01*
X1169111Y700278D01*
X1164539Y698296D01*
X1160221Y695858D01*
X1156157Y692912D01*
X1152398Y689610D01*
X1148943Y685749D01*
X1145895Y681329D01*
X1143203Y676402D01*
X1139948Y665734D01*
X1163269Y665734D01*
X1163421Y667613D01*
X1164031Y669340D01*
X1164945Y671017D01*
X1167790Y674166D01*
X1171498Y676859D01*
X1175969Y678891D01*
X1180693Y680567D01*
X1185418Y681786D01*
X1189888Y682447D01*
X1197965Y682193D01*
X1203198Y681380D01*
X1207719Y679907D01*
X1211529Y677926D01*
X1214628Y675436D01*
X1216863Y672592D01*
X1218184Y669340D01*
X1218641Y665734D01*
X1218488Y664870D01*
X1218133Y664210D01*
X1217472Y663854D01*
X1216609Y663702D01*
X1165301Y663702D01*
X1164386Y663854D01*
X1163777Y664210D01*
X1163370Y664870D01*
X1163269Y665734D01*
X1139948Y665734D01*
X1139545Y664413D01*
X1138377Y649732D01*
X1138529Y643382D01*
X1139139Y637489D01*
X1140104Y632053D01*
X1141425Y627126D01*
X1143050Y622655D01*
X1145235Y618540D01*
X1147876Y614883D01*
X1151077Y611632D01*
X1154785Y608787D01*
X1159052Y606348D01*
X1163929Y604367D01*
X1169365Y602742D01*
X1181912Y600659D01*
X1197305Y599948D01*
X1231341Y599948D01*
X1232103Y600100D01*
X1232662Y600456D01*
X1233017Y601116D01*
X1233017Y623214D01*
X1232662Y623824D01*
X1232103Y624230D01*
X1183589Y624332D01*
X1179576Y624636D01*
X1175715Y625602D01*
X1172159Y626821D01*
X1169111Y628396D01*
X1166622Y630580D01*
X1164793Y632968D01*
X1163624Y635558D01*
X1163269Y638302D01*
X1163370Y639216D01*
X1163777Y639826D01*
X1164386Y640232D01*
X1239215Y640334D01*
X1240078Y640486D01*
X1240739Y640842D01*
X1241094Y641502D01*
X1241247Y642366D01*
X1241247Y663194D01*
X1241044Y667766D01*
X1240536Y672134D01*
X1239672Y676300D01*
X1238453Y680212D01*
X1236980Y683869D01*
X1235100Y687273D01*
X1232763Y690372D01*
X1230071Y693166D01*
X1226972Y695655D01*
X1223467Y697890D01*
X1219606Y699719D01*
X1215339Y701294D01*
X1210564Y702513D01*
X1205331Y703376D01*
X1199743Y703935D01*
G37*
G36*
X1306271Y704088D02*
G01*
X1301191Y703935D01*
X1296162Y703529D01*
X1291183Y702818D01*
X1286205Y701802D01*
X1281379Y700278D01*
X1276807Y698296D01*
X1272489Y695858D01*
X1268425Y692912D01*
X1264666Y689610D01*
X1261313Y685749D01*
X1258316Y681329D01*
X1255725Y676402D01*
X1252470Y665734D01*
X1275537Y665734D01*
X1275740Y667613D01*
X1276299Y669340D01*
X1277213Y671017D01*
X1280210Y674166D01*
X1281988Y675589D01*
X1286205Y677926D01*
X1290675Y679754D01*
X1295603Y681228D01*
X1300226Y682193D01*
X1304493Y682498D01*
X1310386Y682193D01*
X1315618Y681380D01*
X1320139Y679907D01*
X1324051Y677926D01*
X1327048Y675436D01*
X1329182Y672592D01*
X1330452Y669340D01*
X1330909Y665734D01*
X1330807Y664870D01*
X1330452Y664210D01*
X1329893Y663854D01*
X1329131Y663702D01*
X1277569Y663702D01*
X1276654Y663854D01*
X1276045Y664210D01*
X1275638Y664870D01*
X1275537Y665734D01*
X1252470Y665734D01*
X1252067Y664413D01*
X1250899Y649732D01*
X1251051Y643382D01*
X1251610Y637489D01*
X1252474Y632053D01*
X1253693Y627126D01*
X1255420Y622655D01*
X1257655Y618540D01*
X1260398Y614883D01*
X1263599Y611632D01*
X1267307Y608787D01*
X1271524Y606348D01*
X1276299Y604367D01*
X1281633Y602742D01*
X1294384Y600659D01*
X1309827Y599948D01*
X1343609Y599948D01*
X1344472Y600100D01*
X1345133Y600456D01*
X1345488Y601116D01*
X1345641Y601980D01*
X1345641Y622300D01*
X1345488Y623214D01*
X1345133Y623824D01*
X1344472Y624230D01*
X1296111Y624332D01*
X1291894Y624636D01*
X1287983Y625602D01*
X1284478Y626821D01*
X1281633Y628396D01*
X1279144Y630580D01*
X1276502Y634238D01*
X1275638Y636930D01*
X1275638Y639216D01*
X1276045Y639826D01*
X1276654Y640232D01*
X1351737Y640334D01*
X1352499Y640486D01*
X1353058Y640842D01*
X1353413Y641502D01*
X1353515Y663194D01*
X1353362Y667766D01*
X1352854Y672134D01*
X1352092Y676300D01*
X1350975Y680212D01*
X1349400Y683869D01*
X1347419Y687273D01*
X1345031Y690372D01*
X1342339Y693166D01*
X1339240Y695655D01*
X1335735Y697890D01*
X1331823Y699719D01*
X1327607Y701294D01*
X1322933Y702513D01*
X1317802Y703376D01*
X1312265Y703935D01*
G37*
G36*
X1394155Y704088D02*
G01*
X1391513Y703986D01*
X1386433Y702970D01*
X1381658Y700938D01*
X1379474Y699668D01*
X1375613Y696468D01*
X1372412Y692607D01*
X1370025Y688086D01*
X1369009Y685647D01*
X1368298Y683158D01*
X1367891Y680567D01*
X1367739Y677926D01*
X1367840Y601116D01*
X1368247Y600456D01*
X1368856Y600100D01*
X1369771Y599948D01*
X1392123Y599948D01*
X1392986Y600100D01*
X1393647Y600456D01*
X1394002Y601116D01*
X1394155Y601980D01*
X1394206Y671626D01*
X1395171Y674370D01*
X1395933Y675741D01*
X1398320Y678180D01*
X1399743Y679145D01*
X1401419Y679653D01*
X1421333Y679704D01*
X1422196Y679856D01*
X1422857Y680212D01*
X1423212Y680872D01*
X1423365Y681736D01*
X1423365Y702310D01*
X1423212Y703072D01*
X1422857Y703630D01*
X1422196Y703986D01*
G37*
G36*
X780897Y943508D02*
G01*
X779576Y943305D01*
X778611Y942746D01*
X777341Y941222D01*
X700887Y801268D01*
X700989Y800709D01*
X701903Y800049D01*
X725728Y799998D01*
X726897Y800404D01*
X728319Y801776D01*
X805027Y942035D01*
X804926Y942746D01*
X804011Y943406D01*
G37*
G36*
X887069Y943508D02*
G01*
X885596Y943305D01*
X883259Y941222D01*
X807059Y801420D01*
X807161Y800709D01*
X808075Y800049D01*
X831646Y799998D01*
X832815Y800404D01*
X834237Y801776D01*
X910691Y941222D01*
X910945Y942035D01*
X910844Y942746D01*
X909929Y943406D01*
G37*
G36*
X1031849Y943508D02*
G01*
X1030986Y943356D01*
X1030325Y943000D01*
X1029969Y942340D01*
X1029817Y941476D01*
X1029817Y921156D01*
X1029969Y920242D01*
X1030325Y919632D01*
X1030986Y919226D01*
X1053084Y919226D01*
X1053693Y919632D01*
X1054100Y920242D01*
X1054100Y942340D01*
X1053693Y943000D01*
X1053084Y943356D01*
X1052169Y943508D01*
G37*
G36*
X1140815Y943508D02*
G01*
X1139952Y943356D01*
X1139291Y943000D01*
X1138936Y942340D01*
X1138783Y941476D01*
X1138783Y802030D01*
X1138936Y801116D01*
X1139291Y800506D01*
X1139952Y800100D01*
X1162050Y800100D01*
X1162659Y800506D01*
X1163066Y801116D01*
X1163269Y872439D01*
X1164183Y874725D01*
X1165910Y876503D01*
X1168196Y877773D01*
X1170940Y878687D01*
X1173988Y879297D01*
X1180693Y879703D01*
X1187246Y879500D01*
X1191615Y878789D01*
X1195628Y877569D01*
X1199235Y875944D01*
X1202232Y873709D01*
X1204366Y870864D01*
X1205687Y867359D01*
X1206093Y863244D01*
X1206093Y802030D01*
X1206246Y801116D01*
X1206601Y800506D01*
X1207262Y800100D01*
X1229461Y800100D01*
X1230020Y800506D01*
X1230376Y801116D01*
X1230477Y874674D01*
X1230325Y877569D01*
X1229766Y880414D01*
X1228902Y883259D01*
X1227683Y886104D01*
X1224534Y891082D01*
X1220571Y895502D01*
X1215694Y899109D01*
X1210157Y901852D01*
X1204061Y903528D01*
X1201013Y903986D01*
X1197965Y904138D01*
X1163167Y904138D01*
X1163066Y942340D01*
X1162659Y943000D01*
X1162050Y943356D01*
X1161135Y943508D01*
G37*
G36*
X1350873Y943508D02*
G01*
X1350111Y943356D01*
X1349552Y943000D01*
X1349197Y942340D01*
X1349095Y826414D01*
X1373479Y826414D01*
X1373581Y878586D01*
X1373936Y879246D01*
X1374495Y879602D01*
X1375257Y879754D01*
X1400200Y879652D01*
X1408531Y878738D01*
X1410970Y878078D01*
X1413256Y877112D01*
X1415288Y875893D01*
X1417167Y874420D01*
X1418945Y872693D01*
X1420520Y870712D01*
X1421892Y868375D01*
X1423009Y865784D01*
X1423924Y862787D01*
X1424533Y859434D01*
X1424940Y855675D01*
X1424940Y847547D01*
X1424533Y843991D01*
X1423924Y840841D01*
X1423009Y838098D01*
X1421892Y835558D01*
X1420622Y833323D01*
X1419098Y831342D01*
X1417421Y829716D01*
X1415542Y828395D01*
X1413408Y827278D01*
X1411071Y826363D01*
X1405940Y825093D01*
X1400200Y824433D01*
X1374495Y824484D01*
X1373936Y824890D01*
X1373581Y825500D01*
X1373479Y826414D01*
X1349095Y826414D01*
X1349197Y801116D01*
X1349552Y800506D01*
X1350111Y800100D01*
X1413103Y799998D01*
X1417675Y800252D01*
X1421892Y801166D01*
X1425803Y802690D01*
X1429359Y804824D01*
X1432661Y807262D01*
X1435608Y810056D01*
X1438249Y813206D01*
X1442669Y820521D01*
X1444498Y824534D01*
X1445971Y828802D01*
X1448155Y837844D01*
X1448866Y842416D01*
X1449425Y851560D01*
X1449324Y857250D01*
X1448308Y868070D01*
X1447393Y873150D01*
X1446123Y877773D01*
X1444599Y882091D01*
X1442821Y886053D01*
X1440789Y889660D01*
X1438503Y892860D01*
X1435862Y895756D01*
X1432915Y898194D01*
X1429613Y900328D01*
X1426006Y901953D01*
X1422044Y903173D01*
X1417777Y903884D01*
X1413103Y904138D01*
X1374495Y904240D01*
X1373936Y904646D01*
X1373581Y905256D01*
X1373378Y942340D01*
X1372971Y943000D01*
X1372362Y943356D01*
X1371447Y943508D01*
G37*
G36*
X1082649Y933348D02*
G01*
X1081786Y933196D01*
X1081125Y932840D01*
X1080770Y932180D01*
X1080617Y931316D01*
X1080516Y905256D01*
X1080109Y904646D01*
X1079500Y904240D01*
X1067917Y904138D01*
X1066393Y903681D01*
X1066038Y903122D01*
X1065885Y902360D01*
X1065885Y881786D01*
X1066038Y880871D01*
X1066393Y880262D01*
X1067054Y879856D01*
X1078585Y879754D01*
X1079500Y879602D01*
X1080109Y879246D01*
X1080516Y878586D01*
X1080617Y815492D01*
X1080922Y812393D01*
X1081887Y809548D01*
X1083462Y806958D01*
X1085697Y804570D01*
X1088288Y802538D01*
X1091234Y801116D01*
X1094536Y800252D01*
X1098143Y799998D01*
X1124204Y800100D01*
X1124813Y800506D01*
X1125220Y801116D01*
X1125321Y822350D01*
X1124966Y823721D01*
X1123797Y824382D01*
X1106170Y824484D01*
X1105509Y824890D01*
X1105154Y825500D01*
X1105001Y826414D01*
X1105001Y877722D01*
X1105154Y878586D01*
X1105509Y879246D01*
X1106170Y879602D01*
X1107033Y879754D01*
X1124204Y879856D01*
X1124813Y880262D01*
X1125220Y880871D01*
X1125220Y903122D01*
X1124813Y903681D01*
X1123289Y904138D01*
X1106170Y904240D01*
X1105509Y904646D01*
X1105154Y905256D01*
X1105001Y906170D01*
X1104900Y932180D01*
X1104493Y932840D01*
X1103884Y933196D01*
X1102969Y933348D01*
G37*
G36*
X959459Y904138D02*
G01*
X954328Y903884D01*
X949502Y903224D01*
X945032Y902106D01*
X940917Y900582D01*
X937158Y898652D01*
X933754Y896416D01*
X930706Y893927D01*
X927963Y891184D01*
X925626Y888136D01*
X923594Y884885D01*
X921918Y881380D01*
X920597Y877722D01*
X919581Y873861D01*
X918870Y869899D01*
X918464Y865835D01*
X918311Y851560D01*
X944981Y851560D01*
X945235Y861771D01*
X946048Y866343D01*
X947419Y870305D01*
X949299Y873658D01*
X951788Y876300D01*
X954938Y878230D01*
X958799Y879348D01*
X963269Y879754D01*
X989431Y879754D01*
X990346Y879602D01*
X990955Y879246D01*
X991362Y878586D01*
X991362Y825500D01*
X990955Y824890D01*
X990346Y824484D01*
X976477Y824382D01*
X968095Y824788D01*
X964488Y825347D01*
X958342Y827024D01*
X955802Y828090D01*
X953516Y829411D01*
X951585Y830986D01*
X949960Y832815D01*
X948537Y834847D01*
X946505Y839368D01*
X945845Y842010D01*
X945083Y848106D01*
X944981Y851560D01*
X918311Y851560D01*
X918565Y843330D01*
X919276Y837946D01*
X920445Y832916D01*
X922121Y828192D01*
X924204Y823772D01*
X926592Y819708D01*
X929284Y816000D01*
X932281Y812698D01*
X935431Y809701D01*
X938784Y807161D01*
X942289Y805027D01*
X945997Y803300D01*
X949909Y801827D01*
X953820Y800811D01*
X957681Y800201D01*
X961491Y799998D01*
X991463Y799998D01*
X991412Y792988D01*
X990803Y787704D01*
X990041Y785774D01*
X989025Y784148D01*
X987602Y782777D01*
X985570Y782015D01*
X930503Y781964D01*
X929640Y781812D01*
X928979Y781456D01*
X928624Y780796D01*
X928471Y779932D01*
X928471Y761644D01*
X928624Y760730D01*
X928979Y760120D01*
X929640Y759714D01*
X990447Y759612D01*
X993089Y759764D01*
X995680Y760272D01*
X998169Y761136D01*
X1002944Y763727D01*
X1007160Y767029D01*
X1010666Y771194D01*
X1012190Y773430D01*
X1015593Y780491D01*
X1016304Y782828D01*
X1016863Y787298D01*
X1016863Y894486D01*
X1016660Y896823D01*
X1016101Y898855D01*
X1015136Y900531D01*
X1013815Y901852D01*
X1012190Y902817D01*
X1010259Y903528D01*
X1008126Y903986D01*
X1005687Y904138D01*
G37*
G36*
X1031849Y904138D02*
G01*
X1030325Y903681D01*
X1029969Y903122D01*
X1029817Y902360D01*
X1029817Y802030D01*
X1029969Y801116D01*
X1030325Y800506D01*
X1030986Y800100D01*
X1053084Y800100D01*
X1053693Y800506D01*
X1054100Y801116D01*
X1054100Y903122D01*
X1053693Y903681D01*
X1052169Y904138D01*
G37*
G36*
X1246479Y904138D02*
G01*
X1245158Y903681D01*
X1244803Y903122D01*
X1244701Y823366D01*
X1244955Y820267D01*
X1245666Y817422D01*
X1246835Y814832D01*
X1248511Y812444D01*
X1250594Y810209D01*
X1252982Y808228D01*
X1255674Y806399D01*
X1261821Y803402D01*
X1265224Y802182D01*
X1268831Y801217D01*
X1276604Y799795D01*
X1284732Y799033D01*
X1292860Y799033D01*
X1300734Y799795D01*
X1308506Y801217D01*
X1312164Y802182D01*
X1315618Y803402D01*
X1321917Y806399D01*
X1324610Y808228D01*
X1326997Y810209D01*
X1329029Y812444D01*
X1330807Y814832D01*
X1332077Y817422D01*
X1332839Y820267D01*
X1333093Y823366D01*
X1332992Y903122D01*
X1332585Y903681D01*
X1331061Y904138D01*
X1310487Y904138D01*
X1309166Y903681D01*
X1308811Y903122D01*
X1308608Y831087D01*
X1307693Y829462D01*
X1305966Y827836D01*
X1303680Y826414D01*
X1300937Y825296D01*
X1297736Y824382D01*
X1290777Y823366D01*
X1285087Y823518D01*
X1277975Y824788D01*
X1272641Y827074D01*
X1270609Y828700D01*
X1269492Y830275D01*
X1269085Y832002D01*
X1268984Y903122D01*
X1268577Y903681D01*
X1267053Y904138D01*
G37*
G36*
X581050Y553313D02*
G01*
X579628Y553161D01*
X578764Y552805D01*
X577494Y551281D01*
X501091Y411378D01*
X501192Y410768D01*
X501497Y410362D01*
X502818Y410057D01*
X525729Y410108D01*
X526897Y410362D01*
X528218Y411683D01*
X604672Y551281D01*
X604926Y552145D01*
X604824Y552754D01*
X603961Y553262D01*
G37*
G36*
X1201572Y553313D02*
G01*
X1200708Y553161D01*
X1200048Y552805D01*
X1199692Y552145D01*
X1199540Y551281D01*
X1199540Y530961D01*
X1199692Y530047D01*
X1200048Y529437D01*
X1200708Y529031D01*
X1222806Y529031D01*
X1223416Y529437D01*
X1223822Y530047D01*
X1223822Y552145D01*
X1223416Y552805D01*
X1222806Y553161D01*
X1221892Y553313D01*
G37*
G36*
X625754Y543153D02*
G01*
X624890Y543001D01*
X624230Y542645D01*
X623874Y541985D01*
X623722Y541121D01*
X623620Y515315D01*
X623214Y514705D01*
X622604Y514299D01*
X611276Y514197D01*
X610412Y514045D01*
X609752Y513689D01*
X609396Y513029D01*
X609244Y512165D01*
X609244Y491845D01*
X609396Y490931D01*
X609752Y490321D01*
X610412Y489915D01*
X621690Y489813D01*
X622604Y489661D01*
X623214Y489305D01*
X623620Y488645D01*
X623722Y425297D01*
X624078Y422351D01*
X624992Y419557D01*
X626618Y417017D01*
X628802Y414629D01*
X631545Y412648D01*
X634542Y411175D01*
X637895Y410362D01*
X641502Y410057D01*
X667562Y410159D01*
X668172Y410565D01*
X668578Y411175D01*
X668578Y433222D01*
X668274Y433781D01*
X667715Y434238D01*
X666902Y434441D01*
X649274Y434543D01*
X648614Y434949D01*
X648258Y435559D01*
X648106Y436473D01*
X648106Y487781D01*
X648258Y488645D01*
X648614Y489305D01*
X649274Y489661D01*
X650138Y489813D01*
X667562Y489915D01*
X668172Y490321D01*
X668578Y490931D01*
X668578Y513029D01*
X668172Y513689D01*
X667562Y514045D01*
X666648Y514197D01*
X649274Y514299D01*
X648614Y514705D01*
X648258Y515315D01*
X648106Y516229D01*
X648004Y541985D01*
X647598Y542645D01*
X646988Y543001D01*
X646074Y543153D01*
G37*
G36*
X1075588Y543153D02*
G01*
X1074724Y543001D01*
X1074064Y542645D01*
X1073708Y541985D01*
X1073556Y541121D01*
X1073454Y515315D01*
X1073048Y514705D01*
X1072438Y514299D01*
X1061110Y514197D01*
X1060246Y514045D01*
X1059586Y513689D01*
X1059230Y513029D01*
X1059078Y512165D01*
X1059078Y491845D01*
X1059230Y490931D01*
X1059586Y490321D01*
X1060246Y489915D01*
X1071524Y489813D01*
X1072438Y489661D01*
X1073048Y489305D01*
X1073454Y488645D01*
X1073556Y425297D01*
X1073912Y422351D01*
X1074826Y419557D01*
X1076452Y417017D01*
X1078636Y414629D01*
X1081328Y412648D01*
X1084326Y411175D01*
X1087577Y410362D01*
X1091082Y410057D01*
X1117396Y410159D01*
X1118006Y410565D01*
X1118412Y411175D01*
X1118412Y433222D01*
X1118108Y433781D01*
X1117549Y434238D01*
X1116736Y434441D01*
X1099108Y434543D01*
X1098448Y434949D01*
X1098092Y435559D01*
X1097940Y436473D01*
X1097940Y487781D01*
X1098092Y488645D01*
X1098448Y489305D01*
X1099108Y489661D01*
X1099972Y489813D01*
X1117396Y489915D01*
X1118006Y490321D01*
X1118412Y490931D01*
X1118412Y513029D01*
X1118006Y513689D01*
X1117396Y514045D01*
X1116482Y514197D01*
X1099108Y514299D01*
X1098448Y514705D01*
X1098092Y515315D01*
X1097940Y516229D01*
X1097838Y541985D01*
X1097432Y542645D01*
X1096822Y543001D01*
X1095908Y543153D01*
G37*
G36*
X1143406Y543153D02*
G01*
X1142542Y543001D01*
X1141882Y542645D01*
X1141526Y541985D01*
X1141374Y541121D01*
X1141272Y515315D01*
X1140866Y514705D01*
X1140256Y514299D01*
X1128674Y514197D01*
X1127912Y514045D01*
X1127353Y513689D01*
X1126896Y512165D01*
X1126896Y491845D01*
X1127353Y490321D01*
X1127912Y489915D01*
X1139342Y489813D01*
X1140256Y489661D01*
X1140866Y489305D01*
X1141272Y488645D01*
X1141374Y425297D01*
X1141730Y422351D01*
X1142644Y419557D01*
X1144270Y417017D01*
X1146454Y414629D01*
X1149045Y412648D01*
X1151991Y411175D01*
X1155293Y410362D01*
X1158900Y410057D01*
X1185113Y410159D01*
X1185672Y410565D01*
X1185976Y411175D01*
X1186027Y433222D01*
X1185265Y434238D01*
X1184554Y434441D01*
X1166926Y434543D01*
X1166266Y434949D01*
X1165910Y435559D01*
X1165758Y436473D01*
X1165758Y487781D01*
X1165910Y488645D01*
X1166266Y489305D01*
X1166926Y489661D01*
X1167790Y489813D01*
X1185113Y489915D01*
X1185672Y490321D01*
X1185976Y490931D01*
X1186078Y512165D01*
X1185672Y513689D01*
X1185113Y514045D01*
X1184300Y514197D01*
X1166926Y514299D01*
X1166266Y514705D01*
X1165910Y515315D01*
X1165758Y516229D01*
X1165656Y541985D01*
X1165250Y542645D01*
X1164640Y543001D01*
X1163726Y543153D01*
G37*
G36*
X687730Y514197D02*
G01*
X686866Y514045D01*
X686206Y513689D01*
X685850Y513029D01*
X685698Y512165D01*
X685698Y491845D01*
X685850Y490931D01*
X686206Y490321D01*
X686866Y489915D01*
X740308Y489813D01*
X741883Y489661D01*
X743305Y489102D01*
X744575Y488238D01*
X746556Y485597D01*
X747572Y482803D01*
X747674Y481431D01*
X747471Y479806D01*
X746861Y478332D01*
X745845Y476910D01*
X742746Y474472D01*
X740816Y473659D01*
X738682Y473201D01*
X736244Y473049D01*
X702716Y473049D01*
X699922Y472846D01*
X697280Y472135D01*
X694842Y471068D01*
X692556Y469493D01*
X690626Y467766D01*
X687222Y463702D01*
X685698Y461365D01*
X683514Y456133D01*
X681888Y450697D01*
X681126Y445109D01*
X680955Y442061D01*
X703478Y442061D01*
X703986Y444703D01*
X705510Y447141D01*
X706475Y448157D01*
X707542Y448868D01*
X708761Y449275D01*
X710082Y449427D01*
X745642Y449427D01*
X746556Y449275D01*
X747166Y448919D01*
X747572Y448259D01*
X747572Y434543D01*
X747166Y433933D01*
X746556Y433527D01*
X711098Y433425D01*
X709422Y433578D01*
X707948Y434035D01*
X706628Y434848D01*
X705510Y435965D01*
X703986Y438759D01*
X703478Y442061D01*
X680955Y442061D01*
X680923Y438607D01*
X682142Y429869D01*
X683514Y424942D01*
X684428Y422503D01*
X687120Y417728D01*
X690524Y413613D01*
X692505Y412038D01*
X694740Y410921D01*
X697331Y410260D01*
X700176Y410057D01*
X770940Y410159D01*
X771550Y410565D01*
X771956Y411175D01*
X772058Y478129D01*
X771702Y484479D01*
X770534Y490829D01*
X768604Y496925D01*
X767283Y499770D01*
X765708Y502513D01*
X763930Y504951D01*
X761898Y507136D01*
X759612Y509117D01*
X757072Y510895D01*
X754278Y512318D01*
X751179Y513384D01*
X747826Y513994D01*
X744118Y514197D01*
G37*
G36*
X786790Y514197D02*
G01*
X785926Y514045D01*
X785266Y513689D01*
X784910Y513029D01*
X784758Y512165D01*
X784758Y436473D01*
X809142Y436473D01*
X809142Y487781D01*
X809294Y488645D01*
X809650Y489305D01*
X810310Y489661D01*
X811174Y489813D01*
X837590Y489813D01*
X840587Y489305D01*
X843432Y487781D01*
X846328Y485749D01*
X848766Y483209D01*
X850900Y480212D01*
X852576Y476859D01*
X853744Y473354D01*
X854100Y470001D01*
X854049Y452831D01*
X853287Y449427D01*
X851814Y445922D01*
X849884Y442620D01*
X847598Y439674D01*
X844956Y437286D01*
X842060Y435457D01*
X839114Y434543D01*
X810310Y434543D01*
X809650Y434949D01*
X809294Y435559D01*
X809142Y436473D01*
X784758Y436473D01*
X784758Y374497D01*
X784910Y373583D01*
X785266Y372973D01*
X785926Y372567D01*
X808024Y372567D01*
X808634Y372973D01*
X809040Y373583D01*
X809142Y408025D01*
X809294Y408889D01*
X809650Y409549D01*
X810310Y409905D01*
X811174Y410057D01*
X832256Y410057D01*
X837133Y410260D01*
X841806Y410819D01*
X846277Y411784D01*
X850544Y413105D01*
X854506Y414985D01*
X858164Y417220D01*
X861618Y419912D01*
X864768Y423011D01*
X867562Y426516D01*
X870000Y430479D01*
X872134Y434898D01*
X873912Y439775D01*
X875385Y445109D01*
X876401Y450951D01*
X877011Y457301D01*
X877214Y464159D01*
X877112Y468934D01*
X876096Y478231D01*
X875182Y482701D01*
X874014Y487121D01*
X872540Y491286D01*
X870712Y495147D01*
X868578Y498703D01*
X865987Y502056D01*
X862990Y505053D01*
X859637Y507644D01*
X855878Y509879D01*
X851712Y511759D01*
X847090Y513130D01*
X841959Y513943D01*
X836320Y514197D01*
G37*
G36*
X963828Y514197D02*
G01*
X962964Y514045D01*
X962304Y513689D01*
X961948Y513029D01*
X961796Y512165D01*
X961796Y491845D01*
X961948Y490931D01*
X962304Y490321D01*
X962964Y489915D01*
X1016406Y489813D01*
X1017981Y489661D01*
X1019352Y489102D01*
X1020521Y488238D01*
X1022400Y485597D01*
X1023416Y482803D01*
X1023366Y479806D01*
X1022756Y478332D01*
X1021842Y476910D01*
X1020470Y475589D01*
X1018844Y474472D01*
X1016863Y473659D01*
X1014628Y473201D01*
X1012088Y473049D01*
X978814Y473049D01*
X975918Y472846D01*
X973226Y472135D01*
X970838Y471068D01*
X966622Y467766D01*
X964793Y465785D01*
X963218Y463702D01*
X961796Y461365D01*
X959612Y456133D01*
X957986Y450697D01*
X957071Y445109D01*
X956799Y442061D01*
X979576Y442061D01*
X980033Y444703D01*
X981354Y447141D01*
X982319Y448157D01*
X983386Y448868D01*
X984605Y449275D01*
X985926Y449427D01*
X1021486Y449427D01*
X1022400Y449275D01*
X1023010Y448919D01*
X1023416Y448259D01*
X1023416Y434543D01*
X1023010Y433933D01*
X1022400Y433527D01*
X987196Y433425D01*
X985519Y433578D01*
X984046Y434035D01*
X982726Y434848D01*
X981608Y435965D01*
X980084Y438759D01*
X979576Y442061D01*
X956799Y442061D01*
X956767Y438607D01*
X957478Y432409D01*
X958748Y427380D01*
X960526Y422503D01*
X963015Y417728D01*
X966368Y413613D01*
X968451Y412038D01*
X970787Y410921D01*
X973378Y410260D01*
X976274Y410057D01*
X1046937Y410159D01*
X1047496Y410565D01*
X1047800Y411175D01*
X1047902Y478129D01*
X1047546Y484479D01*
X1045616Y493928D01*
X1044600Y496925D01*
X1043330Y499770D01*
X1041806Y502513D01*
X1040028Y504951D01*
X1037996Y507136D01*
X1035710Y509117D01*
X1033170Y510895D01*
X1030376Y512318D01*
X1027277Y513384D01*
X1023924Y513994D01*
X1020216Y514197D01*
G37*
G36*
X1201572Y514197D02*
G01*
X1200708Y514045D01*
X1200048Y513689D01*
X1199692Y513029D01*
X1199540Y512165D01*
X1199540Y412089D01*
X1199692Y411175D01*
X1200048Y410565D01*
X1200708Y410159D01*
X1222806Y410159D01*
X1223416Y410565D01*
X1223822Y411175D01*
X1223822Y513029D01*
X1223416Y513689D01*
X1222806Y514045D01*
X1221892Y514197D01*
G37*
G36*
X1255420Y514197D02*
G01*
X1252423Y513943D01*
X1249680Y513181D01*
X1247190Y511911D01*
X1245006Y510133D01*
X1243126Y508050D01*
X1241806Y505815D01*
X1240993Y503478D01*
X1240688Y500989D01*
X1240790Y416458D01*
X1241552Y413664D01*
X1242974Y411327D01*
X1243888Y410616D01*
X1245006Y410209D01*
X1246276Y410057D01*
X1259484Y410057D01*
X1261973Y410464D01*
X1263700Y411632D01*
X1264767Y413613D01*
X1265072Y416407D01*
X1265072Y487019D01*
X1265580Y488746D01*
X1267104Y490321D01*
X1269034Y491642D01*
X1271168Y492099D01*
X1292606Y492048D01*
X1296568Y491693D01*
X1300124Y490880D01*
X1303274Y489610D01*
X1306017Y487832D01*
X1308201Y485292D01*
X1309014Y483717D01*
X1309979Y480161D01*
X1310284Y475589D01*
X1310284Y412089D01*
X1310436Y411175D01*
X1310792Y410565D01*
X1311452Y410159D01*
X1333652Y410159D01*
X1334363Y410565D01*
X1334820Y411175D01*
X1334922Y479907D01*
X1334770Y483158D01*
X1334262Y486359D01*
X1333398Y489508D01*
X1330756Y495554D01*
X1329080Y498398D01*
X1327200Y501040D01*
X1325016Y503529D01*
X1319885Y507898D01*
X1317091Y509778D01*
X1314094Y511403D01*
X1310894Y512622D01*
X1307592Y513486D01*
X1304188Y514045D01*
X1300632Y514197D01*
G37*
G36*
X1336700Y514197D02*
G01*
X1335786Y513892D01*
X1335430Y512927D01*
X1368552Y415239D01*
X1369212Y414070D01*
X1370990Y412343D01*
X1372768Y411276D01*
X1374546Y410565D01*
X1378813Y410159D01*
X1379118Y409803D01*
X1365148Y372719D01*
X1365250Y371602D01*
X1365758Y371246D01*
X1390040Y371195D01*
X1392072Y371551D01*
X1392732Y372059D01*
X1446682Y511911D01*
X1446580Y513486D01*
X1446276Y513892D01*
X1444904Y514197D01*
X1420012Y514096D01*
X1418844Y513486D01*
X1418488Y512927D01*
X1393088Y446125D01*
X1392580Y444093D01*
X1390040Y439267D01*
X1389278Y438505D01*
X1388516Y438251D01*
X1387602Y438505D01*
X1386738Y439267D01*
X1385214Y441807D01*
X1384198Y444347D01*
X1362354Y512927D01*
X1361541Y513892D01*
X1360068Y514197D01*
G37*
G36*
X890168Y484987D02*
G01*
X889304Y484885D01*
X888644Y484530D01*
X888288Y483971D01*
X888136Y483209D01*
X888136Y461365D01*
X888288Y460451D01*
X888644Y459841D01*
X889304Y459435D01*
X940358Y459435D01*
X940968Y459841D01*
X941374Y460451D01*
X941374Y483819D01*
X940968Y484479D01*
X940358Y484835D01*
X939444Y484987D01*
G37*
D10*
X817966Y-154790D02*
G01*
X812632Y-144376D01*
X802218Y-133962D01*
X792058Y-128882D01*
X771230Y-128882D01*
X760816Y-133962D01*
X750402Y-144376D01*
X745068Y-154790D01*
X739988Y-170538D01*
X739988Y-196446D01*
X745068Y-211940D01*
X750402Y-222354D01*
X760816Y-232768D01*
X771230Y-237848D01*
X792058Y-237848D01*
X802218Y-232768D01*
X812632Y-222354D01*
X817966Y-211940D01*
X852256Y-149710D02*
G01*
X862670Y-144376D01*
X878164Y-128882D01*
X878164Y-237848D01*
X-752020Y-484812D02*
G01*
X-757354Y-474398D01*
X-767768Y-463984D01*
X-777928Y-458904D01*
X-798756Y-458904D01*
X-809170Y-463984D01*
X-819584Y-474398D01*
X-824918Y-484812D01*
X-829998Y-500560D01*
X-829998Y-526468D01*
X-824918Y-541962D01*
X-819584Y-552376D01*
X-809170Y-562790D01*
X-798756Y-567870D01*
X-777928Y-567870D01*
X-767768Y-562790D01*
X-757354Y-552376D01*
X-752020Y-541962D01*
X-712650Y-484812D02*
G01*
X-712650Y-479732D01*
X-707316Y-469318D01*
X-702236Y-463984D01*
X-691822Y-458904D01*
X-670994Y-458904D01*
X-660580Y-463984D01*
X-655500Y-469318D01*
X-650166Y-479732D01*
X-650166Y-490146D01*
X-655500Y-500560D01*
X-665914Y-516054D01*
X-717730Y-567870D01*
X-645086Y-567870D01*
X1401782Y-285168D02*
G01*
X1401782Y-394134D01*
X1401782Y-285168D02*
G01*
X1438104Y-285168D01*
X1453852Y-290248D01*
X1464012Y-300662D01*
X1469346Y-311076D01*
X1474426Y-326824D01*
X1474426Y-352732D01*
X1469346Y-368226D01*
X1464012Y-378640D01*
X1453852Y-389054D01*
X1438104Y-394134D01*
X1401782Y-394134D01*
X1508716Y-305996D02*
G01*
X1519130Y-300662D01*
X1534878Y-285168D01*
X1534878Y-394134D01*
X1401782Y-543204D02*
G01*
X1401782Y-652170D01*
X1401782Y-543204D02*
G01*
X1438104Y-543204D01*
X1453852Y-548284D01*
X1464012Y-558698D01*
X1469346Y-569112D01*
X1474426Y-584860D01*
X1474426Y-610768D01*
X1469346Y-626262D01*
X1464012Y-636676D01*
X1453852Y-647090D01*
X1438104Y-652170D01*
X1401782Y-652170D01*
X1514050Y-569112D02*
G01*
X1514050Y-564032D01*
X1519130Y-553618D01*
X1524464Y-548284D01*
X1534878Y-543204D01*
X1555452Y-543204D01*
X1565866Y-548284D01*
X1571200Y-553618D01*
X1576280Y-564032D01*
X1576280Y-574446D01*
X1571200Y-584860D01*
X1560786Y-600354D01*
X1508716Y-652170D01*
X1581614Y-652170D01*
X-90022Y-924648D02*
G01*
X-90022Y-1033868D01*
X-90022Y-924648D02*
G01*
X-53700Y-924648D01*
X-37952Y-929728D01*
X-27538Y-940142D01*
X-22458Y-950556D01*
X-17378Y-966304D01*
X-17378Y-992212D01*
X-22458Y-1007706D01*
X-27538Y-1018120D01*
X-37952Y-1028534D01*
X-53700Y-1033868D01*
X-90022Y-1033868D01*
X27325Y-924648D02*
G01*
X84475Y-924648D01*
X53487Y-966304D01*
X68981Y-966304D01*
X79395Y-971384D01*
X84475Y-976718D01*
X89809Y-992212D01*
X89809Y-1002626D01*
X84475Y-1018120D01*
X74061Y-1028534D01*
X58567Y-1033868D01*
X43073Y-1033868D01*
X27325Y-1028534D01*
X22245Y-1023454D01*
X16911Y-1013040D01*
X1409989Y-35661D02*
G01*
X1409989Y-144627D01*
X1409989Y-35661D02*
G01*
X1456725Y-35661D01*
X1472219Y-40741D01*
X1477553Y-46075D01*
X1482633Y-56489D01*
X1482633Y-66903D01*
X1477553Y-77317D01*
X1472219Y-82397D01*
X1456725Y-87477D01*
X1409989Y-87477D01*
X1446311Y-87477D02*
G01*
X1482633Y-144627D01*
X1516923Y-56489D02*
G01*
X1527337Y-51155D01*
X1543085Y-35661D01*
X1543085Y-144627D01*
X1409997Y215315D02*
G01*
X1409997Y106349D01*
X1409997Y215315D02*
G01*
X1456733Y215315D01*
X1472227Y210235D01*
X1477561Y204901D01*
X1482641Y194487D01*
X1482641Y184073D01*
X1477561Y173659D01*
X1472227Y168579D01*
X1456733Y163499D01*
X1409997Y163499D01*
X1446319Y163499D02*
G01*
X1482641Y106349D01*
X1522265Y189407D02*
G01*
X1522265Y194487D01*
X1527345Y204901D01*
X1532679Y210235D01*
X1543093Y215315D01*
X1563667Y215315D01*
X1574081Y210235D01*
X1579415Y204901D01*
X1584495Y194487D01*
X1584495Y184073D01*
X1579415Y173659D01*
X1569001Y158165D01*
X1516931Y106349D01*
X1589829Y106349D01*
X-1439997Y-471015D02*
G01*
X-1439997Y-579981D01*
X-1439997Y-471015D02*
G01*
X-1393261Y-471015D01*
X-1377767Y-476095D01*
X-1372433Y-481429D01*
X-1367353Y-491843D01*
X-1367353Y-502257D01*
X-1372433Y-512671D01*
X-1377767Y-517751D01*
X-1393261Y-522831D01*
X-1439997Y-522831D01*
X-1403675Y-522831D02*
G01*
X-1367353Y-579981D01*
X-1322649Y-471015D02*
G01*
X-1265499Y-471015D01*
X-1296487Y-512671D01*
X-1280993Y-512671D01*
X-1270579Y-517751D01*
X-1265499Y-522831D01*
X-1260165Y-538579D01*
X-1260165Y-548993D01*
X-1265499Y-564487D01*
X-1275913Y-574901D01*
X-1291407Y-579981D01*
X-1306901Y-579981D01*
X-1322649Y-574901D01*
X-1327729Y-569821D01*
X-1333063Y-559407D01*
X-79999Y-292572D02*
G01*
X-79999Y-401538D01*
X-79999Y-292572D02*
G01*
X-33263Y-292572D01*
X-17769Y-297652D01*
X-12435Y-302986D01*
X-7355Y-313400D01*
X-7355Y-323814D01*
X-12435Y-334228D01*
X-17769Y-339308D01*
X-33263Y-344388D01*
X-79999Y-344388D01*
X-43677Y-344388D02*
G01*
X-7355Y-401538D01*
X79004Y-292572D02*
G01*
X26934Y-365216D01*
X104912Y-365216D01*
X79004Y-292572D02*
G01*
X79004Y-401538D01*
X-1239987Y1216860D02*
G01*
X-1239987Y1107894D01*
X-1239987Y1216860D02*
G01*
X-1193251Y1216860D01*
X-1177757Y1211780D01*
X-1172423Y1206446D01*
X-1167343Y1196032D01*
X-1167343Y1185618D01*
X-1172423Y1175204D01*
X-1177757Y1170124D01*
X-1193251Y1165044D01*
X-1239987Y1165044D01*
X-1203665Y1165044D02*
G01*
X-1167343Y1107894D01*
X-1070569Y1216860D02*
G01*
X-1122639Y1216860D01*
X-1127719Y1170124D01*
X-1122639Y1175204D01*
X-1106891Y1180538D01*
X-1091397Y1180538D01*
X-1075903Y1175204D01*
X-1065489Y1165044D01*
X-1060155Y1149296D01*
X-1060155Y1138882D01*
X-1065489Y1123388D01*
X-1075903Y1112974D01*
X-1091397Y1107894D01*
X-1106891Y1107894D01*
X-1122639Y1112974D01*
X-1127719Y1118054D01*
X-1133053Y1128468D01*
X657887Y-463793D02*
G01*
X657887Y-572759D01*
X657887Y-463793D02*
G01*
X704623Y-463793D01*
X720117Y-468873D01*
X725451Y-474207D01*
X730531Y-484621D01*
X730531Y-495035D01*
X725451Y-505449D01*
X720117Y-510529D01*
X704623Y-515609D01*
X657887Y-515609D01*
X694209Y-515609D02*
G01*
X730531Y-572759D01*
X827305Y-479287D02*
G01*
X821971Y-468873D01*
X806477Y-463793D01*
X796063Y-463793D01*
X780569Y-468873D01*
X770155Y-484621D01*
X764821Y-510529D01*
X764821Y-536437D01*
X770155Y-557265D01*
X780569Y-567679D01*
X796063Y-572759D01*
X801397Y-572759D01*
X816891Y-567679D01*
X827305Y-557265D01*
X832385Y-541771D01*
X832385Y-536437D01*
X827305Y-520943D01*
X816891Y-510529D01*
X801397Y-505449D01*
X796063Y-505449D01*
X780569Y-510529D01*
X770155Y-520943D01*
X764821Y-536437D01*
X-69999Y45316D02*
G01*
X-69999Y-32661D01*
X-64919Y-48155D01*
X-54505Y-58569D01*
X-38757Y-63649D01*
X-28343Y-63649D01*
X-12849Y-58569D01*
X-2435Y-48155D01*
X2644Y-32661D01*
X2644Y45316D01*
X36934Y24488D02*
G01*
X47348Y29822D01*
X63096Y45316D01*
X63096Y-63649D01*
X-1569996Y576872D02*
G01*
X-1569996Y467906D01*
X-1569996Y576872D02*
G01*
X-1523260Y576872D01*
X-1507766Y571792D01*
X-1502432Y566458D01*
X-1497352Y556044D01*
X-1497352Y545630D01*
X-1502432Y535216D01*
X-1507766Y530136D01*
X-1523260Y525056D01*
X-1569996Y525056D01*
X-1533674Y525056D02*
G01*
X-1497352Y467906D01*
X-1390164Y576872D02*
G01*
X-1442234Y467906D01*
X-1463062Y576872D02*
G01*
X-1390164Y576872D01*
X-529991Y575312D02*
G01*
X-529991Y466346D01*
X-529991Y575312D02*
G01*
X-483255Y575312D01*
X-467761Y570232D01*
X-462427Y564898D01*
X-457347Y554484D01*
X-457347Y544070D01*
X-462427Y533656D01*
X-467761Y528576D01*
X-483255Y523496D01*
X-529991Y523496D01*
X-493669Y523496D02*
G01*
X-457347Y466346D01*
X-396895Y575312D02*
G01*
X-412643Y570232D01*
X-417723Y559818D01*
X-417723Y549404D01*
X-412643Y538990D01*
X-402229Y533656D01*
X-381401Y528576D01*
X-365907Y523496D01*
X-355493Y513082D01*
X-350159Y502668D01*
X-350159Y486920D01*
X-355493Y476506D01*
X-360573Y471426D01*
X-376321Y466346D01*
X-396895Y466346D01*
X-412643Y471426D01*
X-417723Y476506D01*
X-423057Y486920D01*
X-423057Y502668D01*
X-417723Y513082D01*
X-407309Y523496D01*
X-391815Y528576D01*
X-370987Y533656D01*
X-360573Y538990D01*
X-355493Y549404D01*
X-355493Y559818D01*
X-360573Y570232D01*
X-376321Y575312D01*
X-396895Y575312D01*
X-910125Y1473172D02*
G01*
X-910125Y1364206D01*
X-910125Y1473172D02*
G01*
X-873549Y1473172D01*
X-858055Y1468092D01*
X-847641Y1457678D01*
X-842561Y1447264D01*
X-837227Y1431770D01*
X-837227Y1405608D01*
X-842561Y1390114D01*
X-847641Y1379700D01*
X-858055Y1369286D01*
X-873549Y1364206D01*
X-910125Y1364206D01*
X-751121Y1473172D02*
G01*
X-802937Y1400528D01*
X-724959Y1400528D01*
X-751121Y1473172D02*
G01*
X-751121Y1364206D01*
G36*
X971296Y-398729D02*
G01*
X971296Y-430733D01*
X1001776Y-430733D01*
X1001776Y-398729D01*
G37*
G36*
X971296Y-230225D02*
G01*
X971296Y-262229D01*
X1001776Y-262229D01*
X1001776Y-230225D01*
G37*
G36*
X1261770Y-498297D02*
G01*
X1261770Y-530301D01*
X1292250Y-530301D01*
X1292250Y-498297D01*
G37*
G36*
X1261770Y-666750D02*
G01*
X1261770Y-698754D01*
X1292250Y-698754D01*
X1292250Y-666750D01*
G37*
G36*
X10007Y-759968D02*
G01*
X-19964Y-799998D01*
X10007Y-839978D01*
G37*
G36*
X-820013Y1119987D02*
G01*
X-859993Y1090015D01*
X-779983Y1089964D01*
G37*
X718289Y22379D02*
G01*
X718289Y-106113D01*
X901707Y-106113D01*
X901707Y22379D01*
X718289Y117619D02*
G01*
X718289Y246113D01*
X901707Y246113D01*
X901707Y117619D01*
X-497619Y-428289D02*
G01*
X-626112Y-428289D01*
X-626112Y-611708D01*
X-497619Y-611708D01*
X-402379Y-428289D02*
G01*
X-273885Y-428289D01*
X-273885Y-611708D01*
X-402379Y-611708D01*
X994163Y-423105D02*
G01*
X1269408Y-423105D01*
X994163Y-237858D02*
G01*
X1269408Y-237858D01*
X1269408Y-237858D02*
G01*
X1269408Y-257162D01*
X1269408Y-423105D02*
G01*
X1269408Y-403801D01*
X1040107Y-242859D02*
G01*
X1040107Y-418104D01*
X1269408Y-505896D02*
G01*
X994163Y-505896D01*
X1269408Y-691144D02*
G01*
X994163Y-691144D01*
X994163Y-691144D02*
G01*
X994163Y-671840D01*
X994163Y-505896D02*
G01*
X994163Y-525200D01*
X1223464Y-686142D02*
G01*
X1223464Y-510898D01*
D11*
X-39999Y-899998D02*
G01*
X-199999Y-899998D01*
X-199999Y-699998D01*
X-39999Y-699998D01*
X39999Y-699998D02*
G01*
X199999Y-699998D01*
X199999Y-899998D01*
X39999Y-899998D01*
X-199999Y-899998D02*
G01*
X-199999Y-899998D01*
X-229999Y-869998D01*
X-229999Y-729998D01*
X-229999Y-729998D01*
X-199999Y-699998D01*
D10*
X1247617Y-172684D02*
G01*
X1376111Y-172684D01*
X1376111Y10734D01*
X1247617Y10734D01*
X1152377Y-172684D02*
G01*
X1023884Y-172684D01*
X1023884Y10734D01*
X1152377Y10734D01*
X1247617Y78290D02*
G01*
X1376111Y78290D01*
X1376111Y261708D01*
X1247617Y261708D01*
X1152377Y78290D02*
G01*
X1023884Y78290D01*
X1023884Y261708D01*
X1152377Y261708D01*
X-1012377Y-611708D02*
G01*
X-883884Y-611708D01*
X-883884Y-428289D01*
X-1012377Y-428289D01*
X-1107617Y-611708D02*
G01*
X-1236111Y-611708D01*
X-1236111Y-428289D01*
X-1107617Y-428289D01*
X47619Y-611708D02*
G01*
X176113Y-611708D01*
X176113Y-428289D01*
X47619Y-428289D01*
X-47619Y-611708D02*
G01*
X-176113Y-611708D01*
X-176113Y-428289D01*
X-47619Y-428289D01*
X-1112377Y898288D02*
G01*
X-983884Y898288D01*
X-983884Y1081707D01*
X-1112377Y1081707D01*
X-1207617Y898288D02*
G01*
X-1336111Y898288D01*
X-1336111Y1081707D01*
X-1207617Y1081707D01*
X402379Y-428289D02*
G01*
X273885Y-428289D01*
X273885Y-611708D01*
X402379Y-611708D01*
X497619Y-428289D02*
G01*
X626112Y-428289D01*
X626112Y-611708D01*
X497619Y-611708D01*
D12*
X285597Y-1665297D02*
G01*
X285597Y-1075408D01*
X-294259Y-1075408D01*
X-294259Y-1665297D01*
X285597Y-1665297D01*
D10*
X217639Y-263870D02*
G01*
X-217639Y-263870D01*
X-217639Y263870D01*
X217639Y263870D01*
X217639Y-263870D01*
D12*
X440001Y1614998D02*
G01*
X-449996Y1614998D01*
X-338109Y834999D02*
G01*
X-619998Y834999D01*
X-619998Y1234998D01*
X-88110Y834999D02*
G01*
X-161879Y834999D01*
X161889Y834999D02*
G01*
X88120Y834999D01*
X340001Y834999D02*
G01*
X338117Y834999D01*
X340001Y834999D02*
G01*
X630003Y834999D01*
X630003Y1234998D01*
D13*
X-962997Y381000D02*
G01*
X-1470997Y381000D01*
X-1470997Y-381000D01*
X-962997Y-381000D01*
X-962997Y381000D01*
X-962997Y-105841D01*
D10*
X-1237617Y621708D02*
G01*
X-1366111Y621708D01*
X-1366111Y438289D01*
X-1237617Y438289D01*
X-1142377Y621708D02*
G01*
X-1013884Y621708D01*
X-1013884Y438289D01*
X-1142377Y438289D01*
X-682378Y438289D02*
G01*
X-553885Y438289D01*
X-553885Y621708D01*
X-682378Y621708D01*
X-777618Y438289D02*
G01*
X-906111Y438289D01*
X-906111Y621708D01*
X-777618Y621708D01*
D11*
X-919998Y1139997D02*
G01*
X-919998Y1299997D01*
X-719998Y1299997D01*
X-719998Y1139997D01*
X-719998Y1059997D02*
G01*
X-719998Y899998D01*
X-919998Y899998D01*
X-919998Y1059997D01*
X-919998Y1299997D02*
G01*
X-919998Y1299997D01*
X-889998Y1329997D01*
X-749998Y1329997D01*
X-749998Y1329997D01*
X-719998Y1299997D01*
D14*
G75*
G01
X1799996Y0D02*
G03X1799996Y0I-1799996J0D01*
D12*
G75*
G01
X74905Y-1370000D02*
G03X74905Y-1370000I-74930J0D01*
G75*
G01
X174981Y-1370000D02*
G03X174981Y-1370000I-175006J0D01*
D15*
G75*
G01
X157404Y-190500D02*
G03X157404Y-190500I-15011J0D01*
G75*
G01
X368021Y-267233D02*
G03X368021Y-267233I-15011J0D01*
D12*
G75*
G01
X439979Y624992D02*
G03X439979Y624992I-19990J0D01*
M02*
